<svg id="Layer_1" data-name="Layer 1" xmlns="http://www.w3.org/2000/svg" viewBox="0 0 260 260"><defs><style>.cls-1{fill:#fff;}.cls-2{fill:#17479b;}.cls-3{fill:#ff5a65;}</style></defs><title>icon-web</title><circle class="cls-1" cx="130" cy="130" r="120.95"/><path class="cls-2" d="M130,253A123,123,0,1,1,253,130,123.08,123.08,0,0,1,130,253Zm0-241.9A119,119,0,1,0,249,130,119.08,119.08,0,0,0,130,11.05Z"/><circle class="cls-1" cx="130" cy="130" r="109.15"/><path class="cls-2" d="M130,239.65A109.65,109.65,0,1,1,239.65,130,109.78,109.78,0,0,1,130,239.65Zm0-218.3A108.65,108.65,0,1,0,238.65,130,108.77,108.77,0,0,0,130,21.35Z"/><path class="cls-1" d="M146.68,144.77s6.11,9.13-4.93,21.18a18.21,18.21,0,0,1-14.51,5.76c-7.94-.74-12.66-3.44-13.38-4.71C112.73,165,131.86,144.89,146.68,144.77Z"/><path class="cls-2" d="M128.51,173.26q-.73,0-1.41-.06c-7.58-.71-13.35-3.33-14.55-5.46a3,3,0,0,1,.43-2.92c3.08-5.32,19.94-21.44,33.68-21.55h.81l.45.67c.28.41,6.64,10.26-5.07,23A19.82,19.82,0,0,1,128.51,173.26Zm-13.07-6.72c1.08.91,5,3,11.94,3.67a16.68,16.68,0,0,0,13.26-5.27c8.48-9.25,6.21-16.42,5.17-18.64C132.92,147.11,117.14,162.93,115.44,166.54Z"/><path class="cls-1" d="M149.91,137S156,146.15,145,158.2c-4.84,5.29-11.09,5.94-14.23,6-7.46.22-12.93-3.71-13.65-5C116,157.24,135.08,137.14,149.91,137Z"/><path class="cls-2" d="M130.13,165.74c-7.8,0-13.4-4.07-14.35-5.75a3,3,0,0,1,.43-2.91c3.08-5.33,19.93-21.45,33.68-21.56h.81l.45.67c.28.41,6.64,10.26-5.07,23-3.8,4.14-8.94,6.34-15.29,6.52Zm-11.47-6.93a17.94,17.94,0,0,0,12,3.92c5.51-.16,9.94-2,13.17-5.54,8.48-9.25,6.21-16.42,5.16-18.64C136.12,139.36,120.31,155.24,118.66,158.81Z"/><path class="cls-1" d="M154.79,125.85S160.46,138,149.86,147c-5.45,4.65-8.46,6.26-13.23,7.76-8.22,2.57-14,1.56-14.77.29C120.73,153.08,140,126,154.79,125.85Z"/><path class="cls-2" d="M127,157.91c-3.26,0-5.7-.7-6.47-2.08-.46-.81-.41-1.88,1.25-4.75,4.11-7.1,19.56-26.61,33-26.73h1l.4.88c.07.13,6,13.29-5.31,23-5.31,4.53-8.53,6.41-13.77,8A34.91,34.91,0,0,1,127,157.91Zm-3.72-3Zm.14-.48c1.49.58,6.24,1,12.73-1.07,4.32-1.35,7.18-2.75,12.71-7.47a16.44,16.44,0,0,0,4.91-18.48C141.16,128.62,125.13,150,123.45,154.43Z"/><path class="cls-2" d="M56.54,208.34l-33-53.28,17.61-10.91,33,53.28ZM27.65,156l29.86,48.18L70,196.46,40.15,148.28Z"/><rect class="cls-1" x="112.65" y="64.4" width="104.06" height="65.79" rx="7.89"/><path class="cls-2" d="M208.82,131.69H120.53a9.4,9.4,0,0,1-9.38-9.39v-50a9.4,9.4,0,0,1,9.38-9.39h88.29a9.4,9.4,0,0,1,9.39,9.39v50A9.4,9.4,0,0,1,208.82,131.69ZM120.53,65.9a6.39,6.39,0,0,0-6.38,6.39v50a6.39,6.39,0,0,0,6.38,6.39h88.29a6.4,6.4,0,0,0,6.39-6.39v-50a6.4,6.4,0,0,0-6.39-6.39Z"/><rect class="cls-2" x="112.65" y="78.3" width="104.06" height="14"/><path class="cls-1" d="M89.46,128.85s24.36-2.36,30-5.44,22.47-18.65,34.68-20.23c9.34-1.2,12.33,2.61,12.7,7.57,1.05,14.09-19.84,20.1-29.7,26.67S120.31,166.35,106,176.64s-22.43,13.14-37.15,13.57l-23.71-38S85.45,97.05,90.74,94.77s21.61-5,21.61-5l.41,35.74S108,126.59,89.46,128.85Z"/><path class="cls-2" d="M68.06,191.74l-24.71-39.6.6-.82c6.76-9.26,40.8-55.6,46.19-57.93s21.29-5,22-5.13l1.73-.29.4,35.64a21.48,21.48,0,0,0,4.52-1.51,75.64,75.64,0,0,0,6.86-4.84c8.09-6.07,19.17-14.38,28.35-15.57,5-.64,8.71,0,11.15,2a9.36,9.36,0,0,1,3.23,6.91c.87,11.65-11.71,18.11-21.82,23.29a93.61,93.61,0,0,0-8.54,4.74c-4.27,2.85-8.19,9.21-12.35,16-5,8.2-10.78,17.5-18.73,23.22-14.32,10.31-22.83,13.42-38,13.86ZM47,152.27l22.72,36.41c14.06-.51,21.83-3.45,35.46-13.26,7.46-5.37,13-14.4,17.93-22.37,4.33-7,8.42-13.67,13.24-16.88a93.65,93.65,0,0,1,8.83-4.91c9.81-5,20.92-10.73,20.2-20.4a6.45,6.45,0,0,0-2.13-4.81c-1.78-1.45-4.76-1.91-8.87-1.38-8.4,1.08-19.56,9.45-26.94,15a76,76,0,0,1-7.22,5.07,26.45,26.45,0,0,1-5.92,1.94h0l-1.17.28-1.07.21c-9.14,1.88-21.7,3.11-22.43,3.18l-.32-3c13.44-1.64,19.63-2.67,22-3.1l-.37-32.74c-4.31.77-15.47,2.87-19.54,4.62C87.76,97.73,62.49,131.06,47,152.27Z"/><path class="cls-1" d="M112.74,124.21a4.37,4.37,0,0,1-.09-.81V71.19"/><path class="cls-2" d="M111.26,124.43l0-.21a4,4,0,0,1-.08-.82V71.19h3V123.4a1.32,1.32,0,0,0,0,.3l0,.29Z"/><circle class="cls-3" cx="195.64" cy="116.06" r="7.84"/><circle class="cls-3" cx="185.07" cy="116.06" r="7.84"/></svg>