<svg xmlns="http://www.w3.org/2000/svg" xmlns:xlink="http://www.w3.org/1999/xlink" viewBox="0 0 260 260"><defs><style>.cls-1,.cls-21,.cls-22,.cls-23{fill:none;}.cls-2{isolation:isolate;}.cls-3{clip-path:url(#clip-path);}.cls-4{opacity:0.8;}.cls-5{clip-path:url(#clip-path-2);}.cls-6{mask:url(#mask);}.cls-7{mix-blend-mode:lighten;}.cls-8{clip-path:url(#clip-path-3);}.cls-9{mix-blend-mode:color-dodge;}.cls-10{fill:url(#Безымянный_градиент_13);}.cls-11{fill:url(#Безымянный_градиент_13-2);}.cls-12{fill:url(#Безымянный_градиент_13-3);}.cls-13{fill:url(#Безымянный_градиент_13-4);}.cls-14{fill:url(#Безымянный_градиент_13-5);}.cls-15{fill:url(#Безымянный_градиент_13-6);}.cls-16,.cls-17,.cls-18{fill:#fff;stroke:#17479b;}.cls-16,.cls-17,.cls-18,.cls-19,.cls-21,.cls-22,.cls-23{stroke-miterlimit:10;}.cls-16{stroke-width:4px;}.cls-18,.cls-19,.cls-21,.cls-22,.cls-23{stroke-width:3px;}.cls-19{fill:#e4e4e4;stroke:#cacaca;}.cls-20{fill:#ff5a65;}.cls-21,.cls-22,.cls-23{stroke:#b1b1b1;stroke-linecap:round;}.cls-22{stroke-dasharray:11.3 4.71;}.cls-23{stroke-dasharray:12.83 5.34;}.cls-24{fill:#3fa7f3;}.cls-25{fill:#00b888;}.cls-26{filter:url(#luminosity-noclip);}</style><clipPath id="clip-path"><rect class="cls-1" x="-361.68" y="868.85" width="1920" height="1190"/></clipPath><clipPath id="clip-path-2"><rect class="cls-1" x="-355.16" y="511.37" width="1219.8" height="1594.79"/></clipPath><filter id="luminosity-noclip" x="-363.51" y="216.07" width="1236.51" height="1721.32" filterUnits="userSpaceOnUse" color-interpolation-filters="sRGB"><feFlood flood-color="#fff" result="bg"/><feBlend in="SourceGraphic" in2="bg"/></filter><mask id="mask" x="-363.51" y="216.07" width="1236.51" height="1721.32" maskUnits="userSpaceOnUse"><g class="cls-26"/></mask><clipPath id="clip-path-3"><rect class="cls-1" x="-555.36" y="503.13" width="1615.54" height="1226.26" transform="translate(1368.66 863.85) rotate(90)"/></clipPath><linearGradient id="Безымянный_градиент_13" x1="-2429.54" y1="2487.23" x2="-707.71" y2="3697.34" gradientTransform="translate(2919.6 2376.45) rotate(90)" gradientUnits="userSpaceOnUse"><stop offset="0.2" stop-color="#0d0e56"/><stop offset="0.28" stop-color="#12135a"/><stop offset="0.39" stop-color="#212264"/><stop offset="0.5" stop-color="#3a3a75"/><stop offset="0.62" stop-color="#5c5d8d"/><stop offset="0.74" stop-color="#8889ac"/><stop offset="0.87" stop-color="#bebed2"/><stop offset="1" stop-color="#fdfdfd"/><stop offset="1" stop-color="#fff"/></linearGradient><linearGradient id="Безымянный_градиент_13-2" x1="-2416.45" y1="2464.49" x2="-695.26" y2="3674.15" xlink:href="#Безымянный_градиент_13"/><linearGradient id="Безымянный_градиент_13-3" x1="-2404.69" y1="2435.35" x2="-667.43" y2="3656.3" xlink:href="#Безымянный_градиент_13"/><linearGradient id="Безымянный_градиент_13-4" x1="-2368.79" y1="2386.68" x2="-649.22" y2="3595.2" xlink:href="#Безымянный_градиент_13"/><linearGradient id="Безымянный_градиент_13-5" x1="-2357.91" y1="2373.66" x2="-646.12" y2="3576.71" xlink:href="#Безымянный_градиент_13"/><linearGradient id="Безымянный_градиент_13-6" x1="-2385.31" y1="2385.83" x2="-678.68" y2="3585.26" xlink:href="#Безымянный_градиент_13"/></defs><title>icon-web-</title><g class="cls-2"><g id="layout"><g class="cls-3"><g class="cls-4"><g class="cls-5"><g class="cls-6"><g class="cls-7"><g class="cls-8"><g class="cls-9"><polygon class="cls-10" points="-135.34 255.98 -131.87 252.94 98.33 455.12 98.33 904.46 58.69 939.27 58.69 977.3 47.89 986.79 44.42 983.74 53.78 975.52 53.78 937.49 93.42 902.67 93.42 456.9 -135.34 255.98"/><polygon class="cls-11" points="-103.17 259.55 -99.7 256.5 118.53 448.18 118.53 915.37 84.98 944.83 84.98 981.45 80.08 981.45 80.08 943.05 113.62 913.59 113.62 449.96 -103.17 259.55"/><polygon class="cls-12" points="-80.26 252.06 -76.79 249.02 138.36 437.99 138.36 986.85 87.5 1031.52 68.92 1031.52 62.84 1036.86 62.84 1055.07 57.94 1055.07 57.94 1035.08 66.89 1027.21 85.47 1027.21 133.46 985.07 133.46 439.77 -80.26 252.06"/><polygon class="cls-13" points="-27.74 259.55 -24.27 256.5 172.62 429.43 172.62 936.68 195.95 957.17 195.95 1032.99 178.21 1048.58 174.74 1045.53 191.05 1031.2 191.05 958.96 167.71 938.46 167.71 431.22 -27.74 259.55"/><polygon class="cls-14" points="-28.29 219.11 -24.82 216.07 196.74 410.67 196.74 919.27 246.95 963.36 246.95 1040.9 237.11 1049.54 237.11 1074.45 227.6 1082.81 224.13 1079.76 232.21 1072.67 232.21 1047.75 242.04 1039.11 242.04 965.15 191.84 921.05 191.84 412.45 -28.29 219.11"/><polygon class="cls-15" points="170.16 231.22 173.63 228.18 283.34 324.54 283.34 427.04 259.88 447.64 259.88 573.66 296.59 605.9 293.13 608.95 254.98 575.44 254.98 445.86 278.44 425.25 278.44 326.33 170.16 231.22"/></g></g></g></g></g></g></g></g><g id="icon"><circle class="cls-16" cx="130" cy="130" r="120.95"/><circle class="cls-17" cx="130" cy="130" r="109.15"/><rect class="cls-18" x="67.9" y="108.25" width="124.2" height="90.49" rx="6.33"/><rect class="cls-18" x="112.14" y="61.25" width="55.42" height="70.01" rx="1.78"/><rect class="cls-18" x="103.74" y="71.51" width="55.42" height="70.01" rx="1.78"/><path class="cls-19" d="M145.52,151.8H117.39a5.18,5.18,0,0,0-5.18-5.18V87a5.18,5.18,0,0,0,5.18-5.18h28.13A5.18,5.18,0,0,0,150.7,87v59.65A5.18,5.18,0,0,0,145.52,151.8Z"/><circle class="cls-20" cx="131" cy="118.39" r="12.47"/><rect class="cls-18" x="67.9" y="118" width="124.2" height="80.75" rx="6.33"/><polyline class="cls-21" points="81.9 190.75 75.9 190.75 75.9 184.75"/><line class="cls-22" x1="75.9" y1="180.04" x2="75.9" y2="134.35"/><polyline class="cls-21" points="75.9 132 75.9 126 81.9 126"/><line class="cls-23" x1="87.24" y1="126" x2="175.43" y2="126"/><polyline class="cls-21" points="178.1 126 184.1 126 184.1 132"/><line class="cls-22" x1="184.1" y1="136.71" x2="184.1" y2="182.39"/><polyline class="cls-21" points="184.1 184.75 184.1 190.75 178.1 190.75"/><line class="cls-23" x1="172.76" y1="190.75" x2="84.57" y2="190.75"/><path class="cls-18" d="M181.4,148h18.69a0,0,0,0,1,0,0v23.38a0,0,0,0,1,0,0H181.4a11.69,11.69,0,0,1-11.69-11.69v0A11.69,11.69,0,0,1,181.4,148Z"/><circle class="cls-24" cx="184.52" cy="159.73" r="4.02"/><circle class="cls-25" cx="131" cy="94.47" r="5.54"/></g></g></svg>