<svg id="Layer_1" data-name="Layer 1" xmlns="http://www.w3.org/2000/svg" viewBox="0 0 260 260"><defs><style>.cls-1,.cls-2,.cls-8{fill:#fff;}.cls-1,.cls-2,.cls-3,.cls-4,.cls-5,.cls-7{stroke:#17479b;stroke-miterlimit:10;}.cls-1,.cls-3{stroke-width:4px;}.cls-3{fill:#e4e4e4;}.cls-3,.cls-4,.cls-5{stroke-linecap:round;}.cls-4,.cls-5,.cls-7{fill:none;}.cls-4{stroke-width:5.61px;}.cls-5,.cls-7{stroke-width:3px;}.cls-6{fill:#17479b;}</style></defs><title>icon-web-01-01</title><circle class="cls-1" cx="130" cy="130" r="120.95"/><circle class="cls-2" cx="130" cy="130" r="109.15"/><path class="cls-3" d="M178.48,53,129.27,88.46a.87.87,0,0,0,.51,1.58h98.41a.87.87,0,0,0,.51-1.58L179.49,53A.86.86,0,0,0,178.48,53Z"/><line class="cls-4" x1="140.49" y1="96.66" x2="140.49" y2="135.24"/><line class="cls-4" x1="217.28" y1="96.66" x2="217.28" y2="135.24"/><rect class="cls-5" x="129.6" y="141.86" width="99.07" height="7.94" rx="2.85"/><path class="cls-6" d="M157.81,117.27v-3.58h38v3.58Zm6.47,18.1V96.66h6.78v17h2.3l18.24-17h7.74l-20.09,18.06,20.91,20.65h-8l-17.78-18.1h-3.35v18.1Z"/><path class="cls-7" d="M66.93,148.73s25.79-11,46.46-2.35,21.71,8.85,47.65,12c16.24,1.9,13.07,12.44,12,14.34s-3.37,4.64-10.75,4.64-28.47-4.64-35,0c0,0,10.33,5.9,27.41,5.27s21-4.71,28.82-10,13.79-6.42,16.84-2.73a10.17,10.17,0,0,1,1,11.87c-2.08,3.85-14.11,17.64-24.05,21.49s-26,5.61-31.91,6.89a49.67,49.67,0,0,1-21.81,0c-8.34-1.92-44.31-24.37-56.63-22.61Z"/><rect class="cls-6" x="43.41" y="140.82" width="18.54" height="55.3"/><circle class="cls-8" cx="52.68" cy="187.8" r="3.84"/></svg>