<svg xmlns="http://www.w3.org/2000/svg" xmlns:xlink="http://www.w3.org/1999/xlink" viewBox="0 0 260 260"><defs><style>.cls-1,.cls-22{fill:none;}.cls-2{isolation:isolate;}.cls-3{clip-path:url(#clip-path);}.cls-4{opacity:0.8;}.cls-5{clip-path:url(#clip-path-2);}.cls-6{mask:url(#mask);}.cls-7{mix-blend-mode:lighten;}.cls-8{clip-path:url(#clip-path-3);}.cls-9{mix-blend-mode:color-dodge;}.cls-10{fill:url(#Безымянный_градиент_13);}.cls-11{fill:url(#Безымянный_градиент_13-2);}.cls-12{fill:url(#Безымянный_градиент_13-3);}.cls-13{fill:url(#Безымянный_градиент_13-4);}.cls-14{fill:url(#Безымянный_градиент_13-5);}.cls-15{fill:url(#Безымянный_градиент_13-6);}.cls-16{fill:url(#Безымянный_градиент_13-7);}.cls-17{fill:url(#Безымянный_градиент_13-8);}.cls-18{fill:url(#Безымянный_градиент_13-9);}.cls-19{fill:url(#Безымянный_градиент_13-10);}.cls-20,.cls-21{fill:#fff;}.cls-20,.cls-21,.cls-22{stroke:#17479b;stroke-miterlimit:10;}.cls-20{stroke-width:4px;}.cls-22{stroke-linecap:round;stroke-width:2.9px;}.cls-23{fill:#17479b;}.cls-24{filter:url(#luminosity-noclip);}</style><clipPath id="clip-path"><rect class="cls-1" x="-831.38" y="868.85" width="1920" height="1190"/></clipPath><clipPath id="clip-path-2"><rect class="cls-1" x="-824.86" y="511.37" width="1219.8" height="1594.79"/></clipPath><filter id="luminosity-noclip" x="-833.22" y="178.19" width="1272.03" height="1759.2" filterUnits="userSpaceOnUse" color-interpolation-filters="sRGB"><feFlood flood-color="#fff" result="bg"/><feBlend in="SourceGraphic" in2="bg"/></filter><mask id="mask" x="-833.22" y="178.19" width="1272.03" height="1759.2" maskUnits="userSpaceOnUse"><g class="cls-24"/></mask><clipPath id="clip-path-3"><rect class="cls-1" x="-1025.07" y="503.13" width="1615.54" height="1226.26" transform="translate(898.96 1333.56) rotate(90)"/></clipPath><linearGradient id="Безымянный_градиент_13" x1="-2701.18" y1="2110.62" x2="-938.56" y2="3349.4" gradientTransform="translate(2449.89 2846.15) rotate(90)" gradientUnits="userSpaceOnUse"><stop offset="0.2" stop-color="#0d0e56"/><stop offset="0.28" stop-color="#12135a"/><stop offset="0.39" stop-color="#212264"/><stop offset="0.5" stop-color="#3a3a75"/><stop offset="0.62" stop-color="#5c5d8d"/><stop offset="0.74" stop-color="#8889ac"/><stop offset="0.87" stop-color="#bebed2"/><stop offset="1" stop-color="#fdfdfd"/><stop offset="1" stop-color="#fff"/></linearGradient><linearGradient id="Безымянный_градиент_13-2" x1="-2740.08" y1="2173" x2="-983.73" y2="3407.38" xlink:href="#Безымянный_градиент_13"/><linearGradient id="Безымянный_градиент_13-3" x1="-2689.09" y1="2092.05" x2="-932.07" y2="3326.89" xlink:href="#Безымянный_градиент_13"/><linearGradient id="Безымянный_градиент_13-4" x1="-2683.23" y1="2078.13" x2="-920.22" y2="3317.19" xlink:href="#Безымянный_градиент_13"/><linearGradient id="Безымянный_градиент_13-5" x1="-2662.26" y1="2044.78" x2="-900.23" y2="3283.14" xlink:href="#Безымянный_градиент_13"/><linearGradient id="Безымянный_градиент_13-6" x1="-2651.28" y1="2026.17" x2="-890.94" y2="3263.34" xlink:href="#Безымянный_градиент_13"/><linearGradient id="Безымянный_градиент_13-7" x1="-2611.37" y1="1987.02" x2="-945.41" y2="3157.86" xlink:href="#Безымянный_градиент_13"/><linearGradient id="Безымянный_градиент_13-8" x1="-2649.39" y1="2025.47" x2="-943.13" y2="3224.64" xlink:href="#Безымянный_градиент_13"/><linearGradient id="Безымянный_градиент_13-9" x1="-2650.75" y1="2021.99" x2="-936.5" y2="3226.77" xlink:href="#Безымянный_градиент_13"/><linearGradient id="Безымянный_градиент_13-10" x1="-2647.52" y1="2024.63" x2="-973.45" y2="3201.17" xlink:href="#Безымянный_градиент_13"/></defs><title>icon-web</title><g class="cls-2"><g id="layout"><g class="cls-3"><g class="cls-4"><g class="cls-5"><g class="cls-6"><g class="cls-7"><g class="cls-8"><g class="cls-9"><polygon class="cls-10" points="-28.7 620 -28.7 254.46 -23.8 254.46 -23.8 618.22 72.56 702.85 72.56 915.83 9.1 971.57 9.1 1028.87 -9.41 1045.13 -12.88 1042.09 4.19 1027.09 4.19 969.79 67.65 914.05 67.65 704.63 -28.7 620"/><polygon class="cls-11" points="-91.53 659.86 -91.53 442.15 -69.83 423.1 -69.83 254.46 -64.92 254.46 -64.92 424.88 -86.62 443.94 -86.62 658.07 -6.52 728.43 -6.52 797.06 -25.7 813.91 -25.7 843.85 -10.58 843.85 4.51 830.59 7.98 833.64 -8.55 848.16 -30.6 848.16 -30.6 812.12 -11.42 795.28 -11.42 730.21 -91.53 659.86"/><polygon class="cls-12" points="-6.07 608.53 -6.07 229.7 -1.17 229.7 -1.17 606.75 119.32 712.57 119.32 913.72 70.06 956.99 70.06 986.45 53 1001.44 53 1035.98 42.58 1045.13 39.11 1042.09 48.1 1034.19 48.1 999.65 65.16 984.67 65.16 955.2 114.41 911.94 114.41 714.35 -6.07 608.53"/><polygon class="cls-13" points="25.59 597.51 25.59 178.19 30.49 178.19 30.49 595.73 152.45 702.85 152.45 920.48 97.71 968.56 97.71 999.28 68.89 1024.59 68.89 1065.65 52.38 1080.15 52.38 1094.67 44.98 1101.16 41.52 1098.11 47.47 1092.88 47.47 1078.37 63.99 1063.86 63.99 1022.81 92.81 997.49 92.81 966.78 147.54 918.7 147.54 704.63 25.59 597.51"/><polygon class="cls-14" points="56.63 589.47 56.63 217.59 61.53 217.59 61.53 587.68 181.06 692.66 181.06 934.5 158.09 954.67 158.09 991.65 131.42 1015.07 117.73 1015.07 92.13 1037.55 92.13 1091.38 81 1101.16 77.53 1098.11 87.22 1089.6 87.22 1035.77 115.7 1010.76 129.39 1010.76 153.18 989.86 153.18 952.89 176.15 932.71 176.15 694.44 56.63 589.47"/><polygon class="cls-15" points="83.67 577.99 83.67 217.59 88.57 217.59 88.57 576.2 205.35 678.77 205.35 941.48 184.53 959.76 184.53 996.35 142.49 1033.28 134.07 1033.28 121.3 1044.5 121.3 1063.52 116.39 1063.52 116.39 1042.72 132.04 1028.97 140.46 1028.97 179.63 994.57 179.63 957.98 200.45 939.69 200.45 680.55 83.67 577.99"/><polygon class="cls-16" points="109.99 326.47 109.99 247.99 114.9 247.99 114.9 324.69 159.41 363.79 159.41 500.9 215.77 550.4 347.83 550.4 383.8 581.99 383.8 707.94 390.66 713.96 390.66 826.44 385.75 826.44 385.75 715.74 378.9 709.72 378.9 583.78 345.8 554.71 213.74 554.71 154.51 502.69 154.51 365.57 109.99 326.47"/><polygon class="cls-17" points="154.77 293.51 154.77 247.99 159.68 247.99 159.68 291.73 213.38 338.9 213.38 464.96 238.44 486.96 393.7 486.96 431.06 519.78 427.59 522.82 391.67 491.27 236.41 491.27 208.48 466.74 208.48 340.68 154.77 293.51"/><polygon class="cls-18" points="179.35 284.89 179.35 242.55 184.26 242.55 184.26 283.1 234.08 326.86 234.08 456.05 251.62 471.45 409.78 471.45 434.22 492.92 430.75 495.97 407.75 475.76 249.59 475.76 229.17 457.83 229.17 328.64 179.35 284.89"/><polygon class="cls-19" points="186.17 257.25 189.64 254.2 260.24 316.21 260.24 436.89 282.73 456.64 438.81 456.64 438.81 460.94 280.69 460.94 255.34 438.67 255.34 317.99 186.17 257.25"/></g></g></g></g></g></g></g></g><g id="icon"><circle class="cls-20" cx="130" cy="130" r="120.95"/><circle class="cls-21" cx="130" cy="130" r="109.15"/><path class="cls-22" d="M129.49,61,70.42,103.56a.87.87,0,0,0,.51,1.58H189.07a.87.87,0,0,0,.51-1.58L130.51,61A.87.87,0,0,0,129.49,61Z"/><line class="cls-22" x1="84.18" y1="114.7" x2="84.18" y2="174.07"/><line class="cls-22" x1="95.59" y1="114.7" x2="95.59" y2="174.07"/><line class="cls-22" x1="164.17" y1="114.7" x2="164.17" y2="174.07"/><line class="cls-22" x1="175.57" y1="114.7" x2="175.57" y2="174.07"/><line class="cls-22" x1="117.55" y1="135.59" x2="140.35" y2="135.59"/><polyline class="cls-22" points="134.97 141.69 141.19 135.59 134.97 129.48"/><line class="cls-22" x1="141.19" y1="150.49" x2="118.39" y2="150.49"/><polyline class="cls-22" points="123.77 156.6 117.55 150.49 123.77 144.39"/><rect class="cls-22" x="71.23" y="182.33" width="117.91" height="9.45" rx="2.85"/><path class="cls-23" d="M120.09,87V84.45h19.77V87ZM123.46,100V72.28H127V84.45h1.2l9.5-12.17h4L131.26,85.19,142.15,100H138L128.74,87H127V100Z"/></g></g></svg>