<svg xmlns="http://www.w3.org/2000/svg" xmlns:xlink="http://www.w3.org/1999/xlink" viewBox="0 0 260 260"><defs><style>.cls-1,.cls-17,.cls-18{fill:none;}.cls-2{isolation:isolate;}.cls-3{clip-path:url(#clip-path);}.cls-4{opacity:0.8;}.cls-5{clip-path:url(#clip-path-2);}.cls-6{mask:url(#mask);}.cls-7{mix-blend-mode:lighten;}.cls-8{clip-path:url(#clip-path-3);}.cls-9{mix-blend-mode:color-dodge;}.cls-10,.cls-11,.cls-12,.cls-16{fill:#fff;}.cls-10,.cls-11,.cls-12,.cls-17,.cls-18{stroke:#17479b;}.cls-10,.cls-11,.cls-12,.cls-13,.cls-17,.cls-18{stroke-miterlimit:10;}.cls-10{stroke-width:4px;}.cls-12,.cls-13,.cls-17,.cls-18{stroke-width:3px;}.cls-13{fill:#e4e4e4;stroke:#cacaca;}.cls-14{fill:#00b888;}.cls-15{fill:#ff5a65;}.cls-18{stroke-dasharray:8 3;}.cls-19{filter:url(#luminosity-noclip);}</style><clipPath id="clip-path"><rect class="cls-1" x="-1303.85" y="868.85" width="1920" height="1190"/></clipPath><clipPath id="clip-path-2"><rect class="cls-1" x="-1297.33" y="511.37" width="1219.8" height="1594.79"/></clipPath><filter id="luminosity-noclip" x="-1305.69" y="308.49" width="1236.51" height="1628.9" filterUnits="userSpaceOnUse" color-interpolation-filters="sRGB"><feFlood flood-color="#fff" result="bg"/><feBlend in="SourceGraphic" in2="bg"/></filter><mask id="mask" x="-1305.69" y="308.49" width="1236.51" height="1628.9" maskUnits="userSpaceOnUse"><g class="cls-19"/></mask><clipPath id="clip-path-3"><rect class="cls-1" x="-1497.54" y="503.13" width="1615.54" height="1226.26" transform="translate(426.49 1806.03) rotate(90)"/></clipPath></defs><title>icon-web-</title><g class="cls-2"><g id="icon"><circle class="cls-10" cx="130" cy="130" r="120.95"/><circle class="cls-11" cx="130" cy="130" r="109.15"/><polyline class="cls-12" points="69.79 95.01 214.04 95.01 201.09 168.45 56.84 168.45"/><path class="cls-13" d="M69.35,151.87l7.1-40.28a8.71,8.71,0,0,0,8.23-7H195.77a5.71,5.71,0,0,0,5.76,7l-7.1,40.28a8.73,8.73,0,0,0-8.24,7H75.11A5.71,5.71,0,0,0,69.35,151.87Z"/><ellipse class="cls-14" cx="87.46" cy="131.73" rx="8.4" ry="7.05" transform="translate(-66 93.65) rotate(-42.48)"/><ellipse class="cls-14" cx="183.41" cy="131.73" rx="8.4" ry="7.05" transform="translate(-40.82 158.45) rotate(-42.48)"/><ellipse class="cls-15" cx="135.44" cy="131.73" rx="27.98" ry="19.3" transform="translate(-34.14 215.04) rotate(-70.37)"/><path class="cls-16" d="M125.08,132.1l.47-2.67h20.64l-.47,2.67Zm1.14,13.51,5.09-28.89H135l-2.24,12.71H134l12.15-12.71h4.21l-13.3,13.47,8.65,15.42h-4.33l-7.28-13.51h-1.83l-2.38,13.51Z"/><line class="cls-17" x1="72.32" y1="102.27" x2="28.86" y2="102.27"/><line class="cls-17" x1="217.43" y1="82.99" x2="160.02" y2="82.99"/><line class="cls-18" x1="157.95" y1="82.99" x2="129.25" y2="82.99"/><line class="cls-17" x1="69.35" y1="117.05" x2="32.3" y2="117.05"/><line class="cls-17" x1="66.96" y1="131.82" x2="35.25" y2="131.82"/><line class="cls-17" x1="64.16" y1="146.6" x2="40.89" y2="146.6"/><line class="cls-17" x1="61.43" y1="161.37" x2="46.35" y2="161.37"/><path class="cls-12" d="M145.5,200.53s-25.61-43.34-28.49-48.8-4.09-10.61,0-12.42,7.27-.31,9.4,2.88,19.09,33.94,19.09,33.94-4.85-8.33,1.52-11.52,12.12,9.25,12.12,9.25-5-8.79.76-12S172,171.13,172,171.13s-4.85-8.64,0-11.82,10,3,12.13,7.12,23,33.19,15.91,39.25-33.65,20.46-35,20.46-41.52-19.85-42.13-20.91-1.52-7.88,4.55-9.09S145.5,200.53,145.5,200.53Z"/></g></g></svg>