<svg id="Layer_1" data-name="Layer 1" xmlns="http://www.w3.org/2000/svg" viewBox="0 0 260 260"><defs><style>.cls-1,.cls-2{fill:#fff;}.cls-1,.cls-2,.cls-4,.cls-5,.cls-7{stroke:#17479b;stroke-miterlimit:10;}.cls-1{stroke-width:4px;}.cls-3{fill:#17479b;}.cls-4,.cls-7{fill:none;}.cls-4,.cls-5,.cls-7{stroke-width:3px;}.cls-5{fill:#e4e4e4;}.cls-6{fill:#ff1d25;}.cls-7{stroke-linecap:round;}</style></defs><title>icon-web-01</title><circle class="cls-1" cx="130" cy="130" r="120.95"/><circle class="cls-2" cx="130" cy="130" r="109.15"/><ellipse class="cls-3" cx="177.44" cy="122.42" rx="5.62" ry="7.58"/><path class="cls-4" d="M219.57,138.63,199.49,129a56.63,56.63,0,0,0-15.06-27.7l10-25.45L168.48,89a83.73,83.73,0,0,0-41.24-10.55c-40.51,0-73.34,27.3-73.34,61,0,39.57,28.5,74,28.5,74h18.35l1-16.85a87.85,87.85,0,0,0,47.06,1.11l7.44,15.74h18.42l1.12-28.34a65.77,65.77,0,0,0,14.16-14l21.12-2Z"/><path class="cls-5" d="M130,97.67a31.68,31.68,0,1,0-15.28.44A58.55,58.55,0,0,1,130,97.67Z"/><path class="cls-6" d="M108.81,67.7v-3h22.77v3Zm3.88,14.92V50.73h4.06v14h1.39l10.94-14h4.64l-12,14.87,12.55,17h-4.78L118.77,67.7h-2V82.62Z"/><path class="cls-7" d="M53.9,139.45s-16.47-.84-13-20.52"/><path class="cls-7" d="M154.56,106s-27.39-19.52-62,.06"/></svg>