<svg id="Layer_1" data-name="Layer 1" xmlns="http://www.w3.org/2000/svg" viewBox="0 0 290 115"><defs><style>.cls-1,.cls-2{fill:#17479e;}.cls-2{fill-rule:evenodd;}.cls-3{fill:#fff;}.cls-4{fill:#ed1c24;}</style></defs><title>LVB Logo-2020</title><path class="cls-1" d="M84.94,52.29a63,63,0,0,1,9.56-.69c4.52,0,7.29.44,9.71,1.86a7.12,7.12,0,0,1,3.89,6.48c0,2.88-1.7,5.56-5.39,7V67a8.16,8.16,0,0,1,6.51,8,8.8,8.8,0,0,1-3.4,7c-2.38,1.9-6.36,3-12.87,3a56,56,0,0,1-8-.49Zm7.33,12.58H94.7c3.93,0,6-1.61,6-4.05S98.78,57,95.43,57a19.11,19.11,0,0,0-3.16.19Zm0,14.58a22.72,22.72,0,0,0,2.87.1c3.35,0,6.31-1.32,6.31-4.78,0-3.27-3-4.58-6.65-4.58H92.27Z"/><path class="cls-1" d="M132.71,79a31.13,31.13,0,0,0,.39,5.75h-6.65L126,82.33h-.14a8.55,8.55,0,0,1-6.8,2.93,7.29,7.29,0,0,1-7.67-7.32c0-6.19,5.53-9.12,13.93-9.12v-.29c0-1.32-.68-3.12-4.32-3.12a13.22,13.22,0,0,0-6.55,1.8l-1.36-4.78a19.36,19.36,0,0,1,9.22-2.15c7.92,0,10.39,4.69,10.39,10.35Zm-7.13-5.52c-3.89,0-6.9.93-6.9,3.76A2.66,2.66,0,0,0,121.59,80a4.08,4.08,0,0,0,3.84-2.73,5.2,5.2,0,0,0,.15-1.27Z"/><path class="cls-1" d="M137.37,68.48c0-3-.09-5.46-.19-7.61h6.41l.34,3.32h.14a8.56,8.56,0,0,1,7.34-3.86c4.85,0,8.49,3.27,8.49,10.3V84.72h-7.38V71.5c0-3.07-1.07-5.17-3.74-5.17A4.06,4.06,0,0,0,145,69.11a5.25,5.25,0,0,0-.24,1.86V84.72h-7.39Z"/><path class="cls-1" d="M172,70.92h.1a31.25,31.25,0,0,1,1.7-2.88l4.81-7.17h8.88L179,70.53l9.71,14.19h-9.07l-5.78-9.8L172,77.26v7.46h-7.38V50.09H172Z"/><polygon class="cls-1" points="3.27 8.48 10.7 8.48 10.7 34.95 23.82 34.95 23.82 41.15 3.27 41.15 3.27 8.48"/><path class="cls-1" d="M35,32.76l-2.35,8.39H24.94L35,8.48h9.78L55,41.15H47l-2.54-8.39Zm8.36-5.52-2-6.94c-.59-1.93-1.17-4.36-1.67-6.3h-.09c-.49,1.94-1,4.41-1.52,6.3l-2,6.94Z"/><path class="cls-1" d="M87.12,24.47c0,10.76-6.51,17.21-16.2,17.21S55.42,34.36,55.42,25c0-9.8,6.36-17.11,16-17.11,10.13,0,15.66,7.51,15.66,16.57m-23.83.39c0,6.45,3,11,8,11s7.93-4.76,7.93-11.1c0-5.92-2.79-11-7.93-11s-8,4.75-8,11.1"/><path class="cls-1" d="M98.22,41.15,87.65,8.48h8.17l4,13.81C101,26.22,102,29.9,102.77,34h.15c.83-3.92,1.86-7.8,3-11.53l4.21-14H118l-11.1,32.67Z"/><rect class="cls-1" x="120.38" y="8.48" width="7.44" height="32.67"/><polygon class="cls-1" points="152.67 27.33 140.54 27.33 140.54 35.09 154.09 35.09 154.09 41.15 133.1 41.15 133.1 8.48 153.4 8.48 153.4 14.54 140.54 14.54 140.54 21.32 152.67 21.32 152.67 27.33"/><polygon class="cls-1" points="164.6 14.68 155.7 14.68 155.7 8.48 181.04 8.48 181.04 14.68 172.04 14.68 172.04 41.15 164.6 41.15 164.6 14.68"/><path class="cls-2" d="M199.32,90.17h87.19V3H199.32Zm43.56-5.39A38.19,38.19,0,0,1,209.8,27.65c.94,3.1,2,6.59,3.18,10.37C217.61,53,227.7,75.9,227.7,75.9s13.81-7.06,21-9.71,21.44-6.95,21.44-6.95L253.82,22.15,220.43,36.33,233,65.56l25.31-13.2s-7.45,2.7-12.58,4.24A63,63,0,0,0,235,61.28l-8.49-22.5,24.94-10.12,12.77,28.5s-2.43.62-9.38,2.57-23.24,8.69-23.24,8.69a148.29,148.29,0,0,1-10.14-19.25c-2.78-6.23-6.5-16.55-9.4-25a38.13,38.13,0,1,1,30.86,60.57"/><path class="cls-3" d="M224.77,46.46a13,13,0,0,0-.86,2.78A12,12,0,0,0,227,51.71Z"/><path class="cls-3" d="M241.34,61.19a13.52,13.52,0,0,0,4.21,3.62s6.28-2.5,6.92-9.43Z"/><path class="cls-3" d="M258.67,39a10.14,10.14,0,0,0-2.55-.37,17.89,17.89,0,0,0,3.42-6.24,13,13,0,0,0-.87-8.67s-7.58-1.93-12.14,4.87a10,10,0,0,0-1.12,2.27,17.61,17.61,0,0,0-4.86-5.15A13,13,0,0,0,232,23.86s-4.18,6.61.87,13a10,10,0,0,0,1.83,1.79,17.77,17.77,0,0,0-6.43,3l-.58.49,4.14,11a11.57,11.57,0,0,0,4.73-.74,10.3,10.3,0,0,0,2.26-1.17,17.62,17.62,0,0,0,.89,7l.21.51a45.75,45.75,0,0,1,5.62-2.15c2.15-.64,4.7-1.49,6.94-2.26,0-.22,0-.44,0-.67a10.07,10.07,0,0,0-.43-2.51,18.64,18.64,0,0,0,5.77,1.31l.21-.08-.15.08c.37,0,.76,0,1.16,0a13,13,0,0,0,8-3.5s-.51-7.81-8.38-10"/><path class="cls-4" d="M252,54.6v-.28c-.18-5.38-5.53-9.92-6.37-10.59a20.72,20.72,0,0,1-6.52,7.41,17.62,17.62,0,0,0,1,7.43l.06.16a46,46,0,0,1,5.42-2.06c2-.59,4.3-1.36,6.4-2.07"/><path class="cls-4" d="M244.38,41a20.65,20.65,0,0,1,.91-9.83,17.8,17.8,0,0,0-5.17-5.42,11.19,11.19,0,0,0-7.86-1.5s-3.71,6.21.74,11.93c3.31,4.25,10.3,4.77,11.38,4.82"/><path class="cls-4" d="M255.86,38.59a17.69,17.69,0,0,0,3.55-6.6,11.16,11.16,0,0,0-1-7.94s-7.05-1.61-11.12,4.39c-3,4.46-1.36,11.28-1.07,12.31a20.72,20.72,0,0,1,9.63-2.16"/><path class="cls-4" d="M241.51,61.1a11.72,11.72,0,0,0,4.05,3.3s5.83-2.49,6.38-8.74Z"/><path class="cls-4" d="M231.71,52.75a10.3,10.3,0,0,0,4.17-.62c5.06-1.83,7.73-8.32,8.1-9.34a20.62,20.62,0,0,1-9.06-3.9,17.56,17.56,0,0,0-6.75,3.25l-.35.29Z"/><path class="cls-4" d="M259.05,39.69c-5.17-1.49-11.14,2.19-12,2.79a20.77,20.77,0,0,1,5,8.48,17.76,17.76,0,0,0,7.37,1.35,11.17,11.17,0,0,0,7.24-3.4s-.65-7.21-7.61-9.22"/><path class="cls-4" d="M224.91,46.77a11.26,11.26,0,0,0-.6,2.37,11.48,11.48,0,0,0,2.46,2Z"/><path class="cls-4" d="M3.8,101.06a21.49,21.49,0,0,1,3.14-.22,6,6,0,0,1,3.19.61,2.37,2.37,0,0,1,1.28,2.15,2.47,2.47,0,0,1-1.77,2.31v0a2.7,2.7,0,0,1,2.14,2.66,2.94,2.94,0,0,1-1.12,2.33c-.78.63-2.09,1-4.23,1a18.65,18.65,0,0,1-2.63-.16Zm2.41,4.17H7c1.3,0,2-.53,2-1.34s-.63-1.26-1.73-1.26a6.61,6.61,0,0,0-1,.06Zm0,4.83a8.09,8.09,0,0,0,.94,0c1.1,0,2.07-.44,2.07-1.58S8.25,107,7,107H6.21Z"/><path class="cls-4" d="M22.21,101.06a21,21,0,0,1,3.24-.22,5.49,5.49,0,0,1,3.48.85,2.79,2.79,0,0,1,1,2.3,2.87,2.87,0,0,1-1.9,2.66v0a2.72,2.72,0,0,1,1.44,2,31.29,31.29,0,0,0,.86,3.08H27.84a14.24,14.24,0,0,1-.73-2.54c-.31-1.37-.77-1.72-1.77-1.74h-.72v4.28H22.21Zm2.41,4.69h1c1.21,0,1.93-.62,1.93-1.57s-.67-1.5-1.79-1.5a4.66,4.66,0,0,0-1.1.08Z"/><rect class="cls-4" x="40.46" y="100.92" width="2.42" height="10.88"/><path class="cls-4" d="M53.77,101.08a21.79,21.79,0,0,1,3.27-.24A7,7,0,0,1,61.46,102a4.86,4.86,0,0,1,1.82,4.1,5.58,5.58,0,0,1-1.78,4.41,7.7,7.7,0,0,1-5,1.4,20.8,20.8,0,0,1-2.76-.16Zm2.42,8.86a4.42,4.42,0,0,0,.85,0c2.21,0,3.67-1.21,3.67-3.81a3.12,3.12,0,0,0-3.42-3.45,6,6,0,0,0-1.1.09Z"/><path class="cls-4" d="M82.63,111.3a11.87,11.87,0,0,1-3.59.61,6,6,0,0,1-4.37-1.45,5.45,5.45,0,0,1-1.52-4c0-3.62,2.62-5.68,6.14-5.68a7.8,7.8,0,0,1,3,.51l-.51,2a5.51,5.51,0,0,0-2.49-.47,3.55,3.55,0,0,0-.18,7.09,3.67,3.67,0,0,0,1.18-.15v-2.29H78.62v-1.92h4Z"/><polygon class="cls-4" points="99.7 107.2 95.74 107.2 95.74 109.78 100.16 109.78 100.16 111.8 93.32 111.8 93.32 100.92 99.94 100.92 99.94 102.94 95.74 102.94 95.74 105.2 99.7 105.2 99.7 107.2"/><path class="cls-4" d="M132.44,106.25c0,3.58-2.12,5.73-5.28,5.73s-5.06-2.44-5.06-5.56,2.07-5.7,5.23-5.7,5.11,2.51,5.11,5.53m-7.77.12c0,2.15,1,3.65,2.61,3.65s2.59-1.58,2.59-3.69-.91-3.65-2.59-3.65-2.61,1.58-2.61,3.69"/><polygon class="cls-4" points="142.82 100.92 149.38 100.92 149.38 102.94 145.25 102.94 145.25 105.42 149.11 105.42 149.11 107.42 145.25 107.42 145.25 111.8 142.82 111.8 142.82 100.92"/><path class="cls-4" d="M172.07,109.26a6.08,6.08,0,0,0,2.69.68c1.12,0,1.71-.46,1.71-1.17s-.51-1.07-1.8-1.52c-1.79-.65-3-1.65-3-3.23,0-1.86,1.55-3.26,4.07-3.26a6.13,6.13,0,0,1,2.74.55l-.54,2a5,5,0,0,0-2.23-.52c-1.06,0-1.57.5-1.57,1s.59,1,2,1.53c1.9.71,2.77,1.71,2.77,3.25,0,1.82-1.37,3.37-4.32,3.37a7,7,0,0,1-3.05-.68Z"/><path class="cls-4" d="M191.8,100.92v6.25c0,1.89.72,2.84,1.95,2.84s2-.91,2-2.84v-6.25h2.42V107c0,3.36-1.67,5-4.48,5s-4.29-1.54-4.29-5v-6.07Z"/><path class="cls-4" d="M216.92,111.51a7.14,7.14,0,0,1-2.75.47c-3.72,0-5.63-2.36-5.63-5.46,0-3.71,2.62-5.76,5.87-5.76a6.08,6.08,0,0,1,2.65.48l-.51,1.94a5.1,5.1,0,0,0-2-.4,3.58,3.58,0,0,0,0,7.15,5.79,5.79,0,0,0,2-.36Z"/><path class="cls-4" d="M234.71,111.51A7.14,7.14,0,0,1,232,112c-3.72,0-5.63-2.36-5.63-5.46,0-3.71,2.62-5.76,5.87-5.76a6.08,6.08,0,0,1,2.65.48l-.51,1.94a5.1,5.1,0,0,0-2-.4,3.58,3.58,0,0,0,0,7.15,5.69,5.69,0,0,0,2-.36Z"/><polygon class="cls-4" points="251.49 107.2 247.53 107.2 247.53 109.78 251.95 109.78 251.95 111.8 245.11 111.8 245.11 100.92 251.73 100.92 251.73 102.94 247.53 102.94 247.53 105.2 251.49 105.2 251.49 107.2"/><path class="cls-4" d="M262.47,109.26a6,6,0,0,0,2.69.68c1.12,0,1.71-.46,1.71-1.17s-.51-1.07-1.8-1.52c-1.79-.65-3-1.65-3-3.23,0-1.86,1.55-3.26,4.07-3.26a6.16,6.16,0,0,1,2.74.55l-.54,2a5,5,0,0,0-2.23-.52c-1.06,0-1.57.5-1.57,1s.59,1,2,1.53c1.89.71,2.77,1.71,2.77,3.25,0,1.82-1.37,3.37-4.32,3.37a7,7,0,0,1-3-.68Z"/><path class="cls-4" d="M279.86,109.26a6,6,0,0,0,2.69.68c1.12,0,1.71-.46,1.71-1.17s-.51-1.07-1.8-1.52c-1.79-.65-3-1.65-3-3.23,0-1.86,1.55-3.26,4.07-3.26a6.16,6.16,0,0,1,2.74.55l-.54,2a5,5,0,0,0-2.23-.52c-1.06,0-1.57.5-1.57,1s.59,1,2,1.53c1.89.71,2.77,1.71,2.77,3.25,0,1.82-1.37,3.37-4.32,3.37a7,7,0,0,1-3.05-.68Z"/></svg>