<svg id="Layer_1" data-name="Layer 1" xmlns="http://www.w3.org/2000/svg" viewBox="0 0 290 115"><defs><style>.cls-1,.cls-2{fill:#17479e;}.cls-2{fill-rule:evenodd;}.cls-3{fill:#fff;}.cls-4{fill:#ed1c24;}</style></defs><title>LVB Logo-2020</title><path class="cls-1" d="M85.77,51.69A62.84,62.84,0,0,1,95.33,51c4.51,0,7.28.44,9.71,1.86a7.12,7.12,0,0,1,3.88,6.48c0,2.88-1.7,5.56-5.39,7v.1a8.16,8.16,0,0,1,6.51,8,8.77,8.77,0,0,1-3.4,7c-2.38,1.91-6.36,3-12.86,3a57.51,57.51,0,0,1-8-.49ZM93.1,64.26h2.43c3.93,0,6-1.6,6-4s-1.89-3.81-5.24-3.81a18.59,18.59,0,0,0-3.15.2Zm0,14.58a22.63,22.63,0,0,0,2.86.1c3.35,0,6.31-1.32,6.31-4.78,0-3.27-3-4.58-6.65-4.58H93.1Z"/><path class="cls-1" d="M133.52,78.35a31.18,31.18,0,0,0,.39,5.76h-6.65l-.43-2.39h-.15a8.53,8.53,0,0,1-6.79,2.92,7.29,7.29,0,0,1-7.67-7.31c0-6.19,5.53-9.12,13.93-9.12v-.29c0-1.32-.68-3.12-4.32-3.12a13.33,13.33,0,0,0-6.55,1.8l-1.36-4.77a19.36,19.36,0,0,1,9.22-2.15c7.91,0,10.38,4.68,10.38,10.34Zm-7.13-5.51c-3.88,0-6.89.93-6.89,3.76a2.66,2.66,0,0,0,2.91,2.83,4.07,4.07,0,0,0,3.83-2.73,5.2,5.2,0,0,0,.15-1.27Z"/><path class="cls-1" d="M138.18,67.87c0-3-.09-5.46-.19-7.6h6.41l.33,3.31h.15a8.52,8.52,0,0,1,7.33-3.85c4.85,0,8.49,3.27,8.49,10.29V84.11h-7.37V70.89c0-3.07-1.07-5.16-3.74-5.16a4.06,4.06,0,0,0-3.79,2.78,5.4,5.4,0,0,0-.24,1.85V84.11h-7.38Z"/><path class="cls-1" d="M172.79,70.31h.1a32.62,32.62,0,0,1,1.69-2.88l4.81-7.16h8.88l-8.49,9.65,9.7,14.19h-9.07l-5.78-9.8-1.84,2.34v7.46h-7.38V49.49h7.38Z"/><polygon class="cls-1" points="4.13 7.89 11.56 7.89 11.56 34.35 24.67 34.35 24.67 40.55 4.13 40.55 4.13 7.89"/><path class="cls-1" d="M35.82,32.17l-2.35,8.38H25.79l10-32.65H45.6L55.87,40.55H47.8l-2.54-8.38Zm8.36-5.52-2-6.93c-.59-1.94-1.18-4.36-1.67-6.3h-.09c-.49,1.94-1,4.41-1.52,6.3l-2,6.93Z"/><path class="cls-1" d="M88,23.88c0,10.76-6.51,17.2-16.19,17.2s-15.5-7.31-15.5-16.66c0-9.79,6.36-17.11,16-17.11C82.42,7.31,88,14.82,88,23.88m-23.82.39c0,6.45,3,11,8,11s7.92-4.75,7.92-11.09c0-5.91-2.78-10.95-7.92-10.95s-8,4.74-8,11.09"/><path class="cls-1" d="M99,40.55,88.48,7.89h8.17l4,13.81c1.12,3.93,2.15,7.61,2.93,11.68h.15c.83-3.92,1.86-7.8,3-11.53l4.21-14h7.92l-11.1,32.66Z"/><rect class="cls-1" x="121.2" y="7.89" width="7.43" height="32.66"/><polygon class="cls-1" points="153.47 26.74 141.34 26.74 141.34 34.5 154.89 34.5 154.89 40.55 133.91 40.55 133.91 7.89 154.2 7.89 154.2 13.95 141.34 13.95 141.34 20.73 153.47 20.73 153.47 26.74"/><polygon class="cls-1" points="165.4 14.1 156.5 14.1 156.5 7.89 181.83 7.89 181.83 14.1 172.83 14.1 172.83 40.55 165.4 40.55 165.4 14.1"/><path class="cls-2" d="M200.1,89.55h87.15V2.44H200.1Zm43.54-5.38a38.17,38.17,0,0,1-33.06-57.11c.94,3.1,2,6.59,3.17,10.36,4.63,14.94,14.72,37.87,14.72,37.87s13.81-7.06,21-9.71,21.43-6.94,21.43-6.94L254.58,21.56,221.21,35.74,233.71,65,259,51.76s-7.44,2.7-12.56,4.24a62.43,62.43,0,0,0-10.73,4.68l-8.48-22.5,24.93-10.11,12.77,28.49s-2.44.62-9.38,2.57-23.23,8.68-23.23,8.68a147.66,147.66,0,0,1-10.14-19.24c-2.78-6.23-6.49-16.54-9.39-24.95a38.12,38.12,0,1,1,30.84,60.55"/><path class="cls-3" d="M225.54,45.86a12.57,12.57,0,0,0-.85,2.79,12,12,0,0,0,3.1,2.46Z"/><path class="cls-3" d="M242.11,60.58a13.66,13.66,0,0,0,4.2,3.63s6.28-2.51,6.92-9.43Z"/><path class="cls-3" d="M259.43,38.41a10.21,10.21,0,0,0-2.55-.37,17.68,17.68,0,0,0,3.41-6.23,13,13,0,0,0-.86-8.67S251.85,21.22,247.3,28a10,10,0,0,0-1.13,2.26,17.72,17.72,0,0,0-4.86-5.15,13,13,0,0,0-8.5-1.85s-4.18,6.61.87,13a10.27,10.27,0,0,0,1.82,1.79,17.48,17.48,0,0,0-6.42,3c-.2.15-.39.32-.57.48l4.13,11a11.5,11.5,0,0,0,4.72-.73,9.72,9.72,0,0,0,2.26-1.18,17.65,17.65,0,0,0,.9,7c.06.18.13.35.2.52a45.91,45.91,0,0,1,5.63-2.15c2.14-.65,4.69-1.49,6.93-2.26,0-.22,0-.44,0-.67a10.07,10.07,0,0,0-.43-2.51,18.64,18.64,0,0,0,5.77,1.31l.21-.08-.15.08c.37,0,.76,0,1.15,0a13,13,0,0,0,8-3.5s-.51-7.81-8.37-10"/><path class="cls-4" d="M252.74,54v-.28c-.18-5.38-5.52-9.92-6.37-10.59a20.57,20.57,0,0,1-6.51,7.41,17.58,17.58,0,0,0,1,7.42,1.22,1.22,0,0,0,.07.17,45.35,45.35,0,0,1,5.42-2.06c2-.59,4.29-1.36,6.39-2.07"/><path class="cls-4" d="M245.14,40.35a20.78,20.78,0,0,1,.92-9.82,17.6,17.6,0,0,0-5.17-5.41A11.16,11.16,0,0,0,233,23.61s-3.7,6.21.74,11.92c3.31,4.25,10.3,4.78,11.37,4.82"/><path class="cls-4" d="M256.62,38a17.6,17.6,0,0,0,3.55-6.59,11.12,11.12,0,0,0-1-7.93s-7.05-1.61-11.11,4.38c-3,4.46-1.37,11.27-1.07,12.31A20.63,20.63,0,0,1,256.62,38"/><path class="cls-4" d="M242.27,60.5a11.62,11.62,0,0,0,4.06,3.3s5.82-2.49,6.37-8.75Z"/><path class="cls-4" d="M232.48,52.14a10.11,10.11,0,0,0,4.17-.61c5.06-1.83,7.72-8.32,8.09-9.33a20.71,20.71,0,0,1-9.05-3.9,17.73,17.73,0,0,0-6.75,3.24l-.35.29Z"/><path class="cls-4" d="M259.81,39.1c-5.17-1.5-11.14,2.18-12,2.78a20.77,20.77,0,0,1,5,8.48,17.74,17.74,0,0,0,7.37,1.35,11.2,11.2,0,0,0,7.24-3.4s-.65-7.2-7.61-9.21"/><path class="cls-4" d="M225.68,46.18a11.09,11.09,0,0,0-.6,2.36,11.48,11.48,0,0,0,2.46,2Z"/><path class="cls-4" d="M12.83,112.09a6.93,6.93,0,0,1-2.73.47c-3.71,0-5.63-2.36-5.63-5.46a5.5,5.5,0,0,1,5.86-5.77,6.08,6.08,0,0,1,2.65.48l-.51,1.94a5.06,5.06,0,0,0-2-.4,3.58,3.58,0,0,0,0,7.16,5.73,5.73,0,0,0,2-.36Z"/><path class="cls-4" d="M21.4,109.58l-.76,2.8h-2.5l3.26-10.89h3.19l3.34,10.89H25.32l-.83-2.8Zm2.44-10.66,1.43,2H23.71l-.7-1h0l-.7,1H20.73l1.42-2Zm.28,8.82-.66-2.31c-.2-.64-.39-1.45-.55-2.1h0c-.16.65-.32,1.47-.49,2.1l-.64,2.31Zm1.47-9.92,1.05,1.83H25.37L23.5,97.82Z"/><path class="cls-4" d="M35.51,101.49v6.25c0,1.89.72,2.85,1.94,2.85s2-.91,2-2.85v-6.25h2.42v6.11c0,3.36-1.67,5-4.48,5s-4.28-1.54-4.28-5v-6.08Z"/><path class="cls-4" d="M55.76,112.38V101.49H58.6l2.23,4a36.19,36.19,0,0,1,1.75,3.73h0c-.14-1.43-.19-2.91-.19-4.55v-3.17h2.23v10.89H62.1l-2.29-4.2A36,36,0,0,1,58,104.33h-.07c.08,1.46.11,3,.11,4.77v3.28Z"/><path class="cls-4" d="M80.88,106.82c0,3.59-2.12,5.74-5.27,5.74s-5-2.44-5-5.55c0-3.26,2.07-5.7,5.2-5.71,3.3,0,5.1,2.5,5.12,5.52m-7.76.15c0,2.13,1,3.63,2.61,3.63s2.58-1.57,2.58-3.68-.9-3.65-2.59-3.67-2.61,1.59-2.6,3.72m3.57-8,1.43,2H76.56l-.7-1h0l-.72,1H73.57l1.43-2Zm3.92-1.34-2.14,1.84H77.31l1.21-1.84Z"/><rect class="cls-4" x="86.78" y="101.49" width="2.42" height="10.89"/><path class="cls-4" d="M111,112.09a7,7,0,0,1-2.74.47c-3.71,0-5.62-2.36-5.62-5.46a5.49,5.49,0,0,1,5.86-5.77,6.06,6.06,0,0,1,2.64.48l-.51,1.94a5.06,5.06,0,0,0-2-.4,3.58,3.58,0,0,0,0,7.16,5.73,5.73,0,0,0,2-.36Z"/><path class="cls-4" d="M119.32,101.49v6.25c0,1.89.71,2.85,1.94,2.85s2-.91,2-2.85v-6.25h2.42v6.11c0,3.36-1.67,5-4.47,5s-4.28-1.54-4.28-5v-6.08Zm1.4-.76c.24-.73.78-.85.78-1.39a.46.46,0,0,0-.46-.48c-.31,0-.58.32-.72.56l-.78-.48a2.09,2.09,0,0,1,1.94-1.28A1.47,1.47,0,0,1,123,99c0,1-.78,1.14-1.21,1.94Z"/><path class="cls-4" d="M134.08,109.58l-.77,2.8h-2.5l3.27-10.89h3.18l3.35,10.89H138l-.83-2.8Zm2.72-1.84-.67-2.31c-.19-.64-.38-1.45-.54-2.1h0c-.16.65-.32,1.47-.5,2.1l-.63,2.31Z"/><polygon class="cls-4" points="155.3 103.56 152.41 103.56 152.41 101.49 160.65 101.49 160.65 103.56 157.72 103.56 157.72 112.38 155.3 112.38 155.3 103.56"/><polygon class="cls-4" points="168.68 101.49 168.68 105.67 172.68 105.67 172.68 101.49 175.1 101.49 175.1 112.38 172.68 112.38 172.68 107.82 168.68 107.82 168.68 112.38 166.26 112.38 166.26 101.49 168.68 101.49"/><path class="cls-4" d="M184,109.58l-.76,2.8h-2.5L184,101.49h3.19l3.34,10.89h-2.63l-.82-2.8Zm1.44-10.67,1.33,2h-1.94l-1.94-2Zm1.29,8.83-.67-2.31c-.19-.64-.38-1.45-.54-2.1h0c-.15.65-.31,1.47-.49,2.1l-.64,2.31Z"/><path class="cls-4" d="M196.26,112.38V101.49h2.83l2.23,4a34.22,34.22,0,0,1,1.75,3.73h0a43.45,43.45,0,0,1-.2-4.55v-3.17h2.23v10.89H202.6l-2.3-4.2a38.05,38.05,0,0,1-1.86-3.85h-.06c.08,1.46.11,3,.11,4.77v3.28Z"/><polygon class="cls-4" points="213.98 101.49 213.98 105.67 217.98 105.67 217.98 101.49 220.4 101.49 220.4 112.38 217.98 112.38 217.98 107.82 213.98 107.82 213.98 112.38 211.56 112.38 211.56 101.49 213.98 101.49"/><path class="cls-4" d="M242.2,112.09a7,7,0,0,1-2.74.47c-3.71,0-5.62-2.36-5.62-5.46a5.49,5.49,0,0,1,5.86-5.77,6,6,0,0,1,2.64.48l-.51,1.94a5.06,5.06,0,0,0-2-.4,3.58,3.58,0,0,0,0,7.16,5.73,5.73,0,0,0,2-.36Z"/><path class="cls-4" d="M257.45,106.82c0,3.59-2.11,5.74-5.27,5.74s-5.05-2.44-5.05-5.56,2.07-5.7,5.23-5.7,5.09,2.5,5.09,5.52m-7.75.13c0,2.15,1,3.65,2.61,3.65s2.58-1.58,2.58-3.7-.91-3.65-2.58-3.65-2.61,1.59-2.61,3.7m3.5-8,1.61,2h-1.7l-.8-1h0l-.8,1h-1.69l1.6-2Z"/><path class="cls-4" d="M263.34,112.38V101.49h2.84l2.23,4a34.22,34.22,0,0,1,1.75,3.73h0c-.14-1.43-.19-2.91-.19-4.55v-3.17h2.23v10.89h-2.55l-2.29-4.2a36,36,0,0,1-1.86-3.85h-.07c.08,1.46.11,3,.11,4.77v3.28Z"/><path class="cls-4" d="M287.6,111.88a11.87,11.87,0,0,1-3.59.61,6,6,0,0,1-4.36-1.45,5.53,5.53,0,0,1-1.51-4c0-3.61,2.61-5.68,6.13-5.68a7.78,7.78,0,0,1,3,.51l-.51,2a5.64,5.64,0,0,0-2.49-.47,3.55,3.55,0,0,0-.17,7.1,3.72,3.72,0,0,0,1.18-.15v-2.29H283.6v-1.93h4Z"/></svg>