<svg id="Layer_1" data-name="Layer 1" xmlns="http://www.w3.org/2000/svg" viewBox="0 0 290 115"><defs><style>.cls-1,.cls-2{fill:#17479e;}.cls-2{fill-rule:evenodd;}.cls-3{fill:#fff;}.cls-4{fill:#ed1c24;}</style></defs><title>LVB Logo-2020</title><path class="cls-1" d="M85.49,50.26A64.37,64.37,0,0,1,95,49.58c4.51,0,7.27.44,9.69,1.85a7.13,7.13,0,0,1,3.88,6.48c0,2.87-1.7,5.55-5.38,7V65a8.15,8.15,0,0,1,6.5,8,8.8,8.8,0,0,1-3.4,7C104,81.91,100,83,93.49,83a57.34,57.34,0,0,1-8-.49Zm7.32,12.57h2.42c3.93,0,6-1.61,6-4S99.3,55,96,55a19,19,0,0,0-3.15.19Zm0,14.56a25.13,25.13,0,0,0,2.86.09c3.34,0,6.3-1.31,6.3-4.77,0-3.26-3-4.58-6.64-4.58H92.81Z"/><path class="cls-1" d="M133.19,76.9a30.27,30.27,0,0,0,.39,5.75h-6.65l-.43-2.39h-.15a8.51,8.51,0,0,1-6.78,2.92,7.28,7.28,0,0,1-7.66-7.3c0-6.19,5.52-9.11,13.91-9.11v-.29c0-1.32-.68-3.12-4.32-3.12a13.32,13.32,0,0,0-6.54,1.8l-1.36-4.77a19.48,19.48,0,0,1,9.21-2.14c7.9,0,10.38,4.67,10.38,10.32Zm-7.13-5.5c-3.88,0-6.88.92-6.88,3.75a2.65,2.65,0,0,0,2.9,2.82,4.07,4.07,0,0,0,3.83-2.73,5.12,5.12,0,0,0,.15-1.26Z"/><path class="cls-1" d="M137.84,66.43c0-3-.1-5.45-.19-7.6h6.4l.33,3.32h.15a8.51,8.51,0,0,1,7.32-3.85c4.85,0,8.48,3.26,8.48,10.27V82.65H153V69.45c0-3.07-1.06-5.16-3.73-5.16a4,4,0,0,0-3.78,2.77,5.47,5.47,0,0,0-.24,1.85V82.65h-7.37Z"/><path class="cls-1" d="M172.4,68.86h.1A30.17,30.17,0,0,1,174.2,66l4.8-7.16h8.87l-8.49,9.65,9.7,14.17H180l-5.77-9.79L172.4,75.2v7.45H165V48.07h7.37Z"/><polygon class="cls-1" points="3.95 6.53 11.37 6.53 11.37 32.95 24.46 32.95 24.46 39.14 3.95 39.14 3.95 6.53"/><path class="cls-1" d="M35.6,30.77l-2.35,8.37H25.58l10-32.62h9.76L55.62,39.14H47.56L45,30.77ZM44,25.25,41.9,18.33C41.31,16.4,40.73,14,40.24,12h-.1c-.49,1.94-1,4.41-1.51,6.29l-2,6.92Z"/><path class="cls-1" d="M87.66,22.49c0,10.75-6.5,17.19-16.16,17.19S56,32.37,56,23c0-9.78,6.35-17.09,16-17.09,10.11,0,15.63,7.5,15.63,16.55m-23.78.39c0,6.44,3,10.94,8,10.94s7.91-4.74,7.91-11.08c0-5.91-2.79-10.94-7.91-10.94s-8,4.74-8,11.08"/><path class="cls-1" d="M98.75,39.14,88.2,6.52h8.16l4,13.8c1.12,3.92,2.15,7.59,2.93,11.66h.15c.83-3.92,1.85-7.79,3-11.52l4.2-13.94h7.91L107.44,39.14Z"/><rect class="cls-1" x="120.87" y="6.52" width="7.42" height="32.62"/><polygon class="cls-1" points="153.11 25.35 141 25.35 141 33.09 154.53 33.09 154.53 39.14 133.57 39.14 133.57 6.53 153.84 6.53 153.84 12.57 141 12.57 141 19.35 153.11 19.35 153.11 25.35"/><polygon class="cls-1" points="165.03 12.72 156.14 12.72 156.14 6.53 181.44 6.53 181.44 12.72 172.45 12.72 172.45 39.14 165.03 39.14 165.03 12.72"/><path class="cls-2" d="M199.68,88.08h87.05v-87H199.68Zm43.5-5.37a38.14,38.14,0,0,1-33-57c.94,3.1,2,6.59,3.17,10.36C217.94,50.93,228,73.84,228,73.84s13.79-7,20.93-9.7,21.41-6.93,21.41-6.93l-16.27-37L220.77,34.34l12.49,29.18,25.27-13.18S251.1,53,246,54.57a62.86,62.86,0,0,0-10.7,4.68l-8.48-22.47,24.9-10.11,12.75,28.46s-2.43.62-9.37,2.57-23.19,8.67-23.19,8.67a147.44,147.44,0,0,1-10.13-19.22c-2.78-6.22-6.48-16.52-9.39-24.92a38.08,38.08,0,1,1,30.82,60.48"/><path class="cls-3" d="M225.1,44.45a13,13,0,0,0-.86,2.78,12.19,12.19,0,0,0,3.1,2.46Z"/><path class="cls-3" d="M241.64,59.15a13.54,13.54,0,0,0,4.2,3.62s6.27-2.5,6.91-9.42Z"/><path class="cls-3" d="M258.94,37a10.56,10.56,0,0,0-2.55-.38,17.49,17.49,0,0,0,3.42-6.22,13,13,0,0,0-.87-8.65s-7.57-1.93-12.12,4.85a10.42,10.42,0,0,0-1.12,2.27,17.66,17.66,0,0,0-4.85-5.15,13,13,0,0,0-8.5-1.85s-4.17,6.6.87,13A10.55,10.55,0,0,0,235,36.69a17.73,17.73,0,0,0-6.41,3c-.2.15-.39.32-.57.48l4.12,10.95a11.45,11.45,0,0,0,4.72-.73,10.33,10.33,0,0,0,2.26-1.18,17.74,17.74,0,0,0,.89,7l.21.52a45.14,45.14,0,0,1,5.62-2.15c2.14-.64,4.68-1.49,6.92-2.25,0-.22,0-.45,0-.67a10.07,10.07,0,0,0-.43-2.52,18.2,18.2,0,0,0,5.76,1.32l.21-.08-.15.08c.38,0,.76,0,1.16,0a13,13,0,0,0,8-3.5s-.51-7.79-8.36-10"/><path class="cls-4" d="M252.26,52.57v-.28c-.18-5.37-5.51-9.9-6.36-10.57a20.61,20.61,0,0,1-6.5,7.4,17.52,17.52,0,0,0,1,7.41l.06.17a46,46,0,0,1,5.42-2.06c2-.59,4.28-1.35,6.38-2.07"/><path class="cls-4" d="M244.67,38.94a20.69,20.69,0,0,1,.92-9.8,17.68,17.68,0,0,0-5.17-5.42,11.13,11.13,0,0,0-7.84-1.5s-3.71,6.2.73,11.91c3.3,4.24,10.29,4.77,11.36,4.81"/><path class="cls-4" d="M256.13,36.59A17.67,17.67,0,0,0,259.68,30a11.08,11.08,0,0,0-1-7.92s-7-1.61-11.1,4.38c-3,4.45-1.36,11.25-1.06,12.29a20.58,20.58,0,0,1,9.6-2.16"/><path class="cls-4" d="M241.81,59.06a11.54,11.54,0,0,0,4.05,3.3s5.81-2.49,6.36-8.73Z"/><path class="cls-4" d="M232,50.72a10.3,10.3,0,0,0,4.17-.62c5.05-1.83,7.71-8.3,8.09-9.31a20.55,20.55,0,0,1-9.05-3.9,17.67,17.67,0,0,0-6.74,3.24l-.35.29Z"/><path class="cls-4" d="M259.32,37.69c-5.16-1.49-11.12,2.18-12,2.78a20.65,20.65,0,0,1,5,8.47,17.64,17.64,0,0,0,7.36,1.34,11.12,11.12,0,0,0,7.23-3.39s-.65-7.19-7.6-9.2"/><path class="cls-4" d="M225.23,44.76a11.09,11.09,0,0,0-.6,2.36,11.44,11.44,0,0,0,2.46,2Z"/><rect class="cls-4" x="60.86" y="88.42" width="2.09" height="4.43"/><path class="cls-4" d="M6.46,107.56a16.33,16.33,0,0,1,1.92-.51c.78-.16,1.69-.34,2.7-.52s2-.38,3.06-.59c.86-.18,1.73-.4,2.59-.63a15.44,15.44,0,0,0,2.23-.79,6,6,0,0,0,1.59-1,1.77,1.77,0,0,0,.62-1.32,2,2,0,0,0-.4-1.23,3.53,3.53,0,0,0-1.07-.89,6.35,6.35,0,0,0-1.52-.61,13.61,13.61,0,0,0-1.8-.38c-.63-.1-1.28-.16-1.93-.2s-1.28-.06-1.88-.06A25.42,25.42,0,0,0,9.15,99a18.23,18.23,0,0,0-3,.63,7.14,7.14,0,0,0-2.09,1,1.82,1.82,0,0,0-.83,1.44,1.71,1.71,0,0,0,.28,1,2.46,2.46,0,0,0,.72.68,3.19,3.19,0,0,0,1,.39,4.4,4.4,0,0,0,1.09.13,6.27,6.27,0,0,0,2.87-.49,1.59,1.59,0,0,0,.93-1.44,1.23,1.23,0,0,0-.19-.66,1.91,1.91,0,0,0-.54-.56,2.78,2.78,0,0,0-.83-.39l-.37-.1.64-.1c.45-.06.89-.1,1.33-.14l1.22-.06h1l1.14,0c.45,0,.91.06,1.37.12s.94.12,1.38.21a6.85,6.85,0,0,1,1.2.35,3,3,0,0,1,.84.49.79.79,0,0,1,.29.61.88.88,0,0,1-.37.69,4.34,4.34,0,0,1-1.11.62,11.46,11.46,0,0,1-1.67.52c-.66.17-1.35.32-2.05.45s-1.49.3-2.28.44-1.55.28-2.3.43-1.46.31-2.12.48a12.75,12.75,0,0,0-1.77.57,4.62,4.62,0,0,0-1.22.71,1.21,1.21,0,0,0-.48.94,1.39,1.39,0,0,0,.32.92,2.43,2.43,0,0,0,.83.63,5.42,5.42,0,0,0,1.16.41,12.94,12.94,0,0,0,1.32.23c.45.05.9.09,1.33.1s.84,0,1.2,0a10.61,10.61,0,0,0,2.28-.22,16.79,16.79,0,0,0,1.68-.48l1.36-.47a4.12,4.12,0,0,1,1.33-.21c.34,0,.68,0,1,0a4.64,4.64,0,0,1,.84.13,1.58,1.58,0,0,1,.55.21.3.3,0,0,1,.17.25.41.41,0,0,1,0,.16,1.74,1.74,0,0,1-.1.19l-.12.19H21l0-.06a1.42,1.42,0,0,0,.12-.25.71.71,0,0,0,.05-.27,1.31,1.31,0,0,0-.52-1.07,3.49,3.49,0,0,0-1.23-.64,7.86,7.86,0,0,0-1.59-.33,15.18,15.18,0,0,0-1.61-.09,7.74,7.74,0,0,0-1.33.1,9.52,9.52,0,0,0-1.14.26c-.36.1-.71.21-1,.33s-.68.23-1,.33-.74.18-1.13.25a8.62,8.62,0,0,1-1.31.1l-.93,0a9.28,9.28,0,0,1-1.16-.11,3.76,3.76,0,0,1-1-.26c-.24-.1-.36-.24-.36-.41S5.87,107.77,6.46,107.56Zm-.91-5.14a.36.36,0,0,1,.1-.25,1,1,0,0,1,.29-.24,2.34,2.34,0,0,1,.45-.18,2.53,2.53,0,0,1,.56-.06,2.49,2.49,0,0,1,.57.06,2,2,0,0,1,.44.18.87.87,0,0,1,.29.24.4.4,0,0,1,.09.25c0,.19-.12.35-.37.5a2,2,0,0,1-1,.24,2.1,2.1,0,0,1-.56-.07,1.83,1.83,0,0,1-.45-.17,1,1,0,0,1-.29-.24A.39.39,0,0,1,5.55,102.42Z"/><path class="cls-4" d="M19.82,93.6a12.24,12.24,0,0,0-2.92-.85,19.62,19.62,0,0,0-3.36-.28c-.51,0-1.09,0-1.71,0s-1.27.09-1.91.16A18.41,18.41,0,0,0,8,93a8.54,8.54,0,0,0-1.64.52,3.47,3.47,0,0,0-1.18.78,1.54,1.54,0,0,0-.46,1.09,1.32,1.32,0,0,0,.26.77,2.08,2.08,0,0,0,.67.6,3.8,3.8,0,0,0,1,.4,5.44,5.44,0,0,0,1.25.14,5.58,5.58,0,0,0,1.2-.13,5.07,5.07,0,0,0,1.12-.36,3.15,3.15,0,0,0,.84-.56,1.1,1.1,0,0,0,.34-.76,1.37,1.37,0,0,0-.26-.83,1.84,1.84,0,0,0-.54-.48l.34-.08c.23,0,.48-.07.73-.09s.5,0,.76-.06h.68a20.06,20.06,0,0,1,2.6.16,9.91,9.91,0,0,1,2.25.53,4.3,4.3,0,0,1,1.55,1,1.89,1.89,0,0,1,.57,1.4v.12h2.57V97a2.85,2.85,0,0,0-.8-2A6.18,6.18,0,0,0,19.82,93.6ZM8.18,96.15a2,2,0,0,1-1-.24q-.39-.22-.39-.51a.41.41,0,0,1,.1-.27.81.81,0,0,1,.29-.25,1.58,1.58,0,0,1,.46-.18,2.53,2.53,0,0,1,.56-.06,2,2,0,0,1,1,.24.61.61,0,0,1,.38.52.48.48,0,0,1-.09.27,1,1,0,0,1-.29.24,1.41,1.41,0,0,1-.45.18A2.56,2.56,0,0,1,8.18,96.15Z"/><path class="cls-4" d="M41.6,99.79a13.49,13.49,0,0,0-2.9-.74,24,24,0,0,0-3.32-.23c-.57,0-1.18,0-1.8.07s-1.26.13-1.87.23a16.86,16.86,0,0,0-1.76.41,7.58,7.58,0,0,0-1.49.62,3.7,3.7,0,0,0-1.06.85,1.77,1.77,0,0,0-.41,1.14v.12h2.54v-.12a.76.76,0,0,1,.26-.58,2.59,2.59,0,0,1,.77-.47,5.59,5.59,0,0,1,1.09-.35c.42-.1.85-.17,1.28-.23s.84-.1,1.27-.12l1.11,0a17.49,17.49,0,0,1,2.38.15,10.55,10.55,0,0,1,2.14.48,4.56,4.56,0,0,1,1.53.88,1.66,1.66,0,0,1,.56,1.28v3.1a1.53,1.53,0,0,1-.59,1.27,4.43,4.43,0,0,1-1.58.8,11.57,11.57,0,0,1-2.19.39c-.81.07-1.61.11-2.37.11l-.86,0c-.33,0-.68,0-1-.07s-.69-.08-1-.14l-.22,0a2.75,2.75,0,0,0,1.2-.49,1.59,1.59,0,0,0,.64-1.29,1.62,1.62,0,0,0-.84-1.4,4.25,4.25,0,0,0-2.27-.54,7.62,7.62,0,0,0-1.49.14,4.69,4.69,0,0,0-1.2.42,2.33,2.33,0,0,0-.8.67,1.51,1.51,0,0,0-.3.91,1.72,1.72,0,0,0,.42,1.11,3.66,3.66,0,0,0,1.08.86,8.58,8.58,0,0,0,1.52.64,17.14,17.14,0,0,0,1.78.44c.59.11,1.21.19,1.83.25s1.17.09,1.69.09a25.49,25.49,0,0,0,3.26-.21,13.35,13.35,0,0,0,2.92-.66,6.15,6.15,0,0,0,2.13-1.22,2.53,2.53,0,0,0,.84-1.92v-3.28a2.71,2.71,0,0,0-.8-2A5.75,5.75,0,0,0,41.6,99.79Zm-12.33,6.93a.6.6,0,0,1,.36-.5,2.12,2.12,0,0,1,1-.22,2,2,0,0,1,1,.22.54.54,0,0,1,0,1,2,2,0,0,1-1,.23,2.09,2.09,0,0,1-1-.23A.6.6,0,0,1,29.27,106.72Z"/><path class="cls-4" d="M66.54,100.12A4.3,4.3,0,0,0,65,99.2a6.32,6.32,0,0,0-2.29-.36,5.75,5.75,0,0,0-1.6.19,4.52,4.52,0,0,0-1.13.48,4.73,4.73,0,0,0-.86.65c-.21.2-.43.41-.65.6l-.69-.61a6.08,6.08,0,0,0-.92-.65A4.79,4.79,0,0,0,55.73,99a5.28,5.28,0,0,0-1.51-.19,6.4,6.4,0,0,0-2.25.35,4.31,4.31,0,0,0-1.48.9,3.35,3.35,0,0,0-.83,1.24,3.9,3.9,0,0,0-.25,1.32v4.28a2.35,2.35,0,0,0,.42,1.33A3.77,3.77,0,0,0,51,109.33a6.33,6.33,0,0,0,1.74.73,8.6,8.6,0,0,0,2.22.27,6.1,6.1,0,0,0,1.3-.13,5.16,5.16,0,0,0,1.11-.37,2.42,2.42,0,0,0,.78-.6,1.19,1.19,0,0,0,.31-.81,1.21,1.21,0,0,0-.26-.76,2.34,2.34,0,0,0-.68-.59,3.79,3.79,0,0,0-1-.38,5.39,5.39,0,0,0-1.23-.14,6.35,6.35,0,0,0-1,.08,5,5,0,0,0-.91.22,3.3,3.3,0,0,0-.75.38,1.52,1.52,0,0,0-.42.42.31.31,0,0,1-.07-.09,1.81,1.81,0,0,1-.13-.31,1.93,1.93,0,0,1-.06-.36c0-.12,0-.24,0-.34v-3.76c0-.21,0-.46,0-.75a2,2,0,0,1,.25-.78,1.6,1.6,0,0,1,.64-.62,2.46,2.46,0,0,1,1.28-.27,1.82,1.82,0,0,1,.81.19,3.69,3.69,0,0,1,.71.48,6.59,6.59,0,0,1,.67.63c.22.23.44.45.66.65a3.55,3.55,0,0,0,.69.5,1.63,1.63,0,0,0,1.62,0,3.66,3.66,0,0,0,.68-.51c.21-.2.42-.41.64-.64s.41-.43.63-.63a3.49,3.49,0,0,1,.68-.48,1.66,1.66,0,0,1,.78-.18,3,3,0,0,1,1,.14,2.42,2.42,0,0,1,.66.36,1.51,1.51,0,0,1,.39.49A2.49,2.49,0,0,1,65,102a3.84,3.84,0,0,1,.08.55c0,.18,0,.34,0,.47v4.89a1.35,1.35,0,0,1-.13.59,2,2,0,0,1-.35.5,3.39,3.39,0,0,1-.56.47l-.74.51-.33.22h3.12l.49-.42a4.41,4.41,0,0,0,.48-.49,3.07,3.07,0,0,0,.38-.56,1.37,1.37,0,0,0,.17-.65v-5.27a4.15,4.15,0,0,0-.24-1.36A3.2,3.2,0,0,0,66.54,100.12ZM54.2,107.93a2,2,0,0,1,1-.24,2.62,2.62,0,0,1,.57.06,1.77,1.77,0,0,1,.46.18.81.81,0,0,1,.29.25.41.41,0,0,1,.1.26.43.43,0,0,1-.1.27.92.92,0,0,1-.29.25,1.77,1.77,0,0,1-.46.17,2.12,2.12,0,0,1-.57.07,2,2,0,0,1-1-.24c-.26-.15-.39-.32-.39-.52S53.94,108.08,54.2,107.93Z"/><path class="cls-4" d="M57.48,97.84a5.08,5.08,0,0,0,1.23.45,6.45,6.45,0,0,0,1.48.17,6.14,6.14,0,0,0,1.52-.19,4.85,4.85,0,0,0,1.22-.48,2.75,2.75,0,0,0,.84-.72,1.41,1.41,0,0,0,.32-.88,1.63,1.63,0,0,0-.32-1,2.84,2.84,0,0,0-.87-.72A4.91,4.91,0,0,0,61.66,94a6.31,6.31,0,0,0-1.47-.16,6.68,6.68,0,0,0-1.52.17,5,5,0,0,0-1.24.48,2.88,2.88,0,0,0-.84.73,1.54,1.54,0,0,0-.32.93,1.49,1.49,0,0,0,.34.94A2.82,2.82,0,0,0,57.48,97.84Zm2.05-2.46a2.84,2.84,0,0,1,.66-.07,2.48,2.48,0,0,1,.63.07,1.8,1.8,0,0,1,.51.19,1.09,1.09,0,0,1,.32.27.48.48,0,0,1,.12.31.53.53,0,0,1-.13.34,1.26,1.26,0,0,1-.37.27,2.13,2.13,0,0,1-.52.18,2.67,2.67,0,0,1-.56.06,2.13,2.13,0,0,1-1.2-.28.71.71,0,0,1-.39-.57.46.46,0,0,1,.1-.29,1.09,1.09,0,0,1,.32-.27A2.45,2.45,0,0,1,59.53,95.38Z"/><path class="cls-4" d="M90.94,107a5.44,5.44,0,0,0-3.15-.43l-.65.11v-5.24a.87.87,0,0,1,.09-.37,1,1,0,0,1,.28-.34,1.22,1.22,0,0,1,.48-.26,2.09,2.09,0,0,1,.71-.1,9.33,9.33,0,0,1,1,0q.41.06.9.18l.09,0,.76-1.47-.15,0C90.93,99,90.5,99,90,98.9a12.7,12.7,0,0,0-1.29-.08,6.78,6.78,0,0,0-1.88.22,3.9,3.9,0,0,0-1.28.6,2.49,2.49,0,0,0-.74.92,2.79,2.79,0,0,0-.23,1.11V108a1.7,1.7,0,0,0,.34,1.06,2.61,2.61,0,0,0,.87.73,4.86,4.86,0,0,0,1.22.41,7.25,7.25,0,0,0,1.41.13,6,6,0,0,0,1.3-.13,3.82,3.82,0,0,0,1-.38,2.31,2.31,0,0,0,.71-.59,1.43,1.43,0,0,0,.26-.82A1.61,1.61,0,0,0,90.94,107Zm-3.7,1.68a.37.37,0,0,1-.1-.26.38.38,0,0,1,.1-.25.93.93,0,0,1,.28-.23,1.93,1.93,0,0,1,.44-.18,2.35,2.35,0,0,1,.54-.06,2.51,2.51,0,0,1,.55.06,2,2,0,0,1,.45.18,1,1,0,0,1,.29.23.36.36,0,0,1,.1.25c0,.2-.13.36-.38.51a2,2,0,0,1-1,.24,2.29,2.29,0,0,1-.54-.06,1.92,1.92,0,0,1-.43-.18A.92.92,0,0,1,87.24,108.67Z"/><path class="cls-4" d="M82.74,107a4.51,4.51,0,0,0-2.33-.5,4.43,4.43,0,0,0-.81.07l-.65.11v-5.24a.87.87,0,0,1,.09-.37,1.07,1.07,0,0,1,.27-.34,1.38,1.38,0,0,1,.48-.26,2.2,2.2,0,0,1,.72-.1,9.25,9.25,0,0,1,1,0c.27,0,.58.1.9.18l.1,0,.76-1.47-.15,0c-.37-.07-.79-.14-1.26-.2a12.88,12.88,0,0,0-1.3-.08,6.76,6.76,0,0,0-1.87.22,3.71,3.71,0,0,0-1.28.6,2.31,2.31,0,0,0-.74.92,2.63,2.63,0,0,0-.23,1.11V108a1.76,1.76,0,0,0,.33,1.06,2.51,2.51,0,0,0,.88.72,4.32,4.32,0,0,0,1.21.42,7.32,7.32,0,0,0,1.41.13,6,6,0,0,0,1.3-.13,4,4,0,0,0,1-.38,2.1,2.1,0,0,0,.71-.59,1.37,1.37,0,0,0,.27-.82A1.6,1.6,0,0,0,82.74,107ZM79,108.67a.41.41,0,0,1-.09-.26.43.43,0,0,1,.09-.25.85.85,0,0,1,.29-.23,1.69,1.69,0,0,1,.43-.18,2.35,2.35,0,0,1,.54-.06,2.38,2.38,0,0,1,.55.06,2.1,2.1,0,0,1,.46.18,1.18,1.18,0,0,1,.29.23.4.4,0,0,1,.09.25c0,.2-.12.36-.38.51a2,2,0,0,1-1,.24,2.2,2.2,0,0,1-.53-.06,2,2,0,0,1-.44-.18A1.22,1.22,0,0,1,79,108.67Z"/><path class="cls-4" d="M115.64,99.39a5.78,5.78,0,0,0-2.86-.57,3.49,3.49,0,0,0-1.22.18,4.48,4.48,0,0,0-.79.38l-.61.38a1.15,1.15,0,0,1-.61.17h-.16a3.08,3.08,0,0,1-.71-.08,3.4,3.4,0,0,1-.7-.27,3.35,3.35,0,0,1-.59-.39l-.55-.48-.06-.06-2.32,1,.2.12a3.62,3.62,0,0,1,1.17,1,2.06,2.06,0,0,1,.33,1.09v5.17a1,1,0,0,1-.28.68,2.38,2.38,0,0,1-.79.56,4.92,4.92,0,0,1-1.14.38,7.2,7.2,0,0,1-1.32.13,15,15,0,0,1-1.53-.07,4.75,4.75,0,0,1-1.24-.26A2.08,2.08,0,0,1,99,108a1.14,1.14,0,0,1-.29-.8,1.9,1.9,0,0,1,.31-1,7.37,7.37,0,0,1,.8-1.09c.32-.36.67-.74,1-1.11s.74-.74,1.07-1.1a8.08,8.08,0,0,0,.82-1,1.86,1.86,0,0,0,.35-1,1.45,1.45,0,0,0-.29-.88,2.27,2.27,0,0,0-.76-.63A4.26,4.26,0,0,0,101,99a6.57,6.57,0,0,0-1.37-.13,6.1,6.1,0,0,0-1.41.15,3.85,3.85,0,0,0-1.07.42,2,2,0,0,0-.71.65,1.62,1.62,0,0,0-.25.85,1.16,1.16,0,0,0,.34.81,2.25,2.25,0,0,0,.8.54,4.07,4.07,0,0,0,1.07.33,5.27,5.27,0,0,0,.88.1l-.84.84a13.68,13.68,0,0,0-1.05,1.12,6.28,6.28,0,0,0-.82,1.18,2.71,2.71,0,0,0,.13,2.84,3.26,3.26,0,0,0,1.32,1,7.66,7.66,0,0,0,2,.53,21.32,21.32,0,0,0,2.65.15,12.72,12.72,0,0,0,2.41-.21,6.88,6.88,0,0,0,1.89-.62,3.32,3.32,0,0,0,1.25-1,2.42,2.42,0,0,0,.44-1.42V103c0-.28,0-.58,0-.91a4.2,4.2,0,0,0-.11-.71,2.63,2.63,0,0,0,.44.09l.64,0a3.51,3.51,0,0,0,1.17-.18,7,7,0,0,0,.89-.38l.69-.39a1,1,0,0,1,.5-.15,1.73,1.73,0,0,1,.72.12.76.76,0,0,1,.36.28.83.83,0,0,1,.14.38c0,.16,0,.31,0,.45V108a2,2,0,0,1-.06.49,3,3,0,0,1-.19.5,2.8,2.8,0,0,1-.3.49,2.38,2.38,0,0,1-.42.42l-.27.22H116l0,0a2,2,0,0,0,.31-.43,3,3,0,0,0,.2-.49,2.92,2.92,0,0,0,.12-.49,3.93,3.93,0,0,0,0-.46v-7.11A1.89,1.89,0,0,0,115.64,99.39Zm-17.57,1.35a.59.59,0,0,1,.36-.5,2.43,2.43,0,0,1,2,0,.54.54,0,0,1,0,1,2.43,2.43,0,0,1-2,0A.6.6,0,0,1,98.07,100.74Z"/><rect class="cls-4" x="112.02" y="90.02" width="2.09" height="4.43"/><path class="cls-4" d="M133.61,99.77a11.31,11.31,0,0,0-2.36-.71,14.81,14.81,0,0,0-2.67-.24,9.79,9.79,0,0,0-2.37.28,9.48,9.48,0,0,0-2.07.72,5.2,5.2,0,0,0-1.46,1,1.78,1.78,0,0,0-.58,1.24,2.37,2.37,0,0,0,.23,1,2.09,2.09,0,0,0,.72.79,3.74,3.74,0,0,0,1.21.5,7.85,7.85,0,0,0,1.71.17,5.86,5.86,0,0,0,1.29-.14,4,4,0,0,0,1-.4,2.13,2.13,0,0,0,.7-.62,1.36,1.36,0,0,0,.26-.8,1.5,1.5,0,0,0-.22-.77,2,2,0,0,0-.65-.61,3.49,3.49,0,0,0-1-.38,5.41,5.41,0,0,0-1.33-.15h-.24l.6-.15a10.54,10.54,0,0,1,1-.16,10.28,10.28,0,0,1,1.1-.06,9.64,9.64,0,0,1,1.64.14,8.13,8.13,0,0,1,1.6.41,4.28,4.28,0,0,1,1.19.62.88.88,0,0,1,.44.71v7.29a1.61,1.61,0,0,1-.23.82,2.7,2.7,0,0,1-.64.72,4.73,4.73,0,0,1-1,.6,8.33,8.33,0,0,1-1.25.47,5.56,5.56,0,0,1-1.28.24c-.44,0-.79.05-1.08.05h-.19c-.29,0-.64,0-1,0a15,15,0,0,1-1.6-.19,6.9,6.9,0,0,1-1.45-.37l-.09,0-1.08,1.35.16,0a9.9,9.9,0,0,0,1.84.45c.73.12,1.41.19,2,.23s1.12,0,1.53,0,.85,0,1.42,0a9.56,9.56,0,0,0,1.7-.27A16.31,16.31,0,0,0,133,113a7.21,7.21,0,0,0,1.52-.88,4.23,4.23,0,0,0,1.06-1.18,2.9,2.9,0,0,0,.41-1.51v-7a2.19,2.19,0,0,0-.66-1.55A5.74,5.74,0,0,0,133.61,99.77ZM126,103.4a2.12,2.12,0,0,1-1-.23.6.6,0,0,1-.37-.51c0-.2.12-.36.37-.5a2.12,2.12,0,0,1,1-.23,2,2,0,0,1,1,.23.59.59,0,0,1,.36.5.6.6,0,0,1-.36.51A2,2,0,0,1,126,103.4Z"/><path class="cls-4" d="M158.36,98.27a2.38,2.38,0,0,1-.17.66,1.37,1.37,0,0,1-.42.58,9.42,9.42,0,0,0-1.31-.46,6.46,6.46,0,0,0-1.78-.23h-.09a5.91,5.91,0,0,0-1.21.12,4.5,4.5,0,0,0-1.09.37,2.33,2.33,0,0,0-.75.62,1.31,1.31,0,0,0,0,1.63,2.21,2.21,0,0,0,.75.61,4.48,4.48,0,0,0,1.07.38,6.87,6.87,0,0,0,1.32.13,5.7,5.7,0,0,0,1.46-.2,5,5,0,0,0,1.21-.53,15.18,15.18,0,0,1,.14,2.23c0,.81,0,1.63,0,2.44A2,2,0,0,1,157,108a2.16,2.16,0,0,1-1,.65,4.64,4.64,0,0,1-.9.16h-.21a5.17,5.17,0,0,1-.82-.06,3.48,3.48,0,0,1-1.27-.43,2.6,2.6,0,0,1-1-.91,1.45,1.45,0,0,1-.15-1.23l0-.1-.11,0a3.12,3.12,0,0,0-1.14-.21,3.92,3.92,0,0,0-1.23.21l-.12,0,0,.12a1.39,1.39,0,0,1-.06,1.25,2.38,2.38,0,0,1-1,.9,3.81,3.81,0,0,1-1.26.42,7.15,7.15,0,0,1-.83.06h-.15a6,6,0,0,1-1-.18,2.35,2.35,0,0,1-1.06-.66,1.83,1.83,0,0,1-.49-1.36c0-.81,0-1.63,0-2.44a14.82,14.82,0,0,1,.14-2.21,3.34,3.34,0,0,0,1.13.52,7,7,0,0,0,1.77.19,5,5,0,0,0,1.16-.14,4.17,4.17,0,0,0,1-.39,2.58,2.58,0,0,0,.73-.61,1.24,1.24,0,0,0,.29-.78,1.31,1.31,0,0,0-.29-.83,2.23,2.23,0,0,0-.76-.61,4.31,4.31,0,0,0-1.1-.37,6.1,6.1,0,0,0-1.3-.13,7.07,7.07,0,0,0-2.17.31,5.77,5.77,0,0,0-1.67.81,3.93,3.93,0,0,0-1.08,1.16,2.62,2.62,0,0,0-.39,1.34v4.17a3.23,3.23,0,0,0,.29,1.33,3.42,3.42,0,0,0,.91,1.2,4.67,4.67,0,0,0,1.58.87,7.18,7.18,0,0,0,2.31.33,7.65,7.65,0,0,0,1.34-.11,8.26,8.26,0,0,0,1.28-.33,6.54,6.54,0,0,0,1.1-.5,3.92,3.92,0,0,0,.77-.56,5.53,5.53,0,0,0,.84.54,7.89,7.89,0,0,0,1.18.5,8.1,8.1,0,0,0,1.33.34,8.39,8.39,0,0,0,1.41.12,7,7,0,0,0,2.28-.33,4.37,4.37,0,0,0,1.52-.87,3.45,3.45,0,0,0,1.14-2.53v-4.17a2.59,2.59,0,0,0-.16-.91,3.38,3.38,0,0,0-.45-.75,2.3,2.3,0,0,0,.45-.36,2.7,2.7,0,0,0,.43-.53,2.66,2.66,0,0,0,.3-.58,2.55,2.55,0,0,0,.17-.58l0-.12-2.38-.48ZM154.5,100a3,3,0,0,1,1.1.2,1.93,1.93,0,0,1,.74.53,2.14,2.14,0,0,1-.75.52,2.72,2.72,0,0,1-1.09.21,1.9,1.9,0,0,1-1-.23c-.25-.14-.38-.31-.38-.5s.13-.36.38-.5A1.9,1.9,0,0,1,154.5,100Zm-9.29,1.23a.53.53,0,0,1,0-1,2.31,2.31,0,0,1,2,0c.25.14.37.3.37.5s-.12.36-.37.5a2.31,2.31,0,0,1-2,0Z"/><path class="cls-4" d="M158.12,93.6a12.38,12.38,0,0,0-2.92-.85,19.65,19.65,0,0,0-3.37-.28c-.5,0-1.08,0-1.71,0s-1.26.09-1.91.16a18.21,18.21,0,0,0-1.87.33,8.32,8.32,0,0,0-1.64.52,3.47,3.47,0,0,0-1.18.78,1.5,1.5,0,0,0-.46,1.09,1.31,1.31,0,0,0,.25.77,2.18,2.18,0,0,0,.67.6,3.94,3.94,0,0,0,1,.4,5.67,5.67,0,0,0,2.46,0,5.25,5.25,0,0,0,1.12-.36,2.94,2.94,0,0,0,.83-.56,1.06,1.06,0,0,0,.34-.76,1.36,1.36,0,0,0-.25-.83,1.77,1.77,0,0,0-.55-.48l.35-.08q.34-.06.72-.09l.76-.06h.69a20.17,20.17,0,0,1,2.6.16,10.48,10.48,0,0,1,2.25.53,4.3,4.3,0,0,1,1.55,1,1.89,1.89,0,0,1,.57,1.4v.12H161V97a2.84,2.84,0,0,0-.79-2A6.13,6.13,0,0,0,158.12,93.6Zm-11.65,2.55a2,2,0,0,1-1-.24q-.39-.22-.39-.51a.46.46,0,0,1,.09-.27.84.84,0,0,1,.3-.25,1.58,1.58,0,0,1,.46-.18,2.44,2.44,0,0,1,.55-.06,2,2,0,0,1,1,.24.63.63,0,0,1,.38.52.48.48,0,0,1-.09.27,1.16,1.16,0,0,1-.29.24,1.51,1.51,0,0,1-.45.18A2.65,2.65,0,0,1,146.47,96.15Z"/><path class="cls-4" d="M182.82,99.06l0,0h-3.05l.29.21a2.42,2.42,0,0,1,.49.52,2.76,2.76,0,0,1,.31.62,4.05,4.05,0,0,1,.17.64,4.13,4.13,0,0,1,0,.57v5.62a.84.84,0,0,1-.36.68,2.83,2.83,0,0,1-1,.46,7.23,7.23,0,0,1-1.31.26,13.42,13.42,0,0,1-1.38.07,10.23,10.23,0,0,1-1.78-.16,8.11,8.11,0,0,1-1.73-.48,4.16,4.16,0,0,1-1.3-.8,1.46,1.46,0,0,1-.48-1.08v-5.21a1.47,1.47,0,0,0-.31-.88,2.67,2.67,0,0,0-.8-.67,4.67,4.67,0,0,0-1.18-.43,6.72,6.72,0,0,0-1.45-.15,5.38,5.38,0,0,0-2.46.47,1.59,1.59,0,0,0,0,2.89,5.4,5.4,0,0,0,3.08.44,2.78,2.78,0,0,0,.56-.11v3.56a2,2,0,0,1-.31,1.16,2.46,2.46,0,0,1-.83.77,4.07,4.07,0,0,1-1.21.47,11.27,11.27,0,0,1-1.39.25l-.13,0,.3,1.53h.11c.64-.08,1.2-.17,1.67-.25a12.25,12.25,0,0,0,1.28-.3,8.16,8.16,0,0,0,1-.37,4.66,4.66,0,0,0,.75-.45,5.49,5.49,0,0,1,.7.17l.8.27,1,.31a10.17,10.17,0,0,0,1.21.3,15.45,15.45,0,0,0,1.59.21c.6.06,1.3.09,2.08.09a10.33,10.33,0,0,0,1.19-.08c.42-.05.86-.13,1.29-.22a11.7,11.7,0,0,0,1.23-.36,7,7,0,0,0,1.06-.49,3,3,0,0,0,.75-.62,1.15,1.15,0,0,0,.3-.77v-6.61a2.87,2.87,0,0,0-.21-1A4.72,4.72,0,0,0,182.82,99.06Zm-16.32,1.68a.6.6,0,0,1,.37-.51,2.08,2.08,0,0,1,1-.22,2.54,2.54,0,0,1,.56,0,2.22,2.22,0,0,1,.46.17,1,1,0,0,1,.29.24.46.46,0,0,1,.09.27c0,.19-.12.36-.38.5a2,2,0,0,1-1,.23,2,2,0,0,1-1-.23A.59.59,0,0,1,166.5,100.74Z"/><path class="cls-4" d="M206.51,102.52a4.3,4.3,0,0,0-.56-1,4.15,4.15,0,0,0-.78-.79,3.81,3.81,0,0,0,.74-.76l.63-.9.11-.15-2.32-.51,0,.08a5.25,5.25,0,0,1-.43.63,3.48,3.48,0,0,1-.51.5,7.18,7.18,0,0,0-1.29-.38c-.53-.1-1.08-.19-1.65-.25s-1.14-.11-1.71-.14-1.06,0-1.49,0h-.82l-1,0-1,.06c-.33,0-.6,0-.83.07-.54.05-1.1.14-1.66.24a9.92,9.92,0,0,0-1.55.42,3.66,3.66,0,0,0-1.16.65,1.26,1.26,0,0,0-.49,1,1.56,1.56,0,0,0,.94,1.3,7.15,7.15,0,0,0,2.61.72c.72.09,1.45.15,2.19.17s1.5,0,2.29,0a17,17,0,0,0,3.6-.4,12.29,12.29,0,0,0,3.16-1.14,1.81,1.81,0,0,1,.44.48,2.24,2.24,0,0,1,.27.66,4,4,0,0,1,.12.81c0,.29,0,.61,0,.94s0,.5,0,.78,0,.59-.08.89a5.08,5.08,0,0,1-.19.86,2.87,2.87,0,0,1-.31.73,1.78,1.78,0,0,1-.47.51,1.11,1.11,0,0,1-.63.18.8.8,0,0,1-.46-.13,2.32,2.32,0,0,1-.42-.37c-.15-.17-.3-.37-.46-.59s-.36-.49-.57-.75-.57-.68-.87-1a4.6,4.6,0,0,0-1.08-.86,5.72,5.72,0,0,0-1.48-.6,8,8,0,0,0-2-.22,18.27,18.27,0,0,0-2.34.15,10.09,10.09,0,0,0-2.1.51,4.5,4.5,0,0,0-1.52.92,1.94,1.94,0,0,0-.61,1.43,2.44,2.44,0,0,0,.42,1.45,3,3,0,0,0,1.12.94,5.43,5.43,0,0,0,1.61.51,12.9,12.9,0,0,0,1.91.14,5.29,5.29,0,0,0,1.3-.14,3.88,3.88,0,0,0,1-.39,2.32,2.32,0,0,0,.69-.62,1.43,1.43,0,0,0,.25-.8,1.26,1.26,0,0,0-.29-.79,2.37,2.37,0,0,0-.74-.6,4.25,4.25,0,0,0-1.06-.38,5.72,5.72,0,0,0-1.26-.14,4.56,4.56,0,0,0-.72.06,6.11,6.11,0,0,0-.74.17,5.84,5.84,0,0,0-.67.24,2.69,2.69,0,0,0-.29.16,1,1,0,0,1,.24-.41,2.48,2.48,0,0,1,.8-.49,5.39,5.39,0,0,1,1.17-.31,10,10,0,0,1,1.35-.1,5.53,5.53,0,0,1,1.5.17,3.1,3.1,0,0,1,1,.44,3.74,3.74,0,0,1,.68.64c.2.25.43.52.68.79a6.48,6.48,0,0,1,.66.85,4.23,4.23,0,0,0,.72.81,3.18,3.18,0,0,0,1,.61,4.68,4.68,0,0,0,1.64.23,5.1,5.1,0,0,0,1.42-.18,3.35,3.35,0,0,0,1.86-1.29,4.53,4.53,0,0,0,.5-1,6.35,6.35,0,0,0,.33-1.56c0-.55.07-1.13.07-1.71a7.37,7.37,0,0,0-.08-1A4.34,4.34,0,0,0,206.51,102.52Zm-8.36-.62a13.83,13.83,0,0,1-1.43.07c-1,0-1.78,0-2.44,0s-1.09-.06-1.28-.09l-.6-.1-.6-.14a2.43,2.43,0,0,1-.45-.19c-.08,0-.13-.1-.13-.15s.13-.17.23-.22a3.55,3.55,0,0,1,.72-.24l.92-.17.88-.12.79-.09.75,0,.8,0h.9c.32,0,.68,0,1.1,0s.84.06,1.27.1l1.27.17c.3.06.58.12.82.19a4.28,4.28,0,0,1-.85.45,6.74,6.74,0,0,1-1.27.4A10.48,10.48,0,0,1,198.15,101.9Zm-4.4,7.25a2,2,0,0,1-1-.23.61.61,0,0,1-.36-.51.6.6,0,0,1,.36-.5,2,2,0,0,1,1-.23,2.08,2.08,0,0,1,1,.23.59.59,0,0,1,.37.5c0,.2-.12.36-.37.51A2.08,2.08,0,0,1,193.75,109.15Z"/><path class="cls-4" d="M213.88,98.61a5.86,5.86,0,0,0,1.49-.17,5,5,0,0,0,1.24-.48,2.64,2.64,0,0,0,.85-.72,1.47,1.47,0,0,0,0-1.83,2.64,2.64,0,0,0-.85-.72,4.45,4.45,0,0,0-1.24-.48,6,6,0,0,0-1.49-.17,6,6,0,0,0-1.5.17,4.58,4.58,0,0,0-1.24.48,2.75,2.75,0,0,0-.85.72,1.47,1.47,0,0,0,0,1.83,2.9,2.9,0,0,0,.85.72,5.17,5.17,0,0,0,1.24.48A6,6,0,0,0,213.88,98.61Zm1.57-2.3a.67.67,0,0,1-.41.57,2.59,2.59,0,0,1-2.26,0,.61.61,0,0,1,0-1.15,2.59,2.59,0,0,1,2.26,0A.67.67,0,0,1,215.45,96.31Z"/><path class="cls-4" d="M225.43,102.45a2.19,2.19,0,0,0-.66-1.55,5.25,5.25,0,0,0-1.68-1.12,11.21,11.21,0,0,0-2.35-.71,15,15,0,0,0-2.67-.24,10.46,10.46,0,0,0-2.38.27,9.21,9.21,0,0,0-2.06.72,5.12,5.12,0,0,0-1.47,1,1.83,1.83,0,0,0-.58,1.24,2.24,2.24,0,0,0,.24,1,2.09,2.09,0,0,0,.72.79,3.56,3.56,0,0,0,1.21.5,7.75,7.75,0,0,0,1.7.17,5.73,5.73,0,0,0,1.29-.14,4,4,0,0,0,1-.4,2.13,2.13,0,0,0,.7-.62,1.36,1.36,0,0,0,.26-.8,1.41,1.41,0,0,0-.22-.77,1.88,1.88,0,0,0-.64-.61,3.73,3.73,0,0,0-1-.38,5.55,5.55,0,0,0-1.34-.15h-.22l.6-.15a12.12,12.12,0,0,1,2.13-.23,9.73,9.73,0,0,1,1.65.15,10.11,10.11,0,0,1,1.6.4,4.07,4.07,0,0,1,1.18.62.88.88,0,0,1,.44.71v5.45a2.26,2.26,0,0,1-.11.61c-.08.23-.17.47-.27.71s-.21.44-.31.63a1.34,1.34,0,0,1-.18.31l-.18.2h3l0-.06a1.73,1.73,0,0,0,.1-.24l.13-.4c0-.15.09-.31.14-.47s.08-.33.12-.47.06-.28.07-.39,0-.24,0-.24Zm-9.94,1a2.07,2.07,0,0,1-1-.23.59.59,0,0,1-.38-.51c0-.2.12-.36.38-.5a2.07,2.07,0,0,1,1-.23,2,2,0,0,1,1,.23.59.59,0,0,1,.36.5.6.6,0,0,1-.36.51A2,2,0,0,1,215.49,103.4Z"/><path class="cls-4" d="M238.66,107a5.4,5.4,0,0,0-3.14-.43l-.65.11v-5.24a.87.87,0,0,1,.09-.37,1,1,0,0,1,.28-.34,1.25,1.25,0,0,1,.47-.26,2.2,2.2,0,0,1,.72-.1,9.33,9.33,0,0,1,1,0q.41.06.9.18l.09,0,.76-1.47-.15,0c-.37-.07-.79-.14-1.26-.2a12.71,12.71,0,0,0-1.3-.08,6.76,6.76,0,0,0-1.87.22,3.9,3.9,0,0,0-1.28.6,2.31,2.31,0,0,0-.74.92,2.79,2.79,0,0,0-.23,1.11V108a1.7,1.7,0,0,0,.34,1.06,2.61,2.61,0,0,0,.87.73,4.86,4.86,0,0,0,1.22.41,7.18,7.18,0,0,0,1.41.13,5.94,5.94,0,0,0,1.29-.13,3.59,3.59,0,0,0,1.05-.38,2.1,2.1,0,0,0,.71-.59,1.37,1.37,0,0,0,.27-.82A1.6,1.6,0,0,0,238.66,107Zm-2.43,2.17a1.84,1.84,0,0,1-1-.24,1,1,0,0,1-.28-.25.37.37,0,0,1-.1-.26.4.4,0,0,1,.09-.25.85.85,0,0,1,.29-.23,1.76,1.76,0,0,1,.44-.18,2.29,2.29,0,0,1,.54-.06,2.35,2.35,0,0,1,.54.06,1.92,1.92,0,0,1,.46.18,1,1,0,0,1,.29.23.44.44,0,0,1,.1.25c0,.2-.13.36-.39.51A2,2,0,0,1,236.23,109.16Z"/><path class="cls-4" d="M261.16,101.94a4.92,4.92,0,0,0-1.05-1.23,6.88,6.88,0,0,0-1.76-1,6.23,6.23,0,0,0-1.35-.4c-.54-.11-1.09-.2-1.66-.26s-1.13-.11-1.7-.14-1.07,0-1.5,0h-.82l-1,0-1,.06-.83.06c-.54.06-1.1.15-1.66.25a9.92,9.92,0,0,0-1.55.42,3.78,3.78,0,0,0-1.16.65,1.28,1.28,0,0,0-.48,1,1.3,1.3,0,0,0,.57,1,4,4,0,0,0,1.38.66h0l1.56-1.12-.16-.09-.23-.11-.31-.14a1.51,1.51,0,0,1-.26-.18.16.16,0,0,1-.07-.14c0-.08.11-.15.21-.2a3.65,3.65,0,0,1,.71-.24c.29-.06.6-.12.93-.17l.89-.12.79-.09.75,0,.8,0h.9l1.12,0c.43,0,.86.06,1.3.1s.87.1,1.26.17a6.59,6.59,0,0,1,1,.25,5,5,0,0,1,1,.47,2.94,2.94,0,0,1,.81.73,3.07,3.07,0,0,1,.53,1.12,4.88,4.88,0,0,1,.12,1.63c0,.24,0,.5,0,.79a6.73,6.73,0,0,1-.09.88,6.94,6.94,0,0,1-.18.86,3,3,0,0,1-.31.73,1.73,1.73,0,0,1-.47.5,1.09,1.09,0,0,1-.63.19.82.82,0,0,1-.46-.13,2,2,0,0,1-.42-.37c-.14-.17-.3-.37-.46-.59a8.29,8.29,0,0,0-.57-.75c-.27-.35-.57-.69-.86-1a4.87,4.87,0,0,0-1.09-.86,5.64,5.64,0,0,0-1.47-.6,8.11,8.11,0,0,0-2-.22,18.27,18.27,0,0,0-2.34.15,10,10,0,0,0-2.09.51,4.39,4.39,0,0,0-1.53.92,1.93,1.93,0,0,0-.6,1.43,2.5,2.5,0,0,0,.41,1.45,3,3,0,0,0,1.13.94,5.37,5.37,0,0,0,1.6.51,12.86,12.86,0,0,0,1.91.15,5.82,5.82,0,0,0,1.3-.14,4,4,0,0,0,1-.4,2.1,2.1,0,0,0,.69-.62,1.35,1.35,0,0,0,.25-.8,1.26,1.26,0,0,0-.29-.79,2.49,2.49,0,0,0-.74-.6,4.25,4.25,0,0,0-1.06-.38,5.63,5.63,0,0,0-1.25-.14,4.59,4.59,0,0,0-.73.06,6,6,0,0,0-.73.17,4.73,4.73,0,0,0-.67.24,2.11,2.11,0,0,0-.3.16,1,1,0,0,1,.25-.41,2.32,2.32,0,0,1,.79-.49,5.39,5.39,0,0,1,1.17-.31,10,10,0,0,1,1.35-.1,5.48,5.48,0,0,1,1.5.17,3.1,3.1,0,0,1,.95.44,3.19,3.19,0,0,1,.68.64c.21.26.44.52.68.79a8.29,8.29,0,0,1,.67.85,4.21,4.21,0,0,0,.71.81,3.4,3.4,0,0,0,1,.61,4.68,4.68,0,0,0,1.65.24,5.06,5.06,0,0,0,1.41-.19,3.59,3.59,0,0,0,1.08-.5,3.44,3.44,0,0,0,.78-.79,4,4,0,0,0,.5-1,5.55,5.55,0,0,0,.33-1.56c0-.54.07-1.12.07-1.71a6.64,6.64,0,0,0-.13-1.32A4,4,0,0,0,261.16,101.94Zm-12.48,7.21a2,2,0,0,1-1-.23.61.61,0,0,1-.36-.51.6.6,0,0,1,.36-.5,2,2,0,0,1,1-.23,2.08,2.08,0,0,1,1,.23.59.59,0,0,1,.37.5c0,.2-.12.36-.37.51A2.08,2.08,0,0,1,248.68,109.15Z"/><path class="cls-4" d="M260.82,92.9V93a1.94,1.94,0,0,1-.57,1.41,4.31,4.31,0,0,1-1.55,1,10.48,10.48,0,0,1-2.25.53,20.31,20.31,0,0,1-2.61.17l-.66,0c-.24,0-.49,0-.74-.07s-.5-.06-.74-.1l-.36-.06a2,2,0,0,0,.54-.5,1.32,1.32,0,0,0,.25-.81,1.06,1.06,0,0,0-.34-.76,2.57,2.57,0,0,0-.83-.56,5.88,5.88,0,0,0-1.12-.36,6.29,6.29,0,0,0-1.2-.13,5.06,5.06,0,0,0-1.26.15,3.72,3.72,0,0,0-1,.39,2,2,0,0,0-.68.6,1.29,1.29,0,0,0-.25.77,1.5,1.5,0,0,0,.46,1.09,3.82,3.82,0,0,0,1.17.76,9.15,9.15,0,0,0,1.65.53c.6.14,1.24.25,1.88.34s1.28.13,1.9.17,1.21,0,1.71,0a19.65,19.65,0,0,0,3.37-.28,13.11,13.11,0,0,0,2.93-.86A6.09,6.09,0,0,0,262.6,95a2.76,2.76,0,0,0,.78-2V92.9Zm-13.35,1.73a.44.44,0,0,1,.09-.27,1,1,0,0,1,.29-.25,1.84,1.84,0,0,1,.47-.17,2.51,2.51,0,0,1,.55-.06,2.15,2.15,0,0,1,1,.23.63.63,0,0,1,.38.52.39.39,0,0,1-.1.26,1,1,0,0,1-.28.26,1.77,1.77,0,0,1-.46.17,2.47,2.47,0,0,1-.57.07,1.89,1.89,0,0,1-1-.25C247.59,95,247.47,94.83,247.47,94.63Z"/><path class="cls-4" d="M285.67,101.54a3.62,3.62,0,0,0-1-1,6.28,6.28,0,0,0-1.51-.77,13.23,13.23,0,0,0-1.85-.53,18.21,18.21,0,0,0-2.06-.3c-.72-.07-1.43-.1-2.12-.1a17.86,17.86,0,0,0-2,.12,17.38,17.38,0,0,0-2.06.36,16.4,16.4,0,0,0-1.95.58,8.07,8.07,0,0,0-1.64.8,4.23,4.23,0,0,0-1.14,1,2,2,0,0,0-.43,1.25v3.84a2.8,2.8,0,0,0,.41,1.39,3.77,3.77,0,0,0,1.1,1.12,6.05,6.05,0,0,0,1.74.76,9.24,9.24,0,0,0,2.32.27,6,6,0,0,0,1.29-.13,4.49,4.49,0,0,0,1.09-.38,2.6,2.6,0,0,0,.76-.59,1.2,1.2,0,0,0,0-1.56,2.18,2.18,0,0,0-.69-.61,4.29,4.29,0,0,0-1-.43,4.79,4.79,0,0,0-1.22-.16,5.31,5.31,0,0,0-1,.09,5.06,5.06,0,0,0-.91.25,3.21,3.21,0,0,0-.76.4,1.82,1.82,0,0,0-.42.41l-.09-.13a1.21,1.21,0,0,1-.11-.32,1.57,1.57,0,0,1-.05-.37c0-.13,0-.26,0-.37v-3.14a1.59,1.59,0,0,1,.59-1.23,5.15,5.15,0,0,1,1.57-.94,11,11,0,0,1,2.16-.57,14.29,14.29,0,0,1,2.31-.19,19.56,19.56,0,0,1,2.45.14,9.26,9.26,0,0,1,2.1.49,4.07,4.07,0,0,1,1.45.9,1.89,1.89,0,0,1,.53,1.36v4.61a1.38,1.38,0,0,1-.12.59,2.11,2.11,0,0,1-.36.5,3.29,3.29,0,0,1-.55.47l-.75.51-.33.22h3.13l.49-.42a5.52,5.52,0,0,0,.48-.49,3.45,3.45,0,0,0,.38-.56,1.39,1.39,0,0,0,.16-.65v-5.16A2.37,2.37,0,0,0,285.67,101.54Zm-12.07,7.59a2,2,0,0,1-1-.23c-.25-.15-.37-.31-.37-.5a.62.62,0,0,1,.37-.51,2,2,0,0,1,1-.23,2.05,2.05,0,0,1,1,.23.62.62,0,0,1,.37.51c0,.19-.12.35-.38.5A2,2,0,0,1,273.6,109.13Z"/></svg>