<svg xmlns="http://www.w3.org/2000/svg" viewBox="0 0 59.62 22.25"><defs><style>.cls-1{fill:#01c;opacity:0.78;}.cls-2{fill:#fff;}.cls-3{fill:#00ae42;}</style></defs><title>Asset 16</title><g id="Layer_2" data-name="Layer 2"><g id="color_desc" data-name="color desc"><rect class="cls-1" x="0.25" y="0.25" width="59.12" height="21.75" rx="2.17"/><path class="cls-2" d="M57.2.5a1.92,1.92,0,0,1,1.92,1.92v17.4a1.93,1.93,0,0,1-1.92,1.93H2.42A1.93,1.93,0,0,1,.5,19.82V2.42A1.92,1.92,0,0,1,2.42.5H57.2m0-.5H2.42A2.43,2.43,0,0,0,0,2.42v17.4a2.43,2.43,0,0,0,2.42,2.43H57.2a2.42,2.42,0,0,0,2.42-2.43V2.42A2.42,2.42,0,0,0,57.2,0Z"/><path class="cls-2" d="M22.91,6.52H24v7h3.49v.84H22.91Z"/><path class="cls-2" d="M33.73,11.49a2.8,2.8,0,0,1-2.92,3A2.72,2.72,0,0,1,28,11.58a2.79,2.79,0,0,1,2.9-3A2.71,2.71,0,0,1,33.73,11.49Zm-4.66.06a1.94,1.94,0,0,0,1.79,2.16,2,2,0,0,0,1.78-2.19,1.94,1.94,0,0,0-1.76-2.16C29.62,9.36,29.07,10.48,29.07,11.55Z"/><path class="cls-2" d="M40.12,8.72c0,.41,0,.86,0,1.55v3.26a3.16,3.16,0,0,1-.83,2.57,3.19,3.19,0,0,1-2.13.67,3.91,3.91,0,0,1-2-.46l.26-.78a3.47,3.47,0,0,0,1.72.44A1.73,1.73,0,0,0,39,14v-.63h0a2.13,2.13,0,0,1-1.87.94,2.55,2.55,0,0,1-2.49-2.74,2.74,2.74,0,0,1,2.64-3,2,2,0,0,1,1.83,1h0l0-.85ZM39,10.94a1.35,1.35,0,0,0-.06-.46A1.52,1.52,0,0,0,37.47,9.4c-1,0-1.74.82-1.74,2.12,0,1.11.58,2,1.73,2a1.56,1.56,0,0,0,1.48-1A1.75,1.75,0,0,0,39,12Z"/><path class="cls-2" d="M43,7.14a.66.66,0,0,1-1.32,0,.63.63,0,0,1,.67-.63A.61.61,0,0,1,43,7.14Zm-1.19,7.2V8.72h1.07v5.62Z"/><path class="cls-2" d="M44.61,10.25c0-.59,0-1.06,0-1.53h.94l.06.93h0A2.18,2.18,0,0,1,47.53,8.6c.81,0,2.07.46,2.07,2.39v3.35H48.53V11.1c0-.9-.35-1.66-1.35-1.66a1.5,1.5,0,0,0-1.43,1.05,1.38,1.38,0,0,0-.08.48v3.37H44.61Z"/><path class="cls-2" d="M7.24,8.26a.4.4,0,0,0-.4.39v7.16a.4.4,0,0,0,.4.39h7.5a.39.39,0,0,0,.39-.39V8.65a.39.39,0,0,0-.39-.39H12.56V6A1.58,1.58,0,1,0,9.41,6v2.3Z"/><path class="cls-3" d="M14.74,17H7.24a1.16,1.16,0,0,1-1.17-1.16V8.65A1.16,1.16,0,0,1,7.24,7.49h1.4V6a2.35,2.35,0,1,1,4.7,0V7.49h1.4a1.17,1.17,0,0,1,1.17,1.16v7.16A1.17,1.17,0,0,1,14.74,17ZM7.24,8.26a.4.4,0,0,0-.4.39v7.16a.4.4,0,0,0,.4.39h7.5a.39.39,0,0,0,.39-.39V8.65a.39.39,0,0,0-.39-.39H12.56V6A1.58,1.58,0,1,0,9.41,6v2.3Z"/><rect class="cls-3" x="10.47" y="11.03" width="1.03" height="3.37" rx="0.39"/><circle class="cls-3" cx="10.99" cy="11.04" r="1.26"/></g></g></svg>