<svg xmlns="http://www.w3.org/2000/svg" xmlns:xlink="http://www.w3.org/1999/xlink" viewBox="0 0 304 65"><defs><style>.cls-1{fill:none;}.cls-2{isolation:isolate;}.cls-3{clip-path:url(#clip-path);}.cls-4{clip-path:url(#clip-path-2);}.cls-5{clip-path:url(#clip-path-3);}.cls-10,.cls-6{mix-blend-mode:color-dodge;}.cls-6{fill:url(#radial-gradient);}.cls-12,.cls-13,.cls-14,.cls-15,.cls-16,.cls-17,.cls-7,.cls-8{mix-blend-mode:screen;}.cls-7{fill:url(#radial-gradient-2);}.cls-8{fill:url(#radial-gradient-3);}.cls-9{clip-path:url(#clip-path-4);}.cls-10{opacity:0.13;}.cls-11{clip-path:url(#clip-path-5);}.cls-12,.cls-14,.cls-16{opacity:0.6;}.cls-12{fill:url(#Degradado_sin_nombre_4);}.cls-13,.cls-15,.cls-17{opacity:0.8;}.cls-13{fill:url(#Degradado_sin_nombre_3);}.cls-14{fill:url(#Degradado_sin_nombre_4-2);}.cls-15{fill:url(#Degradado_sin_nombre_3-2);}.cls-16{fill:url(#Degradado_sin_nombre_4-3);}.cls-17{fill:url(#Degradado_sin_nombre_3-3);}.cls-18{fill:#17479b;}.cls-19{fill:#15e5ff;}.cls-20{fill:#fff;}.cls-21{fill:#00ae42;}</style><clipPath id="clip-path"><rect class="cls-1" x="1561.51" y="-1856.78" width="1920" height="1361.63"/></clipPath><clipPath id="clip-path-2"><polygon class="cls-1" points="1500.28 -844.94 1500.28 -292.05 2838.13 -928.41 2701.74 -937.26 2612.76 -934.43 1500.28 -844.94"/></clipPath><clipPath id="clip-path-3"><polygon class="cls-1" points="4416.33 -1083.73 -1084.84 578.2 -1211.04 -334.62 4290.14 -1996.55 4416.33 -1083.73"/></clipPath><radialGradient id="radial-gradient" cx="-32.79" cy="104549.33" r="955.48" gradientTransform="matrix(2.45, 0, -0.01, 0.03, 2359.86, -3719.02)" gradientUnits="userSpaceOnUse"><stop offset="0" stop-color="#39c7ff"/><stop offset="0.02" stop-color="#35b8ec"/><stop offset="0.09" stop-color="#2a92bb"/><stop offset="0.17" stop-color="#206f8e"/><stop offset="0.25" stop-color="#175168"/><stop offset="0.33" stop-color="#103848"/><stop offset="0.42" stop-color="#0a232d"/><stop offset="0.52" stop-color="#061419"/><stop offset="0.64" stop-color="#02080b"/><stop offset="0.77" stop-color="#010203"/><stop offset="1"/></radialGradient><radialGradient id="radial-gradient-2" cx="4.11" cy="92593.97" r="954.54" gradientTransform="matrix(2.45, 0, -0.01, 0.03, 2368.69, -3786.16)" gradientUnits="userSpaceOnUse"><stop offset="0" stop-color="#f26522"/><stop offset="0.01" stop-color="#ec6221"/><stop offset="0.08" stop-color="#bb4e1a"/><stop offset="0.16" stop-color="#8e3b14"/><stop offset="0.24" stop-color="#682b0f"/><stop offset="0.32" stop-color="#481e0a"/><stop offset="0.41" stop-color="#2d1306"/><stop offset="0.52" stop-color="#190a04"/><stop offset="0.63" stop-color="#0b0502"/><stop offset="0.77" stop-color="#030100"/><stop offset="1"/></radialGradient><radialGradient id="radial-gradient-3" cx="-26.98" cy="33281.14" r="955.08" gradientTransform="matrix(2.45, 0, -0.02, 0.09, 2313.2, -3505.54)" gradientUnits="userSpaceOnUse"><stop offset="0" stop-color="aqua"/><stop offset="0.02" stop-color="#00ecec"/><stop offset="0.09" stop-color="#0bb"/><stop offset="0.17" stop-color="#008e8e"/><stop offset="0.25" stop-color="#006868"/><stop offset="0.33" stop-color="#004848"/><stop offset="0.42" stop-color="#002d2d"/><stop offset="0.52" stop-color="#001919"/><stop offset="0.64" stop-color="#000b0b"/><stop offset="0.77" stop-color="#000303"/><stop offset="1"/></radialGradient><clipPath id="clip-path-4"><rect class="cls-1" x="-2444.14" y="-849.21" width="1920" height="917.5"/></clipPath><clipPath id="clip-path-5"><rect class="cls-1" x="-2462.06" y="-8.29" width="1952.64" height="364.71"/></clipPath><radialGradient id="Degradado_sin_nombre_4" cx="18004.31" cy="-3657.6" r="133.83" gradientTransform="matrix(-0.23, 0.16, -8, -3.55, -25893.52, -15626.83)" gradientUnits="userSpaceOnUse"><stop offset="0" stop-color="#fff"/><stop offset="0.27" stop-color="blue"/><stop offset="0.34" stop-color="#0000f3" stop-opacity="0.95"/><stop offset="0.45" stop-color="#0000d4" stop-opacity="0.83"/><stop offset="0.6" stop-color="#0000a2" stop-opacity="0.63"/><stop offset="0.78" stop-color="#00005c" stop-opacity="0.36"/><stop offset="0.99" stop-color="#000004" stop-opacity="0.02"/><stop offset="1" stop-opacity="0"/></radialGradient><radialGradient id="Degradado_sin_nombre_3" cx="71541.08" cy="-3590.9" r="133.7" gradientTransform="matrix(-0.05, 0.04, -8.04, -3.52, -26128.79, -15452.33)" gradientUnits="userSpaceOnUse"><stop offset="0" stop-color="#fff"/><stop offset="0.43" stop-color="#a8ffff"/><stop offset="1" stop-opacity="0"/></radialGradient><radialGradient id="Degradado_sin_nombre_4-2" cx="18426.68" cy="-3499.52" r="133.83" gradientTransform="matrix(-0.17, 0.18, -9.17, -2.51, -29751.94, -12032.87)" xlink:href="#Degradado_sin_nombre_4"/><radialGradient id="Degradado_sin_nombre_3-2" cx="73246.22" cy="-3432.48" r="133.78" gradientTransform="matrix(-0.04, 0.05, -9.2, -2.48, -29915.04, -11833.79)" xlink:href="#Degradado_sin_nombre_3"/><radialGradient id="Degradado_sin_nombre_4-3" cx="18319.14" cy="-3439.5" r="133.85" gradientTransform="matrix(-0.14, 0.19, -9.52, -2.06, -30875.06, -10500.83)" xlink:href="#Degradado_sin_nombre_4"/><radialGradient id="Degradado_sin_nombre_3-3" cx="72604.65" cy="-3372.65" r="133.67" gradientTransform="matrix(-0.03, 0.05, -9.54, -2.03, -31008.21, -10294.02)" xlink:href="#Degradado_sin_nombre_3"/></defs><title>bt-login-18</title><g class="cls-2"><g id="layout"><g class="cls-3"><g class="cls-4"><g class="cls-5"><ellipse class="cls-6" cx="1634.82" cy="-618.1" rx="2336.56" ry="28.36" transform="translate(249.91 448.06) rotate(-16.88)"/><ellipse class="cls-7" cx="1635.03" cy="-616.56" rx="2336.43" ry="32.67" transform="translate(247.04 445.02) rotate(-16.75)"/><ellipse class="cls-8" cx="1634.82" cy="-618.1" rx="2336.54" ry="82.89" transform="translate(249.96 448.13) rotate(-16.88)"/></g></g></g></g><g id="icon"><g class="cls-9"><g class="cls-10"><g class="cls-11"><path class="cls-12" d="M-855.91,180.25C-1447.19-82-1912.58-303.88-1895.39-315.42s510.45,191.65,1101.73,453.85S263,622.56,245.82,634.1-264.64,442.45-855.91,180.25Z"/><path class="cls-13" d="M-987.33,98c-594.09-260.16-1072.59-473.5-1068.76-476.49S-1567.55-173-973.46,87.14,99.13,560.64,95.3,563.64-393.24,358.15-987.33,98Z"/><path class="cls-14" d="M-780,87c-677.69-185.25-1217-346.24-1204.65-359.58s571.81,126,1249.5,311.27S481.87,385,469.49,398.29-102.32,272.26-780,87Z"/><path class="cls-15" d="M-939.8,22.41c-679.67-182.93-1228.54-334-1225.94-337.35S-1610.06-172.78-930.39,10.15,298.15,344.11,295.55,347.5-260.13,205.33-939.8,22.41Z"/><path class="cls-16" d="M-725.13,51.61c-703.34-152.32-1265.13-287.06-1254.82-300.94S-1391.1-151-687.77,1.34,577.36,288.41,567,302.29-21.8,203.94-725.13,51.61Z"/><path class="cls-17" d="M-894.13-5.15c-704.95-149.92-1274.73-274.28-1272.65-277.78s575.22,115.2,1280.17,265.12S388.11,256.46,386,260-189.19,144.76-894.13-5.15Z"/></g></g></g><rect class="cls-18" x="4.37" y="5.03" width="295.22" height="56.49" rx="10.12"/><path class="cls-19" d="M289.47,5.53a9.63,9.63,0,0,1,9.62,9.62V51.4A9.62,9.62,0,0,1,289.47,61h-275A9.62,9.62,0,0,1,4.87,51.4V15.15a9.63,9.63,0,0,1,9.62-9.62h275m0-1h-275A10.62,10.62,0,0,0,3.87,15.15V51.4A10.61,10.61,0,0,0,14.49,62h275A10.61,10.61,0,0,0,300.09,51.4V15.15A10.62,10.62,0,0,0,289.47,4.53Z"/><path class="cls-20" d="M56.17,20.3h2.64V41.6H56.17Z"/><path class="cls-20" d="M71.29,41.6l-.21-1.83H71a5.41,5.41,0,0,1-4.44,2.16,4.14,4.14,0,0,1-4.44-4.17c0-3.51,3.12-5.43,8.73-5.4v-.3c0-1.2-.33-3.36-3.3-3.36a7.23,7.23,0,0,0-3.78,1.08L63.16,28a9,9,0,0,1,4.77-1.29c4.44,0,5.52,3,5.52,5.94v5.43a20.44,20.44,0,0,0,.24,3.48Zm-.39-7.41c-2.88-.06-6.15.45-6.15,3.27A2.34,2.34,0,0,0,67.24,40a3.61,3.61,0,0,0,3.51-2.43,2.76,2.76,0,0,0,.15-.84Z"/><path class="cls-20" d="M90.85,34.22c0,5.37-3.72,7.71-7.23,7.71-3.93,0-7-2.88-7-7.47,0-4.86,3.18-7.71,7.2-7.71C88,26.75,90.85,29.78,90.85,34.22Zm-11.52.15c0,3.18,1.83,5.58,4.41,5.58s4.41-2.37,4.41-5.64c0-2.46-1.23-5.58-4.35-5.58S79.33,31.61,79.33,34.37Z"/><path class="cls-20" d="M95,27.08l2.85,8.16A37.34,37.34,0,0,1,99,39h.09c.33-1.2.75-2.4,1.23-3.72l2.82-8.16h2.76l-5.7,14.52H97.69L92.17,27.08Z"/><path class="cls-20" d="M111.34,23a1.64,1.64,0,0,1-3.27,0,1.61,1.61,0,0,1,1.65-1.65A1.57,1.57,0,0,1,111.34,23ZM108.4,41.6V27.08H111V41.6Z"/><path class="cls-20" d="M116.89,34.82c.06,3.57,2.34,5,5,5a9.55,9.55,0,0,0,4-.75l.45,1.89a11.76,11.76,0,0,1-4.83.9c-4.47,0-7.14-2.94-7.14-7.32s2.58-7.83,6.81-7.83c4.74,0,6,4.17,6,6.84a10,10,0,0,1-.09,1.23Zm7.74-1.89c0-1.68-.69-4.29-3.66-4.29-2.67,0-3.84,2.46-4,4.29Z"/><path class="cls-20" d="M133.63,22.91v4.17h3.78v2h-3.78v7.83c0,1.8.51,2.82,2,2.82a5.87,5.87,0,0,0,1.53-.18l.12,2a6.46,6.46,0,0,1-2.34.36,3.66,3.66,0,0,1-2.85-1.11c-.75-.78-1-2.07-1-3.78V29.09H128.8v-2h2.25V23.6Z"/><path class="cls-20" d="M140.26,41.6c.06-1,.12-2.46.12-3.75V20.3H143v9.12h.06A5.41,5.41,0,0,1,148,26.75c3.6,0,6.15,3,6.12,7.41,0,5.19-3.27,7.77-6.51,7.77a5.17,5.17,0,0,1-4.86-2.73h-.09l-.12,2.4ZM143,35.78a4.94,4.94,0,0,0,.12,1,4.07,4.07,0,0,0,4,3.09c2.76,0,4.41-2.25,4.41-5.58,0-2.91-1.5-5.4-4.32-5.4a4.21,4.21,0,0,0-4,3.24,5.2,5.2,0,0,0-.15,1.08Z"/><path class="cls-20" d="M165.49,41.6l-.21-1.83h-.09a5.41,5.41,0,0,1-4.44,2.16,4.14,4.14,0,0,1-4.44-4.17c0-3.51,3.12-5.43,8.73-5.4v-.3c0-1.2-.33-3.36-3.3-3.36A7.23,7.23,0,0,0,158,29.78l-.6-1.74a9,9,0,0,1,4.77-1.29c4.44,0,5.52,3,5.52,5.94v5.43a20.44,20.44,0,0,0,.24,3.48Zm-.39-7.41c-2.88-.06-6.15.45-6.15,3.27A2.34,2.34,0,0,0,161.44,40,3.61,3.61,0,0,0,165,37.55a2.76,2.76,0,0,0,.15-.84Z"/><path class="cls-20" d="M171.91,31c0-1.5,0-2.73-.12-3.93h2.34l.15,2.4h.06a5.34,5.34,0,0,1,4.8-2.73c2,0,5.13,1.2,5.13,6.18V41.6h-2.64V33.23c0-2.34-.87-4.29-3.36-4.29a3.75,3.75,0,0,0-3.54,2.7,3.8,3.8,0,0,0-.18,1.23V41.6h-2.64Z"/><path class="cls-20" d="M191.17,33.74h.06c.36-.51.87-1.14,1.29-1.65l4.25-5H200l-5.61,6,6.38,8.55h-3.21l-5-7-1.35,1.5V41.6h-2.61V20.3h2.61Z"/><path class="cls-20" d="M202.41,40a1.77,1.77,0,0,1,1.8-1.89,1.89,1.89,0,0,1,0,3.78A1.77,1.77,0,0,1,202.41,40Z"/><path class="cls-20" d="M219.6,41.06a9.71,9.71,0,0,1-4.16.84c-4.38,0-7.24-3-7.24-7.41a7.38,7.38,0,0,1,7.8-7.71,8.82,8.82,0,0,1,3.66.75l-.6,2a6.12,6.12,0,0,0-3.06-.69c-3.33,0-5.13,2.46-5.13,5.49,0,3.36,2.16,5.43,5,5.43a7.5,7.5,0,0,0,3.24-.72Z"/><path class="cls-20" d="M235.65,34.22c0,5.37-3.72,7.71-7.23,7.71-3.93,0-7-2.88-7-7.47,0-4.86,3.18-7.71,7.2-7.71C232.83,26.75,235.65,29.78,235.65,34.22Zm-11.52.15c0,3.18,1.83,5.58,4.41,5.58S233,37.58,233,34.31c0-2.46-1.23-5.58-4.35-5.58S224.13,31.61,224.13,34.37Z"/><path class="cls-20" d="M239,31c0-1.5,0-2.73-.12-3.93h2.31l.12,2.34h.09a5,5,0,0,1,4.56-2.67,4.29,4.29,0,0,1,4.11,2.91h.06a6,6,0,0,1,1.62-1.89,5,5,0,0,1,3.21-1c1.92,0,4.77,1.26,4.77,6.3V41.6h-2.58V33.38c0-2.79-1-4.47-3.15-4.47a3.42,3.42,0,0,0-3.12,2.4,4.35,4.35,0,0,0-.21,1.32v9h-2.58V32.9c0-2.31-1-4-3-4a3.93,3.93,0,0,0-3.48,3.93V41.6H239Z"/><path class="cls-20" d="M263.37,40a1.77,1.77,0,0,1,1.8-1.89,1.89,1.89,0,1,1-1.8,1.89Z"/><path class="cls-20" d="M270.21,20.3h2.64V41.6h-2.64Z"/><path class="cls-20" d="M285.33,41.6l-.21-1.83H285a5.41,5.41,0,0,1-4.44,2.16,4.14,4.14,0,0,1-4.44-4.17c0-3.51,3.12-5.43,8.73-5.4v-.3c0-1.2-.33-3.36-3.3-3.36a7.23,7.23,0,0,0-3.78,1.08L277.2,28A9,9,0,0,1,282,26.75c4.44,0,5.52,3,5.52,5.94v5.43a20.44,20.44,0,0,0,.24,3.48Zm-.39-7.41c-2.88-.06-6.15.45-6.15,3.27A2.34,2.34,0,0,0,281.28,40a3.61,3.61,0,0,0,3.51-2.43,2.76,2.76,0,0,0,.15-.84Z"/><path class="cls-20" d="M22.57,25.88a1,1,0,0,0-1,1V45.38a1,1,0,0,0,1,1H42a1,1,0,0,0,1-1V26.89a1,1,0,0,0-1-1H36.33v-6a4.07,4.07,0,0,0-8.13,0v6Z"/><path class="cls-21" d="M42,48.39H22.57a3,3,0,0,1-3-3V26.89a3,3,0,0,1,3-3H26.2v-4a6.07,6.07,0,0,1,12.13,0v4H42a3,3,0,0,1,3,3V45.38A3,3,0,0,1,42,48.39ZM22.57,25.88a1,1,0,0,0-1,1V45.38a1,1,0,0,0,1,1H42a1,1,0,0,0,1-1V26.89a1,1,0,0,0-1-1H36.33v-6a4.07,4.07,0,0,0-8.13,0v6Z"/><rect class="cls-21" x="30.94" y="33.03" width="2.65" height="8.72" rx="1.14"/><circle class="cls-21" cx="32.26" cy="33.06" r="3.25"/></g></g></svg>