<svg xmlns="http://www.w3.org/2000/svg" xmlns:xlink="http://www.w3.org/1999/xlink" viewBox="0 0 200 65"><defs><style>.cls-1{fill:none;}.cls-2{isolation:isolate;}.cls-3{clip-path:url(#clip-path);}.cls-4{opacity:0.13;mix-blend-mode:color-dodge;}.cls-5{clip-path:url(#clip-path-2);}.cls-10,.cls-6,.cls-8{opacity:0.6;}.cls-10,.cls-11,.cls-6,.cls-7,.cls-8,.cls-9{mix-blend-mode:screen;}.cls-6{fill:url(#Degradado_sin_nombre_4);}.cls-11,.cls-7,.cls-9{opacity:0.8;}.cls-7{fill:url(#Degradado_sin_nombre_3);}.cls-8{fill:url(#Degradado_sin_nombre_4-2);}.cls-9{fill:url(#Degradado_sin_nombre_3-2);}.cls-10{fill:url(#Degradado_sin_nombre_4-3);}.cls-11{fill:url(#Degradado_sin_nombre_3-3);}.cls-12{fill:#fff;}.cls-13{fill:#a6a4a4;}</style><clipPath id="clip-path"><rect class="cls-1" x="-2004.02" y="-642.62" width="1920" height="917.5"/></clipPath><clipPath id="clip-path-2"><rect class="cls-1" x="-2021.95" y="198.3" width="1952.64" height="364.71"/></clipPath><radialGradient id="Degradado_sin_nombre_4" cx="19240.98" cy="-3680.78" r="133.83" gradientTransform="matrix(-0.23, 0.16, -8, -3.55, -25350.93, -15695.53)" gradientUnits="userSpaceOnUse"><stop offset="0" stop-color="#fff"/><stop offset="0.27" stop-color="blue"/><stop offset="0.34" stop-color="#0000f3" stop-opacity="0.95"/><stop offset="0.45" stop-color="#0000d4" stop-opacity="0.83"/><stop offset="0.6" stop-color="#0000a2" stop-opacity="0.63"/><stop offset="0.78" stop-color="#00005c" stop-opacity="0.36"/><stop offset="0.99" stop-color="#000004" stop-opacity="0.02"/><stop offset="1" stop-opacity="0"/></radialGradient><radialGradient id="Degradado_sin_nombre_3" cx="75242.82" cy="-3611.97" r="133.7" gradientTransform="matrix(-0.05, 0.04, -8.04, -3.52, -25665.83, -15470.2)" gradientUnits="userSpaceOnUse"><stop offset="0" stop-color="#fff"/><stop offset="0.43" stop-color="#a8ffff"/><stop offset="1" stop-opacity="0"/></radialGradient><radialGradient id="Degradado_sin_nombre_4-2" cx="19779.71" cy="-3516.24" r="133.83" gradientTransform="matrix(-0.17, 0.18, -9.17, -2.51, -29237.93, -12112.26)" xlink:href="#Degradado_sin_nombre_4"/><radialGradient id="Degradado_sin_nombre_3-2" cx="77422.43" cy="-3446.82" r="133.78" gradientTransform="matrix(-0.04, 0.05, -9.2, -2.48, -29459.39, -11853.95)" xlink:href="#Degradado_sin_nombre_3"/><radialGradient id="Degradado_sin_nombre_4-3" cx="19706.95" cy="-3453.43" r="133.85" gradientTransform="matrix(-0.14, 0.19, -9.52, -2.06, -30373.4, -10583.44)" xlink:href="#Degradado_sin_nombre_4"/><radialGradient id="Degradado_sin_nombre_3-3" cx="76913.29" cy="-3384.1" r="133.67" gradientTransform="matrix(-0.03, 0.05, -9.54, -2.03, -30555.67, -10314.89)" xlink:href="#Degradado_sin_nombre_3"/></defs><title>icon-web-</title><g class="cls-2"><g id="icon"><g class="cls-3"><g class="cls-4"><g class="cls-5"><path class="cls-6" d="M-415.8,386.84C-1007.08,124.63-1472.47-97.29-1455.27-108.84S-944.82,82.82-353.54,345,703.12,829.14,685.93,840.69,175.48,649-415.8,386.84Z"/><path class="cls-7" d="M-547.22,304.57C-1141.31,44.4-1619.81-168.93-1616-171.93S-1127.43,33.56-533.34,293.73,539.25,767.23,535.41,770.22,46.87,564.74-547.22,304.57Z"/><path class="cls-8" d="M-339.9,293.6C-1017.6,108.35-1556.94-52.65-1544.56-66S-972.75,60-295,245.29,922,591.53,909.6,604.87,337.8,478.85-339.9,293.6Z"/><path class="cls-9" d="M-499.69,229C-1179.35,46.07-1728.23-105-1725.63-108.35S-1169.94,33.81-490.27,216.74,738.27,550.7,735.67,554.08,180,411.92-499.69,229Z"/><path class="cls-10" d="M-285,258.2C-988.35,105.88-1550.15-28.86-1539.83-42.74S-951,55.61-247.65,207.93,1017.48,495,1007.16,508.88,418.32,410.53-285,258.2Z"/><path class="cls-11" d="M-454,201.44C-1159,51.52-1728.75-72.84-1726.67-76.34S-1151.44,38.86-446.5,188.78,828.23,463.05,826.15,466.55,250.92,351.35-454,201.44Z"/></g></g></g><path class="cls-12" d="M194.86,54.26a5.46,5.46,0,0,1-5.47,5.46H10.61a5.46,5.46,0,0,1-5.47-5.46V10.74a5.47,5.47,0,0,1,5.47-5.46H189.39a5.46,5.46,0,0,1,5.46,5.46V54.26Z"/><path class="cls-13" d="M189.39,61H10.61a6.74,6.74,0,0,1-6.74-6.73V10.74A6.74,6.74,0,0,1,10.61,4H189.39a6.75,6.75,0,0,1,6.74,6.73V54.26A6.75,6.75,0,0,1,189.39,61Z"/><path d="M194.86,54.26a5.46,5.46,0,0,1-5.47,5.46H10.61a5.46,5.46,0,0,1-5.47-5.46V10.74a5.47,5.47,0,0,1,5.47-5.46H189.39a5.46,5.46,0,0,1,5.46,5.46V54.26Z"/><path class="cls-12" d="M46.8,32.2a8.27,8.27,0,0,1,3.93-6.93,8.44,8.44,0,0,0-6.66-3.6c-2.8-.3-5.52,1.67-7,1.67s-3.65-1.64-6-1.6a8.9,8.9,0,0,0-7.47,4.56c-3.23,5.59-.82,13.8,2.27,18.32,1.55,2.22,3.36,4.68,5.73,4.6s3.18-1.48,6-1.48,3.58,1.48,6,1.42,4-2.22,5.54-4.45a17.89,17.89,0,0,0,2.53-5.17A8,8,0,0,1,46.8,32.2Z"/><path class="cls-12" d="M42.24,18.69a8.07,8.07,0,0,0,1.86-5.82,8.23,8.23,0,0,0-5.35,2.77,7.7,7.7,0,0,0-1.91,5.61A6.83,6.83,0,0,0,42.24,18.69Z"/><path class="cls-12" d="M80.34,48.9H77.1l-1.77-5.57H69.17L67.48,48.9H64.33l6.11-19h3.77ZM74.8,41l-1.61-5c-.17-.5-.49-1.7-1-3.57h-.06q-.29,1.22-.9,3.57L69.7,41Z"/><path class="cls-12" d="M96,41.9a7.76,7.76,0,0,1-1.89,5.51,5.58,5.58,0,0,1-4.22,1.8A4.22,4.22,0,0,1,86,47.27v7.17H83V39.72c0-1.46,0-3-.11-4.49h2.67l.17,2.16h0a5.4,5.4,0,0,1,8.65-.53A7.52,7.52,0,0,1,96,41.9ZM92.92,42a5.61,5.61,0,0,0-.91-3.3,3.09,3.09,0,0,0-2.64-1.35,3.14,3.14,0,0,0-2,.75,3.41,3.41,0,0,0-1.19,2A3.69,3.69,0,0,0,86,41v2.28a3.67,3.67,0,0,0,.92,2.52,3.05,3.05,0,0,0,2.38,1A3.12,3.12,0,0,0,92,45.5,5.84,5.84,0,0,0,92.92,42Z"/><path class="cls-12" d="M111.74,41.9a7.72,7.72,0,0,1-1.9,5.51,5.56,5.56,0,0,1-4.21,1.8,4.23,4.23,0,0,1-3.91-1.94v7.17h-3V39.72c0-1.46,0-3-.11-4.49h2.67l.17,2.16h.06a5.4,5.4,0,0,1,8.65-.53A7.52,7.52,0,0,1,111.74,41.9Zm-3.1.11a5.68,5.68,0,0,0-.9-3.3,3.21,3.21,0,0,0-4.68-.6,3.48,3.48,0,0,0-1.2,2,4.12,4.12,0,0,0-.14.92v2.28a3.67,3.67,0,0,0,.91,2.52,3.05,3.05,0,0,0,2.38,1,3.09,3.09,0,0,0,2.67-1.32A5.84,5.84,0,0,0,108.64,42Z"/><path class="cls-12" d="M129.32,43.58a5.05,5.05,0,0,1-1.68,3.94,7.47,7.47,0,0,1-5.17,1.66A9,9,0,0,1,117.56,48l.7-2.53a8.45,8.45,0,0,0,4.39,1.18,4.14,4.14,0,0,0,2.67-.77,2.53,2.53,0,0,0,1-2.07,2.65,2.65,0,0,0-.79-1.94,7.18,7.18,0,0,0-2.61-1.46c-3.32-1.24-5-3-5-5.44a4.79,4.79,0,0,1,1.76-3.82,6.93,6.93,0,0,1,4.66-1.49,9.19,9.19,0,0,1,4.3.9L127.85,33a7.53,7.53,0,0,0-3.64-.87,3.76,3.76,0,0,0-2.52.79,2.36,2.36,0,0,0,.12,3.57A9.82,9.82,0,0,0,124.56,38a9.28,9.28,0,0,1,3.6,2.3A4.78,4.78,0,0,1,129.32,43.58Z"/><path class="cls-12" d="M139.39,37.51H136v6.64c0,1.68.59,2.53,1.77,2.53a5,5,0,0,0,1.35-.15l.09,2.31a6.74,6.74,0,0,1-2.36.34,3.67,3.67,0,0,1-2.82-1.1,5.41,5.41,0,0,1-1-3.69V37.5h-2V35.22h2v-2.5l3-.9v3.4h3.35Z"/><path class="cls-12" d="M154.47,42a7.51,7.51,0,0,1-1.8,5.18,6.43,6.43,0,0,1-5,2.08,6.12,6.12,0,0,1-4.8-2,7.26,7.26,0,0,1-1.78-5A7.44,7.44,0,0,1,142.92,37a6.38,6.38,0,0,1,5-2,6.25,6.25,0,0,1,4.83,2A7.14,7.14,0,0,1,154.47,42Zm-3.15.07a6.17,6.17,0,0,0-.81-3.23,3,3,0,0,0-2.73-1.62A3.06,3.06,0,0,0,145,38.79a6.29,6.29,0,0,0-.81,3.29,6.17,6.17,0,0,0,.81,3.23,3.12,3.12,0,0,0,5.49,0A6.13,6.13,0,0,0,151.32,42Z"/><path class="cls-12" d="M164.35,37.9a4.89,4.89,0,0,0-1-.09A2.89,2.89,0,0,0,160.91,39a4.58,4.58,0,0,0-.75,2.7V48.9h-3V39.53c0-1.57,0-3-.09-4.3h2.65l.11,2.61h.08a4.71,4.71,0,0,1,1.52-2.16,3.69,3.69,0,0,1,2.2-.74,4.42,4.42,0,0,1,.76.06v2.9Z"/><path class="cls-12" d="M177.93,41.42a6.71,6.71,0,0,1-.11,1.37h-9.11a4,4,0,0,0,1.32,3.1,4.5,4.5,0,0,0,3,1,10.14,10.14,0,0,0,3.69-.65l.48,2.11a11.5,11.5,0,0,1-4.59.84,6.61,6.61,0,0,1-5-1.87,6.89,6.89,0,0,1-1.82-5,7.85,7.85,0,0,1,1.69-5.14,5.81,5.81,0,0,1,4.78-2.2,5.09,5.09,0,0,1,4.48,2.2A7.36,7.36,0,0,1,177.93,41.42ZM175,40.63a4.16,4.16,0,0,0-.59-2.34A2.68,2.68,0,0,0,172,37a2.91,2.91,0,0,0-2.42,1.24,4.51,4.51,0,0,0-.9,2.37Z"/><path class="cls-12" d="M73.33,23.15H71.74l-.87-2.74h-3L67,23.15H65.46l3-9.32h1.85Zm-2.72-3.89-.79-2.43c-.08-.25-.24-.83-.47-1.75h0c-.1.4-.24,1-.44,1.75l-.78,2.43Z"/><path class="cls-12" d="M80.83,16.43l-2.54,6.72H76.84l-2.46-6.72H76L77.13,20c.19.6.36,1.17.48,1.7h0c.11-.48.28-1.05.49-1.7l1.13-3.55Z"/><path class="cls-12" d="M86.25,23.15l-.11-.77h0a2.3,2.3,0,0,1-2,.92,2,2,0,0,1-2.06-2c0-1.66,1.43-2.52,3.92-2.52v-.13c0-.88-.47-1.32-1.39-1.32a3.08,3.08,0,0,0-1.76.5l-.3-1a4.35,4.35,0,0,1,2.31-.58c1.75,0,2.64.93,2.64,2.78v2.48a9.66,9.66,0,0,0,.1,1.6ZM86,19.8c-1.66,0-2.49.41-2.49,1.36a1,1,0,0,0,1,1.05A1.42,1.42,0,0,0,86,20.84Z"/><path class="cls-12" d="M90.82,15.32a.89.89,0,1,1,1-.9A.87.87,0,0,1,90.82,15.32Zm.78,7.83H90.11V16.43H91.6Z"/><path class="cls-12" d="M95.75,23.15h-1.5v-9.8h1.5Z"/><path class="cls-12" d="M102.09,23.15l-.11-.77h0a2.3,2.3,0,0,1-2,.92,2,2,0,0,1-2.06-2c0-1.66,1.43-2.52,3.92-2.52v-.13c0-.88-.47-1.32-1.39-1.32a3.08,3.08,0,0,0-1.76.5l-.3-1a4.26,4.26,0,0,1,2.31-.58c1.75,0,2.64.93,2.64,2.78v2.48a11.24,11.24,0,0,0,.09,1.6Zm-.2-3.35c-1.66,0-2.49.41-2.49,1.36a1,1,0,0,0,1,1.05,1.43,1.43,0,0,0,1.47-1.37Z"/><path class="cls-12" d="M109.39,23.3a2.27,2.27,0,0,1-2.11-1.19h0l-.09,1h-1.27c0-.54,0-1.15,0-1.81v-8h1.5v4.06h0a2.31,2.31,0,0,1,2.14-1.12c1.62,0,2.75,1.39,2.75,3.4S111.1,23.3,109.39,23.3Zm-.3-5.83a1.72,1.72,0,0,0-1.65,1.78v1.18a1.65,1.65,0,0,0,1.62,1.68c1.12,0,1.78-.91,1.78-2.36S110.15,17.47,109.09,17.47Z"/><path class="cls-12" d="M116.06,23.15h-1.49v-9.8h1.49Z"/><path class="cls-12" d="M124.19,20.15h-4.48a1.93,1.93,0,0,0,2.12,2,5,5,0,0,0,1.81-.32l.23,1a5.55,5.55,0,0,1-2.25.41,3.11,3.11,0,0,1-3.35-3.38c0-2.06,1.27-3.61,3.18-3.61,1.71,0,2.79,1.27,2.79,3.19A2.35,2.35,0,0,1,124.19,20.15Zm-1.37-1.06c0-1-.52-1.77-1.48-1.77a1.76,1.76,0,0,0-1.63,1.77Z"/><path class="cls-12" d="M133.24,23.3A3.19,3.19,0,0,1,130,19.85a3.28,3.28,0,0,1,3.35-3.56,3.18,3.18,0,0,1,3.23,3.45A3.29,3.29,0,0,1,133.24,23.3Zm.06-5.92c-1.08,0-1.77,1-1.77,2.42s.71,2.4,1.76,2.4S135,21.12,135,19.77,134.35,17.38,133.3,17.38Z"/><path class="cls-12" d="M144.62,23.15h-1.49V19.29c0-1.19-.46-1.78-1.36-1.78a1.55,1.55,0,0,0-1.49,1.64v4h-1.49v-4.8q0-.88-.06-1.92H140l.07,1h0a2.39,2.39,0,0,1,2.12-1.18c1.41,0,2.34,1.08,2.34,2.83v4Z"/><path class="cls-12" d="M154.39,17.55h-1.64v3.26c0,.83.29,1.25.87,1.25a3,3,0,0,0,.66-.07l0,1.13a3.34,3.34,0,0,1-1.16.17c-1.17,0-1.88-.65-1.88-2.35V17.55h-1V16.43h1V15.2l1.47-.44v1.67h1.64Z"/><path class="cls-12" d="M162.3,23.15h-1.5V19.32c0-1.2-.45-1.81-1.35-1.81A1.46,1.46,0,0,0,158,19.1v4h-1.5v-9.8H158v4h0a2.25,2.25,0,0,1,2-1.09c1.42,0,2.29,1.11,2.29,2.86Z"/><path class="cls-12" d="M169.93,20.15h-4.48a1.93,1.93,0,0,0,2.11,2,4.91,4.91,0,0,0,1.81-.32l.24,1a5.6,5.6,0,0,1-2.26.41A3.11,3.11,0,0,1,164,19.89c0-2.06,1.27-3.61,3.18-3.61,1.71,0,2.79,1.27,2.79,3.19A2.77,2.77,0,0,1,169.93,20.15Zm-1.37-1.06c0-1-.52-1.77-1.48-1.77a1.76,1.76,0,0,0-1.63,1.77Z"/></g></g></svg>