<svg xmlns="http://www.w3.org/2000/svg" xmlns:xlink="http://www.w3.org/1999/xlink" viewBox="0 0 200 65"><defs><style>.cls-1{fill:none;}.cls-2{isolation:isolate;}.cls-3{clip-path:url(#clip-path);}.cls-4{opacity:0.13;mix-blend-mode:color-dodge;}.cls-5{clip-path:url(#clip-path-2);}.cls-10,.cls-6,.cls-8{opacity:0.6;}.cls-10,.cls-11,.cls-6,.cls-7,.cls-8,.cls-9{mix-blend-mode:screen;}.cls-6{fill:url(#Degradado_sin_nombre_4);}.cls-11,.cls-7,.cls-9{opacity:0.8;}.cls-7{fill:url(#Degradado_sin_nombre_3);}.cls-8{fill:url(#Degradado_sin_nombre_4-2);}.cls-9{fill:url(#Degradado_sin_nombre_3-2);}.cls-10{fill:url(#Degradado_sin_nombre_4-3);}.cls-11{fill:url(#Degradado_sin_nombre_3-3);}.cls-12{fill:#a6a4a4;}.cls-13,.cls-14{fill:#fff;}.cls-13{stroke:#fff;stroke-miterlimit:10;stroke-width:0.01px;}.cls-15{fill:url(#linear-gradient);}.cls-16{fill:url(#linear-gradient-2);}.cls-17{fill:url(#linear-gradient-3);}.cls-18{fill:url(#linear-gradient-4);}</style><clipPath id="clip-path"><rect class="cls-1" x="-2212.94" y="-642.62" width="1920" height="917.5"/></clipPath><clipPath id="clip-path-2"><rect class="cls-1" x="-2230.87" y="198.3" width="1952.64" height="364.71"/></clipPath><radialGradient id="Degradado_sin_nombre_4" cx="19032.07" cy="-3680.78" r="133.83" gradientTransform="matrix(-0.23, 0.16, -8, -3.55, -25608.49, -15662.92)" gradientUnits="userSpaceOnUse"><stop offset="0" stop-color="#fff"/><stop offset="0.27" stop-color="blue"/><stop offset="0.34" stop-color="#0000f3" stop-opacity="0.95"/><stop offset="0.45" stop-color="#0000d4" stop-opacity="0.83"/><stop offset="0.6" stop-color="#0000a2" stop-opacity="0.63"/><stop offset="0.78" stop-color="#00005c" stop-opacity="0.36"/><stop offset="0.99" stop-color="#000004" stop-opacity="0.02"/><stop offset="1" stop-opacity="0"/></radialGradient><radialGradient id="Degradado_sin_nombre_3" cx="75033.9" cy="-3611.97" r="133.7" gradientTransform="matrix(-0.05, 0.04, -8.04, -3.52, -25885.59, -15461.72)" gradientUnits="userSpaceOnUse"><stop offset="0" stop-color="#fff"/><stop offset="0.43" stop-color="#a8ffff"/><stop offset="1" stop-opacity="0"/></radialGradient><radialGradient id="Degradado_sin_nombre_4-2" cx="19570.79" cy="-3516.24" r="133.83" gradientTransform="matrix(-0.17, 0.18, -9.17, -2.51, -29481.93, -12074.58)" xlink:href="#Degradado_sin_nombre_4"/><radialGradient id="Degradado_sin_nombre_3-2" cx="77213.52" cy="-3446.82" r="133.78" gradientTransform="matrix(-0.04, 0.05, -9.2, -2.48, -29675.68, -11844.38)" xlink:href="#Degradado_sin_nombre_3"/><radialGradient id="Degradado_sin_nombre_4-3" cx="19498.04" cy="-3453.43" r="133.85" gradientTransform="matrix(-0.14, 0.19, -9.52, -2.06, -30611.53, -10544.23)" xlink:href="#Degradado_sin_nombre_4"/><radialGradient id="Degradado_sin_nombre_3-3" cx="76704.37" cy="-3384.1" r="133.67" gradientTransform="matrix(-0.03, 0.05, -9.54, -2.03, -30770.48, -10304.98)" xlink:href="#Degradado_sin_nombre_3"/><linearGradient id="linear-gradient" x1="40.59" y1="-7882.01" x2="16.74" y2="-7858.17" gradientTransform="matrix(1, 0, 0, -0.99, -5.77, -7760.32)" gradientUnits="userSpaceOnUse"><stop offset="0" stop-color="#4896d1"/><stop offset="0.01" stop-color="#4998d2"/><stop offset="0.26" stop-color="#41b8ea"/><stop offset="0.51" stop-color="#3fc6f1"/><stop offset="0.76" stop-color="#55c8e8"/><stop offset="1" stop-color="#5ac8e7"/></linearGradient><linearGradient id="linear-gradient-2" x1="57.69" y1="-7865.97" x2="23.31" y2="-7865.97" gradientTransform="matrix(1, 0, 0, -0.99, -5.77, -7760.32)" gradientUnits="userSpaceOnUse"><stop offset="0" stop-color="#fddf00"/><stop offset="0.41" stop-color="#fdbc11"/><stop offset="0.78" stop-color="#f9a31a"/><stop offset="1" stop-color="#f89b1c"/></linearGradient><linearGradient id="linear-gradient-3" x1="33.04" y1="-7874.56" x2="0.7" y2="-7842.23" gradientTransform="matrix(1, 0, 0, -0.99, -5.77, -7760.32)" gradientUnits="userSpaceOnUse"><stop offset="0" stop-color="#ee3f49"/><stop offset="1" stop-color="#c11e63"/></linearGradient><linearGradient id="linear-gradient-4" x1="8.13" y1="-7882.28" x2="22.57" y2="-7867.84" gradientTransform="matrix(1, 0, 0, -0.99, -5.77, -7760.32)" gradientUnits="userSpaceOnUse"><stop offset="0" stop-color="#319f71"/><stop offset="0.07" stop-color="#2ba670"/><stop offset="0.48" stop-color="#4ab870"/><stop offset="0.8" stop-color="#5dbc6a"/><stop offset="1" stop-color="#66bd68"/></linearGradient></defs><title>icon-web-</title><g class="cls-2"><g id="icon"><g class="cls-3"><g class="cls-4"><g class="cls-5"><path class="cls-6" d="M-624.72,386.84C-1216,124.63-1681.38-97.29-1664.19-108.84S-1153.74,82.82-562.46,345,494.21,829.14,477,840.69-33.44,649-624.72,386.84Z"/><path class="cls-7" d="M-756.13,304.57c-594.1-260.17-1072.6-473.5-1068.76-476.5S-1336.35,33.56-742.26,293.73,330.33,767.23,326.5,770.22-162,564.74-756.13,304.57Z"/><path class="cls-8" d="M-548.82,293.6C-1226.52,108.35-1765.86-52.65-1753.47-66S-1181.66,60-504,245.29s1217,346.24,1204.66,359.58S128.88,478.85-548.82,293.6Z"/><path class="cls-9" d="M-708.6,229C-1388.27,46.07-1937.14-105-1934.54-108.35S-1378.86,33.81-699.19,216.74,529.35,550.7,526.75,554.08-28.93,411.92-708.6,229Z"/><path class="cls-10" d="M-493.93,258.2C-1197.27,105.88-1759.07-28.86-1748.75-42.74S-1159.9,55.61-456.57,207.93,808.56,495,798.24,508.88,209.4,410.53-493.93,258.2Z"/><path class="cls-11" d="M-662.93,201.44c-705-149.92-1274.73-274.28-1272.66-277.78s575.23,115.2,1280.18,265.12S619.31,463.05,617.24,466.55,42,351.35-662.93,201.44Z"/></g></g></g><g id="g10"><g id="g12"><path id="path14" d="M189,60.65H11a7.11,7.11,0,0,1-7.12-7V11.39a7.11,7.11,0,0,1,7.12-7H189a7.11,7.11,0,0,1,7.12,7V53.61A7.11,7.11,0,0,1,189,60.65Z"/><path id="path16" class="cls-12" d="M189,5.48a6,6,0,0,1,6,5.91V53.61a6,6,0,0,1-6,5.91H11a6,6,0,0,1-6-5.91V11.39a6,6,0,0,1,6-5.91H189m0-1.13H11a7.11,7.11,0,0,0-7.12,7V53.61a7.11,7.11,0,0,0,7.12,7H189a7.11,7.11,0,0,0,7.12-7V11.39A7.11,7.11,0,0,0,189,4.35Z"/><g id="g18"><path id="path20" class="cls-13" d="M71.4,18.77a3.85,3.85,0,0,1-1.06,2.82,4.17,4.17,0,0,1-3.14,1.25,4.34,4.34,0,0,1-3.14-1.27,4.21,4.21,0,0,1-1.3-3.15,4.2,4.2,0,0,1,1.3-3.14A4.34,4.34,0,0,1,67.2,14a4.57,4.57,0,0,1,1.75.36,3.44,3.44,0,0,1,1.34.94l-.75.74a2.93,2.93,0,0,0-2.34-1,3.3,3.3,0,0,0-2.34.93,3.24,3.24,0,0,0-1,2.43,3.23,3.23,0,0,0,1,2.44,3.31,3.31,0,0,0,2.34.94,3.27,3.27,0,0,0,2.38-.94,2.64,2.64,0,0,0,.72-1.71H67.2v-1h4.14A2.83,2.83,0,0,1,71.4,18.77Z"/></g><g id="g22"><path id="path24" class="cls-13" d="M78,15.24H74.08v2.68h3.5v1h-3.5v2.68H78v1H73V14.21h5Z"/></g><g id="g26"><path id="path28" class="cls-13" d="M82.6,22.64H81.49v-7.4H79.11v-1H85v1H82.6Z"/></g><g id="g30"><path id="path32" class="cls-13" d="M89.23,22.64V14.21h1.1v8.43Z"/></g><g id="g34"><path id="path36" class="cls-13" d="M95.2,22.64H94.1v-7.4H91.71v-1h5.88v1H95.2Z"/></g><g id="g38"><path id="path40" class="cls-13" d="M108.7,21.56a4.48,4.48,0,0,1-6.27,0,4.3,4.3,0,0,1-1.26-3.14,4.34,4.34,0,0,1,4.4-4.41,4.19,4.19,0,0,1,3.12,1.29A4.25,4.25,0,0,1,110,18.42,4.3,4.3,0,0,1,108.7,21.56Zm-5.45-.71a3.31,3.31,0,0,0,4.64,0,3.29,3.29,0,0,0,1-2.43,3.29,3.29,0,0,0-1-2.42,3.31,3.31,0,0,0-4.64,0,3.29,3.29,0,0,0-1,2.42A3.3,3.3,0,0,0,103.25,20.85Z"/></g><g id="g42"><path id="path44" class="cls-13" d="M111.5,22.64V14.21h1.34L117,20.77H117L117,19.15V14.21h1.1v8.43h-1.15l-4.35-6.88h0l0,1.63v5.25Z"/></g><path id="path46" class="cls-14" d="M100.9,35A6,6,0,1,0,107,41,5.93,5.93,0,0,0,100.9,35Zm0,9.61A3.64,3.64,0,1,1,104.33,41,3.48,3.48,0,0,1,100.9,44.58ZM87.64,35a6,6,0,1,0,6.08,6A5.92,5.92,0,0,0,87.64,35Zm0,9.61A3.64,3.64,0,1,1,91.06,41,3.49,3.49,0,0,1,87.64,44.58ZM71.86,36.8v2.55H78a5.23,5.23,0,0,1-1.4,3.19,6.33,6.33,0,0,1-4.75,1.86,6.76,6.76,0,0,1,0-13.52A6.55,6.55,0,0,1,76.5,32.7l1.81-1.79a9,9,0,0,0-6.45-2.57,9.3,9.3,0,1,0,0,18.6,8.67,8.67,0,0,0,6.57-2.61,8.33,8.33,0,0,0,2.22-5.94,9.38,9.38,0,0,0-.13-1.59Zm64.53,2A5.61,5.61,0,0,0,131.2,35a5.72,5.72,0,0,0-5.71,6,5.89,5.89,0,0,0,6,6,6,6,0,0,0,5.05-2.65l-2.07-1.36a3.47,3.47,0,0,1-3,1.65,3.08,3.08,0,0,1-2.93-1.81l8.1-3.31Zm-8.26,2a3.3,3.3,0,0,1,3.16-3.49,2.36,2.36,0,0,1,2.26,1.27Zm-6.59,5.81h2.67V29h-2.67ZM117.18,36.3h-.09A4.2,4.2,0,0,0,113.91,35a6,6,0,0,0,0,12,4.15,4.15,0,0,0,3.18-1.36h.09v.86C117.18,48.73,116,50,114,50a3.34,3.34,0,0,1-3-2.14l-2.32,1A5.8,5.8,0,0,0,114,52.32c3.12,0,5.76-1.82,5.76-6.24V35.33h-2.53Zm-3,8.28a3.64,3.64,0,0,1,0-7.26A3.38,3.38,0,0,1,117.37,41,3.36,3.36,0,0,1,114.14,44.58ZM148.86,29h-6.37v17.6h2.65V39.91h3.72a5.48,5.48,0,1,0,0-10.93Zm.07,8.48h-3.79v-6h3.79a3,3,0,1,1,0,6Zm16.42-2.53a5,5,0,0,0-4.74,2.7l2.36,1a2.52,2.52,0,0,1,2.42-1.29,2.55,2.55,0,0,1,2.8,2.26v.19a5.83,5.83,0,0,0-2.78-.68c-2.53,0-5.12,1.38-5.12,4,0,2.35,2.08,3.87,4.42,3.87a3.79,3.79,0,0,0,3.39-1.72h.09v1.36h2.57V39.8C170.76,36.68,168.4,34.93,165.35,34.93ZM165,44.58c-.86,0-2.07-.43-2.07-1.5,0-1.36,1.51-1.88,2.81-1.88a4.88,4.88,0,0,1,2.43.59A3.22,3.22,0,0,1,165,44.58Zm15.08-9.26-3,7.63H177l-3.16-7.63h-2.86L175.68,46,173,51.91h2.78l7.31-16.59ZM156.16,46.58h2.66V29h-2.66Z"/><g id="g48"><path id="path64" class="cls-15" d="M18.73,15a2.78,2.78,0,0,0-.66,2V48.07a2.79,2.79,0,0,0,.66,2l.1.09L36.48,32.71v-.42L18.83,14.86Z"/></g><g id="g66"><path id="path78" class="cls-16" d="M42.36,38.52l-5.88-5.81v-.42l5.89-5.81.13.07,7,3.92c2,1.12,2,2.94,0,4.06l-7,3.92Z"/></g><g id="g80"><path id="path88" class="cls-17" d="M42.5,38.45l-6-6L18.73,50.05c.66.68,1.74.77,3,.08L42.5,38.45"/></g><g id="g90"><path id="path104" class="cls-18" d="M42.5,26.55,21.69,14.87c-1.22-.68-2.3-.6-3,.09L36.48,32.5Z"/></g></g></g></g></g></svg>