<svg xmlns="http://www.w3.org/2000/svg" xmlns:xlink="http://www.w3.org/1999/xlink" viewBox="0 0 170 65"><defs><style>.cls-1{fill:none;}.cls-2{isolation:isolate;}.cls-3{clip-path:url(#clip-path);}.cls-4{opacity:0.13;mix-blend-mode:color-dodge;}.cls-5{clip-path:url(#clip-path-2);}.cls-10,.cls-6,.cls-8{opacity:0.6;}.cls-10,.cls-11,.cls-6,.cls-7,.cls-8,.cls-9{mix-blend-mode:screen;}.cls-6{fill:url(#Degradado_sin_nombre_4);}.cls-11,.cls-7,.cls-9{opacity:0.8;}.cls-7{fill:url(#Degradado_sin_nombre_3);}.cls-8{fill:url(#Degradado_sin_nombre_4-2);}.cls-9{fill:url(#Degradado_sin_nombre_3-2);}.cls-10{fill:url(#Degradado_sin_nombre_4-3);}.cls-11{fill:url(#Degradado_sin_nombre_3-3);}.cls-12{fill:#17479b;}.cls-13{fill:#15e5ff;}.cls-14{font-size:30px;font-family:MyriadPro-Regular, Myriad Pro;}.cls-14,.cls-17{fill:#fff;}.cls-15{letter-spacing:-0.01em;}.cls-16{letter-spacing:-0.01em;}.cls-18{fill:#00ae42;}</style><clipPath id="clip-path"><rect class="cls-1" x="-2444.14" y="-642.62" width="1920" height="917.5"/></clipPath><clipPath id="clip-path-2"><rect class="cls-1" x="-2462.06" y="198.3" width="1952.64" height="364.71"/></clipPath><radialGradient id="Degradado_sin_nombre_4" cx="18800.87" cy="-3680.78" r="133.83" gradientTransform="matrix(-0.23, 0.16, -8, -3.55, -25893.52, -15626.83)" gradientUnits="userSpaceOnUse"><stop offset="0" stop-color="#fff"/><stop offset="0.27" stop-color="blue"/><stop offset="0.34" stop-color="#0000f3" stop-opacity="0.95"/><stop offset="0.45" stop-color="#0000d4" stop-opacity="0.83"/><stop offset="0.6" stop-color="#0000a2" stop-opacity="0.63"/><stop offset="0.78" stop-color="#00005c" stop-opacity="0.36"/><stop offset="0.99" stop-color="#000004" stop-opacity="0.02"/><stop offset="1" stop-opacity="0"/></radialGradient><radialGradient id="Degradado_sin_nombre_3" cx="74802.7" cy="-3611.97" r="133.7" gradientTransform="matrix(-0.05, 0.04, -8.04, -3.52, -26128.79, -15452.33)" gradientUnits="userSpaceOnUse"><stop offset="0" stop-color="#fff"/><stop offset="0.43" stop-color="#a8ffff"/><stop offset="1" stop-opacity="0"/></radialGradient><radialGradient id="Degradado_sin_nombre_4-2" cx="19339.6" cy="-3516.24" r="133.83" gradientTransform="matrix(-0.17, 0.18, -9.17, -2.51, -29751.94, -12032.87)" xlink:href="#Degradado_sin_nombre_4"/><radialGradient id="Degradado_sin_nombre_3-2" cx="76982.32" cy="-3446.82" r="133.78" gradientTransform="matrix(-0.04, 0.05, -9.2, -2.48, -29915.04, -11833.79)" xlink:href="#Degradado_sin_nombre_3"/><radialGradient id="Degradado_sin_nombre_4-3" cx="19266.84" cy="-3453.43" r="133.85" gradientTransform="matrix(-0.14, 0.19, -9.52, -2.06, -30875.06, -10500.83)" xlink:href="#Degradado_sin_nombre_4"/><radialGradient id="Degradado_sin_nombre_3-3" cx="76473.17" cy="-3384.1" r="133.67" gradientTransform="matrix(-0.03, 0.05, -9.54, -2.03, -31008.21, -10294.02)" xlink:href="#Degradado_sin_nombre_3"/></defs><title>icon-web-</title><g class="cls-2"><g id="icon"><g class="cls-3"><g class="cls-4"><g class="cls-5"><path class="cls-6" d="M-855.91,386.84C-1447.19,124.63-1912.58-97.29-1895.39-108.84S-1384.94,82.82-793.66,345,263,829.14,245.82,840.69-264.64,649-855.91,386.84Z"/><path class="cls-7" d="M-987.33,304.57c-594.09-260.17-1072.59-473.5-1068.76-476.5S-1567.55,33.56-973.46,293.73,99.13,767.23,95.3,770.22-393.24,564.74-987.33,304.57Z"/><path class="cls-8" d="M-780,293.6C-1457.71,108.35-1997.06-52.65-1984.67-66s571.81,126,1249.5,311.28,1217,346.24,1204.66,359.58S-102.32,478.85-780,293.6Z"/><path class="cls-9" d="M-939.8,229C-1619.47,46.07-2168.34-105-2165.74-108.35S-1610.06,33.81-930.39,216.74,298.15,550.7,295.55,554.08-260.13,411.92-939.8,229Z"/><path class="cls-10" d="M-725.13,258.2C-1428.47,105.88-1990.26-28.86-1979.95-42.74S-1391.1,55.61-687.77,207.93,577.36,495,567,508.88-21.8,410.53-725.13,258.2Z"/><path class="cls-11" d="M-894.13,201.44C-1599.08,51.52-2168.86-72.84-2166.78-76.34s575.22,115.2,1280.17,265.12S388.11,463.05,386,466.55-189.19,351.35-894.13,201.44Z"/></g></g></g><rect class="cls-12" x="5.36" y="5.03" width="159.28" height="56.49" rx="8.05"/><path class="cls-13" d="M156.59,5.53a7.56,7.56,0,0,1,7.55,7.56V53.47A7.56,7.56,0,0,1,156.59,61H13.41a7.56,7.56,0,0,1-7.55-7.55V13.09a7.56,7.56,0,0,1,7.55-7.56H156.59m0-1H13.41a8.55,8.55,0,0,0-8.55,8.56V53.47A8.55,8.55,0,0,0,13.41,62H156.59a8.55,8.55,0,0,0,8.55-8.55V13.09a8.55,8.55,0,0,0-8.55-8.56Z"/><text class="cls-14" transform="translate(62.04 41.6)"><tspan class="cls-15">L</tspan><tspan x="13.74" y="0">o</tspan><tspan class="cls-16" x="30.21" y="0">g</tspan><tspan x="46.8" y="0">in</tspan></text><path class="cls-17" d="M31.63,25.88a1,1,0,0,0-1,1V45.38a1,1,0,0,0,1,1H51a1,1,0,0,0,1-1V26.89a1,1,0,0,0-1-1H45.39v-6a4.07,4.07,0,0,0-8.13,0v6Z"/><path class="cls-18" d="M51,48.39H31.63a3,3,0,0,1-3-3V26.89a3,3,0,0,1,3-3h3.63v-4a6.07,6.07,0,0,1,12.13,0v4H51a3,3,0,0,1,3,3V45.38A3,3,0,0,1,51,48.39ZM31.63,25.88a1,1,0,0,0-1,1V45.38a1,1,0,0,0,1,1H51a1,1,0,0,0,1-1V26.89a1,1,0,0,0-1-1H45.39v-6a4.07,4.07,0,0,0-8.13,0v6Z"/><rect class="cls-18" x="40" y="33.03" width="2.65" height="8.72" rx="1.33"/><circle class="cls-18" cx="41.33" cy="33.06" r="3.25"/></g></g></svg>