<svg xmlns="http://www.w3.org/2000/svg" viewBox="0 0 75.06 22.25"><defs><style>.cls-1{fill:#a6a4a4;}.cls-2{fill-opacity:0.66;}.cls-3{fill:#fff;}</style></defs><title>Asset 17</title><g id="Layer_2" data-name="Layer 2"><g id="color_desc" data-name="color desc"><path class="cls-1" d="M72.43.5a2.13,2.13,0,0,1,2.13,2.13v17a2.13,2.13,0,0,1-2.13,2.13H2.63A2.14,2.14,0,0,1,.5,19.62v-17A2.14,2.14,0,0,1,2.63.5h69.8m0-.5H2.63A2.63,2.63,0,0,0,0,2.63v17a2.63,2.63,0,0,0,2.63,2.63h69.8a2.63,2.63,0,0,0,2.63-2.63v-17A2.63,2.63,0,0,0,72.43,0Z"/><path class="cls-2" d="M74.57,19.62a2.13,2.13,0,0,1-2.14,2.13H2.63A2.13,2.13,0,0,1,.5,19.62v-17A2.13,2.13,0,0,1,2.63.5h69.8a2.13,2.13,0,0,1,2.14,2.13v17Z"/><path class="cls-3" d="M16.76,11A3.21,3.21,0,0,1,18.3,8.3a3.32,3.32,0,0,0-2.6-1.41c-1.1-.11-2.16.66-2.72.66s-1.42-.64-2.35-.63A3.46,3.46,0,0,0,7.72,8.7c-1.27,2.18-.33,5.39.88,7.16.61.86,1.31,1.82,2.24,1.79s1.24-.58,2.33-.58,1.4.58,2.34.56,1.58-.87,2.16-1.74a7,7,0,0,0,1-2A3.11,3.11,0,0,1,16.76,11Z"/><path class="cls-3" d="M15,5.73a3.15,3.15,0,0,0,.73-2.27,3.22,3.22,0,0,0-2.09,1.08,3,3,0,0,0-.75,2.19A2.67,2.67,0,0,0,15,5.73Z"/><path class="cls-3" d="M29.86,17.53H28.59l-.69-2.18H25.49l-.65,2.18H23.61L26,10.12h1.47Zm-2.17-3.09-.62-1.93c-.07-.2-.2-.67-.38-1.4h0c-.07.32-.19.78-.35,1.4l-.62,1.93Z"/><path class="cls-3" d="M36,14.79a3,3,0,0,1-.74,2.15,2.16,2.16,0,0,1-1.64.71,1.65,1.65,0,0,1-1.53-.76v2.8H30.88V13.94c0-.57,0-1.15-.05-1.75h1.05l.06.84h0a2.11,2.11,0,0,1,3.37-.21A3,3,0,0,1,36,14.79Zm-1.2.05a2.18,2.18,0,0,0-.36-1.29,1.21,1.21,0,0,0-1-.53,1.22,1.22,0,0,0-.79.29,1.67,1.67,0,0,0-.53,1.13v.89a1.41,1.41,0,0,0,.36,1,1.18,1.18,0,0,0,.93.4,1.21,1.21,0,0,0,1-.51A2.28,2.28,0,0,0,34.77,14.84Z"/><path class="cls-3" d="M42.11,14.79a3,3,0,0,1-.74,2.15,2.16,2.16,0,0,1-1.64.71,1.65,1.65,0,0,1-1.53-.76v2.8H37V13.94c0-.57,0-1.15-.05-1.75H38l.06.84h0a2.11,2.11,0,0,1,3.37-.21A3,3,0,0,1,42.11,14.79Zm-1.2.05a2.18,2.18,0,0,0-.36-1.29,1.21,1.21,0,0,0-1-.53,1.27,1.27,0,0,0-.8.29,1.39,1.39,0,0,0-.46.77,1.34,1.34,0,0,0-.06.36v.89a1.41,1.41,0,0,0,.36,1,1.18,1.18,0,0,0,.93.4,1.21,1.21,0,0,0,1-.51A2.28,2.28,0,0,0,40.91,14.84Z"/><path class="cls-3" d="M49,15.45A2,2,0,0,1,48.32,17a2.92,2.92,0,0,1-2,.65,3.48,3.48,0,0,1-1.91-.47l.27-1a3.37,3.37,0,0,0,1.71.46,1.64,1.64,0,0,0,1.05-.3,1,1,0,0,0,.37-.81,1,1,0,0,0-.31-.76,2.92,2.92,0,0,0-1-.57c-1.29-.48-1.94-1.19-1.94-2.12a1.87,1.87,0,0,1,.68-1.49A2.73,2.73,0,0,1,47,10a3.61,3.61,0,0,1,1.68.35l-.29,1A2.93,2.93,0,0,0,47,11a1.42,1.42,0,0,0-1,.31.87.87,0,0,0-.3.67.9.9,0,0,0,.35.72,3.67,3.67,0,0,0,1.07.58,3.5,3.5,0,0,1,1.41.9A1.87,1.87,0,0,1,49,15.45Z"/><path class="cls-3" d="M52.91,13.08H51.6v2.59c0,.66.23,1,.7,1a1.9,1.9,0,0,0,.52-.06l0,.9a2.68,2.68,0,0,1-.93.14,1.45,1.45,0,0,1-1.1-.43,2.14,2.14,0,0,1-.39-1.44V13.08h-.78v-.89h.78v-1l1.16-.35v1.33h1.31Z"/><path class="cls-3" d="M58.8,14.81a2.91,2.91,0,0,1-.71,2,2.48,2.48,0,0,1-2,.82,2.38,2.38,0,0,1-1.87-.78,2.83,2.83,0,0,1-.7-2,2.91,2.91,0,0,1,.72-2,2.73,2.73,0,0,1,3.83,0A2.81,2.81,0,0,1,58.8,14.81Zm-1.23,0a2.41,2.41,0,0,0-.32-1.26A1.17,1.17,0,0,0,56.18,13a1.19,1.19,0,0,0-1.08.63,2.36,2.36,0,0,0-.32,1.28,2.32,2.32,0,0,0,.32,1.26,1.18,1.18,0,0,0,1.07.64,1.2,1.2,0,0,0,1.07-.65A2.38,2.38,0,0,0,57.57,14.84Z"/><path class="cls-3" d="M62.65,13.23a2.13,2.13,0,0,0-.37,0,1.14,1.14,0,0,0-1,.47A1.84,1.84,0,0,0,61,14.73v2.8H59.83V13.87q0-.93,0-1.68h1l0,1h0a1.84,1.84,0,0,1,.59-.85,1.43,1.43,0,0,1,.86-.28l.29,0v1.13Z"/><path class="cls-3" d="M68,14.6a2.7,2.7,0,0,1,0,.54H64.36a1.53,1.53,0,0,0,.51,1.21,1.76,1.76,0,0,0,1.17.37,3.92,3.92,0,0,0,1.44-.25l.18.83a4.43,4.43,0,0,1-1.79.33,2.64,2.64,0,0,1-2-.73,2.72,2.72,0,0,1-.7-2,3,3,0,0,1,.65-2,2.27,2.27,0,0,1,1.87-.86,2,2,0,0,1,1.75.86A2.88,2.88,0,0,1,68,14.6Zm-1.13-.3a1.56,1.56,0,0,0-.23-.91,1,1,0,0,0-.95-.5,1.13,1.13,0,0,0-.94.48,1.73,1.73,0,0,0-.35.93Z"/><path class="cls-3" d="M27.12,7.47H26.5L26.16,6.4H25l-.33,1.07h-.6l1.17-3.64h.72ZM26.06,6l-.31-1-.19-.69h0c0,.16-.09.38-.17.69l-.3,1Z"/><path class="cls-3" d="M30.05,4.85l-1,2.62h-.57l-1-2.62h.62l.45,1.39a6.75,6.75,0,0,1,.19.66h0A5,5,0,0,1,29,6.24l.44-1.39Z"/><path class="cls-3" d="M32.16,7.47l0-.3h0a.88.88,0,0,1-.76.36.77.77,0,0,1-.81-.77c0-.65.56-1,1.54-1v0c0-.35-.19-.52-.55-.52a1.21,1.21,0,0,0-.68.2L30.72,5a1.67,1.67,0,0,1,.9-.22c.68,0,1,.36,1,1.08v1a3.42,3.42,0,0,0,0,.62Zm-.08-1.3c-.65,0-1,.15-1,.53a.38.38,0,0,0,.4.41.56.56,0,0,0,.57-.54Z"/><path class="cls-3" d="M34,4.42a.35.35,0,1,1,.37-.35A.34.34,0,0,1,34,4.42Zm.3,3.05h-.58V4.85h.58Z"/><path class="cls-3" d="M35.87,7.47h-.58V3.65h.58Z"/><path class="cls-3" d="M38.35,7.47l0-.3h0a.91.91,0,0,1-.77.36.76.76,0,0,1-.8-.77c0-.65.56-1,1.53-1v0c0-.35-.18-.52-.54-.52a1.24,1.24,0,0,0-.69.2L36.9,5a1.69,1.69,0,0,1,.9-.23c.69,0,1,.37,1,1.09v1a5,5,0,0,0,0,.62Zm-.08-1.3c-.65,0-1,.15-1,.53a.37.37,0,0,0,.4.41.56.56,0,0,0,.57-.54Z"/><path class="cls-3" d="M41.2,7.53a.89.89,0,0,1-.83-.46h0l0,.4h-.5c0-.21,0-.45,0-.7V3.65h.59V5.23h0a.89.89,0,0,1,.83-.43c.64,0,1.08.54,1.08,1.32A1.26,1.26,0,0,1,41.2,7.53Zm-.12-2.28a.67.67,0,0,0-.64.7v.46a.64.64,0,0,0,.63.66c.44,0,.7-.36.7-.92S41.49,5.25,41.08,5.25Z"/><path class="cls-3" d="M43.8,7.47h-.58V3.65h.58Z"/><path class="cls-3" d="M47,6.3H45.23a.75.75,0,0,0,.82.78A1.8,1.8,0,0,0,46.76,7l.09.41a2.16,2.16,0,0,1-.88.16A1.22,1.22,0,0,1,44.66,6.2a1.28,1.28,0,0,1,1.25-1.41A1.11,1.11,0,0,1,47,6,1.84,1.84,0,0,1,47,6.3Zm-.54-.41c0-.41-.2-.7-.58-.7a.7.7,0,0,0-.63.7Z"/><path class="cls-3" d="M50.51,7.53a1.24,1.24,0,0,1-1.26-1.35,1.27,1.27,0,0,1,1.3-1.38,1.24,1.24,0,0,1,1.27,1.34A1.29,1.29,0,0,1,50.51,7.53Zm0-2.31c-.42,0-.69.4-.69,1s.28.93.69.93.68-.42.68-.94S50.94,5.22,50.53,5.22Z"/><path class="cls-3" d="M55,7.47h-.58V6c0-.47-.18-.7-.53-.7a.61.61,0,0,0-.58.64V7.47h-.59V5.6c0-.23,0-.48,0-.75h.52l0,.4h0A.94.94,0,0,1,54,4.79c.55,0,.91.43.91,1.11V7.47Z"/><path class="cls-3" d="M58.77,5.29h-.64V6.56c0,.33.11.49.34.49a.9.9,0,0,0,.25,0l0,.44a1.12,1.12,0,0,1-.45.07c-.46,0-.74-.26-.74-.92V5.29h-.38V4.85h.38V4.37l.58-.17v.65h.64Z"/><path class="cls-3" d="M61.85,7.47h-.58V6c0-.47-.18-.71-.53-.71a.57.57,0,0,0-.58.62V7.47h-.58V3.65h.58V5.22h0A.9.9,0,0,1,61,4.79c.55,0,.89.44.89,1.12Z"/><path class="cls-3" d="M64.83,6.3H63.08a.76.76,0,0,0,.83.78A1.8,1.8,0,0,0,64.62,7l.09.41a2.16,2.16,0,0,1-.88.16A1.22,1.22,0,0,1,62.52,6.2a1.28,1.28,0,0,1,1.24-1.41A1.1,1.1,0,0,1,64.85,6,.71.71,0,0,1,64.83,6.3Zm-.53-.41c0-.41-.21-.7-.58-.7a.71.71,0,0,0-.64.7Z"/></g></g></svg>