<svg xmlns="http://www.w3.org/2000/svg" xmlns:xlink="http://www.w3.org/1999/xlink" viewBox="0 0 75.06 21.98"><defs><style>.cls-1{fill-opacity:0.7;}.cls-2{fill:#a6a4a4;}.cls-3,.cls-4{fill:#fff;}.cls-3{stroke:#fff;stroke-miterlimit:10;stroke-width:0.01px;}.cls-5{fill:url(#linear-gradient);}.cls-6{fill:url(#linear-gradient-2);}.cls-7{fill:url(#linear-gradient-3);}.cls-8{fill:url(#linear-gradient-4);}</style><linearGradient id="linear-gradient" x1="17.59" y1="-957.6" x2="8.28" y2="-948.29" gradientTransform="matrix(1, 0, 0, -0.99, -5.51, -931.5)" gradientUnits="userSpaceOnUse"><stop offset="0" stop-color="#4896d1"/><stop offset="0.01" stop-color="#4998d2"/><stop offset="0.26" stop-color="#41b8ea"/><stop offset="0.51" stop-color="#3fc6f1"/><stop offset="0.76" stop-color="#55c8e8"/><stop offset="1" stop-color="#5ac8e7"/></linearGradient><linearGradient id="linear-gradient-2" x1="24.27" y1="-951.34" x2="10.84" y2="-951.34" gradientTransform="matrix(1, 0, 0, -0.99, -5.51, -931.5)" gradientUnits="userSpaceOnUse"><stop offset="0" stop-color="#fddf00"/><stop offset="0.41" stop-color="#fdbc11"/><stop offset="0.78" stop-color="#f9a31a"/><stop offset="1" stop-color="#f89b1c"/></linearGradient><linearGradient id="linear-gradient-3" x1="14.64" y1="-954.69" x2="2.02" y2="-942.07" gradientTransform="matrix(1, 0, 0, -0.99, -5.51, -931.5)" gradientUnits="userSpaceOnUse"><stop offset="0" stop-color="#ee3f49"/><stop offset="1" stop-color="#c11e63"/></linearGradient><linearGradient id="linear-gradient-4" x1="4.92" y1="-957.7" x2="10.56" y2="-952.07" gradientTransform="matrix(1, 0, 0, -0.99, -5.51, -931.5)" gradientUnits="userSpaceOnUse"><stop offset="0" stop-color="#319f71"/><stop offset="0.07" stop-color="#2ba670"/><stop offset="0.48" stop-color="#4ab870"/><stop offset="0.8" stop-color="#5dbc6a"/><stop offset="1" stop-color="#66bd68"/></linearGradient></defs><title>g10</title><g id="Layer_2" data-name="Layer 2"><g id="color_desc" data-name="color desc"><g id="g10"><g id="g12"><path id="path14" class="cls-1" d="M72.28,22H2.78A2.77,2.77,0,0,1,0,19.23V2.75A2.77,2.77,0,0,1,2.78,0h69.5a2.77,2.77,0,0,1,2.78,2.75V19.23A2.77,2.77,0,0,1,72.28,22Z"/><path id="path16" class="cls-2" d="M72.28.44a2.33,2.33,0,0,1,2.34,2.31V19.23a2.32,2.32,0,0,1-2.34,2.31H2.78A2.32,2.32,0,0,1,.45,19.23V2.75A2.32,2.32,0,0,1,2.78.44h69.5m0-.44H2.78A2.77,2.77,0,0,0,0,2.75V19.23A2.77,2.77,0,0,0,2.78,22h69.5a2.77,2.77,0,0,0,2.78-2.75V2.75A2.77,2.77,0,0,0,72.28,0Z"/><g id="g18"><path id="path20" class="cls-3" d="M26.37,5.63A1.46,1.46,0,0,1,26,6.73a1.64,1.64,0,0,1-1.23.49,1.67,1.67,0,0,1-1.22-.5A1.64,1.64,0,0,1,23,5.5a1.64,1.64,0,0,1,.51-1.23,1.67,1.67,0,0,1,1.22-.5,1.81,1.81,0,0,1,.69.14,1.36,1.36,0,0,1,.52.37l-.29.29a1.14,1.14,0,0,0-.92-.39A1.28,1.28,0,0,0,23.43,5.5a1.32,1.32,0,0,0,2.23,1,1.11,1.11,0,0,0,.28-.67H24.72v-.4h1.62A1.13,1.13,0,0,1,26.37,5.63Z"/></g><g id="g22"><path id="path24" class="cls-3" d="M28.93,4.25H27.41v1h1.37v.39H27.41v1h1.52v.4H27V3.85h1.95Z"/></g><g id="g26"><path id="path28" class="cls-3" d="M30.74,7.14h-.43V4.25h-.93v-.4h2.29v.4h-.93Z"/></g><g id="g30"><path id="path32" class="cls-3" d="M33.33,7.14V3.85h.42V7.14Z"/></g><g id="g34"><path id="path36" class="cls-3" d="M35.66,7.14h-.43V4.25H34.3v-.4h2.29v.4h-.93Z"/></g><g id="g38"><path id="path40" class="cls-3" d="M40.93,6.72A1.72,1.72,0,0,1,38,5.5a1.73,1.73,0,0,1,2.94-1.23,1.7,1.7,0,0,1,.49,1.23A1.66,1.66,0,0,1,40.93,6.72ZM38.8,6.44a1.23,1.23,0,0,0,.91.37,1.21,1.21,0,0,0,.9-.37A1.25,1.25,0,0,0,41,5.5a1.26,1.26,0,0,0-.37-1,1.21,1.21,0,0,0-.9-.37,1.23,1.23,0,0,0-.91.37,1.26,1.26,0,0,0-.37,1A1.25,1.25,0,0,0,38.8,6.44Z"/></g><g id="g42"><path id="path44" class="cls-3" d="M42,7.14V3.85h.52l1.62,2.56h0l0-.63V3.85h.43V7.14h-.44l-1.7-2.69h0l0,.64V7.14Z"/></g><path id="path46" class="cls-4" d="M37.88,12a2.34,2.34,0,1,0,2.38,2.34A2.32,2.32,0,0,0,37.88,12Zm0,3.76a1.42,1.42,0,1,1,1.34-1.42A1.36,1.36,0,0,1,37.88,15.71ZM32.71,12a2.34,2.34,0,1,0,2.37,2.34A2.33,2.33,0,0,0,32.71,12Zm0,3.76A1.42,1.42,0,1,1,34,14.29,1.37,1.37,0,0,1,32.71,15.71Zm-6.16-3v1H29a2,2,0,0,1-.55,1.25,2.48,2.48,0,0,1-1.85.73,2.64,2.64,0,1,1,0-5.28,2.56,2.56,0,0,1,1.81.71l.7-.7a3.49,3.49,0,0,0-2.51-1A3.7,3.7,0,0,0,22.82,13a3.7,3.7,0,0,0,3.73,3.63,3.4,3.4,0,0,0,2.56-1A3.28,3.28,0,0,0,30,13.29a2.9,2.9,0,0,0-.06-.62Zm25.19.77a2.21,2.21,0,0,0-2-1.49,2.24,2.24,0,0,0-2.23,2.34,2.31,2.31,0,0,0,2.35,2.34,2.35,2.35,0,0,0,2-1L51,15.06a1.34,1.34,0,0,1-1.16.65A1.22,1.22,0,0,1,48.68,15l3.17-1.29Zm-3.23.78a1.29,1.29,0,0,1,1.24-1.36.93.93,0,0,1,.88.49Zm-2.57,2.27h1V9.62h-1Zm-1.7-4h0A1.68,1.68,0,0,0,43,12a2.34,2.34,0,0,0,0,4.68,1.65,1.65,0,0,0,1.25-.53h0v.33A1.2,1.2,0,0,1,43,17.81,1.31,1.31,0,0,1,41.79,17l-.91.38A2.27,2.27,0,0,0,43,18.73a2.15,2.15,0,0,0,2.25-2.44V12.1h-1Zm-1.19,3.24a1.35,1.35,0,0,1-1.32-1.41,1.37,1.37,0,0,1,1.32-1.43,1.33,1.33,0,0,1,1.26,1.43A1.31,1.31,0,0,1,43.05,15.71ZM56.61,9.62H54.12v6.87h1V13.88h1.45a2.13,2.13,0,1,0,0-4.26Zm0,3.31H55.16V10.57h1.47a1.18,1.18,0,1,1,0,2.36Zm6.41-1A1.94,1.94,0,0,0,61.2,13l.92.38a1,1,0,0,1,.94-.5,1,1,0,0,1,1.09.88v.07a2.33,2.33,0,0,0-1.08-.26c-1,0-2,.54-2,1.54a1.59,1.59,0,0,0,1.72,1.52,1.46,1.46,0,0,0,1.33-.68h0v.54h1V13.84A1.9,1.9,0,0,0,63,11.94Zm-.12,3.77c-.34,0-.81-.17-.81-.59s.59-.73,1.1-.73a1.86,1.86,0,0,1,.94.23A1.26,1.26,0,0,1,62.92,15.71Zm5.89-3.62-1.2,3h0l-1.23-3H65.23l1.85,4.16L66,18.57h1.09L70,12.09Zm-9.35,4.4h1V9.62h-1Z"/><g id="g48"><path id="path64" class="cls-5" d="M5.8,4.14a1.12,1.12,0,0,0-.26.78V17.07a1.1,1.1,0,0,0,.26.77l0,0,6.89-6.81v-.16L5.84,4.1Z"/></g><g id="g66"><path id="path78" class="cls-6" d="M15,13.34l-2.3-2.27v-.16L15,8.64l.05,0L17.8,10.2c.78.43.78,1.15,0,1.59l-2.72,1.52Z"/></g><g id="g80"><path id="path88" class="cls-7" d="M15.08,13.31,12.73,11,5.8,17.84a.91.91,0,0,0,1.16,0l8.12-4.56"/></g><g id="g90"><path id="path104" class="cls-8" d="M15.08,8.67,7,4.11a.93.93,0,0,0-1.16,0L12.73,11Z"/></g></g></g></g></g></svg>