<svg xmlns="http://www.w3.org/2000/svg" viewBox="0 0 22.04 22.57"><defs><style>.cls-1{fill:none;stroke:#eb1c24;stroke-miterlimit:10;stroke-width:0.75px;}</style></defs><title>champa_bullet</title><g id="Layer_2" data-name="Layer 2"><g id="icon"><path class="cls-1" d="M20.63,3.79c0-.08,0-.17-.05-.26l-.08,0a6.41,6.41,0,0,0-4.83.07,5.48,5.48,0,0,0-1.61,1c-1.44,1.49-1.89,4.13-1.76,6.23a9.29,9.29,0,0,1,1.7-.49,8.14,8.14,0,0,1,3.8,0,10.67,10.67,0,0,0,1.41-1.19A6.43,6.43,0,0,0,20.63,3.79Z"/><path class="cls-1" d="M21.65,16.9a6.32,6.32,0,0,0-3-5.78,7.43,7.43,0,0,0-4.75-.28,10.93,10.93,0,0,0-1.73.52,11.78,11.78,0,0,1,1.16,1.77,7.56,7.56,0,0,1,1,3.33,10.9,10.9,0,0,0,1.57,1,6.48,6.48,0,0,0,5.54-.3c.07-.06.16-.09.23-.14Z"/><path class="cls-1" d="M13.83,17.46a6.63,6.63,0,0,0-.7-3.62,11.2,11.2,0,0,0-1.52-2.44A11.67,11.67,0,0,1,9.1,14.08,6.46,6.46,0,0,1,7.43,15,9.76,9.76,0,0,0,7,16.8a6.88,6.88,0,0,0,.61,3.3A6,6,0,0,0,9,22a1.09,1.09,0,0,0,.19.18l.07,0a6.22,6.22,0,0,0,2.07-1A6.15,6.15,0,0,0,13.83,17.46Z"/><path class="cls-1" d="M13.08,5.13a10.25,10.25,0,0,0-.71-1.7,7.85,7.85,0,0,0-.47-.66A6.25,6.25,0,0,0,7.73.42a1.07,1.07,0,0,0-.25,0l-.06,0a6.31,6.31,0,0,0-1,6.47,7.46,7.46,0,0,0,3.67,3,15.39,15.39,0,0,0,1.69.58A9.52,9.52,0,0,1,13.08,5.13Z"/><path class="cls-1" d="M10,10.4A8.49,8.49,0,0,1,6.67,8a9.8,9.8,0,0,0-1.83.14A6.42,6.42,0,0,0,.52,11.64c0,.09-.07.17-.1.25l0,.06a6.3,6.3,0,0,0,5.85,2.92,6.54,6.54,0,0,0,3-1.55,11.64,11.64,0,0,0,2.1-2.44C11,10.78,10.56,10.62,10,10.4Z"/></g></g></svg>