<svg xmlns="http://www.w3.org/2000/svg" xmlns:xlink="http://www.w3.org/1999/xlink" viewBox="0 0 355 355"><defs><style>.cls-1,.cls-17{fill:none;}.cls-2{isolation:isolate;}.cls-3{clip-path:url(#clip-path);}.cls-4{clip-path:url(#clip-path-2);}.cls-5{clip-path:url(#clip-path-3);}.cls-11,.cls-6{mix-blend-mode:color-dodge;}.cls-6{fill:url(#radial-gradient);}.cls-13,.cls-14,.cls-15,.cls-7,.cls-8,.cls-9{mix-blend-mode:screen;}.cls-7{fill:url(#radial-gradient-2);}.cls-8{fill:url(#radial-gradient-3);}.cls-9{fill:url(#radial-gradient-4);}.cls-10{clip-path:url(#clip-path-4);}.cls-11{opacity:0.13;}.cls-12{clip-path:url(#clip-path-5);}.cls-13,.cls-14{opacity:0.6;}.cls-13{fill:url(#Degradado_sin_nombre_4);}.cls-14{fill:url(#Degradado_sin_nombre_4-2);}.cls-15{opacity:0.8;fill:url(#Degradado_sin_nombre_3);}.cls-16{fill:#fff;stroke-width:3px;}.cls-16,.cls-17{stroke:#17479b;stroke-miterlimit:10;}.cls-17{stroke-width:2px;}.cls-18{fill:#00a8e2;}.cls-19{clip-path:url(#clip-path-6);}.cls-20{fill:#32201c;}.cls-21{fill:#5b3f39;}.cls-22{fill:#4a2724;}.cls-23{fill:#221514;}.cls-24{fill:#7d5041;}.cls-25{fill:#fdeace;}.cls-26{fill:#c8b08b;}.cls-27{fill:#f9e7cc;}.cls-28{fill:#6d3f37;}.cls-29{fill:#a87a6c;}.cls-30{fill:#4a2623;}.cls-31{fill:#3a160f;}.cls-32{fill:#653426;}.cls-33{fill:#fdbb97;}.cls-34{fill:#f77d5f;}.cls-35{fill:#b24c52;}.cls-36{fill:#f27e62;}.cls-37{fill:#fea796;}.cls-38{fill:#da2f59;}.cls-39{fill:#d4edf2;}.cls-40{fill:#ce836c;}.cls-41{fill:#f63364;}.cls-42{fill:#a5dbe2;}.cls-43{fill:#45904e;}.cls-44{fill:#f1f1f1;}.cls-45{fill:#e7e8ed;}</style><clipPath id="clip-path"><rect class="cls-1" x="1243.57" y="-1383.49" width="1920" height="1361.63"/></clipPath><clipPath id="clip-path-2"><polygon class="cls-1" points="1182.34 -371.64 1182.34 181.25 2520.19 -455.12 2383.79 -463.96 2294.82 -461.13 1182.34 -371.64"/></clipPath><clipPath id="clip-path-3"><polygon class="cls-1" points="4098.39 -610.43 -1402.79 1051.5 -1528.98 138.68 3972.19 -1523.25 4098.39 -610.43"/></clipPath><radialGradient id="radial-gradient" cx="-350.73" cy="105022.63" r="955.48" gradientTransform="matrix(2.45, 0, -0.01, 0.03, 2822.92, -3259.73)" gradientUnits="userSpaceOnUse"><stop offset="0" stop-color="#39c7ff"/><stop offset="0.02" stop-color="#35b8ec"/><stop offset="0.09" stop-color="#2a92bb"/><stop offset="0.17" stop-color="#206f8e"/><stop offset="0.25" stop-color="#175168"/><stop offset="0.33" stop-color="#103848"/><stop offset="0.42" stop-color="#0a232d"/><stop offset="0.52" stop-color="#061419"/><stop offset="0.64" stop-color="#02080b"/><stop offset="0.77" stop-color="#010203"/><stop offset="1"/></radialGradient><radialGradient id="radial-gradient-2" cx="-313.83" cy="93067.27" r="954.54" gradientTransform="matrix(2.45, 0, -0.01, 0.03, 2832.59, -3329.04)" gradientUnits="userSpaceOnUse"><stop offset="0" stop-color="#f26522"/><stop offset="0.01" stop-color="#ec6221"/><stop offset="0.08" stop-color="#bb4e1a"/><stop offset="0.16" stop-color="#8e3b14"/><stop offset="0.24" stop-color="#682b0f"/><stop offset="0.32" stop-color="#481e0a"/><stop offset="0.41" stop-color="#2d1306"/><stop offset="0.52" stop-color="#190a04"/><stop offset="0.63" stop-color="#0b0502"/><stop offset="0.77" stop-color="#030100"/><stop offset="1"/></radialGradient><radialGradient id="radial-gradient-3" cx="-344.93" cy="33754.44" r="955.08" gradientTransform="matrix(2.45, 0, -0.02, 0.09, 2782.03, -3073.1)" gradientUnits="userSpaceOnUse"><stop offset="0" stop-color="aqua"/><stop offset="0.02" stop-color="#00ecec"/><stop offset="0.09" stop-color="#0bb"/><stop offset="0.17" stop-color="#008e8e"/><stop offset="0.25" stop-color="#006868"/><stop offset="0.33" stop-color="#004848"/><stop offset="0.42" stop-color="#002d2d"/><stop offset="0.52" stop-color="#001919"/><stop offset="0.64" stop-color="#000b0b"/><stop offset="0.77" stop-color="#000303"/><stop offset="1"/></radialGradient><radialGradient id="radial-gradient-4" cx="-625.78" cy="16963.75" r="364.92" gradientTransform="matrix(3.25, 0, -0.04, 0.16, 3947.44, -2906.35)" gradientUnits="userSpaceOnUse"><stop offset="0" stop-color="#fff"/><stop offset="0.02" stop-color="#ececec"/><stop offset="0.09" stop-color="#bbb"/><stop offset="0.17" stop-color="#8e8e8e"/><stop offset="0.25" stop-color="#686868"/><stop offset="0.33" stop-color="#484848"/><stop offset="0.42" stop-color="#2d2d2d"/><stop offset="0.52" stop-color="#191919"/><stop offset="0.64" stop-color="#0b0b0b"/><stop offset="0.77" stop-color="#030303"/><stop offset="1"/></radialGradient><clipPath id="clip-path-4"><rect class="cls-1" x="-2762.08" y="-375.91" width="1920" height="917.5"/></clipPath><clipPath id="clip-path-5"><rect class="cls-1" x="-2780.01" y="465.01" width="1952.64" height="364.71"/></clipPath><radialGradient id="Degradado_sin_nombre_4" cx="18108.73" cy="-3026.22" r="133.83" gradientTransform="matrix(-0.17, 0.18, -9.17, -2.51, -25783.46, -10315.89)" gradientUnits="userSpaceOnUse"><stop offset="0" stop-color="#fff"/><stop offset="0.27" stop-color="blue"/><stop offset="0.34" stop-color="#0000f3" stop-opacity="0.95"/><stop offset="0.45" stop-color="#0000d4" stop-opacity="0.83"/><stop offset="0.6" stop-color="#0000a2" stop-opacity="0.63"/><stop offset="0.78" stop-color="#00005c" stop-opacity="0.36"/><stop offset="0.99" stop-color="#000004" stop-opacity="0.02"/><stop offset="1" stop-opacity="0"/></radialGradient><radialGradient id="Degradado_sin_nombre_4-2" cx="18001.19" cy="-2966.2" r="133.85" gradientTransform="matrix(-0.14, 0.19, -9.52, -2.06, -26733.52, -8992.39)" xlink:href="#Degradado_sin_nombre_4"/><radialGradient id="Degradado_sin_nombre_3" cx="72286.7" cy="-2899.35" r="133.67" gradientTransform="matrix(-0.03, 0.05, -9.54, -2.03, -26820.99, -8845.61)" gradientUnits="userSpaceOnUse"><stop offset="0" stop-color="#fff"/><stop offset="0.43" stop-color="#a8ffff"/><stop offset="1" stop-opacity="0"/></radialGradient><clipPath id="clip-path-6"><circle class="cls-1" cx="177.5" cy="177.5" r="150"/></clipPath></defs><title>icon-</title><g class="cls-2"><g id="layout"><g class="cls-3"><g class="cls-4"><g class="cls-5"><ellipse class="cls-6" cx="1316.88" cy="-144.8" rx="2336.56" ry="28.36" transform="translate(98.78 376.14) rotate(-16.88)"/><ellipse class="cls-7" cx="1317.09" cy="-143.26" rx="2336.43" ry="32.67" transform="translate(97.16 373.48) rotate(-16.75)"/><ellipse class="cls-8" cx="1316.88" cy="-144.8" rx="2336.54" ry="82.89" transform="translate(98.81 376.2) rotate(-16.88)"/></g><ellipse class="cls-9" cx="1256.74" cy="-135.31" rx="1186.26" ry="59.63" transform="translate(94 360.41) rotate(-16.95)"/><polygon class="cls-1" points="2258.63 -54.63 436.98 495.7 310.78 -417.12 2132.43 -967.45 2258.63 -54.63"/></g></g></g><g id="icon"><g class="cls-10"><g class="cls-11"><g class="cls-12"><path class="cls-13" d="M-1098,560.31c-677.7-185.25-1217-346.24-1204.65-359.58s571.8,126,1249.5,311.27,1217,346.24,1204.66,359.59S-420.26,745.56-1098,560.31Z"/><path class="cls-14" d="M-1043.07,524.91C-1746.41,372.59-2308.21,237.85-2297.89,224S-1709,322.32-1005.71,474.64,259.42,761.71,249.1,775.59-339.74,677.24-1043.07,524.91Z"/><path class="cls-15" d="M-1212.08,468.15C-1917,318.23-2486.8,193.87-2484.73,190.37s575.23,115.2,1280.18,265.12S70.17,729.76,68.1,733.26-507.13,618.06-1212.08,468.15Z"/></g></g></g><circle class="cls-16" cx="177.5" cy="177.5" r="174.89"/><circle class="cls-17" cx="177.5" cy="177.5" r="150"/><circle class="cls-18" cx="177.5" cy="177.5" r="150"/><circle class="cls-1" cx="177.5" cy="177.5" r="150"/><g class="cls-19"><path class="cls-20" d="M262.75,328.82l-43,.18c0-.2,0-.4,0-.6l1-.09H237.1a3,3,0,0,0,.42,0h23.75a4.84,4.84,0,0,0,.73-.09c0-.27.06-.48.07-.69a152.62,152.62,0,0,0-.87-28.19C260,290.72,258,282.3,254,274.47c-3.16-6.11-7.26-11.42-13.2-15.11-.11-.06-.17-.2-.25-.31l1.53.34a.15.15,0,0,0,.09.06l.49.32c7.83,5.79,12.35,13.82,15.42,22.81a96.13,96.13,0,0,1,4.51,23.65,6.45,6.45,0,0,0,.21,1Z"/><path class="cls-20" d="M104.42,329h-4.37c-2.43,0-4.86,0-7.29,0a5.27,5.27,0,0,1-1.39-.42V311.27a6.82,6.82,0,0,0,.23-1.07,117.66,117.66,0,0,1,3.88-25.85c1.81-6.45,4.35-12.58,8.53-17.92.26-.34.56-.64.84-1l.27.52-4.6,7.18-.44.86-.15.38,0,0a5.76,5.76,0,0,0-.37.63,75.33,75.33,0,0,0-5.81,20.38,167.54,167.54,0,0,0-1.59,31.65c0,.39,0,.77.07,1.3h12.22Z"/><path class="cls-21" d="M156.46,77.4c0-.12.06-.3.15-.34,3.7-1.76,7.45-3.41,11.57-4,.08,0,.14-.12.22-.19h3.85c.55.17,1.11.35,1.67.5a8.66,8.66,0,0,1,4.44,2.93c.44-.39.84-.78,1.27-1.12a10.08,10.08,0,0,1,6.73-1.94,26.78,26.78,0,0,1,11.21,3,6.48,6.48,0,0,1-1.43.2c-.92-.08-1.82-.26-2.73-.4.05-.23.11-.46.17-.69l-1.08-.33A18.39,18.39,0,0,0,185.41,74c-1.14.1-2.35,0-3.31.85l-3.85,2.31L177,76.33a4.22,4.22,0,0,0-.78-1.06c-2.43-1.8-5.27-1.72-8-1.4-1.36.16-2.93.12-4,1.31-.07.08-.42-.08-.64-.13l0-.09-.05.09a11.5,11.5,0,0,0-1.13.26Z"/><path class="cls-21" d="M103.69,177.38l.14-.46c.41-1.08.82-2.16,1.22-3.23,3.65-8.42,7.4-16.79,10.87-25.28,1-2.42,1.23-5.16,1.66-7.79,1.33-8.11,2.52-16.25,3.9-24.36a77.4,77.4,0,0,1,4.13-15.13c.83-2.13,1.77-4.21,3.81-5.52a3.29,3.29,0,0,1,.46-.23h0c-.15.37-.19.92-.46,1.1A6.14,6.14,0,0,0,127,99.66c-1.19,3.26-2.45,6.53-3.32,9.88-1.06,4.08-1.75,8.25-2.6,12.38-.36,2.25-.73,4.5-1.07,6.76-.54,3.52-1.13,7-1.54,10.56-.11,1-.71,2,.09,3l.19.83c-.5,1.24-1.07,2.46-1.48,3.73A118.55,118.55,0,0,1,112,160c-1.28,2.75-2.59,5.48-3.86,8.22a16.27,16.27,0,0,0-.53,1.58c-.32.66-.71,1.29-1,2-1.31,3.57-2.69,7.11-3.84,10.73a16.3,16.3,0,0,0-.61,8.92,22.81,22.81,0,0,0,6.11,10.71c2.48,2.53,5.1,4.94,7.76,7.28,2,1.8,4.25,3.42,6.45,5.17l.11-.55.39.12h0l.21.22h0l.26.22a46.94,46.94,0,0,1,4.28,5.42,20.1,20.1,0,0,1,2.7,10.7,51.24,51.24,0,0,1-.67,6.76,6.94,6.94,0,0,1-2.55,4.4c-3,2.47-6.62,2.63-10.3,2.32-1.48-.12-3-.31-4.52-.48l.75,1.37a9,9,0,0,0,.83,1.46c.68.8,1.45,1.52,2.18,2.27-.1.22-.34.59-.29.64.44.37.66,1.17,1.59.93l-1.11-1.54,2.36,1.47-.7.87c.35.16.67.2.83.39,1.14,1.37,2.77,1.56,4.34,1.71a10.13,10.13,0,0,0,6.22-1.25l.63.61-2.14.9a11.9,11.9,0,0,1-10.8-2.11,22,22,0,0,1-5.27-6.4c-.47-.82-.91-1.66-1.43-2.61,1.62.33,3.07.67,4.53.9a20.75,20.75,0,0,0,8-.1c3.72-.87,6-3.2,6.33-7a47.6,47.6,0,0,0,.24-8.52c-.42-5.43-3.28-9.49-7.56-12.83-4.46-3.47-8.7-7.24-12.92-11a28.65,28.65,0,0,1-3.73-4.39c-4-5.36-5.14-11.24-3-17.67.34-1,.61-2.05.91-3.07C103.36,178.26,103.52,177.82,103.69,177.38Z"/><path class="cls-20" d="M107.2,263A24,24,0,0,1,118,256.7c3.19-.86,6.42-1.58,9.63-2.37a1.5,1.5,0,0,0,.38-.19c2.16-.49,4.33-1,6.48-1.51.25-.07.39-.55.58-.84a2.29,2.29,0,0,0,2.37-.07,3,3,0,0,1,.91-.27c2-.45,4.07-.88,6.1-1.34s3.89-1.05,5.87-1.3c.71-.08,1.52.67,2.28,1.06,0,0,0,.13,0,.2l-.76.9a14.72,14.72,0,0,0-1.06-1.17,1.11,1.11,0,0,0-.81-.32c-.86.16-1.7.43-2.62.67a4.77,4.77,0,0,0,.27.52,53,53,0,0,0,15.17,14.84A27.12,27.12,0,0,0,176.3,270c6.06.22,11.36-1.92,16.19-5.43a56,56,0,0,0,12.81-13.77,1.28,1.28,0,0,0,.11-.4c-1.81-.31-3.56-.63-5.32-.89a3.48,3.48,0,0,0-1.08.2v-1.12a6.7,6.7,0,0,1,2.39.35c2.06.79,4.35.49,6.52,1.1,2.59.73,5.32,1,8,1.46,1,.18,2,.5,2.93.73q5.1,1.19,10.22,2.34c1.05.24,2.14.78,3.13-.19-.18.77.11,1.14.9,1.32a25.63,25.63,0,0,1,2.51.86V257a1.93,1.93,0,0,1-.42,0c-9.11-2.85-18.47-4.55-27.83-6.25a1.46,1.46,0,0,0-1.73.74,54.93,54.93,0,0,1-13,13.79c-9.17,6.53-18.74,7.21-28.62,1.73-6.94-3.85-12.31-9.41-16.83-15.83a1.23,1.23,0,0,0-1.56-.58c-6.71,1.67-13.43,3.3-20.13,5-2.94.72-5.9,1.38-8.79,2.27a25,25,0,0,0-9,5.46Z"/><path class="cls-21" d="M149.57,80.82h.64l.22.44c-1.6,1-3.26,1.93-4.81,3-3.55,2.49-7.06,5-10.57,7.59a15.47,15.47,0,0,0-1.45,1.36l-.3.23h0l-.22.23h0c-.44.27-1.05.44-1.29.84a1.8,1.8,0,0,1-1.92.88h0c1.26-1.09,2.44-2.26,3.77-3.24,4.79-3.51,9.62-7,14.44-10.42l1.06-.65Z"/><path class="cls-22" d="M135,251.79c-.19.29-.33.77-.58.84-2.15.55-4.32,1-6.48,1.51l0-.63,2.14-.9.68-.37,1.51-.84.4-.18.22-.29v0l.28-.08.37-.22.52-.45h0l.82-.33.14.84v.42Z"/><path class="cls-20" d="M105.45,264.77,107.2,263l.52.22-2.16,2.25Z"/><path class="cls-21" d="M105.45,264.77l.11.7-.44.52-.27-.52Z"/><path class="cls-21" d="M235.57,119.13c.58,3.25,1.24,6.5,1.72,9.77.67,4.55,1.18,9.12,1.8,13.67s2.36,8.71,4.16,12.87c3.17,7.36,6.45,14.67,9.56,22.05a30.46,30.46,0,0,1,2.43,9.72c.35,5.22-1.85,9.55-5,13.51-3.7,4.69-8.34,8.37-13,12.05-1.25,1-2.47,2-3.75,3a16.53,16.53,0,0,0-6.65,13,43,43,0,0,0,.45,8.09c.52,3.73,3.32,6.06,7.49,6.6a26,26,0,0,0,9.86-.77l1.34-.32a27.17,27.17,0,0,1-6.2,8.75c-1.65,1-3.15,2.28-5.16,2.55a3.37,3.37,0,0,1,.73-.81c1.32-.74,2.68-1.44,4.07-2.18L239,250l1.3-1.44h0l.65-.22h0l.22-.22h0l.22-.28a8.32,8.32,0,0,1,.87-1,7.89,7.89,0,0,0,2.4-3.52l-2.41.73a5.36,5.36,0,0,0-.88-.09,13.41,13.41,0,0,1-2.42.28c-2.79-.22-5.69,0-8.24-1.5a7.27,7.27,0,0,1-2.89-2.8,12.39,12.39,0,0,1-1.36-4.86,51.06,51.06,0,0,1-.32-6.41,32.22,32.22,0,0,1,1-5.73,14.28,14.28,0,0,1,1.17-2.63l.91-1.51h0l.85-1L231.5,216l.27.34.07-.07-.34-.27,1.07-1.51-.15,1.26c.21-.06.33-.06.4-.12,2.86-2.36,5.74-4.7,8.55-7.12,1.87-1.6,3.67-3.28,5.45-5a5.45,5.45,0,0,0,.79-1.45l.62-.39a4.94,4.94,0,0,0,1.3-1c1.23-1.9,2.38-3.84,3.54-5.78a13.59,13.59,0,0,0,1.54-6.21c.24-3.28-.79-6.35-1.81-9.38-.82-2.47-1.88-4.85-2.89-7.25-.81-1.91-1.71-3.78-2.56-5.67l-1.5-3.35-.22-.5h0a6.06,6.06,0,0,0-.31-1.22c-.72-1.42-1.49-2.81-2.22-4.22l-2.84-5.46c.89,0,.54-.51.41-.91-.51-1.58-1-3.15-1.58-4.72l-2-5.94h.27l1,2.22c-.12-1.34-.17-2.36-.3-3.37-.31-2.34-.66-4.68-1-7-.21-1.42-.43-2.84-.64-4.25s-.55-3-.83-4.51c-.07-1.1-.16-2.19-.21-3.28A3.14,3.14,0,0,1,235.57,119.13Z"/><path class="cls-21" d="M203.9,79.4c2.92,1.76,6,3.35,8.72,5.33,5.19,3.74,10.23,7.69,15.3,11.61a6.7,6.7,0,0,1,1.71,2.13c2.37,4.44,3.51,9.3,4.65,14.15.43,1.86.74,3.76,1.1,5.64a4.19,4.19,0,0,1-.62-1c-.4-1.23-.74-2.48-1.1-3.72-.29-1.43-.51-2.87-.87-4.27-1-4-2.12-8-4.27-11.56l-5.38-4.32-.15-.17-.25-.23h-.42l-.23-.22c-1.14-1-2.24-2-3.44-2.9-2.41-1.79-4.84-3.57-7.34-5.25-2.2-1.48-4.5-2.81-6.75-4.21l-.22-.27h0Z"/><path class="cls-20" d="M233.66,113.57c.36,1.24.7,2.49,1.1,3.72a4.19,4.19,0,0,0,.62,1l.19.87a3.14,3.14,0,0,0-.17.77c0,1.09.14,2.18.21,3.28-.94-2.86-1.68-5.82-2.88-8.57-2.11-4.83-4.5-9.55-6.78-14.31-.21-.49-.39-1-.62-1.45q-1-2.05-2-4.09l.31,0,1.82,2.58,2.16,3a7.86,7.86,0,0,0,.36,1.1c.56,1.11,1.21,2.18,1.73,3.31C231,107.67,232.34,110.63,233.66,113.57Z"/><path class="cls-20" d="M203.9,79.4l.44.79c-.41-.1-.82-.18-1.22-.32-2-.67-3.91-1.49-5.93-2a25.57,25.57,0,0,0-11.08-.21,43.68,43.68,0,0,0-4.26,1.21l-.92.12,0-.15,1.22-.77,6.16-1.78.67-.17,3.43-.19h.18l.86.14c.91.14,1.81.32,2.73.4a6.48,6.48,0,0,0,1.43-.2l1.84.8.55.27Z"/><path class="cls-21" d="M200,77.34l-.55-.27Z"/><path class="cls-20" d="M216.54,329l-.86-.16a5.3,5.3,0,0,0-1.09-.23H162.86a6.26,6.26,0,0,0-1.1.21H157.5c0-.14,0-.27,0-.41,1.6,0,3.19-.06,4.78-.06h53c.42,0,.84.06,1.26.1Z"/><path class="cls-23" d="M104.42,329v-.6H117l.22.31.21-.31.41-.09,7.51.1v.6Z"/><path class="cls-23" d="M157.48,328.42c0,.14,0,.27,0,.41H129.66c0-.13,0-.27,0-.41,4.9,0,9.8,0,14.71,0C148.74,328.38,153.11,328.41,157.48,328.42Z"/><path class="cls-23" d="M161.76,328.82a6.26,6.26,0,0,1,1.1-.21h51.73a5.3,5.3,0,0,1,1.09.23H161.76Z"/><path class="cls-24" d="M216.54,329c0-.17,0-.35,0-.53l3.21-.07c0,.2,0,.4,0,.6Z"/><path class="cls-20" d="M125.39,329v-.6h1.93v.6Z"/><path class="cls-23" d="M127.31,329v-.6l1.74-.12,0,.06-.06,0-.21.42Z"/><path class="cls-20" d="M128.81,328.82l.21-.42.65,0c0,.14,0,.28,0,.41Z"/><path class="cls-25" d="M129.67,328.42l-.65,0,.06,0,0-.06a18,18,0,0,0-.71-1.76,70.65,70.65,0,0,1-5.74-14.85,2.61,2.61,0,0,0,.69-.27c.92-.69,2.1-1.26,2.64-2.19.44-.76.66-.77,1.26-.39a3.38,3.38,0,0,1,2.35-2.34c1-.3,2.35-1.1,2.44-2.38.55-.23,1.17-.31,1.36-.64s-.2-.85-.41-1.24c-.45-.86-1.54-1.42-1.25-2.64,1.46,0,1.63,1.38,2.41,2.07.4.36.67.82,1.18.39a1,1,0,0,0,.18-1.54c-.64-.79-1.15-1.68-1.72-2.53l.15-.31c.33.1.76.09,1,.31a17.06,17.06,0,0,1,1.48,1.8c.37.49.75.77,1.34.35a.81.81,0,0,0,.16-1.35c-.38-.47-.74-1-1.21-1.57.45-.11.73-.28,1-.24a2.09,2.09,0,0,1,1.6,2.53c0,.3,0,.82.2.91a1.22,1.22,0,0,0,1.09,0,1.47,1.47,0,0,0,.49-1.1,14.56,14.56,0,0,0-.42-2.8c-.37-1.33-.84-2.63-1.34-3.92a1,1,0,0,0-.79-.49c-.25.05-.48.46-.61.76a2.28,2.28,0,0,0,0,.74c0,.36,0,.71-.06,1.07a7.13,7.13,0,0,0-1.2-.19c-.47,0-1.22-.09-1.37.16-.74,1.21-2.74,1-3,2.7,0,.1-.38.16-.58.22a4.79,4.79,0,0,0-2.52,2.79,8.94,8.94,0,0,0-2.58,1.11,9.44,9.44,0,0,0-1.46,2.28,19.72,19.72,0,0,0-1.64-1.8,1.18,1.18,0,0,0-1.12-.15,1.34,1.34,0,0,0-.24,1.13c.08.34.47.6.68.92s.37.68.59,1.09l-2.18.34c-.22-2.26-.49-4.52-.67-6.78-.13-1.66-.09-3.34-.25-5a7.34,7.34,0,0,0-.7-1.91c-.39.53-1,1-1.15,1.6-.59,2.33-1.14,4.69-1.54,7.06a73.75,73.75,0,0,0-.91,15.92,56.11,56.11,0,0,0,2,12.16l-.41.09H92.2c0-.53-.06-.91-.07-1.3a167.54,167.54,0,0,1,1.59-31.65,75.33,75.33,0,0,1,5.81-20.38,5.76,5.76,0,0,1,.37-.63l1.13.42L99.89,277c1.06,2.38,3.1,1.39,4.88,1.39a15.56,15.56,0,0,1-.46-3,2,2,0,0,0-1.41-2.2,3.81,3.81,0,0,0-2.38-.08l4.6-7.18.44-.52,2.16-2.25a25,25,0,0,1,9-5.46c2.89-.89,5.85-1.55,8.79-2.27,6.7-1.66,13.42-3.29,20.13-5a1.23,1.23,0,0,1,1.56.58c4.52,6.42,9.89,12,16.83,15.83,9.88,5.48,19.45,4.8,28.62-1.73a54.93,54.93,0,0,0,13-13.79,1.46,1.46,0,0,1,1.73-.74c9.36,1.7,18.72,3.4,27.83,6.25a1.93,1.93,0,0,0,.42,0c.64.22,1.31.28,1.95.5a11.17,11.17,0,0,0,3,1.59c.08.11.14.25.25.31,5.94,3.69,10,9,13.2,15.11,4,7.83,6.09,16.25,7.25,24.92a152.62,152.62,0,0,1,.87,28.19c0,.21,0,.42-.07.69a4.84,4.84,0,0,1-.73.09H237.52a3,3,0,0,1-.42,0c-.08-2-.1-4-.25-6a7.35,7.35,0,0,0-1.82-4.78,1.21,1.21,0,0,1-.39-1.29,73.51,73.51,0,0,0,1.77-17.87c0-1-.23-2-.35-3-1.42,3.3-2.62,6.56-3.86,9.82a126.28,126.28,0,0,1-7.52,16.49c-1.23,2.23-2.59,4.41-3.89,6.61l-1,.09-3.21.07c-.42,0-.84-.1-1.26-.1h-53c-1.59,0-3.18,0-4.78.06-4.37,0-8.74,0-13.1,0C139.47,328.38,134.57,328.41,129.67,328.42Zm113.4-26.77a19.83,19.83,0,0,0,0,2.56,1.18,1.18,0,0,0,.78.81c1.6.08,3.2,0,4.8,0,.76,0,1.05-.36,1-1.13-.05-1.49-.06-3,0-4.48,0-1-.39-1.25-1.26-1.23-1.48,0-3,0-4.43,0-.63,0-1,.27-1,1S243.07,300.84,243.07,301.65ZM113.41,289.79l-.84-9.72A20.81,20.81,0,0,0,113.41,289.79Z"/><path class="cls-26" d="M220.79,328.31c1.3-2.2,2.66-4.38,3.89-6.61a126.28,126.28,0,0,0,7.52-16.49c1.24-3.26,2.44-6.52,3.86-9.82.12,1,.31,2,.35,3a73.51,73.51,0,0,1-1.77,17.87,1.21,1.21,0,0,0,.39,1.29,7.35,7.35,0,0,1,1.82,4.78c.15,2,.17,4,.25,6Z"/><path class="cls-27" d="M100.52,273.17a3.81,3.81,0,0,1,2.38.08,2,2,0,0,1,1.41,2.2,15.56,15.56,0,0,0,.46,3c-1.78,0-3.82,1-4.88-1.39l1.14-2.15-1.13-.42,0,0,.34-.15-.19-.23Z"/><path class="cls-25" d="M100.08,274l.19.23-.34.15Z"/><path class="cls-24" d="M133.6,93.22a15.47,15.47,0,0,1,1.45-1.36c3.51-2.55,7-5.1,10.57-7.59,1.55-1.09,3.21-2,4.81-3a1.67,1.67,0,0,0,2.13.24,14.85,14.85,0,0,0,2-2L154,78.45l.58-.27.65.51c.49.38.79.21.92-.34a3.76,3.76,0,0,0,0-.75l.27-.2,5.88-2.09a11.5,11.5,0,0,1,1.13-.26h0c.22,0,.57.21.64.13,1.1-1.19,2.67-1.15,4-1.31,2.76-.32,5.6-.4,8,1.4a4.22,4.22,0,0,1,.78,1.06c0,.87,0,1.75,0,2.62a2.2,2.2,0,0,1-2.61,2,12,12,0,0,0-2.9-.51,28.84,28.84,0,0,0-10.93,2.43c-1.21.47-2.39,1-3.59,1.55A32.88,32.88,0,0,1,165,87.16c2.49,1.24,5,2.51,7.46,3.76-.22.31-.29.36-.35.35a4.13,4.13,0,0,1-.5-.15c-4.31-1.31-8.63-2.18-13.18-1.34A22.83,22.83,0,0,0,148.36,94a96.45,96.45,0,0,0-7.71,7,11.45,11.45,0,0,0-2.75,3.56,54.12,54.12,0,0,0-2.66,11.12c-.7,4-1.35,8-2.06,12-.35,2-.73,3.9-1.17,5.83q-1.19,5.22-2.46,10.42c-.33,1.34-.77,2.64-1.15,4a2.89,2.89,0,0,0-2.57,1.63c-.11.17,0,.48,0,.73.24-.07.54-.07.71-.22.33-.27.53-.71.88-.9s.68,0,1,0a6.86,6.86,0,0,1-.32.9c-.36.7-.75,1.39-1.12,2.08l-.66.92-2.28-2.66-.21-.54c.08-.46.15-.91.23-1.37,1.46-8.17,2.8-16.35,3.44-24.64l.81-.94a47.5,47.5,0,0,0,0,4.94,39,39,0,0,0,1,4.5l.36-.05c.08-8.12,2.46-15.78,4.5-23.55l-4,6a3.48,3.48,0,0,1,.06-.63c1.48-3.31,3-6.6,4.45-9.91.35-.8.55-1.67.83-2.51,2.48-3.05,4.81-6.25,7.47-9.13A99.47,99.47,0,0,1,159.7,78.2c.63-.44,1.21-.94,1.81-1.41a.43.43,0,0,0-.49,0,102.17,102.17,0,0,0-18.84,15c-1.15,1.15-2.22,2.37-3.33,3.56v-1l-.31-.17-5.76,4.55-.28-3.62-.18,0,.77-1.48h0l.22-.23h0Z"/><path class="cls-24" d="M154,78.45l.52,1.08a14.85,14.85,0,0,1-2,2,1.67,1.67,0,0,1-2.13-.24c-.07-.15-.14-.29-.22-.44l.81-.66c.74.82,1.11.82,1.65,0a9.51,9.51,0,0,0,.54-1.11Z"/><path class="cls-21" d="M153.21,79a9.51,9.51,0,0,1-.54,1.11c-.54.86-.91.86-1.65,0Z"/><path class="cls-24" d="M156.19,77.6a3.76,3.76,0,0,1,0,.75c-.13.55-.43.72-.92.34l-.65-.51C155.11,77.88,155.45,77.2,156.19,77.6Z"/><path class="cls-28" d="M126.4,153l.66-.92c.36.42.64,1,1.1,1.23a1.74,1.74,0,0,0,2-.77,18.7,18.7,0,0,1,1.4-1.36c-1.14-.89-1.53-2.65-3.19-3.27.38-1.32.82-2.62,1.15-4q1.27-5.19,2.46-10.42c.44-1.93.82-3.88,1.17-5.83.71-4,1.36-8,2.06-12a54.12,54.12,0,0,1,2.66-11.12,11.45,11.45,0,0,1,2.75-3.56,96.45,96.45,0,0,1,7.71-7,22.83,22.83,0,0,1,10.08-4.22c4.55-.84,8.87,0,13.18,1.34a4.13,4.13,0,0,0,.5.15c.06,0,.13,0,.35-.35-2.49-1.25-5-2.52-7.46-3.76a32.88,32.88,0,0,0-8.09-2.76c1.2-.52,2.38-1.08,3.59-1.55a28.84,28.84,0,0,1,10.93-2.43,12,12,0,0,1,2.9.51A2.2,2.2,0,0,0,177,79c0-.87,0-1.75,0-2.62l1.29.82,3.85-2.31c0,1.07,0,2.15,0,3.22l-1.22.77,0,.15.92-.12c0,.55-.09,1.09-.15,1.87l9.29-2,.17.21c-.61.8-1.22,1.59-1.82,2.39-.05.07,0,.22,0,.33A20.6,20.6,0,0,0,181.15,88l5.86-3.5a10.38,10.38,0,0,1-.43,1c-1.35,2.35-2.91,4.6-3.49,7.31a4.37,4.37,0,0,0,0,.81,3.56,3.56,0,0,0,.8,0A56.78,56.78,0,0,1,195.49,91a30.43,30.43,0,0,1,9.94.53,4.38,4.38,0,0,1,.92.45l-2.43,1.62c-2.36,0-4.73-.15-7.07.08A12.46,12.46,0,0,0,191,95.65a5.54,5.54,0,0,0-1.12-.27c-.6,0-1.36-.12-1.35.88a3.8,3.8,0,0,1-.62.8c-1.56,1.21-3.18,2.35-4.72,3.59a25.86,25.86,0,0,0-2,1.94l.27.29c.57-.48,1.12-1,1.73-1.43,1.66-1.19,3.34-2.35,5-3.52.19,1.66.22,1.68,2.9,1.27v-3a5.59,5.59,0,0,0,1-.21,18.58,18.58,0,0,1,8.36-1.48c-.12.14-.22.34-.38.42-1.75.91-3.5,1.83-5.27,2.7-1.13.55-2.33,1-1.41,2.65a29.4,29.4,0,0,0-11.84,5.82c-.36.3-.66.67-1,1,1.93-.84,3.7-1.81,5.5-2.74,5.54-2.85,11.35-4.21,17.6-3.14.18,0,.4-.17.6-.27a2.41,2.41,0,0,1,.72.11,12,12,0,0,1,5,3.8,17.48,17.48,0,0,1,3,5.42c.84,3.52,1.08,7.19,1.62,10.79.62,4,1.25,8.1,2,12.13.56,3.2,1.23,6.38,1.87,9.56s1.26,6.29,2,9.42a68.16,68.16,0,0,0,1.86,7.18c.82,2.43,2,4.74,3,7.12a18.94,18.94,0,0,1,1.36,7c-.62-.88-1.29-1.71-1.83-2.63-.71-1.23-1.31-2.53-2-3.8-.17-.57-.32-1.16-.51-1.73-1-2.89-2.09-5.74-3-8.66-1.43-4.68-2.75-9.4-4.07-14.12-.82-2.9-1.59-5.82-2.32-8.74-.84-3.3-1.62-6.62-2.41-9.93-.65-2.72-1.27-5.45-1.93-8.18-.4-1.64-.86-3.28-1.3-4.92a2,2,0,0,0-.06,1.09c.46,2.43.89,4.88,1.38,7.31.94,4.65,1.8,9.32,2.88,13.94s2.26,9,3.58,13.47,2.82,8.8,4.34,13.16c.85,2.41,1.92,4.74,2.89,7.1-.18-.09-.44-.14-.53-.29-.76-1.34-1.56-2.67-2.22-4.07q-2.28-4.81-4.45-9.68c-.74-1.67-1.38-3.38-2.05-5.08-.57-1.46-1.09-2.95-1.67-4.41s-1.33-3.09-1.89-4.67c-.68-1.92-1.23-3.88-1.88-5.81s-1.37-3.85-2-5.78q-1.2-3.6-2.33-7.23c-.4-1.29-.68-2.61-1.08-3.89a20.65,20.65,0,0,0-.84-1.94v-.21l-.23-.86c-.42-1.42-.82-2.85-1.27-4.26a.79.79,0,0,0-.61-.42,18.21,18.21,0,0,0-3.62,0c-3.43.6-6.94.88-10.21,2.25-2.08.87-4.21,1.6-6.32,2.39L177,112.5a2.78,2.78,0,0,1-.83-.14,36.2,36.2,0,0,0-9.79-3.18c-2.87-.53-5.82-.68-8.74-.94-.31,0-.87.17-.93.38-.56,1.85-1,3.72-1.53,5.58a15,15,0,0,0-.64,1.56c-1,3.21-1.91,6.44-2.94,9.63s-2.2,6.41-3.31,9.62c-.19.57-.36,1.14-.56,1.71-.51,1.42-1,2.83-1.55,4.25s-1,2.89-1.62,4.32-1.2,2.8-1.79,4.2c-.71,1.69-1.36,3.4-2.11,5.08s-1.59,3.22-2.34,4.86c-.54,1.17-.9,2.44-1.51,3.57-1.09,2-2.3,3.95-3.48,5.91-.54.89-1.12,1.76-1.68,2.65a1.27,1.27,0,0,1,0,.2c-.71.14-.32.53-.2.87l0,.21v.2l-1.31.45c.44-1.71,1-3.41,1.31-5.14q1.42-7.12,2.72-14.28c.32-1.78.47-3.58.7-5.37,1.26-.23.47-.81.21-1.29.16-.74.32-1.47.49-2.21a14.67,14.67,0,0,0,1.19,1.3,2.46,2.46,0,0,0,.89.3c0-.3.05-.67-.09-.9-.57-.92-1.21-1.8-1.83-2.7l.1-.6c.84.44,1.71.83,2.53,1.33C140,145,140,145.09,139.37,147c.72.6,1.18.21,1.18-.51a13.24,13.24,0,0,0-.41-3.13c-.35-1.38-.86-2.73-1.3-4.09l-.42.08c-.84,1.29.72,2.4.51,3.71l-3.05-1.69c.07-.7.13-1.41.2-2.11.28-2.67.58-5.34.82-8,.14-1.67.18-3.34.27-5-.7,3.15-1.24,6.31-1.7,9.48-.35,2.38-.59,4.77-.88,7.16-.53.23-1.35.34-1.53.74a2.25,2.25,0,0,1-1.53,1.25c-.36.13-.63.53-.93.81s-.41.52-.67.61c-.74.25-.53.61-.19,1,.71.88,1.49,1.71,2.13,2.64.41.6.8.72,1.39.39-.34,2.52-.63,5-1,7.56-.73,4.54-1.54,9.06-2.28,13.6-.16,1-.19,2-.28,3.06l-.21.2-.23.64-.4.65a6,6,0,0,1-.31,1.21,6.92,6.92,0,0,0-.77,3.76.19.19,0,0,1,0,.18l-.07.05a1.09,1.09,0,0,0,.08.15l-.21.65a8.87,8.87,0,0,0-.48,1.57,41.63,41.63,0,0,0-.52,5.33,24.07,24.07,0,0,0,.63,5.35,52.58,52.58,0,0,0,1.8,5.4c0,.06.19.07.29.11l.8,1.83a10.57,10.57,0,0,0,1,1.62c2.31,2.68,4.61,5.38,7,8a56,56,0,0,1,8,10.53c1.91,3.43,3,6.89,2,10.85a15.91,15.91,0,0,1-3.36,5.88l-.07-1.24a35.91,35.91,0,0,0-.84-4.8,50.08,50.08,0,0,0-6.08-12c-2.85-4.36-5.87-8.61-8.84-12.9-1.42-2-2.84-4.08-4.34-6.05a30.64,30.64,0,0,1-4.65-8,22,22,0,0,1-1.14-8.71c.08-1.5.23-3,.36-4.69-.18.26-.3.36-.33.47a27.15,27.15,0,0,0-.66,9.5,19.61,19.61,0,0,0,2.44,7.43c.91,1.47,1.79,3,2.68,4.45a4.94,4.94,0,0,1-1.14-.73c-2.46-2.82-5-5.61-7.3-8.56a13.89,13.89,0,0,1-3.18-6.73,5.86,5.86,0,0,1,.14-3.1c1.13-2.34,2.63-4.5,3.86-6.8,1.7-3.14,3.3-6.33,4.91-9.52,1-2,1.94-3.93,2.81-5.94a25.74,25.74,0,0,0,1-3.13c.26-.35.47-.94.78-1,1-.21.65-.77.46-1.33l.69-.66,1,.49a8.81,8.81,0,0,0-.27-1A6.68,6.68,0,0,0,126.4,153Zm45.4-57.14,3.59,2,.24-.47-3.81-1.81c-.68-.3-1.35-.62-2-.9-4.33-1.83-8.39-1.78-12.07,1.61-4.78,4.41-7.88,9.94-10.43,15.79a61.13,61.13,0,0,0-2.83,8.48c-.81,3-1.33,6.16-2,9.24l-1,4.44.4.09.86-4.31c.5-1.88.95-3.77,1.51-5.63a93.35,93.35,0,0,1,5.43-14.31c2.33-4.81,5-9.34,9-13,1.45-1.32,3.06-2.62,5.07-2.65a29.72,29.72,0,0,1,5.42.76C170,95.38,170.91,95.65,171.8,95.87Zm6,13.39a170.87,170.87,0,0,0,.63-27.79l-.34,0c-.21,3.21-.42,6.42-.65,10a20.21,20.21,0,0,0-7-4.82c-4.49-1.78-6.56-2.2-8-1.73a3.52,3.52,0,0,0,.4.19,67.29,67.29,0,0,1,13.61,6,1.67,1.67,0,0,1,1,1.65c0,5.06.12,10.11.21,15.17A10.23,10.23,0,0,0,177.79,109.26Z"/><path class="cls-24" d="M182.11,78.06c0-1.07,0-2.15,0-3.22,1-.85,2.17-.75,3.31-.85a18.39,18.39,0,0,1,7.09,1.06l1.08.33c-.06.23-.12.46-.17.69l-.86-.14h-.18l-3.43.19-.67.17Z"/><path class="cls-24" d="M163.47,75.05l.05-.09,0,.09Z"/><path class="cls-24" d="M124.31,157.42a25.74,25.74,0,0,1-1,3.13c-.87,2-1.83,4-2.81,5.94-1.61,3.19-3.21,6.38-4.91,9.52-1.23,2.3-2.73,4.46-3.86,6.8a5.86,5.86,0,0,0-.14,3.1,13.89,13.89,0,0,0,3.18,6.73c2.32,3,4.84,5.74,7.3,8.56a4.94,4.94,0,0,0,1.14.73c.58.8,1.16,1.59,1.73,2.39,2,2.81,4.12,5.59,6.12,8.42,1,1.47,1.93,3,2.9,4.55a45.58,45.58,0,0,1,1.18,5.59c.25,2.81.24,5.64.26,8.47a24.22,24.22,0,0,1-2.39,11.11,13.29,13.29,0,0,1-2.89,3.88c-2.94,2.62-6.48,2.94-10.21,2.1-.82-.19-1.65-.32-2.48-.49l-2.36-1.5c-.29-.57-.24-1.52-1.32-1.23l-.59-.17-.75-1.37c1.56.17,3,.36,4.52.48,3.68.31,7.25.15,10.3-2.32a6.94,6.94,0,0,0,2.55-4.4,51.24,51.24,0,0,0,.67-6.76,20.1,20.1,0,0,0-2.7-10.7,46.94,46.94,0,0,0-4.28-5.42l-.26-.22h0l-.21-.22h0a3.41,3.41,0,0,0-.33-.86c-1.12-1.64-2.27-3.27-3.42-4.89a100.06,100.06,0,0,1-8.86-14.52,13.84,13.84,0,0,1-1.28-8.28,99.21,99.21,0,0,1,4.69-17c.89-2.59,1.87-5.14,2.81-7.71.41-1,.83-2,1.25-3l0-.08,0,.09-1.5,2.78A118.64,118.64,0,0,0,109,180.25c-.94,3.53-1.76,7.1-1,10.79-.14-.1-.35-.18-.39-.31-.66-2.08-1.67-4.14-1.82-6.26a36.89,36.89,0,0,1,.67-7.37c.33-2.45.77-4.88,1.16-7.32a16.27,16.27,0,0,1,.53-1.58c1.27-2.74,2.58-5.47,3.86-8.22a118.55,118.55,0,0,0,5.26-13.15c.41-1.27,1-2.49,1.48-3.73.57-1.5,1.15-3,1.73-4.49L122,135.4a7.06,7.06,0,0,1,.18,1.12c0,2.11,0,4.22,0,6.15a1.69,1.69,0,0,0,.14-.36c.66-2.61,1.29-5.22,2-7.82a14.11,14.11,0,0,1,1-2.13c0,.32,0,.64-.06.95-.23,1.58-.49,3.15-.72,4.73q-.78,5.31-1.54,10.63c-1.51.41-.41,1.1-.19,1.7l-.13,2-.07.07-.66.12c-.59.48-1.21.94-1.76,1.47-.1.1,0,.47.09.72a2,2,0,0,0,.6-.29c.37-.36.71-.78,1.06-1.17l1,.18c-.3.48-.49.81-.7,1.12a9.54,9.54,0,0,0-.66,1,1.53,1.53,0,0,0,1.07,2.35C123.18,158,123.76,157.61,124.31,157.42Z"/><path class="cls-29" d="M133.09,93.66l-.47.91-.3.57.18,0,.28,3.62,5.76-4.55.31.17v1l-2.08,2.7a49.51,49.51,0,0,0-8.9,16.76c-.52,1.84-.79,3.76-1.4,5.57-1.21,3.6-2.58,7.14-3.89,10.71,0-.09-.16-.18-.15-.27.1-2.08.24-4.17.31-6.25.05-1.47,0-2.94,0-4.69l-1.66,2c.85-4.13,1.54-8.3,2.6-12.38.87-3.35,2.13-6.62,3.32-9.88a6.14,6.14,0,0,1,2.41-3.18c.27-.18.31-.73.46-1.1a1.8,1.8,0,0,0,1.92-.88C132,94.1,132.65,93.93,133.09,93.66Zm-3,5.12c.74.24,1.56.4,1.85-.52s-.59-.68-1.06-.81c-.11-.18-.21-.51-.32-.51a1.45,1.45,0,0,0-1.06,1.85C129.59,98.88,129.92,98.79,130.12,98.78Zm-3.58,10.27a31,31,0,0,1,5.75-9.58h-2.73A23.81,23.81,0,0,0,126.54,109.05Z"/><path class="cls-29" d="M107.63,169.78c-.39,2.44-.83,4.87-1.16,7.32a36.89,36.89,0,0,0-.67,7.37c.15,2.12,1.16,4.18,1.82,6.26,0,.13.25.21.39.31,1,2.23,1.89,4.53,3.07,6.67,3.22,5.87,7.43,11.06,11.57,16.3l-.11.55c-2.2-1.75-4.4-3.37-6.45-5.17-2.66-2.34-5.28-4.75-7.76-7.28a22.81,22.81,0,0,1-6.11-10.71,16.3,16.3,0,0,1,.61-8.92c1.15-3.62,2.53-7.16,3.84-10.73C106.92,171.07,107.31,170.44,107.63,169.78Z"/><path class="cls-20" d="M122.65,214c-4.14-5.24-8.35-10.43-11.57-16.3-1.18-2.14-2.06-4.44-3.07-6.67-.78-3.69,0-7.26,1-10.79a118.64,118.64,0,0,1,7.41-19.61l.25.22c-.94,2.57-1.92,5.12-2.81,7.71a99.21,99.21,0,0,0-4.69,17,13.84,13.84,0,0,0,1.28,8.28,100.06,100.06,0,0,0,8.86,14.52c1.15,1.62,2.3,3.25,3.42,4.89a3.41,3.41,0,0,1,.33.86Z"/><path class="cls-24" d="M121.09,121.92l1.66-2c0,1.75,0,3.22,0,4.69-.07,2.08-.21,4.17-.31,6.25,0,.09.1.18.15.27s-.12.47-.2.7l-2.22,6.79a5.32,5.32,0,0,0-.51.85c-.38.94-.72,1.9-1.08,2.84-.8-1-.2-2.06-.09-3,.41-3.53,1-7,1.54-10.56C120.36,126.42,120.73,124.17,121.09,121.92Z"/><path class="cls-28" d="M129.45,252a10.13,10.13,0,0,1-6.22,1.25c-1.57-.15-3.2-.34-4.34-1.71-.16-.19-.48-.23-.83-.39l.7-.87c.34.1.68.19,1,.31a10,10,0,0,0,10.1-1.55,9,9,0,0,0,1.15-.13c.71-.16,1,.15,1,.81C129.44,250.33,129.44,250.33,129.45,252Z"/><path class="cls-20" d="M129.87,249a10,10,0,0,1-10.1,1.55c-.33-.12-.67-.21-1-.31l-2.36-1.47a.63.63,0,0,0-.19,0c-.73-.75-1.5-1.47-2.18-2.27a9,9,0,0,1-.83-1.46l.59.17,1.32,1.23,2.36,1.5a10.21,10.21,0,0,0,9.82,1.49l2.59-.86Z"/><path class="cls-28" d="M129.87,249v-.46a8.16,8.16,0,0,1,2.17-.24c.81.11.56.93.62,1.5a3.38,3.38,0,0,0,.17.6l0,.51v0l-.22.29-.4.18c-.28-.3-.53-.78-.85-.83a1.16,1.16,0,0,0-1,.52c-.11.3.22.76.36,1.15l-.68.37-.63-.61c0-1.67,0-1.67,2.53-2.28,0-.66-.25-1-1-.81A9,9,0,0,1,129.87,249Z"/><path class="cls-30" d="M118.57,142.27c.36-.94.7-1.9,1.08-2.84a5.32,5.32,0,0,1,.51-.85l.33,0c-.58,1.5-1.16,3-1.73,4.49Z"/><path class="cls-28" d="M116.21,248.78a.63.63,0,0,1,.19,0l1.11,1.54c-.93.24-1.15-.56-1.59-.93C115.87,249.37,116.11,249,116.21,248.78Z"/><path class="cls-20" d="M123,214.12l.21.22Z"/><path class="cls-20" d="M123.25,214.34l.26.22Z"/><path class="cls-30" d="M233.88,253.75l-1.71.6c-1,1-2.08.43-3.13.19q-5.11-1.15-10.22-2.34c-1-.23-1.94-.55-2.93-.73-2.66-.49-5.39-.73-8-1.46-2.17-.61-4.46-.31-6.52-1.1a6.7,6.7,0,0,0-2.39-.35,8.64,8.64,0,0,1-3.62-4,29.18,29.18,0,0,1-1.27-4.15q-1-4.89-1.73-9.82c-.38-2.55-.62-5.12-.82-7.69-.11-1.34-.41-2.67,1.08-3.75a94.72,94.72,0,0,0,7.91-6.35,68.58,68.58,0,0,0,6.88-7,86.19,86.19,0,0,0,6.39-8.77c1.92-3,3.52-6.17,5.27-9.26.2-.35.41-.69.6-1a10.71,10.71,0,0,0,1.83,1.14,4.28,4.28,0,0,0,4.69-.87c1-1,2-2,3-3.09a2.62,2.62,0,0,1,.34.87c.06,1.78,0,3.57.1,5.36a2.56,2.56,0,0,0,.38.85l-.21,1.69c-.28.26-.65.48-.8.79a5.51,5.51,0,0,0-.36,1.41c-.18,1-.34,2-.51,3h0c-.22.2-.51.36-.64.61a13.06,13.06,0,0,0-.8,1.89,4.59,4.59,0,0,0-.07,1.12,7.59,7.59,0,0,1-.8,1.49c-2,2.39-4.13,4.75-6.21,7.12l-3.7,4.23-.42.65-.1.08h.06s0-.05,0-.08l.44-.63,2.12-1.09.27.28-1.76,1.33a21.41,21.41,0,0,0-8,11.7,10.38,10.38,0,0,0,.85,8.22,49.09,49.09,0,0,0,8,10.33,55.49,55.49,0,0,0,6.11,5.11,13.9,13.9,0,0,0,10.22,3.05Z"/><path class="cls-22" d="M144.65,237.24l.07,1.24a15.91,15.91,0,0,0,3.36-5.88c1-4-.11-7.42-2-10.85a56,56,0,0,0-8-10.53c-2.41-2.59-4.71-5.29-7-8a10.57,10.57,0,0,1-1-1.62l2.34-.27c0-1-.15-1.92-.15-2.89,0-.69-.35-1-.95-1s-1.36-.28-1.61.63c.51.52,1.63-.69,1.72.54l-2.15,1.17c-.1,0-.27-.05-.29-.11a52.58,52.58,0,0,1-1.8-5.4,24.07,24.07,0,0,1-.63-5.35,41.63,41.63,0,0,1,.52-5.33,8.87,8.87,0,0,1,.48-1.57l-.19,1.65a3.66,3.66,0,0,0,.4,1.26,18.92,18.92,0,0,0,2,1.92,5.05,5.05,0,0,0,5.65.71c.52-.28,1-.63,1.61-1,.47,1.07.84,2.13,1.37,3.11,1.23,2.22,2.53,4.4,3.8,6.6a28.63,28.63,0,0,0,1.63,2.79c.86,1.17,1.9,2.21,2.81,3.35s1.77,2.57,2.82,3.7c2,2.19,4.15,4.31,6.3,6.38a47.33,47.33,0,0,0,8,6.63c.27.16.34.66.51,1-1.38-.58-2-.34-2.64,1-.08.18-.26.49-.34.47-1.46-.25-1.66,1.51-2.81,1.75a.72.72,0,0,0-.09.61q1.3,1.68,2.71,3.29c.11.13.48,0,.74,0,0-.22.07-.49,0-.64a14.59,14.59,0,0,0-1.23-1.61c-.57-.65-1.18-1.39-.29-2.08s1.33.4,1.86.92l1.84,1.82c-.16,1.76-.3,3.52-.5,5.28-.13,1.22-.3,2.45-.52,3.67-.26,1.49-.67,3-.85,4.47-.09.75-.26,1.21-1,1.27-.08.41-.31.84-.19,1.09.71,1.44-.22,2.6-.82,3.63a9,9,0,0,1-2.85,2.94,31.4,31.4,0,0,1-4.57,2.06c0-.07,0-.19,0-.2-.76-.39-1.57-1.14-2.28-1.06-2,.25-3.91.86-5.87,1.3s-4.07.89-6.1,1.34a3,3,0,0,0-.91.27,2.29,2.29,0,0,1-2.37.07l0-.65.31-.21-.31-.21-.14-.84-.82.33c.11-.3.15-.73.36-.87a37.24,37.24,0,0,0,7.28-7c1.28-1.47,2.76-2.9,2.51-5.15Zm9.3-4.14.62-.23a4.94,4.94,0,0,0-.41-.79c-.4-.54-.84-1.05-1.25-1.59-1.24-1.61-3-1.44-4,.39-.11.23,0,.57,0,.86a3.41,3.41,0,0,0,.75-.33,10,10,0,0,1,1.06-1c.18-.11.56.11.85.18a2.7,2.7,0,0,1-.28.7c-.3.4-.71.71-1,1.12a1.49,1.49,0,0,0,.19,2,1.36,1.36,0,0,0,1.92.21A14.6,14.6,0,0,0,154,233.1Zm3.54-6.82a12.14,12.14,0,0,0-1.23,1.32,1.65,1.65,0,0,0,.13,2.39c.71.61,1.53.48,2.36-.33.41-.4.9-.72,1.29-1.14a.77.77,0,0,0,0-.71c-.54-.74-1.15-1.44-1.73-2.16s-1.11-1.11-1.82-.74a9.2,9.2,0,0,0-2,1.68c-.08.08.1.42.16.64a1.94,1.94,0,0,0,.59-.25c.21-.18.33-.46.53-.65C156.34,225.86,156.87,225.32,157.49,226.28Zm-5.87-.59-.35.07c0,.32-.09.72.07.94,1.23,1.64,2.5,3.27,3.79,4.87.16.2.54.24.83.35,0-.34.09-.77-.08-1-1.22-1.61-2.5-3.18-3.76-4.76A4.56,4.56,0,0,0,151.62,225.69Z"/><path class="cls-27" d="M199,249.68a3.48,3.48,0,0,1,1.08-.2c1.76.26,3.51.58,5.32.89a1.28,1.28,0,0,1-.11.4,56,56,0,0,1-12.81,13.77c-4.83,3.51-10.13,5.65-16.19,5.43a27.12,27.12,0,0,1-13.54-4.46,53,53,0,0,1-15.17-14.84,4.77,4.77,0,0,1-.27-.52c.92-.24,1.76-.51,2.62-.67a1.11,1.11,0,0,1,.81.32,14.72,14.72,0,0,1,1.06,1.17A42.37,42.37,0,0,0,168,263.08a20.71,20.71,0,0,0,13.09,1.18C189.31,262.18,194.56,256.42,199,249.68Z"/><path class="cls-31" d="M199,249.68c-4.45,6.74-9.7,12.5-17.93,14.58A20.71,20.71,0,0,1,168,263.08,42.37,42.37,0,0,1,151.81,251l.76-.9a31.4,31.4,0,0,0,4.57-2.06,9,9,0,0,0,2.85-2.94c.6-1,1.53-2.19.82-3.63-.12-.25.11-.68.19-1.09.76-.06.93-.52,1-1.27.18-1.51.59-3,.85-4.47.22-1.22.39-2.45.52-3.67.2-1.76.34-3.52.5-5.28.05-.38.09-.76.14-1.14l-.12-2.9.21.22.38.42.29.22,0,.85-1,10.16c-.67,3.1-1.28,6.21-2,9.29a9.39,9.39,0,0,1-6.36,7.05c-.92.33-1.84.69-2.8,1a3.16,3.16,0,0,0,.26.43c4.25,4.6,9,8.55,14.83,11,7,2.94,13.84,2.55,20.28-1.73a34.82,34.82,0,0,0,8.26-8c.85-1.12,1.64-2.28,2.53-3.51-2.69-1.22-3.9-3.38-4.68-5.88-.27-.88-.57-1.75-.85-2.63-.23-1.14-.53-2.28-.67-3.43-.61-5.07-1.16-10.15-1.76-15.22,0-.39.3-1.06-.54-1.11l-.05-.64a.14.14,0,0,1,.13-.08l.28-.19c.11-.09.2-.2.32-.28a80.43,80.43,0,0,0,22.27-22.9,83.91,83.91,0,0,0,10.87-24.94c1.06.17.47.78.35,1.26l-1.27,4.29.21.64c-1.4,1.44-1.83,4.6-.82,6.15l-1.41-1.23a20.33,20.33,0,0,0-1,2.24,1.42,1.42,0,0,0,.21,1.17,3.47,3.47,0,0,0,4.81.53,38.4,38.4,0,0,0,3.71-3.3l.24.43c-1,1-1.92,2.12-3,3.09a4.28,4.28,0,0,1-4.69.87,10.71,10.71,0,0,1-1.83-1.14c-.19.31-.4.65-.6,1-1.75,3.09-3.35,6.28-5.27,9.26a86.19,86.19,0,0,1-6.39,8.77,68.58,68.58,0,0,1-6.88,7,94.72,94.72,0,0,1-7.91,6.35c-1.49,1.08-1.19,2.41-1.08,3.75.2,2.57.44,5.14.82,7.69q.74,4.94,1.73,9.82a29.18,29.18,0,0,0,1.27,4.15,8.64,8.64,0,0,0,3.62,4C199,248.93,199,249.31,199,249.68Z"/><path class="cls-20" d="M237.51,257.62l-1.93-.66v-.43a16.79,16.79,0,0,1,1.69.44C237.41,257,237.43,257.4,237.51,257.62Z"/><path class="cls-29" d="M133.31,93.44l-.22.23Z"/><path class="cls-29" d="M133.6,93.22l-.3.23Z"/><path class="cls-28" d="M144.23,237.23c.25,2.25-1.23,3.68-2.51,5.15a37.24,37.24,0,0,1-7.28,7c-.21.14-.25.57-.36.87h0l-.52.45-.37.22-.33-.43a3.38,3.38,0,0,1-.17-.6c-.06-.57.19-1.39-.62-1.5a8.16,8.16,0,0,0-2.17.24l-2.59.86a10.21,10.21,0,0,1-9.82-1.49c.83.17,1.66.3,2.48.49,3.73.84,7.27.52,10.21-2.1a13.29,13.29,0,0,0,2.89-3.88,24.22,24.22,0,0,0,2.39-11.11c0-2.83,0-5.66-.26-8.47a45.58,45.58,0,0,0-1.18-5.59,32,32,0,0,1,2,2.66c2.14,3.55,4.27,7.1,6.28,10.71A15.1,15.1,0,0,1,144.23,237.23Z"/><path class="cls-28" d="M130.76,252.24c-.14-.39-.47-.85-.36-1.15a1.16,1.16,0,0,1,1-.52c.32.05.57.53.85.83Z"/><path class="cls-22" d="M133.54,250.65l.52-.45Z"/><path class="cls-20" d="M135,250.72l.31.21-.31.21Z"/><path class="cls-22" d="M132.84,250.44l.33.43-.28.08Z"/><path class="cls-28" d="M132.67,251.22l.22-.29Z"/><path class="cls-24" d="M215.89,214.34l3.7-4.23c2.08-2.37,4.17-4.73,6.21-7.12a7.59,7.59,0,0,0,.8-1.49,5.71,5.71,0,0,0,1.51-3.62h0c.2-.22.51-.41.58-.67.39-1.49.73-3,1.09-4.49L230,191a31.12,31.12,0,0,0-2.7-15.57,19.3,19.3,0,0,1-.69-2,18.94,18.94,0,0,0-1.36-7c-1-2.38-2.14-4.69-3-7.12a68.16,68.16,0,0,1-1.86-7.18c-.71-3.13-1.33-6.27-2-9.42s-1.31-6.36-1.87-9.56c-.7-4-1.33-8.08-2-12.13-.54-3.6-.78-7.27-1.62-10.79a17.48,17.48,0,0,0-3-5.42,12,12,0,0,0-5-3.8,2.41,2.41,0,0,0-.72-.11,20,20,0,0,0-10.87-.67c-.92-1.63.28-2.1,1.41-2.65,1.77-.87,3.52-1.79,5.27-2.7.16-.08.26-.28.38-.42,7.27,0,12.78,3.41,17.29,8.79l-.06.07.12.12v0c.33,1.46.67,2.93,1.07,4.65l-7-4.94c2,6,3.84,11.71,5.72,17.43h0l-1.05.34.1.38,1-.18.38.08c0,.31,0,.62,0,1l-.44.12c-1.1.34-1.54,1-1.19,1.87a1.41,1.41,0,0,0,1.93.79,5.87,5.87,0,0,1,.84-.13h0c.12.58.23,1.16.39,1.73.49,1.8,1,3.58,1.52,5.37a.61.61,0,0,0,.16-.48c-.21-1.4-.41-2.8-.65-4.2s-.57-2.88-.86-4.31l-.25-2.11c-.08-1.09-.16-2.19-.26-3.52l9,12.69.31-.17q-2.91-8.09-5.83-16.16l.56-.42a5.6,5.6,0,0,0,.47,1c1.27,1.58,2.56,3.14,3.85,4.69a2.64,2.64,0,0,0,.57.4c.28.57.54,1.15.83,1.71a171.53,171.53,0,0,1,8.11,19l2,5.94c.53,1.57,1.07,3.14,1.58,4.72.13.4.48,1-.41.91-3.48-5.57-6.92-11.18-10.48-16.71-1.57-2.44-3.39-4.72-5.09-7.08l-1-1.5-.34.26,1.08,1.5c1,1.69,2.06,3.39,3.1,5.07q5,8.11,10,16.23c2,3.21,3.88,6.45,5.84,9.67.72,1.17,1.5,2.31,2.24,3.46h0l.22.5,1.5,3.35c.07,1.05.13,2.1.21,3.15.12,1.52.34,3,.37,4.55.07,2.49,0,5,0,7.48,0,.08-.12.16-.19.24q-1.59-5.24-3.19-10.49l-1-2.89-.35.12c.36,1,.73,2,1.1,3,.3,1.17.65,2.33.88,3.51.82,4.17,1.59,8.35,2.37,12.53-.14.39-.29.77-.43,1.16-.55,1.56-1,3.16-1.65,4.66s-2.06,2.24-3.36,3.14a43.64,43.64,0,0,0-9.53,9,79.5,79.5,0,0,0-5.62,8.09,42.25,42.25,0,0,0-5.22,13.4,18.77,18.77,0,0,0,.45,9.36,16.58,16.58,0,0,0,4.17,7.52,12.55,12.55,0,0,0,4,2.86,10.57,10.57,0,0,0,7,.06,10.87,10.87,0,0,0,4.81-2.75l2.41-.73a7.89,7.89,0,0,1-2.4,3.52,8.32,8.32,0,0,0-.87,1c-.07.1-.15.19-.22.28h0l-.22.22h0l-.65.22h0c-.22.11-.45.21-.66.33a10.46,10.46,0,0,1-8.92,1c-4.54-1.59-8-4.75-10.89-8.34s-5.47-7.42-8.19-11.15l-1.58-2.58-.32.2,1.4,2.4a5.63,5.63,0,0,0,.38,1c1,1.77,2,3.58,3.16,5.3a42.12,42.12,0,0,0,9.66,11c2.9,2.18,6,3.76,9.79,3.71A13.58,13.58,0,0,0,239,250l.48.64c-1.39.74-2.75,1.44-4.07,2.18a3.37,3.37,0,0,0-.73.81l-.33.06c0-.44-.13-.81-.68-.42a13.9,13.9,0,0,1-10.22-3.05,55.49,55.49,0,0,1-6.11-5.11,49.09,49.09,0,0,1-8-10.33,10.38,10.38,0,0,1-.85-8.22,21.41,21.41,0,0,1,8-11.7l1.76-1.33c.76-.37,1.56-.69,2.28-1.13a66.25,66.25,0,0,0,6.64-4.25,68.22,68.22,0,0,0,6.15-5.88,16.64,16.64,0,0,0,4.76-10.69,42.25,42.25,0,0,0-1-12.17,88.78,88.78,0,0,0-7.34-20.52L228,154.72l-.38.18,1.94,4c.07.31.11.63.21.93,1.44,4,3.06,7.88,4.28,11.92,1.86,6.18,3.32,12.46,2.88,19a16.29,16.29,0,0,1-3.16,9.1,43.6,43.6,0,0,1-12.52,11.26c-1.09.65-2.13,1.39-3.19,2.09l-2.12,1.09ZM223,125.75l-.09-.09.08.1.27.34.07-.07Zm1.66,11.82c.64,1.5,1.29,3,1.9,4.51,2.46,6.09,5,12.14,7.33,18.28,1.94,5.18,3.57,10.46,5.34,15.7.29,1,.58,2,.88,3l.29-.07c-.24-1-.48-2-.73-3-1-3.86-1.88-7.79-3.15-11.58-1.8-5.34-3.74-10.65-5.93-15.84-1.63-3.88-3.75-7.55-5.66-11.32l-1.63-3-.35.2Zm-5.75,86.67a12.34,12.34,0,0,0-1.77.46,1.36,1.36,0,0,0-.76,1.69c.13.73.69.84,1.3.8s1.36-.12,1.9-.17a21.24,21.24,0,0,0,0-2.77,2.06,2.06,0,0,0-.75-1.43,1.87,1.87,0,0,0-2.28.61C217.34,223.73,218.61,222.67,218.87,224.24Zm21.57-44.55,0-.08-.05.06a.12.12,0,0,0,0,.08Z"/><path class="cls-28" d="M242.22,244.08a10.87,10.87,0,0,1-4.81,2.75,10.57,10.57,0,0,1-7-.06,12.55,12.55,0,0,1-4-2.86,16.58,16.58,0,0,1-4.17-7.52,18.77,18.77,0,0,1-.45-9.36,42.25,42.25,0,0,1,5.22-13.4,79.5,79.5,0,0,1,5.62-8.09,43.64,43.64,0,0,1,9.53-9c1.3-.9,2.71-1.65,3.36-3.14s1.1-3.1,1.65-4.66c.14-.39.29-.77.43-1.16,0,2,.1,4.09.11,6.14a3.38,3.38,0,0,1-1.3,2.46,13.22,13.22,0,0,0-1.24,1.7h0a4.25,4.25,0,0,0-.85.58c-2,2.34-4.15,4.65-6.11,7.08-2.15,2.67-4.25,5.4-6.22,8.21a53.76,53.76,0,0,0-2.8,5.05h0l-.91,1.51a14.28,14.28,0,0,0-1.17,2.63,32.22,32.22,0,0,0-1,5.73,51.06,51.06,0,0,0,.32,6.41,12.39,12.39,0,0,0,1.36,4.86,7.27,7.27,0,0,0,2.89,2.8c2.55,1.52,5.45,1.28,8.24,1.5a13.41,13.41,0,0,0,2.42-.28A5.36,5.36,0,0,1,242.22,244.08Z"/><path class="cls-28" d="M247.75,181.83c.07-.08.19-.16.19-.24,0-2.5.06-5,0-7.48,0-1.52-.25-3-.37-4.55-.08-1.05-.14-2.1-.21-3.15.85,1.89,1.75,3.76,2.56,5.67,1,2.4,2.07,4.78,2.89,7.25,1,3,2,6.1,1.81,9.38a13.59,13.59,0,0,1-1.54,6.21c-1.16,1.94-2.31,3.88-3.54,5.78a4.94,4.94,0,0,1-1.3,1c-.08-.9-.22-1.81-.22-2.71s-.34-1.4-1.29-1.36a15.15,15.15,0,0,0,2-2.61,6.56,6.56,0,0,0,.3-2.61A40.35,40.35,0,0,0,247.75,181.83Z"/><path class="cls-29" d="M226,100.3c2.28,4.76,4.67,9.48,6.78,14.31,1.2,2.75,1.94,5.71,2.88,8.57.28,1.5.55,3,.83,4.51a2.46,2.46,0,0,1-.47-.56c-1.64-3.77-3.26-7.56-4.89-11.33-.48-1.14-1-2.26-1.49-3.38a.47.47,0,0,0-.12.47c.86,3.44,1.74,6.88,2.56,10.34.07.3-.18.67-.28,1l-.89-1.69c-2.49-4.64-4.79-9.39-7.55-13.86-1.91-3.09-4.47-5.79-6.74-8.66-.19-1.06-.39-2.13-.58-3.2l.13-.1,7.44,10.59.26-.14q-1.08-4.65-2.15-9.31l.22-.17.8.51Z"/><path class="cls-20" d="M216.57,100c2.27,2.87,4.83,5.57,6.74,8.66,2.76,4.47,5.06,9.22,7.55,13.86l.89,1.69c1,2.59,2,5.15,3,7.76s1.77,5.4,2.64,8.1h-.27a171.53,171.53,0,0,0-8.11-19c-.29-.56-.55-1.14-.83-1.71-1.09-2-2.12-4-3.28-6a48.58,48.58,0,0,0-7-9.86v0a1.06,1.06,0,0,0-.06-.19c-4.51-5.38-10-8.82-17.29-8.79A18.58,18.58,0,0,0,192.13,96a5.59,5.59,0,0,1-1,.21c0-.19-.09-.38-.13-.57a12.46,12.46,0,0,1,5.87-1.93c2.34-.23,4.71-.07,7.07-.07.34.07.68.18,1,.23A15,15,0,0,1,211,96C213,97.22,214.73,98.67,216.57,100Z"/><path class="cls-28" d="M247.61,202.11a5.45,5.45,0,0,1-.79,1.45c-1.78,1.71-3.58,3.39-5.45,5-2.81,2.42-5.69,4.76-8.55,7.12-.07.06-.19.06-.4.12.06-.46.1-.86.15-1.26a1.89,1.89,0,0,1,.21-.48q5.26-6.24,10.55-12.48a16.62,16.62,0,0,1,1.42-1.36c.09,1.92.4,2.15,2.3,1.78A1.71,1.71,0,0,1,247.61,202.11Z"/><path class="cls-24" d="M237.35,140.1c-.87-2.7-1.69-5.43-2.64-8.1s-2-5.17-3-7.76c.1-.34.35-.71.28-1-.82-3.46-1.7-6.9-2.56-10.34a.47.47,0,0,1,.12-.47c.5,1.12,1,2.24,1.49,3.38,1.63,3.77,3.25,7.56,4.89,11.33a2.46,2.46,0,0,0,.47.56c.21,1.41.43,2.83.64,4.25.34,2.33.69,4.67,1,7,.13,1,.18,2,.3,3.37Z"/><path class="cls-20" d="M245.63,162.57c-.74-1.15-1.52-2.29-2.24-3.46-2-3.22-3.87-6.46-5.84-9.67q-5-8.13-10-16.23c-1-1.68-2.07-3.38-3.1-5.07l.26-.26c1.7,2.36,3.52,4.64,5.09,7.08,3.56,5.53,7,11.14,10.48,16.71l2.84,5.46c.73,1.41,1.5,2.8,2.22,4.22A6.06,6.06,0,0,1,245.63,162.57Z"/><path class="cls-20" d="M239,250a13.58,13.58,0,0,1-4.87,1.38c-3.78.05-6.89-1.53-9.79-3.71a42.12,42.12,0,0,1-9.66-11c-1.13-1.72-2.13-3.53-3.16-5.3a5.63,5.63,0,0,1-.38-1l.5,0c2.72,3.73,5.27,7.59,8.19,11.15s6.35,6.75,10.89,8.34a10.46,10.46,0,0,0,8.92-1c.21-.12.44-.22.66-.33Z"/><path class="cls-20" d="M244.75,200.21a16.62,16.62,0,0,0-1.42,1.36q-5.29,6.23-10.55,12.48a1.89,1.89,0,0,0-.21.48L231.5,216h0L230,217.81l-.85,1a53.76,53.76,0,0,1,2.8-5.05c2-2.81,4.07-5.54,6.22-8.21,2-2.43,4.06-4.74,6.11-7.08a4.25,4.25,0,0,1,.85-.58c-.21,1,.51.22.74.37l-.24,1.08Z"/><path class="cls-28" d="M244.75,200.21l.89-.85a1.52,1.52,0,0,0,.52,0c.4-.12.79-.3,1.18-.46l-1.25-.64c-.06,0-.14,0-.21,0-.23-.15-.95.67-.74-.37h0l1.58-.25c.95,0,1.29.44,1.29,1.36s.14,1.81.22,2.71l-.62.39a1.71,1.71,0,0,0-.56-.12C245.15,202.36,244.84,202.13,244.75,200.21Zm2.1-.62a10.06,10.06,0,0,0-1.2,1.23c-.05.08.44.68.49.65a4.36,4.36,0,0,0,1.19-.8C247.4,200.61,247.12,200.18,246.85,199.59Z"/><path class="cls-20" d="M228.25,220.34l.91-1.51Z"/><path class="cls-28" d="M231.5,216l.34.27-.07.07-.27-.34Z"/><path class="cls-20" d="M240.28,248.58l.65-.22Z"/><path class="cls-20" d="M245.85,163.06l-.22-.5Z"/><path class="cls-20" d="M240.92,248.36l.22-.22Z"/><path class="cls-20" d="M241.14,248.15c.07-.09.15-.18.22-.28C241.29,248,241.21,248.06,241.14,248.15Z"/><path class="cls-21" d="M233.66,253.28c.55-.39.64,0,.68.42l-.46.05Z"/><path class="cls-24" d="M216.57,100c-1.84-1.36-3.62-2.81-5.54-4a15,15,0,0,0-6.08-2.1c-.35,0-.69-.16-1-.23L206.35,92a4.38,4.38,0,0,0-.92-.45,30.43,30.43,0,0,0-9.94-.53,56.78,56.78,0,0,0-11.61,2.48,3.56,3.56,0,0,1-.8,0,4.37,4.37,0,0,1,0-.81c.58-2.71,2.14-5,3.49-7.31a10.38,10.38,0,0,0,.43-1,25.8,25.8,0,0,1,10.28-3.7c-2.78-.69-5.35.09-7.91.94,0-.11-.09-.26,0-.33.6-.8,1.21-1.59,1.82-2.39l-.17-.21-9.29,2c.06-.78.11-1.32.15-1.87a43.68,43.68,0,0,1,4.26-1.21,25.57,25.57,0,0,1,11.08.21c2,.52,4,1.34,5.93,2,.4.14.81.22,1.22.32h0l.22.27c2.25,1.4,4.55,2.73,6.75,4.21,2.5,1.68,4.93,3.46,7.34,5.25,1.2.9,2.3,1.93,3.44,2.9l.23.22h0l1,1.74q1,2,2,4.09c.23.47.41,1,.62,1.45l-3.26-2.09-.8-.51-.22.17q1.07,4.66,2.15,9.31l-.26.14-7.44-10.59-.13.1C216.18,97.9,216.38,99,216.57,100Z"/><path class="cls-29" d="M233.66,113.57c-1.32-2.94-2.62-5.9-4-8.82-.52-1.13-1.17-2.2-1.73-3.31a7.86,7.86,0,0,1-.36-1.1l.93-2.6c2.15,3.58,3.24,7.56,4.27,11.56C233.15,110.7,233.37,112.14,233.66,113.57Z"/><path class="cls-24" d="M228.52,97.74l-.93,2.6-2.16-3-1.82-2.58c-.16-.44-.31-.88-.47-1.31Z"/><path class="cls-22" d="M223.14,93.42c.16.43.31.87.47,1.31l-.31,0-1-1.74h.43l.25.23Z"/><path class="cls-24" d="M223,93.25l-.25-.23Z"/><path class="cls-24" d="M222.74,93h0Z"/><path class="cls-22" d="M222.32,93l-.23-.22Z"/><path class="cls-20" d="M204.56,80.45l-.22-.27Z"/><path class="cls-21" d="M188.27,76.28l.67-.17Z"/><path class="cls-21" d="M192.37,75.92h0Z"/><path class="cls-26" d="M122.61,311.7a70.65,70.65,0,0,0,5.74,14.85,18,18,0,0,1,.71,1.76l-1.74.12h-1.93l-7.51-.1a56.11,56.11,0,0,1-2-12.16,73.75,73.75,0,0,1,.91-15.92c.4-2.37,1-4.73,1.54-7.06.16-.59.76-1.07,1.15-1.6a7.34,7.34,0,0,1,.7,1.91c.16,1.66.12,3.34.25,5,.18,2.26.45,4.52.67,6.78.06.21.12.43.19.64l0,.38a1.51,1.51,0,0,0-1,1.61l1-1.07.43,1.44,0,.42a1.19,1.19,0,0,0,.41,1.76l.21.39Z"/><path class="cls-20" d="M117,328.42h.43l-.21.31Z"/><path class="cls-25" d="M121.32,305.92c-.07-.21-.13-.43-.19-.64l2.18-.34c-.22-.41-.38-.77-.59-1.09s-.6-.58-.68-.92a1.34,1.34,0,0,1,.24-1.13,1.18,1.18,0,0,1,1.12.15,19.72,19.72,0,0,1,1.64,1.8,9.44,9.44,0,0,1,1.46-2.28,8.94,8.94,0,0,1,2.58-1.11,4.79,4.79,0,0,1,2.52-2.79c.2-.06.56-.12.58-.22.26-1.7,2.26-1.49,3-2.7.15-.25.9-.17,1.37-.16a7.13,7.13,0,0,1,1.2.19c0-.36.05-.71.06-1.07a2.28,2.28,0,0,1,0-.74c.13-.3.36-.71.61-.76a1,1,0,0,1,.79.49c.5,1.29,1,2.59,1.34,3.92a14.56,14.56,0,0,1,.42,2.8,1.47,1.47,0,0,1-.49,1.1,1.22,1.22,0,0,1-1.09,0c-.18-.09-.25-.61-.2-.91a2.09,2.09,0,0,0-1.6-2.53c-.24,0-.52.13-1,.24.47.61.83,1.1,1.21,1.57a.81.81,0,0,1-.16,1.35c-.59.42-1,.14-1.34-.35a17.06,17.06,0,0,0-1.48-1.8c-.21-.22-.64-.21-1-.31l-.15.31c.57.85,1.08,1.74,1.72,2.53a1,1,0,0,1-.18,1.54c-.51.43-.78,0-1.18-.39-.78-.69-.95-2.11-2.41-2.07-.29,1.22.8,1.78,1.25,2.64.21.39.56,1,.41,1.24s-.81.41-1.36.64c-.09,1.28-1.39,2.08-2.44,2.38a3.38,3.38,0,0,0-2.35,2.34c-.6-.38-.82-.37-1.26.39-.54.93-1.72,1.5-2.64,2.19a2.61,2.61,0,0,1-.69.27l-.24-.85c1.76.49,2-1.51,3.22-2a12.9,12.9,0,0,1-1.37-1.74C123.55,305.91,122.67,305.4,121.32,305.92Zm11.23-2.51.34-.28c-.63-.87-1.25-1.75-1.89-2.62a1.08,1.08,0,0,1,.3-1.58.86.86,0,0,1,1.43.22c.62.88,1.38,1.66,2.08,2.49l.29-.13c0-.21,0-.48-.13-.64-.5-.69-1-1.37-1.56-2s-.27-1.22.22-1.67,1.1-.31,1.54.27.89,1.19,1.39,1.74a5.71,5.71,0,0,0,1,.64c-.07-.43,0-.6-.11-.69-.71-.88-1.4-1.79-2.18-2.61a1.26,1.26,0,0,0-1.11-.32c-1.22.76-2.14,1.9-3.42,2.61-.39.22-.62.7-1.05,1.22C130.58,301.06,131.57,302.23,132.55,303.41Zm-6.86-.43.39.38a12.1,12.1,0,0,1,1-1c.47-.39,1.08-.84,1.57-.22s-.08,1-.59,1.31l-.09.06a1.73,1.73,0,0,0-.32,2.44c.62.68,1.35.6,2.18-.25.45-.47.91-.92,1.42-1.43-.46-.6-1-1.31-1.56-2.06s-1.22-1.29-2-.9A9.41,9.41,0,0,0,125.69,303Zm14.16-2.71c1.1-1.27-.07-6.53-1.7-7.66l1.11,3.64c-1.4,0-2.18-1.52-3.58-1.18a6.35,6.35,0,0,0,1.42,1.08C138.63,297,140.53,297.64,139.85,300.27Zm-16.87,2-.41.26c.34.51.68,1,1.05,1.53.88,1.19,1.77,2.38,2.69,3.54.16.2.52.25.78.36-.06-.26,0-.58-.18-.78-.57-.77-1.19-1.49-1.79-2.24Z"/><path class="cls-25" d="M243.07,301.65c0-.81,0-1.63,0-2.45s.34-1,1-1c1.48,0,2.95,0,4.43,0,.87,0,1.3.26,1.26,1.23-.06,1.49-.05,3,0,4.48,0,.77-.27,1.13-1,1.13-1.6,0-3.2,0-4.8,0a1.18,1.18,0,0,1-.78-.81A19.83,19.83,0,0,1,243.07,301.65Zm4.49,2a21.31,21.31,0,0,0,0-2.89,1.44,1.44,0,0,0-.87-.95c-.88-.25-1.29,0-1.58.71a4.81,4.81,0,0,1,1-.1,2.84,2.84,0,0,1,.78.35,6.21,6.21,0,0,1-.63.52,2,2,0,0,1-.6.2c-.86.21-1,.83-.86,1.57s.79.82,1.42.76C246.7,303.73,247.17,303.65,247.56,303.6Z"/><path class="cls-22" d="M113.41,289.79a20.81,20.81,0,0,1-.84-9.72Z"/><path class="cls-20" d="M120.49,138.61l-.33,0,2.22-6.79c.08-.23.13-.47.2-.7,1.31-3.57,2.68-7.11,3.89-10.71.61-1.81.88-3.73,1.4-5.57a49.51,49.51,0,0,1,8.9-16.76l2.08-2.7c1.11-1.19,2.18-2.41,3.33-3.56a102.17,102.17,0,0,1,18.84-15,.43.43,0,0,1,.49,0c-.6.47-1.18,1-1.81,1.41a99.47,99.47,0,0,0-16.57,14.35c-2.66,2.88-5,6.08-7.47,9.13a4.1,4.1,0,0,0-.34.41c-4.35,6.61-7.48,13.65-7.74,21.71-.64,8.29-2,16.47-3.44,24.64-.08.46-.15.91-.23,1.37l-.9-1.14q.76-5.31,1.54-10.63c.23-1.58.49-3.15.72-4.73,0-.31,0-.63.06-.95l0-.4.16-.46,1.46-8.67a19.49,19.49,0,0,0-1.64,3.5q-1.68,4.53-3.34,9.07Z"/><path class="cls-29" d="M127.58,123.8c.26-8.06,3.39-15.1,7.74-21.71a4.1,4.1,0,0,1,.34-.41c-.28.84-.48,1.71-.83,2.51-1.46,3.31-3,6.6-4.45,9.91a3.48,3.48,0,0,0-.06.63l4-6c-2,7.77-4.42,15.43-4.5,23.55l-.36.05a39,39,0,0,1-1-4.5,47.5,47.5,0,0,1,0-4.94Zm1-1.74h-.08v.34h.08Z"/><path class="cls-28" d="M128.4,147.92c1.66.62,2,2.38,3.19,3.27a18.7,18.7,0,0,0-1.4,1.36,1.74,1.74,0,0,1-2,.77c-.46-.18-.74-.81-1.1-1.23.37-.69.76-1.38,1.12-2.08a6.86,6.86,0,0,0,.32-.9c-.35,0-.77-.11-1,0s-.55.63-.88.9c-.17.15-.47.15-.71.22,0-.25-.16-.56,0-.73A2.89,2.89,0,0,1,128.4,147.92Zm1.26,2.25-.51-.13a17.33,17.33,0,0,0-1.09,1.78c0,.09.55.67.66.62a2.05,2.05,0,0,0,1-.88C129.91,151.17,129.71,150.64,129.66,150.17Z"/><path class="cls-24" d="M126.4,153a6.68,6.68,0,0,1,.55.87,8.81,8.81,0,0,1,.27,1l-1-.49-2.46-2.79-.28-.85.62-.44Z"/><path class="cls-24" d="M124.12,150.35l-.62.44-.68-.42c-.22-.6-1.32-1.29.19-1.7l.9,1.14Z"/><path class="cls-32" d="M226.6,173.48a19.3,19.3,0,0,0,.69,2A31.12,31.12,0,0,1,230,191a2.56,2.56,0,0,1-.38-.85c-.06-1.79,0-3.58-.1-5.36a2.62,2.62,0,0,0-.34-.87l-.24-.43c-.61-2.3-1.23-4.6-1.84-6.91l-.53-.38c.22-1.68-1.15-2.3-2.11-3.2.12-.48.71-1.09-.35-1.26a3.07,3.07,0,0,0-.29-.87,87.59,87.59,0,0,1-7.32-13.37c-.16-.35-.4-.65-.59-1-.22-.49-.43-1-.64-1.47q-1.47-3.57-2.93-7.12l-.51-1.4-.82-1.9a9.21,9.21,0,0,0-.2-.91c-2-5.62-4-11.25-5.93-16.88-.83-2.37-1.61-4.77-2.4-7.15-.37-1.3-.77-2.59-1.08-3.91a1.5,1.5,0,0,0-1.28-1.2c-5.24-1.34-10.57-1.39-15.92-1.18-2.67.11-5.33.29-8,.27-3.7,0-7.41-.39-11.1-.27a70.44,70.44,0,0,0-8.76,1.13,1.79,1.79,0,0,0-1.12,1q-4.68,13.74-9.26,27.52c-.2.6-.34,1.23-.51,1.84-.61.39-.78.83-.15,1.35-.29.32-.7.58-.87,1-1.1,2.54-2.14,5.1-3.23,7.64-.95,2.21-2,4.4-2.94,6.6-.1.13-.23.26-.32.4q-2.3,4-4.57,8c-.35.61-.68,1.23-1,1.84l-.74-.21c.56-.89,1.14-1.76,1.68-2.65,1.18-2,2.39-3.9,3.48-5.91.61-1.13,1-2.4,1.51-3.57.75-1.64,1.6-3.22,2.34-4.86s1.4-3.39,2.11-5.08c.59-1.4,1.23-2.79,1.79-4.2s1.09-2.88,1.62-4.32,1-2.83,1.55-4.25c.2-.57.37-1.14.56-1.71,1.11-3.21,2.26-6.4,3.31-9.62s1.95-6.42,2.94-9.63a15,15,0,0,1,.64-1.56c.74-.11,1.5-.2,2.24-.36a26.2,26.2,0,0,1,2.85-.68c1.82-.16,3.65-.24,5.48-.23,3.43,0,6.87.14,10.31.2.44,0,1,.14.94-.63l2.14.42a2.8,2.8,0,0,0,.78.2c1.93-.05,3.85-.2,5.78-.19,3.66,0,7.32.13,11,.21a1.41,1.41,0,0,1,.72.12,6.33,6.33,0,0,0,4,.73,20.65,20.65,0,0,1,.84,1.94c.4,1.28.68,2.6,1.08,3.89q1.13,3.63,2.33,7.23c.65,1.93,1.37,3.84,2,5.78s1.2,3.89,1.88,5.81c.56,1.58,1.28,3.11,1.89,4.67s1.1,2.95,1.67,4.41c.67,1.7,1.31,3.41,2.05,5.08q2.17,4.88,4.45,9.68c.66,1.4,1.46,2.73,2.22,4.07.09.15.35.2.53.29l.5.21c.65,1.27,1.25,2.57,2,3.8C225.31,171.77,226,172.6,226.6,173.48Z"/><path class="cls-22" d="M177,112.5c.05.77-.5.64-.94.63-3.44-.06-6.88-.17-10.31-.2-1.83,0-3.66.07-5.48.23a26.2,26.2,0,0,0-2.85.68c-.74.16-1.5.25-2.24.36.49-1.86,1-3.73,1.53-5.58.06-.21.62-.41.93-.38,2.92.26,5.87.41,8.74.94a36.2,36.2,0,0,1,9.79,3.18A2.78,2.78,0,0,0,177,112.5Z"/><path class="cls-22" d="M201.35,114a6.33,6.33,0,0,1-4-.73,1.41,1.41,0,0,0-.72-.12c-3.66-.08-7.32-.18-11-.21-1.93,0-3.85.14-5.78.19a2.8,2.8,0,0,1-.78-.2c2.11-.79,4.24-1.52,6.32-2.39,3.27-1.37,6.78-1.65,10.21-2.25a18.21,18.21,0,0,1,3.62,0,.79.79,0,0,1,.61.42c.45,1.41.85,2.84,1.27,4.26l.23.86Z"/><path class="cls-20" d="M144.23,237.23a15.1,15.1,0,0,0-1.94-6.57c-2-3.61-4.14-7.16-6.28-10.71a32,32,0,0,0-2-2.66c-1-1.52-1.87-3.08-2.9-4.55-2-2.83-4.07-5.61-6.12-8.42-.57-.8-1.15-1.59-1.73-2.39-.89-1.48-1.77-3-2.68-4.45a19.61,19.61,0,0,1-2.44-7.43,27.15,27.15,0,0,1,.66-9.5c0-.11.15-.21.33-.47-.13,1.69-.28,3.19-.36,4.69a22,22,0,0,0,1.14,8.71,30.64,30.64,0,0,0,4.65,8c1.5,2,2.92,4,4.34,6.05,3,4.29,6,8.54,8.84,12.9a50.08,50.08,0,0,1,6.08,12,35.91,35.91,0,0,1,.84,4.8Z"/><path class="cls-20" d="M222.81,167.05l-.5-.21c-1-2.36-2-4.69-2.89-7.1-1.52-4.36-3-8.73-4.34-13.16s-2.52-9-3.58-13.47-1.94-9.29-2.88-13.94c-.49-2.43-.92-4.88-1.38-7.31a2,2,0,0,1,.06-1.09c.44,1.64.9,3.28,1.3,4.92.66,2.73,1.28,5.46,1.93,8.18.79,3.31,1.57,6.63,2.41,9.93.73,2.92,1.5,5.84,2.32,8.74,1.32,4.72,2.64,9.44,4.07,14.12.88,2.92,2,5.77,3,8.66C222.49,165.89,222.64,166.48,222.81,167.05Z"/><path class="cls-20" d="M142.48,129.81c.65-3.08,1.17-6.2,2-9.24a61.13,61.13,0,0,1,2.83-8.48c2.55-5.85,5.65-11.38,10.43-15.79,3.68-3.39,7.74-3.44,12.07-1.61.68.28,1.35.6,2,.9l0,.28c-.89-.22-1.78-.49-2.68-.64a29.72,29.72,0,0,0-5.42-.76c-2,0-3.62,1.33-5.07,2.65-4,3.63-6.65,8.16-9,13a93.35,93.35,0,0,0-5.43,14.31c-.56,1.86-1,3.75-1.51,5.63Z"/><path class="cls-31" d="M131.6,171.56l.74.21a85.77,85.77,0,0,0,14.41,29.93,79.23,79.23,0,0,0,17.47,17l.76.82v.84h-.64l-.16-.21c-.17-.34-.24-.84-.51-1a47.33,47.33,0,0,1-8-6.63c-2.15-2.07-4.26-4.19-6.3-6.38-1.05-1.13-1.86-2.48-2.82-3.7s-2-2.18-2.81-3.35a28.63,28.63,0,0,1-1.63-2.79c-1.27-2.2-2.57-4.38-3.8-6.6-.53-1-.9-2-1.37-3.11-.61.39-1.09.74-1.61,1a5.05,5.05,0,0,1-5.65-.71,18.92,18.92,0,0,1-2-1.92,3.66,3.66,0,0,1-.4-1.26c.27.22.53.44.81.65a29.48,29.48,0,0,0,3.79,2.84,3.31,3.31,0,0,0,4.25-1.17,1,1,0,0,0,.17-.83c-.36-1-.79-1.88-1.16-2.71l-1,1.3c.61-2-.15-3.78-.88-5.57,0-.21,0-.43,0-.65-.42-1.39-.83-2.78-1.27-4.16,0-.15-.29-.25-.44-.37l-.23-.18,0-.21c.07-.29.14-.58.2-.87A1.27,1.27,0,0,0,131.6,171.56Z"/><path class="cls-33" d="M134.17,183.77l1-1.3c.37.83.8,1.75,1.16,2.71a1,1,0,0,1-.17.83,3.31,3.31,0,0,1-4.25,1.17,29.48,29.48,0,0,1-3.79-2.84c-.28-.21-.54-.43-.81-.65l.19-1.65.21-.65a.44.44,0,0,0,0-.2.19.19,0,0,0,0-.18c.15-.44.26-.9.44-1.33.41-.94.84-1.86,1.27-2.79,1,1.49,1.91,3.12,3.63,4a3.6,3.6,0,0,1-.39,1c-.86,1.09-2,1-3.25.8l-.08-.05.09,0a5,5,0,0,0,4.49,1.4l.23-.32Z"/><path class="cls-20" d="M177.79,109.26a10.23,10.23,0,0,1-.17-1.34c-.09-5.06-.17-10.11-.21-15.17a1.67,1.67,0,0,0-1-1.65,67.29,67.29,0,0,0-13.61-6,3.52,3.52,0,0,1-.4-.19c1.43-.47,3.5-.05,8,1.73a20.21,20.21,0,0,1,7,4.82c.23-3.55.44-6.76.65-10l.34,0A170.87,170.87,0,0,1,177.79,109.26Z"/><path class="cls-20" d="M129.67,174.55c.09-1,.12-2.05.28-3.06.74-4.54,1.55-9.06,2.28-13.6.4-2.51.69-5,1-7.56l0-.18.46-2.48,1,1c-.23,1.79-.38,3.59-.7,5.37q-1.29,7.16-2.72,14.28c-.35,1.73-.87,3.43-1.31,5.14Z"/><path class="cls-20" d="M193.43,100.3a20,20,0,0,1,10.87.67c-.2.1-.42.3-.6.27-6.25-1.07-12.06.29-17.6,3.14-1.8.93-3.57,1.9-5.5,2.74.33-.33.63-.7,1-1A29.4,29.4,0,0,1,193.43,100.3Z"/><path class="cls-28" d="M134.79,148.7l-1-1c-.32-.46-.66-.92-1-1.39s-.88-.76-1.4-.24a1,1,0,0,0,0,1.6c.7.8,1.31,1.67,2,2.51l0,.18c-.59.33-1,.21-1.39-.39-.64-.93-1.42-1.76-2.13-2.64-.34-.41-.55-.77.19-1,.26-.09.44-.41.67-.61s.57-.68.93-.81a2.25,2.25,0,0,0,1.53-1.25c.18-.4,1-.51,1.53-.74l1.06.33c.62.9,1.26,1.78,1.83,2.7.14.23.06.6.09.9a2.46,2.46,0,0,1-.89-.3,14.67,14.67,0,0,1-1.19-1.3c-.24-.62-.53-1.18-1.36-1.07-1,.45-1.08.75-.38,1.53l1.25,1.75C135.26,147.89,136.05,148.47,134.79,148.7Z"/><path class="cls-20" d="M189.38,81.7c2.56-.85,5.13-1.63,7.91-.94A25.8,25.8,0,0,0,187,84.46L181.15,88A20.6,20.6,0,0,1,189.38,81.7Z"/><path class="cls-20" d="M134.72,149c-.35-.11-.82-.2-1.18-.31.29-2.38,1.58-10.58,1.93-13,.46-3.17,1-6.33,1.7-9.48-.09,1.67-.13,3.34-.27,5-.24,2.68-.54,5.35-.82,8-.07.7-.13,1.41-.2,2.11-.54.36-.47.78-.13,1.23C135.72,142.8,134.75,148.78,134.72,149Z"/><path class="cls-28" d="M135.75,142.6c-.34-.45-.41-.87.13-1.23l3.05,1.69c.21-1.31-1.35-2.42-.51-3.71l.42-.08c.44,1.36.95,2.71,1.3,4.09a13.24,13.24,0,0,1,.41,3.13c0,.72-.46,1.11-1.18.51.67-1.91.65-2-1.09-3.07C137.46,143.43,136.59,143,135.75,142.6Z"/><path class="cls-24" d="M124.31,157.42c-.55.19-1.13.59-1.64.52a1.53,1.53,0,0,1-1.07-2.35,9.54,9.54,0,0,1,.66-1c.21-.31.4-.64.7-1.12l-1-.18c0-.24,0-.49,0-.73l.66-.12,2.26,2,.67.61c.19.56.59,1.12-.46,1.33C124.78,156.48,124.57,157.07,124.31,157.42Zm-.64-2.73c-.72.32-1.4.71-1.4,1.63,0,.21.45.63.6.59a2,2,0,0,0,1.1-.64A1,1,0,0,0,123.67,154.69Z"/><path class="cls-22" d="M129.24,199.8l2.15-1.17c-.09-1.23-1.21,0-1.72-.54.25-.91,1-.62,1.61-.63s.95.32.95,1c0,1,.1,1.94.15,2.89l-2.34.27C129.78,201,129.51,200.41,129.24,199.8Zm2.71.29c-.5-.27-.77-.52-.89-.46a5.17,5.17,0,0,0-.95.68c.21.19.46.57.61.53A5.64,5.64,0,0,0,132,200.09Z"/><path class="cls-30" d="M188.21,97.93c-1.68,1.17-3.36,2.33-5,3.52-.61.44-1.16,1-1.73,1.43l-.27-.29a25.86,25.86,0,0,1,2-1.94c1.54-1.24,3.16-2.38,4.72-3.59a3.8,3.8,0,0,0,.62-.8,5,5,0,0,1,1.13-.19c.26,0,.5.23.75.36a5.93,5.93,0,0,1-.56.46C189.29,97.25,188.75,97.58,188.21,97.93Z"/><path class="cls-28" d="M188.21,97.93c.54-.35,1.08-.68,1.62-1a5.93,5.93,0,0,0,.56-.46c-.25-.13-.49-.35-.75-.36a5,5,0,0,0-1.13.19c0-1,.75-.88,1.35-.88a5.54,5.54,0,0,1,1.12.27c0,.19.09.38.13.57v3C188.43,99.61,188.4,99.59,188.21,97.93Zm2.15-.39c-.66,0-1.22.07-1.31.8,0,.12.44.44.67.43C190.5,98.74,190.44,98.19,190.36,97.54Z"/><path class="cls-24" d="M125.55,155.09l-.67-.61-2.26-2,.07-.07c.85.42.63-.65,1.09-.78l2.46,2.79Z"/><path class="cls-20" d="M134.13,144.13c.83-.11,1.12.45,1.36,1.07-.17.74-.33,1.47-.49,2.21-.41-.59-.83-1.17-1.25-1.75C133.88,145.15,134,144.64,134.13,144.13Z"/><path class="cls-22" d="M129.46,176.89c-.43.93-.86,1.85-1.27,2.79-.18.43-.29.89-.44,1.33a6.92,6.92,0,0,1,.77-3.76,6,6,0,0,0,.31-1.21h.63Z"/><path class="cls-30" d="M129.47,176h-.64l.4-.65c.07-.21.15-.42.23-.64l.21-.2.39-1.06,1.31-.45,0,0Z"/><path class="cls-30" d="M171.8,95.87l0-.28,3.81,1.81-.24.47Z"/><path class="cls-22" d="M142.48,129.81l.23.22c-.29,1.44-.57,2.87-.86,4.31l-.4-.09Z"/><path class="cls-32" d="M131.59,171.76c-.06.29-.13.58-.2.87C131.27,172.29,130.88,171.9,131.59,171.76Z"/><path class="cls-32" d="M201.35,113.78l-.23-.86Z"/><path class="cls-22" d="M129.46,174.75c-.08.22-.16.43-.23.64C129.3,175.18,129.38,175,129.46,174.75Z"/><path class="cls-30" d="M131.37,172.84l.23.18-.19,0,0,0Z"/><path class="cls-22" d="M127.72,181.19a.44.44,0,0,1,0,.2,1.09,1.09,0,0,1-.08-.15Z"/><path class="cls-29" d="M125.36,132l0,.4a14.11,14.11,0,0,0-1,2.13c-.72,2.6-1.35,5.21-2,7.82a1.69,1.69,0,0,1-.14.36c0-1.93,0-4,0-6.15a7.06,7.06,0,0,0-.18-1.12q1.66-4.53,3.34-9.07a19.49,19.49,0,0,1,1.64-3.5q-.74,4.33-1.46,8.67Z"/><path class="cls-24" d="M122,152.61c0,.24,0,.49,0,.73-.35.39-.69.81-1.06,1.17a2,2,0,0,1-.6.29c0-.25-.19-.62-.09-.72C120.75,153.55,121.37,153.09,122,152.61Z"/><path class="cls-20" d="M123.78,151.64c-.46.13-.24,1.2-1.09.78,0-.68.09-1.37.13-2l.68.42C123.59,151.08,123.69,151.36,123.78,151.64Z"/><path class="cls-32" d="M116.65,160.86l-.25-.22,1.5-2.78h0Z"/><path class="cls-21" d="M115.11,246.45l-1.32-1.23C114.87,244.93,114.82,245.88,115.11,246.45Z"/><path class="cls-32" d="M117.9,157.86l0-.09,0,.08Z"/><path class="cls-24" d="M126.54,109.05a23.81,23.81,0,0,1,3-9.58h2.73A31,31,0,0,0,126.54,109.05Z"/><path class="cls-24" d="M130.91,97.45c.47.13,1.37-.13,1.06.81s-1.11.76-1.85.52C130.39,98.34,130.65,97.89,130.91,97.45Z"/><path class="cls-29" d="M130.91,97.45c-.26.44-.52.89-.79,1.33-.2,0-.53.1-.59,0a1.45,1.45,0,0,1,1.06-1.85C130.7,96.94,130.8,97.27,130.91,97.45Z"/><path class="cls-20" d="M229.83,158.9a88.78,88.78,0,0,1,7.34,20.52,42.25,42.25,0,0,1,1,12.17,16.64,16.64,0,0,1-4.76,10.69,68.22,68.22,0,0,1-6.15,5.88,66.25,66.25,0,0,1-6.64,4.25c-.72.44-1.52.76-2.28,1.13l-.27-.28c1.06-.7,2.1-1.44,3.19-2.09a43.6,43.6,0,0,0,12.52-11.26,16.29,16.29,0,0,0,3.16-9.1c.44-6.57-1-12.85-2.88-19-1.22-4-2.84-7.95-4.28-11.92-.1-.3-.14-.62-.21-.93Z"/><path class="cls-32" d="M229.78,192.72c-.36,1.5-.7,3-1.09,4.49-.07.26-.38.45-.58.67.17-1,.33-2,.51-3a5.51,5.51,0,0,1,.36-1.41C229.13,193.2,229.5,193,229.78,192.72Z"/><path class="cls-32" d="M228.11,197.88a5.71,5.71,0,0,1-1.51,3.62,4.59,4.59,0,0,1,.07-1.12,13.06,13.06,0,0,1,.8-1.89C227.6,198.24,227.89,198.08,228.11,197.88Z"/><path class="cls-24" d="M215.91,214.35l-.44.63h0l.42-.65Z"/><path class="cls-24" d="M215.47,215s0,.06,0,.08h-.06l.1-.08Z"/><path class="cls-22" d="M164.18,220.12l.16.21.45.66.24.41-.24,1.08-.29-.22-.38-.42-.21-.22c-.18-.72-.61-1.12-1.29-.67s-.9.92-.31,1.59l1.72,2c-.05.38-.09.76-.14,1.14l-1.84-1.82c-.53-.52-.85-1.72-1.86-.92s-.28,1.43.29,2.08a14.59,14.59,0,0,1,1.23,1.61c.11.15,0,.42,0,.64-.26,0-.63.09-.74,0q-1.41-1.61-2.71-3.29a.72.72,0,0,1,.09-.61c1.15-.24,1.35-2,2.81-1.75.08,0,.26-.29.34-.47C162.17,219.78,162.8,219.54,164.18,220.12Z"/><path class="cls-22" d="M154,233.1a14.6,14.6,0,0,1-1.49,1.48,1.36,1.36,0,0,1-1.92-.21,1.49,1.49,0,0,1-.19-2c.26-.41.67-.72,1-1.12a2.7,2.7,0,0,0,.28-.7c-.29-.07-.67-.29-.85-.18a10,10,0,0,0-1.06,1,3.41,3.41,0,0,1-.75.33c0-.29-.11-.63,0-.86.93-1.83,2.73-2,4-.39.41.54.85,1,1.25,1.59a4.94,4.94,0,0,1,.41.79Zm-1.58-1.78a11.57,11.57,0,0,0-1.22,1.71c-.07.14.37.74.61.76.8.09,1.11-.56,1.19-1.21C153,232.28,152.67,231.94,152.37,231.32Z"/><path class="cls-22" d="M157.49,226.28c-.62-1-1.15-.42-1.65.05-.2.19-.32.47-.53.65a1.94,1.94,0,0,1-.59.25c-.06-.22-.24-.56-.16-.64a9.2,9.2,0,0,1,2-1.68c.71-.37,1.35.13,1.82.74s1.19,1.42,1.73,2.16a.77.77,0,0,1,0,.71c-.39.42-.88.74-1.29,1.14-.83.81-1.65.94-2.36.33a1.65,1.65,0,0,1-.13-2.39A12.14,12.14,0,0,1,157.49,226.28Zm1.57,1.66a7.34,7.34,0,0,0-1.05-.72,6.78,6.78,0,0,0-1.13,1.43c0,.07.64.69.69.65A18.34,18.34,0,0,0,159.06,227.94Z"/><path class="cls-22" d="M151.62,225.69a4.56,4.56,0,0,1,.5.48c1.26,1.58,2.54,3.15,3.76,4.76.17.22.06.65.08,1-.29-.11-.67-.15-.83-.35-1.29-1.6-2.56-3.23-3.79-4.87-.16-.22-.05-.62-.07-.94Z"/><path class="cls-33" d="M202.47,119.72c.79,2.38,1.57,4.78,2.4,7.15,2,5.63,3.95,11.26,5.93,16.88a9.21,9.21,0,0,1,.2.91c-1.63-.16-3.25-.39-4.88-.47A30.32,30.32,0,0,0,195,145.91a3.62,3.62,0,0,0-2.86,1.29h0l-2.35.45v.88l-.19.38c-.06,0-.14-.07-.16-.13-.37-.83-1-.67-1.6-.37-.26.14-.56.76-.45,1,.35.66,1,.52,1.57.26.06,0,.1-.09.15-.14l.64.19c.25.52.49,1.11,1.09.28l.27,0,0,.42c-.64.79-1.36,1.53-1.91,2.37-.79,1.22-1.46,2.52-2.18,3.79l-.69,2.12A45.91,45.91,0,0,0,184,170l.3.06,2.31-10.29c1-1.24,2-2.55,3.17-3.7a8.65,8.65,0,0,1,3.94-2.49c-.94,1.45-2.22,2.5-2.39,4.34.54-.28.9-.5,1.29-.67.7-.3,1.41-.58,2.12-.87l-2.2,2.4c-.38.53-.8,1.05-1.14,1.61-.11.18,0,.48,0,.72-.09,1.88,1,3.18,2.21,4.38.9.92,1.95,1.69,2.94,2.52l1,.34,0,0,2.56.88.86.16.22,0c1.35.06,2.7.2,4.05.16a9.44,9.44,0,0,0,8.8-6.9l1.92-6.11c.19.33.43.63.59,1a87.59,87.59,0,0,0,7.32,13.37,3.07,3.07,0,0,1,.29.87,83.91,83.91,0,0,1-10.87,24.94A80.43,80.43,0,0,1,191,219.61c-.12.08-.21.19-.32.28l-.28.19a.14.14,0,0,0-.13.08l-.59.23c-.5,0-1-.06-1.5,0-2.72.12-5.45.39-8.18.36a16.77,16.77,0,0,1-7-1.63c-2.93-1.35-5.23-3.54-7.51-5.72a53.37,53.37,0,0,1-5.21-5.63c-2.84-3.58-5.5-7.3-8.22-11-.84-1.13-1.62-2.3-2.42-3.45l-.24-.59-.86-1.8-1.51-3.1a8.93,8.93,0,0,1,1.16,0,54.85,54.85,0,0,0,6.17,1,20.73,20.73,0,0,0,9.52-1.72c2.7-1.25,5.39-2.7,5.93-6.11a5.47,5.47,0,0,0-1-4.35c-1.68-2.1-4.07-3.23-6.48-4.28-.77-.34-1-.12-1,.69s0,1.76,0,2.59a5.5,5.5,0,0,1-1.65.35,2.07,2.07,0,0,1-1.47-.69c-.39-.76.23-1.34.86-1.72.25-.15.65,0,.93-.14a2.74,2.74,0,0,0,.68-.56c-.21-.23-.4-.62-.64-.66a6.68,6.68,0,0,0-1.51.11l.15-.82a18.82,18.82,0,0,0-2.41-.17,41.7,41.7,0,0,0-6.34.49,14,14,0,0,0-5.68,2.14,20.71,20.71,0,0,1-2.58,1.42c-.37-1.26-.79-2.5-1.1-3.77-.65-2.73-1.25-5.49-1.87-8.23v-.34L143,157h.8c.59,1.87,1.14,3.75,1.77,5.6,1.15,3.39,3.29,5.85,6.86,6.69a15.33,15.33,0,0,0,7-.08,4,4,0,0,0,.88-.43,25.8,25.8,0,0,0,4.2-1.91,14.13,14.13,0,0,0,2.42-2.81l.25-.43.58-.87,0,0,.64-1.62c0-.2.06-.45,0-.58-.67-.85-1.37-1.67-2.07-2.5l-.89-1-.6-1.31-1.52-1.93.43-.23.83.24,1.3.87c.77.72,1.57,1.42,2.3,2.19s1.31,1.52,2,2.29l1.21,2.92.28-.1-.82-2.83a17.36,17.36,0,0,1-.62-1.65,12.74,12.74,0,0,0-4.94-7.31l3.71-.69a22.08,22.08,0,0,0-10.1-4.61c-3-.48-6-.48-9-.7a8.42,8.42,0,0,0,.56-.9c2-4.53,4-9.08,6.11-13.59.72-1.57,1-3.48,2.79-4.36.66.06.62-.4.62-.83l.84-.44h.63c1.29-.49,2.55-1.07,3.87-1.47a81.32,81.32,0,0,1,20.33-3c3.94-.17,7.9,0,11.85,0C199.07,119.58,200.77,119.67,202.47,119.72ZM188,205.35l.05,0,.79-.61.5-.44,1.09-1h0l.44-.43h0l1-1.08.21-.17,1.28-1.64a10.34,10.34,0,0,1-6,1,1.6,1.6,0,0,0-.41.09l-.3-.13-.37-.36a25.13,25.13,0,0,0-12-.79l-7.33,1.19-2.14-.66-.24.31,1.3,1a8,8,0,0,0,.8,1.11c1.39,1.41,2.55,3.13,4.51,3.84a20.92,20.92,0,0,0,9.74,1.32,14.4,14.4,0,0,0,6.42-2.14Zm-3.55-19.88.07,5.33a4.9,4.9,0,0,1-.86.36,30.68,30.68,0,0,1-3.88.7c-.62,0-1.27-.45-1.92-.53a11.49,11.49,0,0,0-5,.37,9.42,9.42,0,0,0,1,.87c3.92,2.33,8,2.05,12,.41,1.76-.73,2.36-1.15,1.79-3.5-.29-1.21-.54-2.43-.87-3.62-.84-3-1.71-6-2.56-9a55.94,55.94,0,0,0,.08,6.48s.08.11.13.16Zm17.86,3.64c2.35-.34,4.28-.45,6.12-.92a14.72,14.72,0,0,0,7.35-3.83c2.35-2.44,2.47-5,.95-7.41a10.91,10.91,0,0,0-5.77-4.26,24.31,24.31,0,0,0-12.77-.93c-3.24.59-6.26,1.67-8.57,4.13-2.1,2.22-2.46,4.94-.83,7.36a11,11,0,0,0,5.84,4.22A63.24,63.24,0,0,0,202.34,189.11Zm-22.12-2.7.17,0c0,.57,0,1.14,0,1.71,0,.79.22,1.49,1.21,1.57s1.27-.7,1.28-1.38c0-1.7-.11-3.4-.26-5.1,0-.28-.53-.75-.77-.73a1.39,1.39,0,0,0-1,.7C180.57,184.26,180.43,185.35,180.22,186.41Zm-19.43-12.32-.35-.32a13.79,13.79,0,0,0-1.62.84c-.09.07.06.79.18.81a1.75,1.75,0,0,0,1.25-.08C160.56,175.09,160.62,174.52,160.79,174.09Z"/><path class="cls-33" d="M193.25,240.56c.28.88.58,1.75.85,2.63.78,2.5,2,4.66,4.68,5.88-.89,1.23-1.68,2.39-2.53,3.51a34.82,34.82,0,0,1-8.26,8c-6.44,4.28-13.25,4.67-20.28,1.73-5.83-2.44-10.58-6.39-14.83-11a3.16,3.16,0,0,1-.26-.43c1-.36,1.88-.72,2.8-1a9.39,9.39,0,0,0,6.36-7.05c.74-3.08,1.35-6.19,2-9.29l1.57.62,3,1.19c.14,1.38.26,2.76.43,4.14a38.49,38.49,0,0,0,2.43,10.78l.3.35V250c-.57-2.57-1.19-5.13-1.68-7.71-.41-2.16-.67-4.34-1-6.51a7.07,7.07,0,0,1,1.22.33,76.22,76.22,0,0,0,13.55,4.38,29.4,29.4,0,0,0,8.15.6A5.21,5.21,0,0,0,193.25,240.56ZM173.1,253.72l.08.31.13-.07-.19-.27-1.35-3.26-.4.2A7.84,7.84,0,0,0,173.1,253.72Zm16.68,0a13.13,13.13,0,0,0,2.35,0c.4-.08,1-.55,1-.88.1-1.6.06-3.2,0-4.8a.81.81,0,0,0-.92-.91q-2.4,0-4.8,0c-.64,0-.91.26-.9.89,0,.86,0,1.71,0,2.57C186.59,253.71,186.59,253.71,189.78,253.71Z"/><path class="cls-34" d="M193.25,240.56a5.21,5.21,0,0,1-1.45.5,29.4,29.4,0,0,1-8.15-.6,76.22,76.22,0,0,1-13.55-4.38,7.07,7.07,0,0,0-1.22-.33l0-.65-.27-5.46h-.11v5.47a.73.73,0,0,1-.07.19l-3-1.19-1.57-.62,1-10.16c.23,0,.47.13.71.16a7.63,7.63,0,0,0,.83,0,2.91,2.91,0,0,0-.24-.82c-.33-.46-.73-.85-1.09-1.28l-.24-.41c.06-.22.12-.44.17-.65h0l3.41,2c0,.38-.07.76-.06,1.14a2.88,2.88,0,0,0,.15.63,2.52,2.52,0,0,0,.7-.25,2.3,2.3,0,0,0,.41-.59,11.21,11.21,0,0,1,1.26.47c1.39.7,2.74,1.51,4.17,2.12a7.71,7.71,0,0,0,6,.14,96.78,96.78,0,0,0,9.25-5.18c.84,0,.49.72.54,1.11.6,5.07,1.15,10.15,1.76,15.22C192.72,238.28,193,239.42,193.25,240.56Z"/><path class="cls-33" d="M227.09,176.61c.61,2.31,1.23,4.61,1.84,6.91a38.4,38.4,0,0,1-3.71,3.3,3.47,3.47,0,0,1-4.81-.53,1.42,1.42,0,0,1-.21-1.17,20.33,20.33,0,0,1,1-2.24l1.41,1.23c1.61.29,2.89-.43,4.37-1.37-2.61.11-3.46-.35-3.76-1.87l.65-.54h0l.22-.23h0l.44-.43h0l.22-.22h0a2.45,2.45,0,0,0,.58-.39C225.89,178.27,226.48,177.44,227.09,176.61Z"/><path class="cls-30" d="M190.28,220.8A96.78,96.78,0,0,1,181,226a7.71,7.71,0,0,1-6-.14c-1.43-.61-2.78-1.42-4.17-2.12a11.21,11.21,0,0,0-1.26-.47c0-.36-1-.59-.13-1.05,1.53.82,3.11,1.57,4.6,2.46a7.46,7.46,0,0,0,6.66.66c3.13-1.26,6-3.25,8.92-4.93l.59-.23Z"/><path class="cls-35" d="M223.18,180.87c.3,1.52,1.15,2,3.76,1.87-1.48.94-2.76,1.66-4.37,1.37-1-1.55-.58-4.71.82-6.15l2.36-.67-1.07,2.19h0l-.22.22h0l-.44.43h0l-.22.23h0Z"/><path class="cls-35" d="M224.45,173c1,.9,2.33,1.52,2.11,3.2-.9,1.09-2.18,1-3.38,1.09Z"/><path class="cls-22" d="M164,224.52l-1.72-2c-.59-.67-.25-1.23.31-1.59s1.11,0,1.29.67Z"/><path class="cls-30" d="M223.18,177.32c1.2-.13,2.48,0,3.38-1.09l.53.38c-.61.83-1.2,1.66-1.83,2.48a2.45,2.45,0,0,1-.58.39l1.07-2.19-2.36.67Z"/><path class="cls-34" d="M165,221.4c.36.43.76.82,1.09,1.28a2.91,2.91,0,0,1,.24.82,7.63,7.63,0,0,1-.83,0c-.24,0-.48-.11-.71-.16l0-.85Z"/><path class="cls-22" d="M164.12,221.84l.38.42Z"/><path class="cls-30" d="M190.36,220.08l.28-.19Z"/><path class="cls-29" d="M217.83,103.49a48.58,48.58,0,0,1,7,9.86c1.16,2,2.19,4,3.28,6a2.64,2.64,0,0,1-.57-.4c-1.29-1.55-2.58-3.11-3.85-4.69a5.6,5.6,0,0,1-.47-1l-.56.42q2.91,8.09,5.83,16.16l-.31.17-9-12.69c.1,1.33.18,2.43.26,3.52l-1.84-.25c-1.88-5.72-3.75-11.45-5.72-17.43l7,4.94C218.5,106.42,218.16,105,217.83,103.49Z"/><path class="cls-20" d="M239.19,176.06c-1.77-5.24-3.4-10.52-5.34-15.7-2.31-6.14-4.87-12.19-7.33-18.28-.61-1.51-1.26-3-1.9-4.51l.27-.27c1.91,3.77,4,7.44,5.66,11.32,2.19,5.19,4.13,10.5,5.93,15.84,1.27,3.79,2.12,7.72,3.15,11.58Z"/><path class="cls-20" d="M245.44,199.54c-.53.08-.63-1-1.16-.95a29.91,29.91,0,0,1,2.1-2.39,3.38,3.38,0,0,0,1.3-2.46c0-2.05-.07-4.1-.11-6.14-.78-4.18-1.55-8.36-2.37-12.53-.23-1.18-.58-2.34-.88-3.51l.24-.22q1.6,5.25,3.19,10.49a40.35,40.35,0,0,1,1.3,10.6,6.56,6.56,0,0,1-.3,2.61A43,43,0,0,1,245.44,199.54Z"/><path class="cls-24" d="M218.87,224.24c-.26-1.57-1.53-.51-2.39-.81a1.87,1.87,0,0,1,2.28-.61,2.06,2.06,0,0,1,.75,1.43,21.24,21.24,0,0,1,0,2.77c-.54,0-1.22.13-1.9.17s-1.17-.07-1.3-.8a1.36,1.36,0,0,1,.76-1.69A12.34,12.34,0,0,1,218.87,224.24Zm-1,2.7a11.73,11.73,0,0,0,1-1.35c0-.07-.45-.54-.53-.5A11.13,11.13,0,0,0,217,226Z"/><path class="cls-29" d="M219.71,123c.29,1.43.6,2.87.86,4.31s.44,2.8.65,4.2a.61.61,0,0,1-.16.48c-.51-1.79-1-3.57-1.52-5.37-.16-.57-.27-1.15-.39-1.73.58.07.61-.24.54-.71A6.65,6.65,0,0,1,219.71,123Z"/><path class="cls-29" d="M219.71,123a6.65,6.65,0,0,0,0,1.18c.07.47,0,.78-.54.71h0l-.46-.62-.39-1.34a2.07,2.07,0,0,1,.12-.49c.14-.24.31-.46.47-.69l-.83-.47-.38-.08c0-.18,0-.36,0-.54h0l1.84.25C219.54,121.58,219.63,122.29,219.71,123Z"/><path class="cls-24" d="M218.67,124.25l.46.62a5.87,5.87,0,0,0-.84.13,1.41,1.41,0,0,1-1.93-.79c-.35-.9.09-1.53,1.19-1.87l.44-.12c0-.34,0-.65,0-1l.83.47c-.16.23-.33.45-.47.69a2.07,2.07,0,0,0-.12.49c-.56.11-1.35.08-1.23.91s.84.59,1.41.45A1.49,1.49,0,0,1,218.67,124.25Z"/><path class="cls-30" d="M229.83,158.9l-.3,0c-.64-1.34-1.29-2.69-1.94-4l.38-.18Z"/><path class="cls-22" d="M224.89,137.3l-.27.27-1.71-3,.35-.2Z"/><path class="cls-30" d="M211.63,230.38l-.5,0c-.47-.8-.94-1.6-1.4-2.4l.32-.2Z"/><path class="cls-22" d="M239.19,176.06l.44,0c.25,1,.49,2,.73,3l-.29.07C239.77,178.07,239.48,177.07,239.19,176.06Z"/><path class="cls-32" d="M244.56,171.34l-.24.22c-.37-1-.74-2-1.1-3l.35-.12Z"/><path class="cls-22" d="M224.69,127.88l-.26.26-1.08-1.5.34-.26Z"/><path class="cls-24" d="M217.62,120.64c0,.18,0,.36,0,.54l-1,.18-.1-.38Z"/><path class="cls-22" d="M223,125.75l.33.28-.07.07-.27-.34Z"/><path class="cls-22" d="M240.44,179.69l-.05.06a.12.12,0,0,1,0-.08l.05-.06Z"/><path class="cls-22" d="M223,125.76l-.08-.1.09.09Z"/><path class="cls-29" d="M217.78,103.32a1.06,1.06,0,0,1,.06.19l-.12-.12Z"/><path class="cls-28" d="M245.88,198.28c.07,0,.15,0,.21,0l1.25.64c-.39.16-.78.34-1.18.46a1.52,1.52,0,0,1-.52,0Z"/><path class="cls-28" d="M246.85,199.59c.27.59.55,1,.48,1.08a4.36,4.36,0,0,1-1.19.8s-.54-.57-.49-.65A10.06,10.06,0,0,1,246.85,199.59Z"/><path class="cls-25" d="M121.32,305.92c1.35-.52,2.23,0,2.9,1.21a12.9,12.9,0,0,0,1.37,1.74c-1.25.47-1.46,2.47-3.22,2l-.21-.39c.13-.13.3-.39.38-.37a1.16,1.16,0,0,0,1.61-.77,5,5,0,0,0-.22-1.88l-.45-.05c-.49.66-1,1.32-1.44,1.92l-.29-.61c0-.14,0-.28,0-.42a6.61,6.61,0,0,0,1-.72c.19-.19.41-.64.33-.74a1.7,1.7,0,0,0-.86-.45,4.12,4.12,0,0,0-.94-.07Z"/><path class="cls-25" d="M121.75,308.7l.29.61c.46-.6.95-1.26,1.44-1.92l.45.05a5,5,0,0,1,.22,1.88,1.16,1.16,0,0,1-1.61.77c-.08,0-.25.24-.38.37A1.19,1.19,0,0,1,121.75,308.7Z"/><path class="cls-25" d="M121.29,306.3a4.12,4.12,0,0,1,.94.07,1.7,1.7,0,0,1,.86.45c.08.1-.14.55-.33.74a6.61,6.61,0,0,1-1,.72c-.12-.43-.25-.85-.43-1.44l-1,1.07A1.51,1.51,0,0,1,121.29,306.3Z"/><path class="cls-25" d="M132.55,303.41c-1-1.18-2-2.35-2.82-3.36.43-.52.66-1,1.05-1.22,1.28-.71,2.2-1.85,3.42-2.61a1.26,1.26,0,0,1,1.11.32c.78.82,1.47,1.73,2.18,2.61.07.09,0,.26.11.69a5.71,5.71,0,0,1-1-.64c-.5-.55-.94-1.15-1.39-1.74s-1-.77-1.54-.27-.81,1-.22,1.67,1.06,1.32,1.56,2c.12.16.09.43.13.64l-.29.13c-.7-.83-1.46-1.61-2.08-2.49a.86.86,0,0,0-1.43-.22,1.08,1.08,0,0,0-.3,1.58c.64.87,1.26,1.75,1.89,2.62Z"/><path class="cls-25" d="M125.69,303a9.41,9.41,0,0,1,2-1.7c.82-.39,1.53.16,2,.9s1.1,1.46,1.56,2.06c-.51.51-1,1-1.42,1.43-.83.85-1.56.93-2.18.25a1.73,1.73,0,0,1,.32-2.44l.09-.06c.51-.3,1.09-.7.59-1.31s-1.1-.17-1.57.22a12.1,12.1,0,0,0-1,1Zm4.75,1.32-1-1.13a11.87,11.87,0,0,0-1.4,1.53c-.07.12.51.65.78,1Z"/><path class="cls-25" d="M139.85,300.27c.68-2.63-1.22-3.24-2.75-4.12a6.35,6.35,0,0,1-1.42-1.08c1.4-.34,2.18,1.2,3.58,1.18l-1.11-3.64C139.78,293.74,141,299,139.85,300.27Z"/><path class="cls-25" d="M123,302.23l2.14,2.67c.6.75,1.22,1.47,1.79,2.24.15.2.12.52.18.78-.26-.11-.62-.16-.78-.36-.92-1.16-1.81-2.35-2.69-3.54-.37-.5-.71-1-1.05-1.53Z"/><path class="cls-25" d="M247.56,303.6c-.39,0-.86.13-1.34.17-.63.06-1.26,0-1.42-.76s0-1.36.86-1.57a2,2,0,0,0,.6-.2,6.21,6.21,0,0,0,.63-.52,2.84,2.84,0,0,0-.78-.35,4.81,4.81,0,0,0-1,.1c.29-.71.7-1,1.58-.71a1.44,1.44,0,0,1,.87.95A21.31,21.31,0,0,1,247.56,303.6Zm-.24-1.06c-.52-.38-.81-.7-.92-.65a5.35,5.35,0,0,0-1,.76c.21.16.43.48.63.46A5.46,5.46,0,0,0,247.32,302.54Z"/><path class="cls-24" d="M125.36,132l.16-.46Z"/><ellipse class="cls-24" cx="128.49" cy="122.23" rx="0.06" ry="0.24"/><path class="cls-28" d="M129.66,150.17c.05.47.25,1,.09,1.39a2.05,2.05,0,0,1-1,.88c-.11.05-.7-.53-.66-.62a17.33,17.33,0,0,1,1.09-1.78Z"/><path class="cls-34" d="M202.47,119.72c-1.7,0-3.4-.14-5.1-.15-4,0-7.91-.14-11.85,0a81.32,81.32,0,0,0-20.33,3c-1.32.4-2.58,1-3.87,1.47a10.35,10.35,0,0,0,0-2c-.1-.49-.4-1.18-.78-1.32a1.83,1.83,0,0,0-2.24.53,6.4,6.4,0,0,1,1.46-.06,3.35,3.35,0,0,1,.94.55,8.36,8.36,0,0,1-.76.57c-.57.33-1.41.48-1.69,1-.41.7,0,1.42.82,1.78.08,0,.13.17.19.25-1.83.88-2.07,2.79-2.79,4.36-2.07,4.51-4.07,9.06-6.11,13.59a8.42,8.42,0,0,1-.56.9l-4.33.79c.17-.61.31-1.24.51-1.84q4.61-13.77,9.26-27.52a1.79,1.79,0,0,1,1.12-1,70.44,70.44,0,0,1,8.76-1.13c3.69-.12,7.4.24,11.1.27,2.67,0,5.33-.16,8-.27,5.35-.21,10.68-.16,15.92,1.18a1.5,1.5,0,0,1,1.28,1.2C201.7,117.13,202.1,118.42,202.47,119.72Z"/><path class="cls-36" d="M189.64,220.39c-3,1.68-5.79,3.67-8.92,4.93a7.46,7.46,0,0,1-6.66-.66c-1.49-.89-3.07-1.64-4.6-2.46-.56-1.74-1.1-3.5-1.68-5.24-.07-.19-.37-.3-.57-.45-.06.23-.21.48-.16.68.2.87.47,1.72.81,2.89-1.06-.58-1.81-1-2.6-1.4a2.78,2.78,0,0,0-1,0,79.23,79.23,0,0,1-17.47-17,85.77,85.77,0,0,1-14.41-29.93c.34-.61.67-1.23,1-1.84q2.28-4,4.57-8c.09-.14.22-.27.32-.4l.44,1.55c0,.11,0,.23,0,.34-.67.63-1.36,1.25-2,1.9a1.84,1.84,0,0,0-.32.66,6.5,6.5,0,0,1-.45,1.19c-.63,1-1.34,1.89-2,2.85a3.44,3.44,0,0,0-.71,3c.53,1.79,1.15,3.55,1.75,5.31s1.06,3.35,1.77,4.94c1,2.28,2.29,4.46,3.35,6.72s2.68,4.28,3.73,6.61a19.3,19.3,0,0,0,3.05,4.17c.79.94,2.2,1.61,2.5,2.64.39,1.35,1.51,1.93,2.12,3a16.22,16.22,0,0,0,3.12,3.42c1.47,1.41,3,2.72,4.51,4.12a4.06,4.06,0,0,0,2.22,1.26h0a4,4,0,0,0,4.52,2.39l.38.77.26-.05a2.81,2.81,0,0,0,0-.65c-.08-.3-.33-.58-.33-.87a4.9,4.9,0,0,0-1.52-3.47c-1.49-1.59-3.05-3.11-4.56-4.67a18.81,18.81,0,0,1-1.46-1.64c-.73-1-1.21-2.29-2.16-2.88-1.1-.68-1.24-1.84-2.05-2.64a26.75,26.75,0,0,1-2.68-3.94c-.91-1.32-2.26-2.39-2.1-4.23.8,1.15,1.58,2.32,2.42,3.45,2.72,3.67,5.38,7.39,8.22,11a53.37,53.37,0,0,0,5.21,5.63c2.28,2.18,4.58,4.37,7.51,5.72a16.77,16.77,0,0,0,7,1.63c2.73,0,5.46-.24,8.18-.36C188.64,220.33,189.14,220.37,189.64,220.39Z"/><path class="cls-23" d="M192.55,158.78l2.2-2.4h0l.21,0c.66-.41,1.31-.83,2-1.21a17.56,17.56,0,0,1,11.17-1.86c1.68.21,3.34.63,5,1l2.17.85c.21.49.42,1,.64,1.47L214,162.66a9.44,9.44,0,0,1-8.8,6.9c-1.35,0-2.7-.1-4.05-.16l-.22,0-.86-.16,0-.4,3.83.15a29.24,29.24,0,0,0,3-.25c3.93-.73,8-5.8,6.68-10.37-.08-.29-.22-.69-.44-.78-1.84-.77-3.7-1.48-5.56-2.22.66,1.45,1.23,2.72,1.81,4l0,.74a6.58,6.58,0,0,1-7.55,6.85c-3-.41-4.89-2.36-5.67-5.84a8,8,0,0,1,1.36-4.89l.11-.17-.2.09-3.71,2.09C193.35,158.41,193,158.59,192.55,158.78Zm8.42,4.8a1.2,1.2,0,0,0-1.3-1.31,4.22,4.22,0,0,1,.06-3.7c.08-.14.14-.44.08-.48a6.21,6.21,0,0,0-1.6-1c-.19-.06-.7.5-.87.86a6,6,0,1,0,11.06,4.49c.49-1.48.78-3-.31-4.4a1.62,1.62,0,0,0-1.74-1.4,2.16,2.16,0,0,0-1.55,1,2.43,2.43,0,0,0,.23,1.84c.18.35.82.46,1.26.68-.08,2.58-2,4.16-4.4,3.62Z"/><path class="cls-34" d="M138.69,163.06l-.44-1.55c1-2.2,2-4.39,2.94-6.6,1.09-2.54,2.13-5.1,3.23-7.64.17-.37.58-.63.87-1l.33.09.31.11a55.89,55.89,0,0,0,19.26,3.66,12.74,12.74,0,0,1,4.94,7.31,17.36,17.36,0,0,0,.62,1.65h-.67c-.65-.77-1.27-1.57-2-2.29s-1.53-1.47-2.3-2.19c-.09-.81-.64-.92-1.3-.87l-.83-.24-.7-.33.27.56,1.52,1.93a4.63,4.63,0,0,1-1.17-.42,14.57,14.57,0,0,0-9-2.57c-.94,0-1.88.09-3.1.15l1.24-.77.64-.05a5.39,5.39,0,0,0,.88.22c1.72.08,3.45.17,5.18.2.82,0,1.65-.1,2.48-.15l.34-.14-.6-.26a14.91,14.91,0,0,0-3.18-.87,26.78,26.78,0,0,0-8.88.63c-1.09.31-2.31.39-2.91,1.69a2,2,0,0,1-1.39.8c-1.83.34-2.43,1-2.38,2.83Zm7.16-11,4.41-2-2.74-1.24Z"/><path class="cls-36" d="M213.09,154.23c-1.67-.33-3.33-.75-5-1a17.56,17.56,0,0,0-11.17,1.86c-.67.38-1.32.8-2,1.21l-.21,0h0c-.71.29-1.42.57-2.12.87-.39.17-.75.39-1.29.67.17-1.84,1.45-2.89,2.39-4.34a8.65,8.65,0,0,0-3.94,2.49c-1.14,1.15-2.12,2.46-3.17,3.7l.13-1,.28-2.14c.72-1.27,1.39-2.57,2.18-3.79.55-.84,1.27-1.58,1.91-2.37l1.44-.25a55.91,55.91,0,0,0,18.63-3.44l.31-.11.32-.07.51,1.4L207,149.87l.1.34a10.48,10.48,0,0,1,1.55.63c.88.52,1.72,1.11,2.57,1.68a21.63,21.63,0,0,0-12.91-.5.83.83,0,0,0,.53.1c4.05-.32,8.09-.47,12.05.76.21.07.5-.11.75-.17C212.27,153.06,213.09,153.24,213.09,154.23Z"/><path class="cls-23" d="M165.19,150.18a55.89,55.89,0,0,1-19.26-3.66l-.31-.11-.33-.09c-.63-.52-.46-1,.15-1.35l4.33-.79c3,.22,6.06.22,9,.7a22.08,22.08,0,0,1,10.1,4.61Z"/><path class="cls-23" d="M211.82,146.56l-.32.07-.31.11a55.91,55.91,0,0,1-18.63,3.44l-1.4-.17-.27,0-1.09-.28-.64-.19.49-.59.19-.38,2.35-1.33h0l2.86-1.29a30.32,30.32,0,0,1,11.08-1.72c1.63.08,3.25.31,4.88.47Z"/><path class="cls-33" d="M213.09,154.23c0-1-.82-1.17-1.48-1.52l-.42-.19c-.85-.57-1.69-1.16-2.57-1.68a10.48,10.48,0,0,0-1.55-.63l-.1-.34,5.36-1.91q1.46,3.56,2.93,7.12Z"/><path class="cls-35" d="M134,184.07a5,5,0,0,1-4.49-1.4h0c1.2.22,2.39.29,3.25-.8a3.6,3.6,0,0,0,.39-1l-2.57-3.36.21-.23,2.56.92c.73,1.79,1.49,3.57.88,5.57v0Z"/><path class="cls-36" d="M164.22,218.67a2.78,2.78,0,0,1,1,0c.79.36,1.54.82,2.6,1.4-.34-1.17-.61-2-.81-2.89-.05-.2.1-.45.16-.68.2.15.5.26.57.45.58,1.74,1.12,3.5,1.68,5.24-.82.46.18.69.13,1.05a2.3,2.3,0,0,1-.41.59,2.52,2.52,0,0,1-.7.25,2.88,2.88,0,0,1-.15-.63c0-.38,0-.76.06-1.14.94-.28.2-.64,0-.78-1.11-.72-2.26-1.37-3.39-2Z"/><path class="cls-35" d="M131.41,173.07l.19,0c.15.12.39.22.44.37.44,1.38.85,2.77,1.27,4.16-1.3-.45-2.84-.3-3.85-1.52h0Z"/><path class="cls-30" d="M129.46,176c1,1.22,2.55,1.07,3.85,1.52,0,.22,0,.44,0,.65l-2.56-.92-.21.23,2.57,3.36c-1.72-.86-2.6-2.49-3.63-4Z"/><path class="cls-30" d="M165,219.49c1.13.68,2.28,1.33,3.39,2,.22.14,2.41,1.19,1.3,1.73-1.13-.66-3.55-2.28-4.69-2.94Z"/><path class="cls-31" d="M165,220.34c-.05.21-.11.43-.17.65l-.45-.66Z"/><path class="cls-35" d="M129.46,182.67l-.09,0,.08.05Z"/><path class="cls-31" d="M134,184.07l.23-.32Z"/><path class="cls-28" d="M133.29,150.15c-.65-.84-1.26-1.71-2-2.51a1,1,0,0,1,0-1.6c.52-.52,1-.35,1.4.24s.65.93,1,1.39C133.6,148.5,133.44,149.32,133.29,150.15Z"/><path class="cls-28" d="M134.13,144.13c-.12.51-.25,1-.38,1.53C133.05,144.88,133.12,144.58,134.13,144.13Z"/><path class="cls-24" d="M123.67,154.69a1,1,0,0,1,.3,1.58,2,2,0,0,1-1.1.64c-.15,0-.6-.38-.6-.59C122.27,155.4,123,155,123.67,154.69Z"/><path class="cls-22" d="M132,200.09a5.64,5.64,0,0,1-1.23.75c-.15,0-.4-.34-.61-.53a5.17,5.17,0,0,1,.95-.68C131.18,199.57,131.45,199.82,132,200.09Z"/><path class="cls-28" d="M190.36,97.54c.08.65.14,1.2-.64,1.23-.23,0-.69-.31-.67-.43C189.14,97.61,189.7,97.55,190.36,97.54Z"/><path class="cls-22" d="M152.37,231.32c.3.62.62,1,.58,1.26-.08.65-.39,1.3-1.19,1.21-.24,0-.68-.62-.61-.76A11.57,11.57,0,0,1,152.37,231.32Z"/><path class="cls-22" d="M159.06,227.94a18.34,18.34,0,0,1-1.49,1.36s-.73-.58-.69-.65a6.78,6.78,0,0,1,1.13-1.43A7.34,7.34,0,0,1,159.06,227.94Z"/><path class="cls-37" d="M202.34,189.11a63.24,63.24,0,0,1-7.68-1.64,11,11,0,0,1-5.84-4.22c-1.63-2.42-1.27-5.14.83-7.36,2.31-2.46,5.33-3.54,8.57-4.13a24.31,24.31,0,0,1,12.77.93,10.91,10.91,0,0,1,5.77,4.26c1.52,2.37,1.4,5-.95,7.41a14.72,14.72,0,0,1-7.35,3.83C206.62,188.66,204.69,188.77,202.34,189.11Z"/><path class="cls-37" d="M141.67,175.4a20.71,20.71,0,0,0,2.58-1.42,14,14,0,0,1,5.68-2.14,41.7,41.7,0,0,1,6.34-.49,18.82,18.82,0,0,1,2.41.17l-.15.82a6.68,6.68,0,0,1,1.51-.11c.24,0,.43.43.64.66a2.74,2.74,0,0,1-.68.56c-.28.12-.68,0-.93.14-.63.38-1.25,1-.86,1.72a2.07,2.07,0,0,0,1.47.69,5.5,5.5,0,0,0,1.65-.35c0-.83,0-1.71,0-2.59s.24-1,1-.69c2.41,1,4.8,2.18,6.48,4.28a5.47,5.47,0,0,1,1,4.35c-.54,3.41-3.23,4.86-5.93,6.11a20.73,20.73,0,0,1-9.52,1.72,54.85,54.85,0,0,1-6.17-1,8.93,8.93,0,0,0-1.16,0c-.63-1.22-1.34-2.42-1.88-3.68-1.07-2.47-2-5-3.05-7.47Z"/><path class="cls-34" d="M141.67,175.4l.39,1.28a1.68,1.68,0,0,0-1.82,1.47,8.75,8.75,0,0,0,1.32,6.17c.14.26.62.31.89.51a17.25,17.25,0,0,1,3.29,2.66,40.14,40.14,0,0,1,2.55,4.43c.22.35.71.54,1.07.81l.24.59c-.16,1.84,1.19,2.91,2.1,4.23a26.75,26.75,0,0,0,2.68,3.94c.81.8,1,2,2.05,2.64.95.59,1.43,1.91,2.16,2.88a18.81,18.81,0,0,0,1.46,1.64c1.51,1.56,3.07,3.08,4.56,4.67a4.9,4.9,0,0,1,1.52,3.47c0,.29.25.57.33.87a2.81,2.81,0,0,1,0,.65l-.26.05-.38-.77a4,4,0,0,1-4.52-2.39h1.4l.09-.35c-.25-.17-.6-.52-.73-.45a3.27,3.27,0,0,0-.77.8,4.06,4.06,0,0,1-2.22-1.26c-1.48-1.4-3-2.71-4.51-4.12a16.22,16.22,0,0,1-3.12-3.42c-.61-1.07-1.73-1.65-2.12-3-.3-1-1.71-1.7-2.5-2.64a19.3,19.3,0,0,1-3.05-4.17c-1.05-2.33-2.64-4.32-3.73-6.61s-2.32-4.44-3.35-6.72c-.71-1.59-1.2-3.28-1.77-4.94s-1.22-3.52-1.75-5.31a3.44,3.44,0,0,1,.71-3c.66-1,1.37-1.88,2-2.85a6.5,6.5,0,0,0,.45-1.19,1.84,1.84,0,0,1,.32-.66c.65-.65,1.34-1.27,2-1.9.62,2.74,1.22,5.5,1.87,8.23C140.88,172.9,141.3,174.14,141.67,175.4Zm.58,13.25-.59-.75c-.14.27-.39.53-.4.81s.24.48.38.73Zm12.85,18.64a3.92,3.92,0,0,0-.82-.4c-.11,0-.26.22-.39.34a2.5,2.5,0,0,0,.6.44C154.59,207.71,154.77,207.5,155.1,207.29Zm-17-25.22c-.19-.1-.31-.21-.41-.2s-.22.21-.2.25a.44.44,0,0,0,.29.24C137.84,182.37,137.93,182.22,138.09,182.07Z"/><path class="cls-23" d="M160.27,168.79a4,4,0,0,1-.88.43,15.33,15.33,0,0,1-7,.08c-3.57-.84-5.71-3.3-6.86-6.69-.63-1.85-1.18-3.73-1.77-5.6-.11-.67-.52-1.5.4-1.85a26.18,26.18,0,0,1,12.64-1.91,16.78,16.78,0,0,1,8.58,3.78l.89,1-.28.28-3.92-2.28-.24-.05.11.18a7.92,7.92,0,0,1,1.41,4.69c-.07.35-.12.7-.2,1a6.52,6.52,0,0,1-5.8,5.05,6.28,6.28,0,0,1-6.51-3.68,16.76,16.76,0,0,1-.7-3.92l1.76-4c-1.78.7-3.57,1.38-5.34,2.11a1,1,0,0,0-.55.7,12.69,12.69,0,0,0,0,3.89,9.23,9.23,0,0,0,10,6.9Zm-7.05-8.69a1.68,1.68,0,0,0,1.71-1.57,1.71,1.71,0,0,0-1.46-1.91,1.92,1.92,0,0,0-2.09,1.65,10,10,0,0,0-.56,2.23,5.9,5.9,0,0,0,3.93,5.55,6.11,6.11,0,0,0,6.71-2,5.86,5.86,0,0,0,.08-7.09,10.39,10.39,0,0,0-1.52.86.93.93,0,0,0-.19.85,4.06,4.06,0,0,1,0,3.61c-.87,0-1.19.57-1.27,1.34a3.19,3.19,0,0,0-.62.08A3.5,3.5,0,0,1,153.22,160.1Z"/><path class="cls-38" d="M189.37,204.27l-.5.44-.79.61-.05,0-.57.38a14.4,14.4,0,0,1-6.42,2.14,20.92,20.92,0,0,1-9.74-1.32c-2-.71-3.12-2.43-4.51-3.84a8,8,0,0,1-.8-1.11c.83-.41,1.39.15,2,.57,0,.17,0,.43.13.48.59.31,1.22.56,1.83.83a21.66,21.66,0,0,0,9,2.07,20.13,20.13,0,0,0,2.65-.38,20.8,20.8,0,0,0,3.57-.62c2-.68,3.83-1.59,5.73-2.41l0,0,0,.65h0l-.44.43h0Z"/><path class="cls-39" d="M196.18,161.07c.78,3.48,2.68,5.43,5.67,5.84a6.58,6.58,0,0,0,7.55-6.85l0-.74c1.71.6,1.83.91,1.38,2.41a10.19,10.19,0,0,1-6.07,6.47c-.3.14-.51.5-.77.76l-3.83-.15-2.59-.48,0,0-1-.34c-1-.83-2-1.6-2.94-2.52-1.19-1.2-2.3-2.5-2.22-4.38.33.66.61,1.35,1,2,.59,1,.87.92,1.62.07S195.44,161.76,196.18,161.07Z"/><path class="cls-40" d="M184.44,183.53c-.05-.05-.12-.11-.13-.16a55.94,55.94,0,0,1-.08-6.48c.85,3,1.72,6,2.56,9,.33,1.19.58,2.41.87,3.62.57,2.35,0,2.77-1.79,3.5-4,1.64-8.06,1.92-12-.41a9.42,9.42,0,0,1-1-.87,11.49,11.49,0,0,1,5-.37c.65.08,1.3.58,1.92.53a30.68,30.68,0,0,0,3.88-.7,4.9,4.9,0,0,0,.86-.36c-.29.79-.58,1.58-.84,2.27a1.65,1.65,0,0,0,1.53-2c-.06-1.87-.25-3.74-.39-5.62Zm-10,8.73,4.61,1.44.09-.3A6.78,6.78,0,0,0,174.45,192.26Z"/><path class="cls-41" d="M186.76,200.86l.3.13,1.24,1.15c-2,.14-4.06.39-6.09.39-4.14,0-8.31.3-12.42-.52l-1.62-.5-1.1-.61,7.33-1.19a25.13,25.13,0,0,1,12,.79Z"/><path class="cls-39" d="M150.14,159.36a16.76,16.76,0,0,0,.7,3.92,6.28,6.28,0,0,0,6.51,3.68,6.52,6.52,0,0,0,5.8-5.05c.08-.34.13-.69.2-1,.88.92,1.74,1.87,2.64,2.76a3,3,0,0,0,.9.44,14.13,14.13,0,0,1-2.42,2.81,25.8,25.8,0,0,1-4.2,1.91L156,169c-.26-.25-.47-.67-.77-.74a8.72,8.72,0,0,1-5.94-5.36,7.92,7.92,0,0,1-.56-1.79C148.49,160,149.05,159.43,150.14,159.36Z"/><path class="cls-36" d="M149.36,192.73c-.36-.27-.85-.46-1.07-.81a40.14,40.14,0,0,0-2.55-4.43,17.25,17.25,0,0,0-3.29-2.66c-.27-.2-.75-.25-.89-.51a8.75,8.75,0,0,1-1.32-6.17,1.68,1.68,0,0,1,1.82-1.47c1,2.5,2,5,3.05,7.47.54,1.26,1.25,2.46,1.88,3.68l1.51,3.1Z"/><path class="cls-42" d="M196.18,161.07c-.74.69-1.53,1.34-2.19,2.09s-1,.9-1.62-.07c-.39-.63-.67-1.32-1-2,0-.24-.07-.54,0-.72.34-.56.76-1.08,1.14-1.61.4-.19.8-.37,1.19-.59l3.71-2.09.09.08A8,8,0,0,0,196.18,161.07Z"/><path class="cls-42" d="M166.89,164.07a3,3,0,0,1-.9-.44c-.9-.89-1.76-1.84-2.64-2.76a7.92,7.92,0,0,0-1.41-4.69l.13-.13,3.92,2.28,1.78,2.18,0,2.24,0,0-.58.87Z"/><path class="cls-40" d="M165.38,157a16.78,16.78,0,0,0-8.58-3.78,26.18,26.18,0,0,0-12.64,1.91c-.92.35-.51,1.18-.4,1.85H143c-.05-1.84.55-2.49,2.38-2.83a2,2,0,0,0,1.39-.8c.6-1.3,1.82-1.38,2.91-1.69a26.78,26.78,0,0,1,8.88-.63,14.91,14.91,0,0,1,3.18.87l-.79-.06a.34.34,0,0,0-.2,0l-.22-.07a20.2,20.2,0,0,0-12.07,1l4.36-.62-1.24.77c1.22-.06,2.16-.14,3.1-.15a14.57,14.57,0,0,1,9,2.57,4.63,4.63,0,0,0,1.17.42Z"/><path class="cls-27" d="M180.22,186.41c.21-1.06.35-2.15.65-3.19a1.39,1.39,0,0,1,1-.7c.24,0,.75.45.77.73.15,1.7.27,3.4.26,5.1,0,.68-.28,1.45-1.28,1.38s-1.18-.78-1.21-1.57c0-.57,0-1.14,0-1.71Z"/><path class="cls-30" d="M186.75,158.73l-.13,1-2.31,10.29L184,170a45.91,45.91,0,0,1,2.33-11.29Z"/><path class="cls-34" d="M159.23,125.33c-.06-.08-.11-.21-.19-.25-.8-.36-1.23-1.08-.82-1.78.28-.49,1.12-.64,1.69-1a8.36,8.36,0,0,0,.76-.57,3.35,3.35,0,0,0-.94-.55,6.4,6.4,0,0,0-1.46.06,1.83,1.83,0,0,1,2.24-.53c.38.14.68.83.78,1.32a10.35,10.35,0,0,1,0,2h-.63c-.05-.55.23-1.4-.77-1.23-.42.07-.76.6-1.14.92l1.07.75C159.85,124.93,159.89,125.39,159.23,125.33Z"/><path class="cls-35" d="M188.3,202.14,187.06,201a1.6,1.6,0,0,1,.41-.09,10.34,10.34,0,0,0,6-1l-1.28,1.64c-.14-.13-.32-.4-.41-.37a9.19,9.19,0,0,0-1.1.52l-2.18.43A.25.25,0,0,1,188.3,202.14Z"/><path class="cls-31" d="M184.85,185.47c.14,1.88.33,3.75.39,5.62a1.65,1.65,0,0,1-1.53,2c.26-.69.55-1.48.84-2.27,0-1.78-.05-3.55-.07-5.33Z"/><path class="cls-37" d="M189.65,148.91l-.49.59c0,.05-.09.12-.15.14-.59.26-1.22.4-1.57-.26-.11-.21.19-.83.45-1,.56-.3,1.23-.46,1.6.37C189.51,148.84,189.59,148.87,189.65,148.91Z"/><path class="cls-37" d="M160.79,174.09c-.17.43-.23,1-.54,1.25a1.75,1.75,0,0,1-1.25.08c-.12,0-.27-.74-.18-.81a13.79,13.79,0,0,1,1.62-.84Z"/><path class="cls-36" d="M159.85,124.5l-1.07-.75c.38-.32.72-.85,1.14-.92,1-.17.72.68.77,1.23Z"/><path class="cls-35" d="M167.07,200.9l1.1.61c0,.15,0,.3,0,.44l-.24.22c-.59-.42-1.15-1-2-.57l-1.3-1,.24-.31Z"/><path class="cls-36" d="M170.08,159.15h.67c.27.94.55,1.88.82,2.83l-.28.1Z"/><path class="cls-21" d="M167.77,160.51,166,158.33l.28-.28c.7.83,1.4,1.65,2.07,2.5.1.13,0,.38,0,.58Z"/><path class="cls-37" d="M192.19,147.2l-2.35,1.33v-.88Z"/><path class="cls-24" d="M197.49,168.33l2.59.48,0,.4Z"/><path class="cls-32" d="M186.75,158.73l-.41,0,.69-2.12C186.93,157.3,186.84,158,186.75,158.73Z"/><path class="cls-37" d="M195,145.91l-2.86,1.29A3.62,3.62,0,0,1,195,145.91Z"/><path class="cls-39" d="M167.77,160.51l.61.62-.64,1.62Z"/><path class="cls-38" d="M190.65,201.72a9.19,9.19,0,0,1,1.1-.52c.09,0,.27.24.41.37l-.21.17-1.07.43,0,0Z"/><path class="cls-24" d="M184.85,185.47h-.37c0-.64,0-1.29,0-1.94Z"/><path class="cls-36" d="M164.52,153.8c.66-.05,1.21.06,1.3.87Z"/><path class="cls-35" d="M190.88,202.17l1.07-.43-1,1.08C190.89,202.6,190.89,202.39,190.88,202.17Z"/><path class="cls-35" d="M189.37,204.27l1.09-1Z"/><path class="cls-37" d="M189.8,149.69l1.09.28C190.29,150.8,190.05,150.21,189.8,149.69Z"/><path class="cls-36" d="M163.26,153.79l-.27-.56.7.33Z"/><path class="cls-39" d="M167.14,163.64l.58-.87Z"/><path class="cls-35" d="M188.08,205.32l.79-.61Z"/><path class="cls-37" d="M191.16,150l1.4.17-1.44.25C191.14,150.29,191.15,150.15,191.16,150Z"/><path class="cls-24" d="M196.53,168l1,.34Z"/><path class="cls-35" d="M187.46,205.73l.57-.38Z"/><path class="cls-35" d="M190.46,203.25l.44-.43Z"/><path class="cls-35" d="M186.76,200.86l-.37-.36Z"/><path class="cls-24" d="M200.91,169.37l.22,0Z"/><path class="cls-33" d="M189.78,253.71c-3.19,0-3.19,0-3.19-3.17,0-.86,0-1.71,0-2.57,0-.63.26-.9.9-.89q2.4,0,4.8,0a.81.81,0,0,1,.92.91c0,1.6.06,3.2,0,4.8,0,.33-.63.8-1,.88A13.13,13.13,0,0,1,189.78,253.71Zm1.29-1.3c0-.94,0-1.82,0-2.69a1,1,0,0,0-.9-1.23,1.36,1.36,0,0,0-1.67.65c.29,0,.47,0,.63,0,.42.08,1.16.09,1.21.28.22.86-.57.54-1,.66a1.29,1.29,0,0,0-1,1.68c.21.84.93.83,1.63.74C190.36,252.48,190.77,252.44,191.07,252.41Z"/><path class="cls-30" d="M168.39,235.3a.73.73,0,0,0,.07-.19h.38l0,.65c.32,2.17.58,4.35,1,6.51.49,2.58,1.11,5.14,1.68,7.71l-.3.25a38.49,38.49,0,0,1-2.43-10.78C168.65,238.06,168.53,236.68,168.39,235.3Z"/><path class="cls-24" d="M173.1,253.72a7.84,7.84,0,0,1-1.73-3.09l.4-.2,1.35,3.26Z"/><path class="cls-24" d="M173.12,253.69l.19.27-.13.07-.08-.31Z"/><path class="cls-30" d="M171.55,250v.6l-.3-.35Z"/><path class="cls-32" d="M168.84,235.1h-.38v-5.47h.11Z"/><path class="cls-30" d="M223.18,180.87l.65-.54Z"/><path class="cls-30" d="M224,180.12l.44-.43Z"/><path class="cls-30" d="M223.82,180.34l.22-.23Z"/><path class="cls-30" d="M224.46,179.69l.22-.22Z"/><path class="cls-24" d="M217.91,226.94l-.9-1a11.13,11.13,0,0,1,1.32-.87c.08,0,.56.43.53.5A11.73,11.73,0,0,1,217.91,226.94Z"/><path class="cls-24" d="M218.67,124.25a1.49,1.49,0,0,0-.21,0c-.57.14-1.28.42-1.41-.45s.67-.8,1.23-.91Z"/><path class="cls-25" d="M130.44,304.3l-1.65,1.39c-.27-.34-.85-.87-.78-1a11.87,11.87,0,0,1,1.4-1.53Z"/><path class="cls-25" d="M247.32,302.54a5.46,5.46,0,0,1-1.25.57c-.2,0-.42-.3-.63-.46a5.35,5.35,0,0,1,1-.76C246.51,301.84,246.8,302.16,247.32,302.54Z"/><path class="cls-43" d="M208.09,158.06c1.09,1.39.8,2.92.31,4.4A6,6,0,1,1,197.34,158c.17-.36.68-.92.87-.86a6.21,6.21,0,0,1,1.6,1c.06,0,0,.34-.08.48a4.22,4.22,0,0,0-.06,3.7c-.65.43-.95,1-.37,1.65s1.19.19,1.67-.34l.92.2c2.41.54,4.32-1,4.4-3.62C207.43,159.92,207.8,159,208.09,158.06Z"/><path class="cls-42" d="M203.91,169c.26-.26.47-.62.77-.76a10.19,10.19,0,0,0,6.07-6.47c.45-1.5.33-1.81-1.38-2.41-.58-1.26-1.15-2.53-1.81-4,1.86.74,3.72,1.45,5.56,2.22.22.09.36.49.44.78,1.3,4.57-2.75,9.64-6.68,10.37A29.24,29.24,0,0,1,203.91,169Z"/><path class="cls-44" d="M208.09,158.06c-.29,1-.66,1.86-1.8,2.1-.44-.22-1.08-.33-1.26-.68a2.43,2.43,0,0,1-.23-1.84,2.16,2.16,0,0,1,1.55-1A1.62,1.62,0,0,1,208.09,158.06Z"/><path class="cls-45" d="M201,163.58c-.48.53-1.05,1-1.67.34s-.28-1.22.37-1.65A1.2,1.2,0,0,1,201,163.58Z"/><path class="cls-33" d="M194.72,156.39l.21,0Z"/><path class="cls-42" d="M197.45,156.1l.2-.09-.11.17Z"/><path class="cls-30" d="M152.78,152.11l-4.36.62a20.2,20.2,0,0,1,12.07-1l.22.07a.34.34,0,0,1,.2,0v.23c-.46,0-.91-.06-1.37-.06l-6.11,0Z"/><path class="cls-33" d="M145.85,152.09l1.67-3.27,2.74,1.24Z"/><path class="cls-40" d="M153.42,152.06l6.11,0c.46,0,.91,0,1.37.06l1.06.23c-.83,0-1.66.16-2.48.15-1.73,0-3.46-.12-5.18-.2A5.39,5.39,0,0,1,153.42,152.06Z"/><path class="cls-28" d="M162,152.33l-1.06-.23v-.23l.79.06.6.26Z"/><path class="cls-32" d="M145.62,146.41l.31.11Z"/><path class="cls-30" d="M211.19,152.52l.42.19c-.25.06-.54.24-.75.17-4-1.23-8-1.08-12.05-.76a.83.83,0,0,1-.53-.1A21.63,21.63,0,0,1,211.19,152.52Z"/><path class="cls-32" d="M211.19,146.74l.31-.11Z"/><path class="cls-36" d="M142.25,188.65l-.61.79c-.14-.25-.4-.5-.38-.73s.26-.54.4-.81Z"/><path class="cls-36" d="M161.33,215.2a3.27,3.27,0,0,1,.77-.8c.13-.07.48.28.73.45l-.09.35h-1.41Z"/><path class="cls-36" d="M155.1,207.29c-.33.21-.51.42-.61.38a2.5,2.5,0,0,1-.6-.44c.13-.12.28-.35.39-.34A3.92,3.92,0,0,1,155.1,207.29Z"/><path class="cls-36" d="M138.09,182.07c-.16.15-.25.3-.32.29a.44.44,0,0,1-.29-.24s.12-.24.2-.25S137.9,182,138.09,182.07Z"/><path class="cls-42" d="M150.14,159.36c-1.09.07-1.65.6-1.42,1.71a7.92,7.92,0,0,0,.56,1.79,8.72,8.72,0,0,0,5.94,5.36c.3.07.51.49.77.74a9.23,9.23,0,0,1-10-6.9,12.69,12.69,0,0,1,0-3.89,1,1,0,0,1,.55-.7c1.77-.73,3.56-1.41,5.34-2.11Z"/><path class="cls-43" d="M159.8,162.27a4.06,4.06,0,0,0,0-3.61.93.93,0,0,1,.19-.85,10.39,10.39,0,0,1,1.52-.86,5.86,5.86,0,0,1-.08,7.09,6.11,6.11,0,0,1-6.71,2,5.9,5.9,0,0,1-3.93-5.55,10,10,0,0,1,.56-2.23c.25,1,.68,1.77,1.84,1.83a3.5,3.5,0,0,0,4.69,3.59,3.19,3.19,0,0,1,.62-.08c.5.45,1.06,1,1.69.29S160.48,162.68,159.8,162.27Z"/><path class="cls-44" d="M153.22,160.1c-1.16-.06-1.59-.86-1.84-1.83a1.92,1.92,0,0,1,2.09-1.65,1.71,1.71,0,0,1,1.46,1.91A1.68,1.68,0,0,1,153.22,160.1Z"/><path class="cls-45" d="M159.8,162.27c.68.41,1,1,.42,1.63s-1.19.16-1.69-.29C158.61,162.84,158.93,162.29,159.8,162.27Z"/><path class="cls-42" d="M161.94,156.18l-.11-.18.24.05Z"/><path class="cls-41" d="M190.65,201.72l.21.42c-1.9.82-3.78,1.73-5.73,2.41a20.8,20.8,0,0,1-3.57.62,20.13,20.13,0,0,1-2.65.38,21.66,21.66,0,0,1-9-2.07c-.61-.27-1.24-.52-1.83-.83-.1-.05-.09-.31-.13-.48l.24-.22,1.44.47c.8.13,1.58.32,2.38.37,2.86.18,5.72.32,8.58.47l-1.37,1.06a7,7,0,0,0,4.29.16l.28-.23c1.15.1.62-.65.59-1.16a4.68,4.68,0,0,0,.83-.09c1.08-.27,2.16-.56,3.24-.85Z"/><path class="cls-31" d="M174.45,192.26a6.78,6.78,0,0,1,4.7,1.14l-.09.3Z"/><path class="cls-31" d="M188.47,202.15c-1.08.29-2.16.58-3.24.85a4.68,4.68,0,0,1-.83.09l-.88.19-1,0-1.93-.06c-2.86-.15-5.72-.29-8.58-.47a23.82,23.82,0,0,1-2.37-.37c0-.14.08-.27.13-.41,4.11.82,8.28.52,12.42.52,2,0,4.06-.25,6.09-.39A.25.25,0,0,0,188.47,202.15Z"/><path class="cls-38" d="M169.79,202c0,.14-.09.27-.13.41l-1.45-.47c0-.14,0-.29,0-.44Z"/><path class="cls-28" d="M160.71,151.84l-.22-.07Z"/><path class="cls-33" d="M191.07,252.41c-.3,0-.71.07-1.11.13-.7.09-1.42.1-1.63-.74a1.29,1.29,0,0,1,1-1.68c.4-.12,1.19.2,1-.66,0-.19-.79-.2-1.21-.28-.16,0-.34,0-.63,0a1.36,1.36,0,0,1,1.67-.65,1,1,0,0,1,.9,1.23C191,250.59,191.07,251.47,191.07,252.41Zm-1.47-.1a8.23,8.23,0,0,0,.8-1.12c0-.07-.4-.5-.48-.46a3,3,0,0,0-.92.69C189,251.47,189.28,251.85,189.6,252.31Z"/><path class="cls-36" d="M180.61,203.26l1.93.06-.85,1,1.84.13a7,7,0,0,1-4.29-.16Z"/><path class="cls-27" d="M183.53,204.48l-1.84-.13.85-1,1,0c.09.33.18.65.28,1Z"/><path class="cls-36" d="M183.81,204.25c-.1-.32-.19-.64-.28-1l.87-.19C184.43,203.6,185,204.35,183.81,204.25Z"/><path class="cls-33" d="M189.6,252.31c-.32-.46-.65-.84-.6-.89a3,3,0,0,1,.92-.69c.08,0,.51.39.48.46A8.23,8.23,0,0,1,189.6,252.31Z"/><path class="cls-24" d="M128.4,147.92a2.89,2.89,0,0,0-2.57,1.63c-.11.17,0,.48,0,.73.24-.07.54-.07.71-.22.33-.27.53-.71.88-.9a1.72,1.72,0,0,1,.86-.06,8.68,8.68,0,0,0,.22-1.11Z"/><path class="cls-31" d="M164.32,220.15a3.06,3.06,0,0,0-.34,1.7,1.54,1.54,0,0,0,.47,1l.34-.34a8.88,8.88,0,0,1,0-1.62Z"/><path class="cls-20" d="M123.07,148.3s-.27,2-.24,2.36.76.72.76.72.38-1.82.38-2.17S123.07,148.3,123.07,148.3Z"/><path class="cls-28" d="M127.27,151.83s-3,5-3.13,6.67,2.06,2,2.06,2l2.7-6.28Z"/><path class="cls-20" d="M135.94,140.67s-.19,1.87-.26,2.18-.74.08-.74.08S135.23,141.12,135.94,140.67Z"/><path class="cls-24" d="M132.57,94.75s-2.86,4.06-3,5,2.4.15,2.4.15a25.66,25.66,0,0,1,1.75-1.94C134.13,97.54,132.57,94.75,132.57,94.75Z"/><path class="cls-37" d="M157.8,171.44a16.94,16.94,0,0,1,4.72,1c1.44.7-.73,4.26-.73,4.26l-4.24-.39Z"/><path class="cls-20" d="M237.09,256.91a23.88,23.88,0,0,1,5.23,2.69c1.53,1.08-.45.46-.45.46s-3.68-2.2-4.88-2.65S237.09,256.91,237.09,256.91Z"/><path class="cls-21" d="M129.15,252.18a27.74,27.74,0,0,1,2.65-1.36c.56-.17,2.39-.63,2.39-.63a27.45,27.45,0,0,1-4.74,2.64C128.14,253.4,129.15,252.18,129.15,252.18Z"/><path class="cls-26" d="M121.32,305.92l1.13,5.42s-3.36-1.13-3.32-1.16.52-3.53.52-3.53Z"/></g></g></g></svg>