<svg xmlns="http://www.w3.org/2000/svg" xmlns:xlink="http://www.w3.org/1999/xlink" viewBox="0 0 360 360"><defs><style>.cls-1,.cls-3,.cls-5{fill:none;}.cls-2{clip-path:url(#clip-path);}.cls-3{stroke:#fff;stroke-width:4px;}.cls-3,.cls-5{stroke-miterlimit:10;}.cls-4{fill:#fff;}.cls-5{stroke:#17479b;stroke-width:3px;}.cls-6{fill:#17479b;}</style><clipPath id="clip-path"><rect class="cls-1" x="-2729.03" y="617.31" width="1920" height="917.5"/></clipPath></defs><title>icon-web</title><g id="icon"><circle class="cls-3" cx="180" cy="180" r="174.5"/><circle class="cls-4" cx="180" cy="180" r="157.48"/><polyline class="cls-5" points="191.76 138.78 232.09 138.78 267.5 194.25 267.5 256.97 170 256.97"/><polyline class="cls-5" points="168.24 138.78 127.91 138.78 92.5 194.25 92.5 256.97 190 256.97"/><line class="cls-5" x1="180.13" y1="99.42" x2="180.13" y2="187.45"/><polyline class="cls-5" points="150.04 158.76 180.13 187.45 210.22 158.76"/><path class="cls-6" d="M212.87,194.25v13.66a15.37,15.37,0,0,1-15.37,15.37H162.64a15.37,15.37,0,0,1-15.37-15.37V194.25H92.5V257h175V194.25Z"/></g></svg>