<svg id="Layer_1" data-name="Layer 1" xmlns="http://www.w3.org/2000/svg" viewBox="0 0 260 260"><defs><style>.cls-1,.cls-2{fill:#fff;stroke:#17479b;stroke-miterlimit:10;}.cls-1{stroke-width:4px;}.cls-3{fill:#17479b;}</style></defs><title>icon-smart-otp</title><circle class="cls-1" cx="130" cy="130" r="120.95"/><circle class="cls-2" cx="130" cy="130" r="109.15"/><g id="ibHUrX"><path class="cls-3" d="M191.22,80.88h5.72a4.86,4.86,0,0,1,5.18,5.1q0,23.07,0,46.15A4.84,4.84,0,0,1,197,137.2H146.22a4.84,4.84,0,0,1-5.08-5.1q0-23.07,0-46.15a4.84,4.84,0,0,1,5.1-5.07H152c0-1.65,0-3.21,0-4.78a22.9,22.9,0,0,1,5.7-16.33c8-9,21.21-8.53,28.67,1A22.4,22.4,0,0,1,191.2,74C191.29,76.27,191.22,78.51,191.22,80.88Zm-6.3,0c0-2.38.2-4.68.09-7a16,16,0,0,0-4.25-10.2,12,12,0,0,0-18-.25,16.26,16.26,0,0,0-4.55,11.46c0,2,.12,4,.19,6Zm-7.63,41.77a2,2,0,0,0,0-.31c-.67-4.16-1.33-8.32-2-12.47a1.06,1.06,0,0,1,.56-1.31,8,8,0,0,0,3.52-9A8,8,0,0,0,164,99.28a8,8,0,0,0,3.14,9,1.18,1.18,0,0,1,.62,1.32c-.35,2.46-.67,4.92-1,7.39-.24,1.84-.48,3.69-.72,5.58Z"/><path class="cls-3" d="M124.16,108.58H118.8V103.5h-4.86v5h-5.37v-5.06c-.37,0-.66,0-.95,0-5.1,0-10.19,0-15.29,0a1,1,0,0,0-1.15.81A17.12,17.12,0,1,1,76.44,81.79C83.52,82.5,88.35,86.34,91,92.9a1,1,0,0,0,1.18.78q15,0,30,0c1.6,0,1.94.33,1.94,1.9v13Zm-57.5-9.76A7.38,7.38,0,1,0,74,91.44,7.36,7.36,0,0,0,66.66,98.82Z"/><path class="cls-3" d="M130,149h70.89c5.93,0,10,4.06,10,10v19.2a9.52,9.52,0,0,1-9.67,9.7H58.7a9.42,9.42,0,0,1-9.51-9.19c-.11-6.83-.1-13.65,0-20.48A9.43,9.43,0,0,1,58.74,149Zm0,36.86h70.9a7.54,7.54,0,0,0,7.93-8V159a7.56,7.56,0,0,0-7.93-8H59.07a7.53,7.53,0,0,0-7.88,7.82q0,9.6,0,19.2a8.73,8.73,0,0,0,.1,1.54,7.54,7.54,0,0,0,7.77,6.28Z"/><path class="cls-3" d="M99.7,168.59l-5.41-3.13-.71-.41c-.56-.34-.86-.81-.52-1.44s1-.68,1.56-.32l5.6,3.22c.12.07.26.13.55.27v-1.23c0-1.91,0-3.83,0-5.74,0-.7.24-1.24,1-1.27s1.07.55,1.06,1.29c0,2,0,3.94,0,5.91,0,.3,0,.59,0,1l1.26-.68c1.52-.88,3-1.77,4.57-2.64.89-.52,1.48-.48,1.82.11s.11,1.13-.77,1.64l-5.87,3.4,2.27,1.33,3.86,2.23c.61.35.89.87.49,1.51s-.94.59-1.51.26c-2-1.14-4-2.29-6.17-3.55v1.27c0,1.88,0,3.76,0,5.64,0,1-.35,1.43-1,1.38-.84-.07-1-.65-1-1.36,0-2.24,0-4.48,0-6.85-.32.15-.55.25-.78.38l-4.88,2.81c-1.1.63-1.7.62-2,0s-.07-1.11,1-1.72l4.8-2.78C99.11,169,99.35,168.81,99.7,168.59Z"/><path class="cls-3" d="M187.64,166.84l4.65-2.68,1.58-.91a1,1,0,0,1,1.49.34,1,1,0,0,1-.5,1.45l-5.27,3.05c-.26.15-.5.31-.87.54l5.59,3.23c1.12.65,1.41,1.13,1.06,1.77s-1,.65-2.06,0l-5.67-3.27v7c0,.68-.19,1.25-1,1.26s-1.06-.55-1.06-1.28v-7l-2.21,1.26c-1.32.75-2.63,1.52-3.95,2.26-.61.35-1.19.33-1.55-.34s0-1.11.55-1.43l5.27-3c.26-.15.5-.31.83-.52L179,165.4l-.55-.32c-.6-.35-.94-.83-.56-1.5s1-.63,1.57-.28l5.12,3c.28.16.57.3,1,.53v-7.1c0-.68.34-1.14,1-1.15s1,.46,1,1.14v7.16Z"/><path class="cls-3" d="M70.66,166.78v-5.94c0-.37,0-.73,0-1.1,0-.72.3-1.21,1-1.19s1,.49,1,1.17c0,1,0,2,0,3v4a7.93,7.93,0,0,0,.77-.38l5.21-3c.81-.47,1.43-.41,1.72.2.38.79-.09,1.23-.73,1.59l-5.94,3.42,5.37,3.12c.28.16.58.32.86.49a1,1,0,1,1-1,1.76c-.85-.47-1.68-1-2.52-1.45l-3.7-2.13v7.09c0,.71-.3,1.2-1.06,1.18s-1-.51-1-1.17c0-2.3,0-4.6,0-7-.31.14-.52.21-.71.32l-5.21,3c-.88.51-1.53.46-1.81-.16-.35-.79.1-1.23.75-1.59q2.53-1.44,5-2.91c.25-.14.49-.31.84-.53l-5.45-3.16-.71-.41a1,1,0,1,1,1-1.75l5.28,3C70,166.45,70.26,166.57,70.66,166.78Z"/><path class="cls-3" d="M132.13,168.61l5.49,3.17c.27.15.53.3.78.47a1,1,0,0,1,.39,1.4,1,1,0,0,1-1.43.33c-1.27-.7-2.52-1.45-3.78-2.17l-2.48-1.41v6.33c0,.3,0,.6,0,.91a1,1,0,0,1-1,1,1,1,0,0,1-1-1.06c0-2,0-4.06,0-6.1v-1.13l-5.66,3.25c-1.11.64-1.7.65-2.06,0s-.08-1.14,1-1.78l5.63-3.26-5.2-3c-.34-.2-.69-.39-1-.6a1,1,0,1,1,1-1.76l5.2,3c.28.17.58.31,1,.53,0-.43,0-.75,0-1.06,0-1.92,0-3.83,0-5.74,0-.73.11-1.37,1-1.43.67,0,1,.47,1,1.4,0,1.95,0,3.89,0,5.83v1.06l3.82-2.2c.71-.41,1.43-.81,2.13-1.23s1.24-.58,1.74.17c.38.57.13,1.12-.69,1.59Z"/><path class="cls-3" d="M157.34,166.8v-6.53c0-.21,0-.43,0-.64a1,1,0,1,1,2,0v7.16l.87-.46c1.73-1,3.47-2,5.19-3,.63-.37,1.26-.47,1.65.24s0,1.19-.63,1.55l-6,3.48,4.17,2.41c.66.38,1.32.75,2,1.14s.88.88.49,1.52-.95.57-1.51.25l-5.59-3.22c-.15-.09-.32-.14-.58-.26v6.26c0,.31,0,.61,0,.91,0,.65-.35,1-1,1a.93.93,0,0,1-1-1q0-3,0-6.1v-1.14l-3.88,2.24c-.76.44-1.52.88-2.29,1.31-.57.32-1.14.35-1.51-.26s-.12-1.16.5-1.51l5.59-3.23c.14-.09.27-.21.47-.36-2-1.18-4-2.28-5.94-3.47a1.76,1.76,0,0,1-.73-1.19c0-.77.84-1.06,1.66-.6,1.74,1,3.47,2,5.2,3C156.66,166.45,156.93,166.58,157.34,166.8Z"/></g></svg>