<svg xmlns="http://www.w3.org/2000/svg" xmlns:xlink="http://www.w3.org/1999/xlink" viewBox="0 0 16 16"><defs><style>.cls-1{fill:none;}.cls-2{clip-path:url(#clip-path);}.cls-3{fill:#fff;}</style><clipPath id="clip-path"><rect class="cls-1" x="-1128.06" y="-1359.53" width="1920" height="1292.29"/></clipPath></defs><title>icon-www</title><g id="icon"><g class="cls-2"><image width="2044" height="2060" transform="translate(-1128.06 -1531.75) scale(0.94 0.9)" xlink:href="../../../Downloads/LVB%20tower%202019.JPG"/></g><polygon class="cls-3" points="2.93 7.48 3.51 9.65 4.37 9.65 5.46 6.28 4.57 6.28 3.93 8.49 3.36 6.28 2.5 6.28 1.92 8.49 1.28 6.28 0.42 6.28 1.49 9.65 2.35 9.65 2.93 7.48"/><polygon class="cls-3" points="8.43 6.28 7.57 6.28 6.98 8.49 6.35 6.28 5.48 6.28 6.55 9.65 7.42 9.65 7.99 7.48 8.58 9.65 9.43 9.65 10.52 6.28 9.64 6.28 8.99 8.49 8.43 6.28"/><polygon class="cls-3" points="14.7 6.28 14.05 8.49 13.49 6.28 12.63 6.28 12.04 8.49 11.41 6.28 10.54 6.28 11.61 9.65 12.48 9.65 13.05 7.48 13.64 9.65 14.5 9.65 15.58 6.28 14.7 6.28"/><path class="cls-3" d="M8,1.5A6.49,6.49,0,0,0,2.11,5.26H13.89A6.49,6.49,0,0,0,8,1.5Z"/><path class="cls-3" d="M8,14.5a6.49,6.49,0,0,0,5.89-3.76H2.11A6.49,6.49,0,0,0,8,14.5Z"/></g></svg>