<svg id="Layer_1" data-name="Layer 1" xmlns="http://www.w3.org/2000/svg" viewBox="0 0 30 30"><defs><style>.cls-1{fill:#fff;}.cls-2{fill:none;stroke:#fff;stroke-miterlimit:10;stroke-width:0.36px;}.cls-3{fill:#17479b;}</style></defs><title>icon-bullet-champa-35</title><path class="cls-1" d="M25.35,6.83l-.06-.29-.08,0A6.89,6.89,0,0,0,20,6.58a6.1,6.1,0,0,0-1.75,1.11c-1.56,1.62-2,4.48-1.91,6.75a11.62,11.62,0,0,1,1.85-.52,8.57,8.57,0,0,1,4.12,0,12,12,0,0,0,1.53-1.29A7,7,0,0,0,25.35,6.83Z"/><path class="cls-1" d="M26.46,21a6.86,6.86,0,0,0-3.28-6.27A8.2,8.2,0,0,0,18,14.46a12.77,12.77,0,0,0-1.87.57A13.57,13.57,0,0,1,17.41,17a8.26,8.26,0,0,1,1.08,3.61,12.54,12.54,0,0,0,1.7,1.05,7,7,0,0,0,6-.34l.25-.14Z"/><path class="cls-1" d="M18,21.65a7.11,7.11,0,0,0-.76-3.93,12,12,0,0,0-1.65-2.64A12.26,12.26,0,0,1,12.84,18,6.65,6.65,0,0,1,11,19a10.71,10.71,0,0,0-.47,2,7.47,7.47,0,0,0,.67,3.57,6.57,6.57,0,0,0,1.49,2,1.89,1.89,0,0,0,.2.2l.08,0a6.52,6.52,0,0,0,2.25-1A6.63,6.63,0,0,0,18,21.65Z"/><path class="cls-1" d="M17.15,8.27a10.76,10.76,0,0,0-.76-1.84,7.55,7.55,0,0,0-.51-.71,6.72,6.72,0,0,0-4.53-2.55l-.27,0L11,3.19a6.82,6.82,0,0,0-1,7,8.07,8.07,0,0,0,4,3.28,15,15,0,0,0,1.85.63A10.38,10.38,0,0,1,17.15,8.27Z"/><path class="cls-1" d="M13.83,14a9.25,9.25,0,0,1-3.63-2.58,10.68,10.68,0,0,0-2,.15,7,7,0,0,0-4.67,3.78c0,.09-.08.18-.11.27l0,.07a6.84,6.84,0,0,0,6.34,3.16,6.91,6.91,0,0,0,3.24-1.69,12.79,12.79,0,0,0,2.28-2.64C15,14.4,14.43,14.23,13.83,14Z"/><path class="cls-2" d="M27,5.61c0-.1-.05-.21-.07-.32l-.1,0a8,8,0,0,0-6.06.08,7.27,7.27,0,0,0-2,1.28C17,8.49,16.42,11.8,16.58,14.43a13.15,13.15,0,0,1,2.13-.61,10.16,10.16,0,0,1,4.78,0,13.49,13.49,0,0,0,1.76-1.49A8.05,8.05,0,0,0,27,5.61Z"/><path class="cls-2" d="M28.32,22.06a7.91,7.91,0,0,0-3.8-7.25,9.33,9.33,0,0,0-6-.36,14.9,14.9,0,0,0-2.17.66,14.74,14.74,0,0,1,1.45,2.22,9.44,9.44,0,0,1,1.26,4.18,14.64,14.64,0,0,0,2,1.21,8.13,8.13,0,0,0,7-.38c.08-.07.2-.11.28-.17Z"/><path class="cls-2" d="M18.5,22.77a8.23,8.23,0,0,0-.88-4.54,14.24,14.24,0,0,0-1.91-3.07,14.38,14.38,0,0,1-3.15,3.37,8.41,8.41,0,0,1-2.1,1.17,12.84,12.84,0,0,0-.54,2.24,8.72,8.72,0,0,0,.77,4.15,7.68,7.68,0,0,0,1.73,2.34,1.75,1.75,0,0,0,.24.23l.09,0a7.57,7.57,0,0,0,2.59-1.2A7.69,7.69,0,0,0,18.5,22.77Z"/><path class="cls-2" d="M17.55,7.29a12.46,12.46,0,0,0-.88-2.14,10.08,10.08,0,0,0-.59-.82,7.81,7.81,0,0,0-5.24-2.95,1.75,1.75,0,0,0-.32,0l-.07.06a7.93,7.93,0,0,0-1.2,8.13,9.31,9.31,0,0,0,4.6,3.79,18,18,0,0,0,2.13.74A12,12,0,0,1,17.55,7.29Z"/><path class="cls-2" d="M13.71,13.91a10.63,10.63,0,0,1-4.2-3,12.94,12.94,0,0,0-2.3.17,8.12,8.12,0,0,0-5.42,4.37,2.22,2.22,0,0,1-.13.31l.05.09a7.93,7.93,0,0,0,7.34,3.66,8.18,8.18,0,0,0,3.75-1.95,15.06,15.06,0,0,0,2.64-3.06C15,14.38,14.4,14.18,13.71,13.91Z"/><circle class="cls-3" cx="15.96" cy="14.67" r="1.12"/></svg>