<svg xmlns="http://www.w3.org/2000/svg" xmlns:xlink="http://www.w3.org/1999/xlink" viewBox="0 0 352.77 352.77"><defs><style>.cls-1,.cls-3{fill:none;}.cls-2{fill:#fff;stroke-width:3px;}.cls-2,.cls-3{stroke:#17479b;stroke-miterlimit:10;}.cls-3{stroke-width:2px;}.cls-4{fill:#00a8e2;}.cls-5{clip-path:url(#clip-path);}.cls-6{fill:#32201c;}.cls-7{fill:#5b3f39;}.cls-8{fill:#4a2724;}.cls-9{fill:#221514;}.cls-10{fill:#7d5041;}.cls-11{fill:#fdeace;}.cls-12{fill:#c8b08b;}.cls-13{fill:#f9e7cc;}.cls-14{fill:#6d3f37;}.cls-15{fill:#a87a6c;}.cls-16{fill:#4a2623;}.cls-17{fill:#3a160f;}.cls-18{fill:#653426;}.cls-19{fill:#fdbb97;}.cls-20{fill:#ffd6ac;}.cls-21{fill:#b24c52;}.cls-22{fill:#f77d5f;}.cls-23{fill:#f5cb9f;}.cls-24{fill:#da2f59;}.cls-25{fill:#d4edf2;}.cls-26{fill:#ce836c;}.cls-27{fill:#f63364;}.cls-28{fill:#a5dbe2;}.cls-29{fill:#fea796;}.cls-30{fill:#f27e62;}.cls-31{fill:#45904e;}.cls-32{fill:#f1f1f1;}.cls-33{fill:#e7e8ed;}</style><clipPath id="clip-path"><circle class="cls-1" cx="176.39" cy="176.95" r="150"/></clipPath></defs><title>icon-individual-women</title><g id="Layer_2" data-name="Layer 2"><g id="icon"><circle class="cls-2" cx="176.39" cy="176.39" r="174.89"/><circle class="cls-3" cx="176.39" cy="176.39" r="150"/><circle class="cls-4" cx="176.39" cy="176.95" r="150"/><g class="cls-5"><path class="cls-6" d="M261.64,328.26l-43,.19,0-.6,1.05-.09H236a3.28,3.28,0,0,0,.43,0h23.75a4.88,4.88,0,0,0,.72-.09c0-.27.06-.48.07-.69a153.49,153.49,0,0,0-.86-28.19c-1.16-8.67-3.22-17.09-7.26-24.92-3.15-6.11-7.25-11.42-13.2-15.11-.1-.06-.16-.2-.25-.31l1.54.34a.15.15,0,0,0,.09.06l.49.32C249.32,265,253.84,273,256.92,282a95.65,95.65,0,0,1,4.5,23.65,8,8,0,0,0,.22,1Z"/><path class="cls-6" d="M103.31,328.47H98.94c-2.43,0-4.86,0-7.29,0a5.16,5.16,0,0,1-1.39-.42V310.72a6.78,6.78,0,0,0,.22-1.07,118.26,118.26,0,0,1,3.88-25.85c1.82-6.45,4.36-12.58,8.53-17.92.26-.34.56-.64.84-1l.28.52-4.61,7.18-.43.86-.15.38,0,.05c-.12.21-.27.41-.37.63a75.31,75.31,0,0,0-5.8,20.38A168.38,168.38,0,0,0,91,326.57c0,.39,0,.77.08,1.3h12.22Z"/><path class="cls-7" d="M155.34,76.85c0-.12.07-.3.15-.34,3.71-1.76,7.45-3.41,11.58-4,.07,0,.14-.12.21-.19h3.85c.56.17,1.11.35,1.67.5a8.58,8.58,0,0,1,4.44,2.93c.45-.39.84-.78,1.28-1.12a10.05,10.05,0,0,1,6.72-1.94,26.83,26.83,0,0,1,11.22,3,6.57,6.57,0,0,1-1.44.2c-.91-.08-1.82-.26-2.73-.4.06-.23.12-.46.17-.69l-1.07-.33a18.42,18.42,0,0,0-7.09-1.06c-1.14.1-2.36,0-3.32.85l-3.85,2.31-1.28-.82a4.77,4.77,0,0,0-.78-1.06c-2.44-1.8-5.27-1.72-8-1.4-1.36.16-2.92.12-4,1.31-.08.08-.43-.08-.65-.13l0-.09,0,.09a10.32,10.32,0,0,0-1.13.26Z"/><path class="cls-7" d="M102.58,176.83l.14-.46c.41-1.08.81-2.16,1.22-3.23,3.64-8.42,7.4-16.79,10.87-25.28,1-2.42,1.23-5.17,1.66-7.79,1.33-8.11,2.51-16.25,3.9-24.36a77.37,77.37,0,0,1,4.12-15.13c.84-2.13,1.78-4.21,3.82-5.52a2.47,2.47,0,0,1,.46-.23h0c-.15.37-.19.92-.47,1.1a6.18,6.18,0,0,0-2.4,3.18c-1.2,3.26-2.45,6.53-3.32,9.88-1.06,4.08-1.75,8.25-2.6,12.38-.36,2.25-.73,4.5-1.08,6.76-.53,3.52-1.12,7-1.53,10.56-.11,1-.71,2.05.09,3l.19.83c-.5,1.24-1.08,2.46-1.49,3.73a114.78,114.78,0,0,1-5.26,13.15c-1.27,2.75-2.58,5.48-3.85,8.22a14,14,0,0,0-.53,1.58c-.32.66-.71,1.29-1,2-1.31,3.57-2.7,7.11-3.85,10.73a16.4,16.4,0,0,0-.61,8.92,22.83,22.83,0,0,0,6.12,10.71c2.48,2.53,5.1,4.94,7.76,7.28,2,1.8,4.24,3.42,6.45,5.17l.11-.55.39.12h0l.22.22h0l.25.22a46,46,0,0,1,4.29,5.42,20.18,20.18,0,0,1,2.69,10.7,48.07,48.07,0,0,1-.67,6.76,7,7,0,0,1-2.54,4.4c-3,2.47-6.63,2.63-10.3,2.32-1.49-.12-3-.31-4.52-.48l.75,1.37a8.35,8.35,0,0,0,.83,1.46c.68.8,1.45,1.52,2.18,2.27-.11.22-.34.59-.29.64.44.37.66,1.17,1.59.93l-1.11-1.54,2.36,1.47-.7.87c.35.16.67.2.82.39,1.14,1.37,2.78,1.56,4.35,1.71a10.1,10.1,0,0,0,6.21-1.25l.63.61-2.13.9a11.89,11.89,0,0,1-10.8-2.11,22,22,0,0,1-5.27-6.4c-.47-.82-.91-1.66-1.43-2.61,1.62.33,3.07.67,4.53.9a20.75,20.75,0,0,0,8-.1c3.71-.87,6-3.2,6.32-7a48.55,48.55,0,0,0,.25-8.52c-.43-5.43-3.29-9.49-7.57-12.83-4.45-3.47-8.69-7.24-12.92-11a28,28,0,0,1-3.72-4.39c-4-5.36-5.15-11.24-3-17.67.33-1,.6-2,.9-3.07Z"/><path class="cls-6" d="M106.09,262.45a23.86,23.86,0,0,1,10.74-6.3c3.19-.87,6.43-1.58,9.64-2.37a1.44,1.44,0,0,0,.37-.19c2.17-.49,4.33-1,6.48-1.51.25-.07.4-.55.59-.84a2.29,2.29,0,0,0,2.37-.07,3,3,0,0,1,.91-.27c2-.45,4.07-.88,6.1-1.34s3.89-1.05,5.87-1.3c.7-.08,1.52.67,2.28,1.06,0,0,0,.13,0,.2l-.75.9a13.15,13.15,0,0,0-1.06-1.17,1.12,1.12,0,0,0-.81-.32c-.86.16-1.7.43-2.63.67a4.59,4.59,0,0,0,.28.52A52.91,52.91,0,0,0,161.64,265a27.19,27.19,0,0,0,13.54,4.46c6.07.22,11.37-1.92,16.19-5.43a55.8,55.8,0,0,0,12.82-13.77,1.28,1.28,0,0,0,.11-.4c-1.82-.31-3.57-.63-5.33-.89a3.54,3.54,0,0,0-1.08.2V248a6.7,6.7,0,0,1,2.39.35c2.06.79,4.35.49,6.51,1.1,2.6.73,5.32,1,8,1.46,1,.18,2,.5,2.94.73q5.1,1.18,10.21,2.34c1.06.24,2.14.78,3.13-.19-.18.77.12,1.14.9,1.32a24.75,24.75,0,0,1,2.51.86v.43a2,2,0,0,1-.42,0c-9.1-2.85-18.46-4.55-27.82-6.25a1.48,1.48,0,0,0-1.74.74,54.71,54.71,0,0,1-13,13.79c-9.18,6.53-18.74,7.21-28.63,1.73-6.93-3.85-12.3-9.41-16.83-15.83a1.23,1.23,0,0,0-1.56-.58c-6.7,1.67-13.42,3.3-20.13,5-2.94.72-5.9,1.38-8.79,2.27a25.14,25.14,0,0,0-9,5.46Z"/><path class="cls-7" d="M148.45,80.27h.65l.22.44c-1.61,1-3.26,1.93-4.81,3-3.56,2.49-7.06,5-10.57,7.59a15.57,15.57,0,0,0-1.46,1.36l-.29.23h0l-.22.23h0c-.44.27-1,.44-1.29.84a1.8,1.8,0,0,1-1.92.88h0c1.25-1.09,2.44-2.26,3.77-3.24,4.78-3.51,9.62-7,14.43-10.42l1.07-.65Z"/><path class="cls-8" d="M133.91,251.24c-.19.29-.34.77-.59.84-2.15.55-4.31,1-6.48,1.51V253l2.13-.9.68-.37,1.52-.84.39-.18.23-.29v0l.29-.08.37-.22.52-.45h0l.82-.33.15.84v1.07Z"/><path class="cls-6" d="M104.33,264.22l1.76-1.77.51.22-2.16,2.25Z"/><path class="cls-7" d="M104.33,264.22l.11.7-.43.52-.28-.52Z"/><path class="cls-7" d="M234.46,118.58c.58,3.25,1.24,6.5,1.72,9.77.66,4.55,1.18,9.12,1.79,13.67s2.37,8.71,4.16,12.87c3.18,7.36,6.45,14.67,9.57,22.05a30.19,30.19,0,0,1,2.42,9.71c.36,5.23-1.84,9.56-5,13.52-3.69,4.69-8.33,8.37-13,12.05-1.26,1-2.48,2-3.76,3a16.52,16.52,0,0,0-6.64,13,43,43,0,0,0,.44,8.09c.52,3.73,3.32,6.06,7.5,6.6a26,26,0,0,0,9.85-.77l1.35-.32a27.33,27.33,0,0,1-6.2,8.75c-1.65,1-3.15,2.28-5.16,2.54a3.52,3.52,0,0,1,.73-.8c1.32-.74,2.67-1.44,4.07-2.18l-.48-.64,1.29-1.44h0l.65-.22h0l.22-.22h0l.23-.28a7.51,7.51,0,0,1,.87-1,7.94,7.94,0,0,0,2.39-3.53l-2.41.74a5.24,5.24,0,0,0-.87-.09,13.51,13.51,0,0,1-2.42.28c-2.79-.22-5.69,0-8.25-1.5a7.31,7.31,0,0,1-2.88-2.8,12.22,12.22,0,0,1-1.36-4.86,49.24,49.24,0,0,1-.32-6.41,32.22,32.22,0,0,1,1-5.73,14.28,14.28,0,0,1,1.17-2.63l.91-1.51h0l.84-1,1.5-1.77.27.34.07-.07-.34-.27,1.07-1.51-.15,1.26c.21-.06.33-.06.4-.12,2.85-2.36,5.73-4.7,8.55-7.12,1.87-1.6,3.67-3.28,5.44-5a5.47,5.47,0,0,0,.8-1.45l.62-.39a5.34,5.34,0,0,0,1.3-1c1.22-1.9,2.38-3.84,3.54-5.78a13.59,13.59,0,0,0,1.54-6.21c.24-3.28-.79-6.35-1.81-9.38-.83-2.47-1.89-4.85-2.9-7.25-.81-1.91-1.7-3.78-2.55-5.67l-1.5-3.35-.22-.5h0a5.47,5.47,0,0,0-.32-1.22c-.71-1.42-1.48-2.81-2.22-4.22q-1.42-2.73-2.83-5.46c.89,0,.53-.51.41-.91q-.78-2.37-1.58-4.72l-2-5.94h.27c.3.64.6,1.28,1,2.22-.12-1.34-.17-2.36-.31-3.37-.31-2.34-.66-4.68-1-7l-.63-4.25c-.28-1.51-.56-3-.83-4.51-.08-1.1-.17-2.19-.21-3.28A2.74,2.74,0,0,1,234.46,118.58Z"/><path class="cls-7" d="M202.79,78.85c2.92,1.76,6,3.35,8.72,5.33,5.19,3.74,10.23,7.69,15.29,11.61a6.6,6.6,0,0,1,1.72,2.13c2.37,4.44,3.51,9.3,4.64,14.15.44,1.86.75,3.76,1.11,5.64a4.19,4.19,0,0,1-.62-1c-.41-1.23-.75-2.48-1.11-3.72-.28-1.43-.5-2.87-.86-4.27-1-4-2.13-8-4.28-11.56L222,92.87l-.15-.17-.26-.23h-.42l-.22-.22c-1.15-1-2.24-2-3.44-2.9-2.42-1.79-4.85-3.57-7.34-5.25-2.2-1.48-4.5-2.81-6.76-4.21l-.22-.27h0Z"/><path class="cls-6" d="M232.54,113c.36,1.24.7,2.49,1.11,3.72a4.19,4.19,0,0,0,.62,1l.19.87a2.74,2.74,0,0,0-.17.77c0,1.09.13,2.18.21,3.28-.95-2.87-1.69-5.82-2.89-8.57-2.11-4.83-4.5-9.55-6.77-14.31-.21-.49-.4-1-.63-1.45-.66-1.37-1.35-2.73-2-4.09l.31,0,1.81,2.58,2.17,3a5.9,5.9,0,0,0,.36,1.1c.56,1.11,1.21,2.18,1.73,3.31C229.92,107.12,231.22,110.08,232.54,113Z"/><path class="cls-6" d="M202.79,78.85l.44.79c-.41-.1-.82-.18-1.22-.32-2-.67-3.92-1.49-5.93-2A25.57,25.57,0,0,0,185,77.1a42.14,42.14,0,0,0-4.26,1.21l-.93.12,0-.15,1.21-.77,6.17-1.78.66-.17,3.43-.19h.19l.85.14c.91.14,1.82.32,2.73.4a6.57,6.57,0,0,0,1.44-.2l1.83.8.55.27Z"/><path class="cls-7" d="M198.84,76.79l-.55-.27Z"/><path class="cls-6" d="M215.43,328.45l-.86-.16a5.44,5.44,0,0,0-1.09-.23H161.75a6.2,6.2,0,0,0-1.11.21h-4.26c0-.14,0-.27,0-.41,1.59,0,3.19-.06,4.78-.06h53c.42,0,.85.06,1.27.1Z"/><path class="cls-9" d="M103.31,328.47v-.6h12.62l.22.31.21-.31.41-.09,7.5.1v.6Z"/><path class="cls-9" d="M156.37,327.87c0,.14,0,.27,0,.41H128.55c0-.13,0-.27,0-.41,4.9,0,9.8,0,14.7,0C147.63,327.83,152,327.86,156.37,327.87Z"/><path class="cls-9" d="M160.64,328.27a6.2,6.2,0,0,1,1.11-.21h51.73a5.44,5.44,0,0,1,1.09.23H160.64Z"/><path class="cls-10" d="M215.43,328.45c0-.17,0-.35,0-.53l3.21-.07,0,.6Z"/><path class="cls-6" d="M124.28,328.48v-.6h1.93v.6Z"/><path class="cls-9" d="M126.2,328.48v-.6l1.75-.12v.06l0,0-.21.42Z"/><path class="cls-6" d="M127.7,328.27l.21-.42.65,0c0,.14,0,.28,0,.41Z"/><path class="cls-11" d="M128.56,327.87l-.65,0,0,0v-.06c-.23-.59-.43-1.2-.71-1.76a70.14,70.14,0,0,1-5.75-14.85,2.55,2.55,0,0,0,.7-.27,9.39,9.39,0,0,0,2.64-2.19c.44-.76.66-.77,1.26-.39a3.34,3.34,0,0,1,2.35-2.34c1.05-.3,2.35-1.1,2.43-2.38.55-.23,1.17-.31,1.37-.64s-.21-.85-.42-1.24c-.45-.86-1.53-1.42-1.24-2.64,1.46,0,1.62,1.38,2.4,2.07.41.36.68.82,1.19.39a1,1,0,0,0,.18-1.54c-.64-.79-1.16-1.68-1.72-2.53l.15-.31c.33.1.76.09,1,.31a17.06,17.06,0,0,1,1.48,1.8c.36.49.75.77,1.34.35a.81.81,0,0,0,.16-1.35c-.38-.47-.75-1-1.22-1.57a3.45,3.45,0,0,1,1-.24,2.1,2.1,0,0,1,1.6,2.53c-.05.3,0,.82.2.91a1.22,1.22,0,0,0,1.09,0,1.43,1.43,0,0,0,.48-1.1,13.15,13.15,0,0,0-.42-2.8,39.3,39.3,0,0,0-1.33-3.92,1,1,0,0,0-.8-.49c-.25.05-.47.46-.6.76a2.28,2.28,0,0,0,0,.74c0,.36,0,.71-.07,1.07a7,7,0,0,0-1.19-.19c-.48,0-1.23-.09-1.38.16-.74,1.21-2.74,1-3,2.7,0,.1-.37.16-.57.22a4.79,4.79,0,0,0-2.52,2.79,8.94,8.94,0,0,0-2.58,1.11,9.44,9.44,0,0,0-1.46,2.28,21.3,21.3,0,0,0-1.64-1.8,1.18,1.18,0,0,0-1.12-.15,1.34,1.34,0,0,0-.24,1.13c.07.34.46.6.68.92s.37.68.59,1.09l-2.18.34c-.23-2.26-.49-4.52-.67-6.78-.13-1.66-.1-3.34-.25-5a8.15,8.15,0,0,0-.7-1.91c-.39.53-1,1-1.15,1.6-.6,2.33-1.14,4.69-1.54,7.06a72.5,72.5,0,0,0-.91,15.92,55.51,55.51,0,0,0,2,12.16l-.41.09H91.09c0-.53-.06-.91-.08-1.3a168.38,168.38,0,0,1,1.6-31.65,75.31,75.31,0,0,1,5.8-20.38c.1-.22.25-.42.37-.63l1.14.42-1.14,2.15c1.06,2.38,3.09,1.39,4.87,1.39a17.32,17.32,0,0,1-.46-3,2,2,0,0,0-1.4-2.2,3.77,3.77,0,0,0-2.39-.08l4.61-7.18.43-.52,2.16-2.25a25.14,25.14,0,0,1,9-5.46c2.89-.89,5.85-1.55,8.79-2.27,6.71-1.66,13.43-3.29,20.13-5a1.23,1.23,0,0,1,1.56.58c4.53,6.42,9.9,12,16.83,15.83,9.89,5.48,19.45,4.8,28.63-1.73a54.71,54.71,0,0,0,13-13.79,1.48,1.48,0,0,1,1.74-.74c9.36,1.7,18.72,3.4,27.82,6.25a2,2,0,0,0,.42,0c.65.22,1.31.28,2,.5a11.11,11.11,0,0,0,3,1.59c.09.11.15.25.25.31,6,3.69,10.05,9,13.2,15.11,4,7.83,6.1,16.25,7.26,24.92A153.49,153.49,0,0,1,261,327c0,.21,0,.42-.07.69a4.88,4.88,0,0,1-.72.09H236.41a3.28,3.28,0,0,1-.43,0c-.07-2-.09-4-.25-6a7.29,7.29,0,0,0-1.82-4.78,1.23,1.23,0,0,1-.39-1.29,73.52,73.52,0,0,0,1.78-17.87c-.05-1-.24-2-.36-3-1.42,3.3-2.62,6.56-3.85,9.82a126.28,126.28,0,0,1-7.52,16.49c-1.24,2.23-2.59,4.41-3.89,6.61l-1.05.09-3.21.07c-.42,0-.85-.1-1.27-.1h-53c-1.59,0-3.19,0-4.78.06-4.37,0-8.74,0-13.11,0C138.36,327.83,133.46,327.86,128.56,327.87ZM242,301.1a19.84,19.84,0,0,0,0,2.56c0,.31.5.8.79.81,1.6.08,3.2,0,4.8,0,.76,0,1-.36,1-1.13,0-1.49-.06-3,0-4.48,0-1-.39-1.25-1.27-1.23-1.47,0-3,0-4.43,0-.62,0-1,.27-1,1S242,300.29,242,301.1ZM112.3,289.24l-.85-9.72A20.94,20.94,0,0,0,112.3,289.24Z"/><path class="cls-12" d="M219.68,327.76c1.3-2.2,2.65-4.38,3.89-6.61a126.28,126.28,0,0,0,7.52-16.49c1.23-3.26,2.43-6.52,3.85-9.82.12,1,.31,2,.36,3a73.52,73.52,0,0,1-1.78,17.87,1.23,1.23,0,0,0,.39,1.29,7.29,7.29,0,0,1,1.82,4.78c.16,2,.18,4,.25,6Z"/><path class="cls-13" d="M99.4,272.62a3.77,3.77,0,0,1,2.39.08,2,2,0,0,1,1.4,2.2,17.32,17.32,0,0,0,.46,3c-1.78,0-3.81,1-4.87-1.39l1.14-2.15-1.14-.42,0-.05.34-.15-.19-.23Z"/><path class="cls-11" d="M99,273.48l.19.23-.34.15Z"/><path class="cls-10" d="M132.48,92.67a15.57,15.57,0,0,1,1.46-1.36c3.51-2.55,7-5.1,10.57-7.59,1.55-1.09,3.2-2,4.81-3a1.67,1.67,0,0,0,2.13.24,16.14,16.14,0,0,0,2-2l-.53-1.08.59-.27.65.51c.48.38.79.21.91-.34a3.75,3.75,0,0,0,0-.75l.26-.2,5.89-2.09a10.32,10.32,0,0,1,1.13-.26h0c.22,0,.57.21.65.13,1.1-1.19,2.66-1.15,4-1.31,2.77-.32,5.6-.4,8,1.4a4.77,4.77,0,0,1,.78,1.06c0,.87,0,1.75,0,2.62a2.2,2.2,0,0,1-2.6,2,12.17,12.17,0,0,0-2.91-.51A28.74,28.74,0,0,0,159.4,82.3c-1.22.47-2.4,1-3.6,1.55a32.88,32.88,0,0,1,8.09,2.76c2.49,1.24,5,2.51,7.46,3.76-.21.31-.28.36-.34.35a4.91,4.91,0,0,1-.51-.15c-4.3-1.31-8.62-2.18-13.17-1.34a22.83,22.83,0,0,0-10.08,4.22,93,93,0,0,0-7.71,7,11.3,11.3,0,0,0-2.75,3.56,54.14,54.14,0,0,0-2.67,11.12c-.7,4-1.35,8-2.06,12-.34,2-.72,3.9-1.16,5.83q-1.18,5.22-2.47,10.42c-.32,1.34-.76,2.64-1.15,4a2.9,2.9,0,0,0-2.57,1.63c-.1.17,0,.48.05.73a2,2,0,0,0,.72-.22c.32-.27.52-.71.87-.9s.68-.05,1-.05a6.82,6.82,0,0,1-.31.9c-.36.7-.75,1.39-1.13,2.08l-.65.92L123,149.8l-.21-.54.24-1.37c1.45-8.17,2.8-16.35,3.44-24.64l.81-.94a44.88,44.88,0,0,0,0,4.94,39,39,0,0,0,1,4.5l.36-.05c.08-8.12,2.45-15.78,4.49-23.55l-4,6a3.48,3.48,0,0,1,.06-.63c1.48-3.31,3-6.6,4.44-9.91a23.79,23.79,0,0,0,.83-2.51c2.48-3,4.81-6.25,7.48-9.13a99.8,99.8,0,0,1,16.56-14.35c.63-.44,1.22-.94,1.82-1.41a.43.43,0,0,0-.49,0,101.91,101.91,0,0,0-18.85,15c-1.14,1.15-2.22,2.37-3.32,3.56v-1l-.31-.17-5.76,4.55-.29-3.62-.18,0,.78-1.48h0l.22-.23h0Z"/><path class="cls-10" d="M152.92,77.9l.53,1.08a16.14,16.14,0,0,1-2,2,1.67,1.67,0,0,1-2.13-.24c-.07-.15-.15-.29-.22-.44l.81-.66c.73.82,1.11.82,1.65,0a8.1,8.1,0,0,0,.53-1.11Z"/><path class="cls-7" d="M152.09,78.45a8.1,8.1,0,0,1-.53,1.11c-.54.86-.92.86-1.65,0Z"/><path class="cls-10" d="M155.08,77.05a3.75,3.75,0,0,1,0,.75c-.12.55-.43.72-.91.34l-.65-.51C154,77.33,154.33,76.65,155.08,77.05Z"/><path class="cls-14" d="M125.29,152.46c.22-.31.43-.62.65-.92.37.42.65,1.05,1.11,1.23a1.72,1.72,0,0,0,2-.77c.37-.44.83-.81,1.4-1.36-1.14-.89-1.52-2.65-3.19-3.27.39-1.32.83-2.62,1.15-4q1.27-5.19,2.47-10.42c.44-1.93.82-3.88,1.16-5.83.71-4,1.36-8,2.06-12A54.14,54.14,0,0,1,136.79,104a11.3,11.3,0,0,1,2.75-3.56,93,93,0,0,1,7.71-7,22.83,22.83,0,0,1,10.08-4.22c4.55-.84,8.87,0,13.17,1.34a4.91,4.91,0,0,0,.51.15c.06,0,.13,0,.34-.35-2.48-1.25-5-2.52-7.46-3.76a32.88,32.88,0,0,0-8.09-2.76c1.2-.52,2.38-1.08,3.6-1.55a28.74,28.74,0,0,1,10.92-2.43,12.17,12.17,0,0,1,2.91.51,2.2,2.2,0,0,0,2.6-2c0-.87,0-1.75,0-2.62l1.28.82L181,74.29c0,1.07,0,2.15,0,3.22l-1.21.77,0,.15.93-.12c-.05.55-.09,1.09-.15,1.87l9.28-2,.18.21c-.61.8-1.23,1.59-1.83,2.39,0,.07,0,.22.05.33A20.57,20.57,0,0,0,180,87.41l5.87-3.5c-.15.32-.26.66-.43,1-1.36,2.35-2.91,4.6-3.49,7.31a3.64,3.64,0,0,0,0,.81,3.52,3.52,0,0,0,.8,0,56.87,56.87,0,0,1,11.62-2.48,30.45,30.45,0,0,1,9.94.53,4.38,4.38,0,0,1,.92.45l-2.43,1.62c-2.36,0-4.74-.15-7.07.08a12.5,12.5,0,0,0-5.88,1.93,5.61,5.61,0,0,0-1.11-.27c-.61,0-1.37-.12-1.36.88a3.76,3.76,0,0,1-.61.8c-1.57,1.21-3.18,2.35-4.73,3.59a24,24,0,0,0-2,1.94l.26.29c.58-.48,1.13-1,1.74-1.43,1.66-1.19,3.34-2.35,5-3.52.2,1.66.23,1.67,2.91,1.27v-3a5.77,5.77,0,0,0,1-.21A18.58,18.58,0,0,1,199.38,94c-.13.14-.23.34-.39.42-1.75.91-3.49,1.83-5.26,2.7-1.14.55-2.33,1-1.42,2.65a29.42,29.42,0,0,0-11.83,5.82c-.36.3-.67.67-1,1,1.94-.84,3.71-1.81,5.5-2.74,5.54-2.85,11.36-4.21,17.6-3.14.18,0,.4-.17.61-.27a2.46,2.46,0,0,1,.72.11,11.91,11.91,0,0,1,5,3.8,17.28,17.28,0,0,1,3,5.42c.85,3.52,1.08,7.19,1.63,10.79.61,4,1.25,8.1,1.95,12.13.56,3.2,1.22,6.38,1.87,9.56s1.26,6.29,2,9.42a73.43,73.43,0,0,0,1.86,7.18c.83,2.43,2,4.74,3,7.12a19.13,19.13,0,0,1,1.35,7c-.61-.88-1.29-1.71-1.82-2.63-.71-1.23-1.32-2.53-2-3.8-.17-.57-.31-1.16-.51-1.73-1-2.89-2.08-5.74-3-8.66-1.43-4.68-2.74-9.4-4.07-14.12-.81-2.9-1.58-5.82-2.32-8.74-.83-3.3-1.61-6.62-2.41-9.93-.65-2.72-1.26-5.45-1.92-8.18-.4-1.64-.86-3.28-1.3-4.92a1.79,1.79,0,0,0-.06,1.09c.45,2.43.89,4.88,1.38,7.31.93,4.65,1.8,9.32,2.88,13.94s2.25,9,3.58,13.47,2.81,8.8,4.34,13.16c.85,2.41,1.92,4.74,2.89,7.1-.18-.09-.45-.14-.53-.29-.77-1.34-1.56-2.67-2.23-4.07q-2.28-4.81-4.44-9.68c-.74-1.67-1.39-3.38-2.05-5.08-.57-1.46-1.09-2.95-1.67-4.41s-1.33-3.09-1.89-4.67c-.69-1.92-1.23-3.88-1.88-5.81s-1.37-3.85-2-5.78q-1.22-3.6-2.34-7.23c-.4-1.29-.68-2.61-1.07-3.89a18.41,18.41,0,0,0-.85-1.94v-.21l-.22-.86c-.42-1.42-.82-2.85-1.27-4.26a.82.82,0,0,0-.61-.42,18.32,18.32,0,0,0-3.63,0c-3.43.6-6.93.88-10.21,2.25-2.07.87-4.21,1.6-6.32,2.39l-2.14-.42a2.76,2.76,0,0,1-.82-.14,36.32,36.32,0,0,0-9.79-3.18c-2.88-.53-5.82-.68-8.74-.94-.31,0-.87.17-.94.38-.56,1.85-1,3.72-1.53,5.58-.21.52-.47,1-.63,1.56-1,3.2-1.91,6.44-2.95,9.63s-2.2,6.41-3.3,9.62c-.2.57-.36,1.14-.57,1.71-.5,1.42-1,2.83-1.54,4.25s-1.05,2.89-1.62,4.32-1.2,2.8-1.79,4.2c-.71,1.69-1.37,3.4-2.12,5.08s-1.58,3.22-2.33,4.86c-.54,1.17-.9,2.44-1.52,3.57-1.08,2-2.3,4-3.48,5.9-.54.9-1.11,1.77-1.67,2.66,0,.07,0,.14,0,.2-.71.14-.32.53-.2.87l0,.21a.67.67,0,0,0,0,.2l-1.32.45c.44-1.71,1-3.41,1.31-5.14q1.42-7.12,2.73-14.28c.32-1.78.47-3.58.69-5.37,1.27-.23.47-.81.22-1.29l.48-2.21a16.49,16.49,0,0,0,1.2,1.3,2.41,2.41,0,0,0,.88.3c0-.3.06-.67-.08-.9-.57-.92-1.21-1.8-1.83-2.7l.09-.6c.85.44,1.72.83,2.53,1.33,1.75,1.06,1.76,1.16,1.09,3.06.73.61,1.19.22,1.19-.5a13.25,13.25,0,0,0-.42-3.13c-.34-1.38-.85-2.73-1.29-4.09l-.42.08c-.84,1.29.72,2.4.5,3.71l-3.05-1.69.21-2.11c.27-2.67.58-5.34.81-8,.15-1.67.19-3.34.28-5-.7,3.15-1.24,6.31-1.71,9.48-.34,2.38-.59,4.77-.88,7.16-.53.23-1.35.34-1.52.74a2.25,2.25,0,0,1-1.53,1.25c-.37.13-.63.53-.94.81s-.4.52-.66.61c-.74.25-.53.61-.2,1,.72.88,1.49,1.71,2.13,2.64.41.6.8.72,1.4.39-.34,2.52-.63,5.05-1,7.56-.72,4.54-1.53,9.06-2.27,13.6-.17,1-.2,2-.29,3.06l-.21.2-.23.64-.39.65a6.7,6.7,0,0,1-.31,1.21,6.83,6.83,0,0,0-.77,3.76.23.23,0,0,1,0,.18l-.08.05a1.19,1.19,0,0,0,.09.15l-.22.65a9.75,9.75,0,0,0-.47,1.57,39.9,39.9,0,0,0-.52,5.33,24.74,24.74,0,0,0,.62,5.35,52.65,52.65,0,0,0,1.81,5.4c0,.06.19.07.29.11l.8,1.83a10.57,10.57,0,0,0,1,1.62c2.31,2.68,4.61,5.38,7,8a55.19,55.19,0,0,1,8,10.53c1.92,3.43,3,6.89,2,10.85a15.91,15.91,0,0,1-3.36,5.88l-.08-1.24a34.38,34.38,0,0,0-.84-4.8,50,50,0,0,0-6.07-12c-2.85-4.36-5.88-8.61-8.85-12.9-1.41-2-2.83-4.08-4.33-6a30.68,30.68,0,0,1-4.66-8,21.82,21.82,0,0,1-1.13-8.71c.07-1.5.22-3,.36-4.69-.19.26-.31.36-.33.47a27.15,27.15,0,0,0-.66,9.5,19.44,19.44,0,0,0,2.44,7.43c.91,1.47,1.79,3,2.68,4.45a4.54,4.54,0,0,1-1.14-.73c-2.46-2.82-5-5.61-7.3-8.56a13.9,13.9,0,0,1-3.19-6.73,5.86,5.86,0,0,1,.14-3.1c1.14-2.34,2.63-4.5,3.87-6.8,1.69-3.14,3.3-6.33,4.9-9.52,1-2,2-3.93,2.82-5.94a27.64,27.64,0,0,0,1-3.13c.26-.35.47-.94.78-1,1-.21.65-.77.46-1.33l.68-.66,1,.49a7.24,7.24,0,0,0-.28-1A6.6,6.6,0,0,0,125.29,152.46Zm45.39-57.14,3.6,2,.24-.47L170.7,95c-.67-.3-1.34-.62-2-.9-4.34-1.83-8.39-1.78-12.07,1.61-4.79,4.41-7.88,9.94-10.43,15.79a59.87,59.87,0,0,0-2.84,8.48c-.81,3-1.33,6.16-2,9.24l-1,4.44.4.09.87-4.31c.5-1.88,1-3.77,1.5-5.63a95.47,95.47,0,0,1,5.43-14.31c2.34-4.81,5-9.34,9-13,1.45-1.32,3.06-2.62,5.07-2.65a29.72,29.72,0,0,1,5.42.76C168.91,94.83,169.79,95.1,170.68,95.32Zm6,13.39a169.75,169.75,0,0,0,.62-27.79l-.34,0c-.2,3.21-.41,6.42-.64,10a20.21,20.21,0,0,0-7-4.82c-4.5-1.78-6.56-2.2-8-1.73a2.42,2.42,0,0,0,.4.19,67.29,67.29,0,0,1,13.61,6,1.66,1.66,0,0,1,1,1.65c.05,5.06.13,10.11.21,15.17A12.31,12.31,0,0,0,176.68,108.71Z"/><path class="cls-10" d="M181,77.51c0-1.07,0-2.15,0-3.22,1-.85,2.18-.75,3.32-.85a18.42,18.42,0,0,1,7.09,1.06l1.07.33c-.05.23-.11.46-.17.69l-.85-.14h-.19l-3.43.19-.66.17Z"/><path class="cls-10" d="M162.36,74.5l0-.09,0,.09Z"/><path class="cls-10" d="M123.2,156.87a27.64,27.64,0,0,1-1,3.13c-.87,2-1.83,4-2.82,5.94-1.6,3.19-3.21,6.38-4.9,9.52-1.24,2.3-2.73,4.46-3.87,6.8a5.86,5.86,0,0,0-.14,3.1,13.9,13.9,0,0,0,3.19,6.73c2.31,2.95,4.84,5.74,7.3,8.56a4.54,4.54,0,0,0,1.14.73c.57.8,1.15,1.59,1.73,2.39,2,2.81,4.11,5.59,6.11,8.42,1,1.47,1.94,3,2.9,4.55a45.62,45.62,0,0,1,1.19,5.59c.25,2.81.24,5.64.25,8.47a24.21,24.21,0,0,1-2.38,11.11,13.47,13.47,0,0,1-2.89,3.88c-2.94,2.62-6.49,2.94-10.21,2.1-.82-.19-1.66-.32-2.49-.49L114,245.9c-.3-.57-.24-1.52-1.33-1.23l-.58-.17-.75-1.37c1.55.17,3,.36,4.52.48,3.67.31,7.25.15,10.3-2.32a7,7,0,0,0,2.54-4.4,48.07,48.07,0,0,0,.67-6.76,20.18,20.18,0,0,0-2.69-10.7,46,46,0,0,0-4.29-5.42l-.25-.22h0l-.22-.22h0a3.84,3.84,0,0,0-.33-.86q-1.69-2.46-3.42-4.89a100.06,100.06,0,0,1-8.86-14.52A13.92,13.92,0,0,1,108,185a99.24,99.24,0,0,1,4.7-17c.88-2.59,1.86-5.14,2.8-7.71.42-1,.84-2,1.25-3l0-.08,0,.09-1.5,2.78a118.64,118.64,0,0,0-7.41,19.61c-.94,3.53-1.76,7.1-1,10.79-.13-.1-.35-.18-.39-.31-.65-2.08-1.66-4.14-1.81-6.26a36.89,36.89,0,0,1,.67-7.37c.32-2.45.77-4.88,1.16-7.32a14,14,0,0,1,.53-1.58c1.27-2.74,2.58-5.47,3.85-8.22a114.78,114.78,0,0,0,5.26-13.15c.41-1.27,1-2.49,1.49-3.73.57-1.5,1.15-3,1.72-4.49l1.52-3.21a8.43,8.43,0,0,1,.18,1.12c0,2.11,0,4.22,0,6.15a1.23,1.23,0,0,0,.14-.36c.67-2.61,1.3-5.22,2-7.82a13.2,13.2,0,0,1,1-2.13c0,.32,0,.64-.06.95-.24,1.58-.49,3.15-.72,4.73q-.78,5.31-1.55,10.63c-1.5.41-.4,1.1-.18,1.7l-.13,2.05-.07.07-.66.12c-.6.48-1.21.94-1.76,1.47-.11.1,0,.47.08.72a1.86,1.86,0,0,0,.6-.29c.38-.36.71-.78,1.06-1.17l1,.18c-.3.48-.5.81-.71,1.12s-.48.61-.66.95a1.54,1.54,0,0,0,1.07,2.35C122.07,157.46,122.65,157.06,123.2,156.87Z"/><path class="cls-15" d="M132,93.11l-.48.91-.3.57.18,0,.29,3.62,5.76-4.55.31.17v1l-2.09,2.7a49.31,49.31,0,0,0-8.89,16.76c-.53,1.84-.79,3.76-1.4,5.57-1.22,3.6-2.59,7.14-3.9,10.71,0-.09-.15-.18-.15-.27.1-2.08.25-4.17.32-6.25.05-1.47,0-2.94,0-4.69l-1.66,2c.85-4.13,1.54-8.3,2.6-12.38.87-3.35,2.12-6.62,3.32-9.88a6.18,6.18,0,0,1,2.4-3.18c.28-.18.32-.73.47-1.1a1.8,1.8,0,0,0,1.92-.88C130.93,93.55,131.54,93.38,132,93.11Zm-3,5.12c.74.24,1.55.4,1.85-.52s-.59-.68-1.06-.81c-.11-.18-.21-.51-.32-.51-.72,0-1.45,1.26-1.06,1.85C128.48,98.33,128.81,98.24,129,98.23Zm-3.58,10.27a31.13,31.13,0,0,1,5.74-9.58h-2.73A24,24,0,0,0,125.43,108.5Z"/><path class="cls-15" d="M106.52,169.23c-.39,2.44-.84,4.87-1.16,7.32a36.89,36.89,0,0,0-.67,7.37c.15,2.12,1.16,4.18,1.81,6.26,0,.13.26.21.39.31,1,2.23,1.9,4.53,3.07,6.67,3.23,5.87,7.44,11.06,11.58,16.3l-.11.55c-2.21-1.75-4.41-3.37-6.45-5.17-2.66-2.34-5.28-4.75-7.76-7.28a22.83,22.83,0,0,1-6.12-10.71,16.4,16.4,0,0,1,.61-8.92c1.15-3.62,2.54-7.16,3.85-10.73C105.81,170.52,106.2,169.89,106.52,169.23Z"/><path class="cls-6" d="M121.54,213.46c-4.14-5.24-8.35-10.43-11.58-16.3-1.17-2.14-2-4.44-3.07-6.67-.77-3.69,0-7.26,1-10.79a118.64,118.64,0,0,1,7.41-19.61l.24.22c-.94,2.57-1.92,5.12-2.8,7.71a99.24,99.24,0,0,0-4.7,17,13.92,13.92,0,0,0,1.29,8.28,100.06,100.06,0,0,0,8.86,14.52q1.72,2.43,3.42,4.89a3.84,3.84,0,0,1,.33.86Z"/><path class="cls-10" d="M120,121.37l1.66-2c0,1.75,0,3.22,0,4.69-.07,2.08-.22,4.17-.32,6.25,0,.09.1.18.15.27s-.12.47-.19.7L119,138a7.35,7.35,0,0,0-.51.85c-.37.94-.72,1.9-1.07,2.84-.8-1-.2-2.06-.09-3,.41-3.53,1-7,1.53-10.56C119.25,125.87,119.62,123.62,120,121.37Z"/><path class="cls-14" d="M128.33,251.45a10.1,10.1,0,0,1-6.21,1.25c-1.57-.15-3.21-.34-4.35-1.71-.15-.19-.47-.23-.82-.39.27-.34.48-.61.7-.87.33.1.68.19,1,.31a10,10,0,0,0,10.09-1.55,9,9,0,0,0,1.16-.13c.71-.16,1,.15,1,.81C128.33,249.78,128.33,249.78,128.33,251.45Z"/><path class="cls-6" d="M128.75,248.49A10,10,0,0,1,118.66,250c-.33-.12-.68-.21-1-.31l-2.36-1.47-.19,0c-.73-.75-1.5-1.47-2.18-2.27a8.35,8.35,0,0,1-.83-1.46l.58.17L114,245.9l2.35,1.5a10.21,10.21,0,0,0,9.82,1.49l2.59-.87Z"/><path class="cls-14" d="M128.75,248.49V248a8.65,8.65,0,0,1,2.18-.23c.81.11.55.93.61,1.5a4.56,4.56,0,0,0,.18.6l0,.51v0l-.23.29-.39.18c-.28-.3-.53-.78-.86-.83a1.13,1.13,0,0,0-1,.52c-.11.3.22.76.35,1.15l-.68.37-.63-.61c0-1.67,0-1.67,2.53-2.28,0-.66-.24-1-1-.81A9,9,0,0,1,128.75,248.49Z"/><path class="cls-16" d="M117.46,141.72c.35-.94.7-1.9,1.07-2.84A7.35,7.35,0,0,1,119,138l.33,0c-.57,1.5-1.15,3-1.72,4.49Z"/><path class="cls-14" d="M115.1,248.23l.19,0,1.11,1.54c-.93.24-1.15-.56-1.59-.93C114.76,248.82,115,248.45,115.1,248.23Z"/><path class="cls-6" d="M121.92,213.57l.22.22Z"/><path class="cls-6" d="M122.14,213.79l.25.22Z"/><path class="cls-16" d="M232.77,253.2l-1.72.6c-1,1-2.07.43-3.13.19q-5.11-1.16-10.21-2.34c-1-.23-2-.55-2.94-.73-2.66-.49-5.38-.73-8-1.46-2.16-.61-4.45-.31-6.51-1.1a6.7,6.7,0,0,0-2.39-.35,8.53,8.53,0,0,1-3.62-4,29,29,0,0,1-1.28-4.16c-.65-3.25-1.24-6.52-1.72-9.81-.38-2.55-.62-5.12-.83-7.69-.1-1.34-.4-2.67,1.08-3.75a94.87,94.87,0,0,0,7.92-6.35,68.58,68.58,0,0,0,6.88-7,84.6,84.6,0,0,0,6.38-8.77c1.92-3,3.53-6.17,5.28-9.26.19-.35.41-.69.6-1a10.34,10.34,0,0,0,1.83,1.14,4.29,4.29,0,0,0,4.69-.87c1-1,2-2.05,3-3.09a2.85,2.85,0,0,1,.34.87c0,1.78,0,3.57.09,5.36,0,.29.26.57.39.85l-.22,1.69c-.27.26-.64.48-.8.79a5.51,5.51,0,0,0-.36,1.41c-.18,1-.33,2-.5,3h0c-.21.2-.51.36-.63.61a13.06,13.06,0,0,0-.8,1.89,4.59,4.59,0,0,0-.08,1.12,7.56,7.56,0,0,1-.79,1.49c-2.05,2.39-4.14,4.75-6.21,7.12l-3.7,4.23-.42.65-.1.08h.06l0-.08.44-.63,2.12-1.09.27.28-1.75,1.33a21.36,21.36,0,0,0-8,11.7,10.38,10.38,0,0,0,.84,8.22,49.76,49.76,0,0,0,8,10.33,58.64,58.64,0,0,0,6.11,5.11,13.92,13.92,0,0,0,10.22,3Z"/><path class="cls-8" d="M143.53,236.69l.08,1.24a15.91,15.91,0,0,0,3.36-5.88c1-4-.11-7.42-2-10.85a55.19,55.19,0,0,0-8-10.53c-2.4-2.59-4.7-5.29-7-8a10.57,10.57,0,0,1-1-1.62l2.33-.27c0-.95-.14-1.92-.14-2.89a.88.88,0,0,0-1-1c-.58,0-1.36-.28-1.62.63.51.52,1.63-.69,1.73.54l-2.15,1.17c-.1,0-.27-.05-.29-.11a52.65,52.65,0,0,1-1.81-5.4,24.74,24.74,0,0,1-.62-5.35,39.9,39.9,0,0,1,.52-5.33,9.75,9.75,0,0,1,.47-1.57l-.18,1.65a3.66,3.66,0,0,0,.4,1.26,18.81,18.81,0,0,0,2,1.92,5.07,5.07,0,0,0,5.66.71c.52-.28,1-.63,1.61-1,.46,1.07.83,2.13,1.37,3.11,1.22,2.22,2.53,4.4,3.8,6.6a26.66,26.66,0,0,0,1.62,2.79c.87,1.17,1.9,2.21,2.81,3.35s1.78,2.57,2.83,3.7c2,2.19,4.15,4.31,6.3,6.38a46.94,46.94,0,0,0,8,6.63c.27.16.34.66.5,1-1.37-.58-2-.34-2.63,1-.09.18-.26.49-.35.47-1.46-.25-1.66,1.51-2.81,1.75a.72.72,0,0,0-.08.61c.87,1.12,1.77,2.22,2.7,3.29.12.13.49,0,.74,0,0-.22.07-.49,0-.64a17.55,17.55,0,0,0-1.23-1.61c-.57-.65-1.18-1.39-.3-2.08s1.34.4,1.86.92l1.85,1.82c-.17,1.76-.31,3.52-.5,5.28-.13,1.22-.31,2.45-.52,3.67-.27,1.49-.68,3-.86,4.47-.09.75-.26,1.21-1,1.27-.08.41-.31.84-.19,1.09.71,1.44-.22,2.6-.82,3.63a9,9,0,0,1-2.86,2.94,30.92,30.92,0,0,1-4.57,2.06c0-.07,0-.19,0-.2-.76-.39-1.58-1.14-2.28-1.06-2,.25-3.91.86-5.87,1.3s-4.07.89-6.1,1.34a3,3,0,0,0-.91.27,2.29,2.29,0,0,1-2.37.07v-.65l.32-.21-.31-.21-.15-.84-.82.33c.12-.3.15-.73.37-.87a37.47,37.47,0,0,0,7.27-7c1.29-1.47,2.77-2.9,2.52-5.15Zm9.31-4.14.62-.23a7.37,7.37,0,0,0-.41-.79c-.4-.54-.85-1.05-1.26-1.59-1.24-1.61-3-1.44-4,.39-.12.23,0,.57,0,.86a3.63,3.63,0,0,0,.75-.33,10.94,10.94,0,0,1,1-1c.18-.11.56.11.85.18a2.37,2.37,0,0,1-.27.7c-.3.4-.72.71-1,1.12a1.51,1.51,0,0,0,.19,2,1.37,1.37,0,0,0,1.93.21A14.6,14.6,0,0,0,152.84,232.55Zm3.53-6.82a14.52,14.52,0,0,0-1.23,1.32,1.64,1.64,0,0,0,.14,2.39c.71.61,1.53.48,2.36-.33.41-.4.9-.72,1.28-1.14a.75.75,0,0,0,0-.71c-.54-.74-1.15-1.44-1.72-2.16s-1.11-1.11-1.82-.74a9.2,9.2,0,0,0-2,1.68c-.08.08.09.42.15.64a1.84,1.84,0,0,0,.59-.25c.21-.18.34-.46.54-.65C155.23,225.31,155.75,224.77,156.37,225.73Zm-5.87-.59-.35.07c0,.32-.08.72.08.94,1.23,1.64,2.49,3.27,3.78,4.87.17.2.55.24.83.35,0-.34.09-.77-.08-1-1.22-1.62-2.49-3.18-3.75-4.76A5.79,5.79,0,0,0,150.5,225.14Z"/><path class="cls-13" d="M197.89,249.13a3.54,3.54,0,0,1,1.08-.2c1.76.26,3.51.58,5.33.89a1.28,1.28,0,0,1-.11.4A55.8,55.8,0,0,1,191.37,264c-4.82,3.51-10.12,5.65-16.19,5.43A27.19,27.19,0,0,1,161.64,265a52.91,52.91,0,0,1-15.16-14.84,4.59,4.59,0,0,1-.28-.52c.93-.24,1.77-.51,2.63-.67a1.12,1.12,0,0,1,.81.32,13.15,13.15,0,0,1,1.06,1.17,42.37,42.37,0,0,0,16.18,12.11A20.69,20.69,0,0,0,180,263.71C188.2,261.63,193.44,255.86,197.89,249.13Z"/><path class="cls-17" d="M197.89,249.13c-4.45,6.73-9.69,12.5-17.93,14.58a20.69,20.69,0,0,1-13.08-1.18,42.37,42.37,0,0,1-16.18-12.11l.75-.9a30.92,30.92,0,0,0,4.57-2.06,9,9,0,0,0,2.86-2.94c.6-1,1.53-2.19.82-3.63-.12-.25.11-.68.19-1.09.75-.06.92-.52,1-1.27.18-1.51.59-3,.86-4.47.21-1.22.39-2.45.52-3.67.19-1.76.33-3.52.5-5.28,0-.38.09-.76.14-1.14l-.13-2.9.21.22.38.42.29.22,0,.85c-.33,3.39-.67,6.77-1,10.16-.67,3.1-1.29,6.21-2,9.29a9.41,9.41,0,0,1-6.36,7.05c-.93.33-1.84.69-2.81,1.05a4.35,4.35,0,0,0,.27.43c4.25,4.6,9,8.55,14.83,11,7,2.94,13.83,2.55,20.27-1.73a34.87,34.87,0,0,0,8.27-8c.85-1.12,1.64-2.28,2.53-3.51-2.69-1.22-3.91-3.38-4.68-5.88-.28-.88-.57-1.75-.86-2.63-.22-1.14-.52-2.28-.66-3.43-.61-5.07-1.17-10.15-1.77-15.22,0-.39.31-1.06-.53-1.11l-.06-.64a.16.16,0,0,1,.14-.08l.28-.19a2.92,2.92,0,0,1,.32-.28,80.4,80.4,0,0,0,22.26-22.9A83.94,83.94,0,0,0,223,171.22c1,.17.47.78.34,1.26l-1.27,4.29.22.64c-1.41,1.44-1.83,4.6-.82,6.15l-1.41-1.23a18.58,18.58,0,0,0-1,2.24,1.42,1.42,0,0,0,.21,1.17,3.47,3.47,0,0,0,4.81.53,38.4,38.4,0,0,0,3.71-3.3l.24.43c-1,1-1.93,2.12-3,3.09a4.29,4.29,0,0,1-4.69.87,10.34,10.34,0,0,1-1.83-1.14c-.19.31-.41.65-.6,1-1.75,3.09-3.36,6.28-5.28,9.26a84.6,84.6,0,0,1-6.38,8.77,68.58,68.58,0,0,1-6.88,7,94.87,94.87,0,0,1-7.92,6.35c-1.48,1.08-1.18,2.41-1.08,3.75.21,2.57.45,5.14.83,7.69.48,3.29,1.07,6.56,1.72,9.81a29,29,0,0,0,1.28,4.16,8.53,8.53,0,0,0,3.62,4Z"/><path class="cls-6" d="M236.39,257.07l-1.93-.66V256a15.5,15.5,0,0,1,1.69.44C236.29,256.47,236.32,256.85,236.39,257.07Z"/><path class="cls-15" d="M132.19,92.89l-.22.23Z"/><path class="cls-15" d="M132.48,92.67l-.29.23Z"/><path class="cls-14" d="M143.12,236.68c.25,2.25-1.23,3.68-2.52,5.15a37.47,37.47,0,0,1-7.27,7c-.22.14-.25.57-.37.87h0l-.52.45-.37.22-.33-.43a4.56,4.56,0,0,1-.18-.6c-.06-.57.2-1.39-.61-1.5a8.65,8.65,0,0,0-2.18.23l-2.59.87a10.21,10.21,0,0,1-9.82-1.49c.83.17,1.67.3,2.49.49,3.72.84,7.27.52,10.21-2.1a13.47,13.47,0,0,0,2.89-3.88,24.21,24.21,0,0,0,2.38-11.11c0-2.83,0-5.66-.25-8.47a45.62,45.62,0,0,0-1.19-5.59,32.1,32.1,0,0,1,2,2.66c2.13,3.55,4.26,7.1,6.28,10.71A15.1,15.1,0,0,1,143.12,236.68Z"/><path class="cls-14" d="M129.64,251.69c-.13-.39-.46-.85-.35-1.15a1.13,1.13,0,0,1,1-.52c.33,0,.58.53.86.83Z"/><path class="cls-8" d="M132.43,250.1l.52-.45Z"/><path class="cls-6" d="M133.93,250.17l.31.21-.32.21Z"/><path class="cls-8" d="M131.73,249.89l.33.43-.29.08Z"/><path class="cls-14" d="M131.55,250.67l.23-.29Z"/><path class="cls-10" d="M214.78,213.79l3.7-4.23c2.07-2.37,4.16-4.73,6.21-7.12a7.56,7.56,0,0,0,.79-1.49,5.65,5.65,0,0,0,1.51-3.62h0c.2-.22.51-.41.57-.67.4-1.49.74-3,1.09-4.49.07-.56.15-1.13.22-1.69a31.23,31.23,0,0,0-2.7-15.57,19.36,19.36,0,0,1-.7-2,19.13,19.13,0,0,0-1.35-7c-1-2.38-2.14-4.69-3-7.12a73.43,73.43,0,0,1-1.86-7.18c-.7-3.13-1.33-6.27-2-9.42s-1.31-6.36-1.87-9.56c-.7-4-1.34-8.08-1.95-12.13-.55-3.6-.78-7.27-1.63-10.79a17.28,17.28,0,0,0-3-5.42,11.91,11.91,0,0,0-5-3.8,2.46,2.46,0,0,0-.72-.11,20,20,0,0,0-10.88-.67c-.91-1.63.28-2.1,1.42-2.65,1.77-.87,3.51-1.79,5.26-2.7.16-.08.26-.28.39-.42,7.26,0,12.77,3.41,17.29,8.79l-.06.07.11.12v0c.34,1.46.68,2.93,1.07,4.65l-7-4.94,5.72,17.43h0l-1.05.34.11.38,1-.18.38.08c0,.31,0,.62-.06,1l-.43.12c-1.1.34-1.55,1-1.19,1.87a1.4,1.4,0,0,0,1.93.79,5.87,5.87,0,0,1,.84-.13h0c.13.58.23,1.16.39,1.73.5,1.8,1,3.58,1.53,5.37a.61.61,0,0,0,.16-.48c-.21-1.4-.41-2.8-.66-4.2s-.57-2.88-.85-4.31l-.26-2.11c-.07-1.09-.15-2.19-.25-3.52l9,12.69.3-.17-5.82-16.16.56-.42a4.43,4.43,0,0,0,.47,1c1.26,1.58,2.55,3.14,3.85,4.69a2.42,2.42,0,0,0,.57.4c.27.57.54,1.15.82,1.71A170.79,170.79,0,0,1,236,139.55l2,5.94q.79,2.35,1.58,4.72c.12.4.48.95-.41.91-3.49-5.57-6.92-11.18-10.48-16.71-1.57-2.44-3.39-4.72-5.1-7.08l-1-1.5-.34.26,1.08,1.5c1,1.69,2.06,3.39,3.1,5.07q5,8.11,10,16.23c2,3.21,3.89,6.45,5.85,9.67.72,1.17,1.49,2.31,2.24,3.46h0l.22.5,1.5,3.35c.07,1,.13,2.1.21,3.15.12,1.52.33,3,.37,4.55.06,2.49,0,5,0,7.48,0,.08-.12.16-.18.24q-1.59-5.24-3.19-10.49c-.33-1-.66-1.93-1-2.89l-.35.12,1.11,3c.29,1.17.65,2.33.88,3.51.81,4.17,1.58,8.35,2.37,12.53-.14.39-.3.77-.43,1.16-.55,1.56-1,3.16-1.66,4.66s-2.05,2.24-3.35,3.14a43.42,43.42,0,0,0-9.53,9,79.5,79.5,0,0,0-5.62,8.09,41.79,41.79,0,0,0-5.22,13.4,18.77,18.77,0,0,0,.44,9.36,16.58,16.58,0,0,0,4.17,7.52,12.66,12.66,0,0,0,4,2.86,10.59,10.59,0,0,0,7,.06,10.93,10.93,0,0,0,4.8-2.75l2.41-.74a7.94,7.94,0,0,1-2.39,3.53,7.51,7.51,0,0,0-.87,1l-.23.28h0l-.22.22h0l-.65.22h0c-.22.11-.44.21-.66.33a10.43,10.43,0,0,1-8.91,1c-4.55-1.59-7.95-4.75-10.89-8.34s-5.48-7.42-8.19-11.15l-1.58-2.58-.33.2,1.4,2.4a7.8,7.8,0,0,0,.38,1c1,1.77,2,3.58,3.17,5.3,2.7,4.11,5.67,8,9.66,11,2.89,2.18,6,3.76,9.78,3.71a13.69,13.69,0,0,0,4.88-1.38l.48.64c-1.4.74-2.75,1.44-4.07,2.18a3.52,3.52,0,0,0-.73.8l-.33.07c0-.44-.13-.81-.69-.42a13.92,13.92,0,0,1-10.22-3,58.64,58.64,0,0,1-6.11-5.11,49.76,49.76,0,0,1-8-10.33,10.38,10.38,0,0,1-.84-8.22,21.36,21.36,0,0,1,8-11.7l1.75-1.33a25.43,25.43,0,0,0,2.28-1.13,65.13,65.13,0,0,0,6.64-4.25,68.33,68.33,0,0,0,6.16-5.88A16.68,16.68,0,0,0,237,191a41.9,41.9,0,0,0-.95-12.17,88.78,88.78,0,0,0-7.34-20.52l-1.86-4.18-.38.18,1.94,4a7.36,7.36,0,0,0,.21.93c1.43,4,3.05,7.88,4.27,11.92,1.87,6.18,3.33,12.46,2.89,19a16.3,16.3,0,0,1-3.17,9.1,43.56,43.56,0,0,1-12.51,11.26c-1.1.65-2.13,1.39-3.2,2.09l-2.12,1.09Zm7.07-88.59-.1-.09.09.1.27.34.07-.07ZM223.51,137c.63,1.5,1.29,3,1.9,4.51,2.46,6.09,5,12.14,7.32,18.28,1.94,5.18,3.58,10.46,5.35,15.7l.87,3,.3-.07c-.25-1-.49-2-.73-3-1-3.86-1.89-7.79-3.16-11.58-1.79-5.34-3.73-10.65-5.92-15.84-1.64-3.88-3.76-7.55-5.66-11.32l-1.63-3-.36.2Zm-5.76,86.67a12.7,12.7,0,0,0-1.77.46,1.37,1.37,0,0,0-.76,1.69c.14.73.7.84,1.31.8s1.36-.12,1.9-.17a21.21,21.21,0,0,0,0-2.77,2,2,0,0,0-.75-1.43,1.87,1.87,0,0,0-2.28.61C216.23,223.18,217.5,222.12,217.75,223.69Zm21.58-44.55,0-.08s0,0,0,.06a.19.19,0,0,0,0,.08Z"/><path class="cls-14" d="M241.1,243.53a10.93,10.93,0,0,1-4.8,2.75,10.59,10.59,0,0,1-7-.06,12.66,12.66,0,0,1-4-2.86,16.58,16.58,0,0,1-4.17-7.52,18.77,18.77,0,0,1-.44-9.36,41.79,41.79,0,0,1,5.22-13.4,79.5,79.5,0,0,1,5.62-8.09,43.42,43.42,0,0,1,9.53-9c1.3-.9,2.7-1.65,3.35-3.14s1.11-3.1,1.66-4.66c.13-.39.29-.77.43-1.16,0,2,.1,4.09.11,6.14a3.38,3.38,0,0,1-1.3,2.46,13.22,13.22,0,0,0-1.24,1.7h0a4,4,0,0,0-.85.58c-2.06,2.34-4.16,4.65-6.11,7.08-2.16,2.67-4.26,5.4-6.22,8.21a51.59,51.59,0,0,0-2.8,5.05h0l-.91,1.51a14.28,14.28,0,0,0-1.17,2.63,32.22,32.22,0,0,0-1,5.73,49.24,49.24,0,0,0,.32,6.41,12.22,12.22,0,0,0,1.36,4.86,7.31,7.31,0,0,0,2.88,2.8c2.56,1.52,5.46,1.28,8.25,1.5a13.51,13.51,0,0,0,2.42-.28A5.24,5.24,0,0,1,241.1,243.53Z"/><path class="cls-14" d="M246.64,181.28c.06-.08.18-.16.18-.24,0-2.5.06-5,0-7.48,0-1.52-.25-3-.37-4.55-.08-1-.14-2.1-.21-3.15.85,1.89,1.74,3.76,2.55,5.67,1,2.4,2.07,4.78,2.9,7.25,1,3,2.05,6.1,1.81,9.38a13.59,13.59,0,0,1-1.54,6.21c-1.16,1.94-2.32,3.88-3.54,5.78a5.34,5.34,0,0,1-1.3,1c-.08-.9-.22-1.81-.23-2.71s-.33-1.4-1.29-1.36a14.74,14.74,0,0,0,2-2.61,6.57,6.57,0,0,0,.29-2.61A40.34,40.34,0,0,0,246.64,181.28Z"/><path class="cls-15" d="M224.84,99.75c2.27,4.76,4.66,9.48,6.77,14.31,1.2,2.75,1.94,5.7,2.89,8.57.27,1.5.55,3,.83,4.51a2.46,2.46,0,0,1-.47-.56c-1.64-3.77-3.26-7.56-4.89-11.33-.49-1.14-1-2.26-1.49-3.38a.44.44,0,0,0-.12.47c.86,3.44,1.73,6.88,2.56,10.34.07.3-.18.67-.28,1l-.89-1.69c-2.5-4.64-4.79-9.39-7.55-13.86-1.91-3.09-4.47-5.79-6.74-8.66-.19-1.06-.39-2.13-.58-3.2l.13-.1,7.44,10.59.26-.14-2.16-9.31.22-.17.8.51Z"/><path class="cls-6" d="M215.46,99.48c2.27,2.87,4.83,5.57,6.74,8.66,2.76,4.47,5.05,9.22,7.55,13.86l.89,1.69c1,2.59,2,5.15,3,7.76s1.76,5.4,2.64,8.1H236a170.79,170.79,0,0,0-8.12-19.05c-.28-.56-.55-1.14-.82-1.71-1.09-2-2.12-4-3.28-6a48.24,48.24,0,0,0-7-9.86v0a1.05,1.05,0,0,0-.05-.19c-4.52-5.38-10-8.82-17.29-8.79A18.58,18.58,0,0,0,191,95.46a5.77,5.77,0,0,1-1,.21c-.05-.19-.09-.38-.14-.57a12.5,12.5,0,0,1,5.88-1.93c2.33-.23,4.71-.07,7.07-.08.34.08.68.19,1,.24a15,15,0,0,1,6.07,2.1C211.83,96.67,213.62,98.12,215.46,99.48Z"/><path class="cls-14" d="M246.5,201.56a5.47,5.47,0,0,1-.8,1.45c-1.77,1.71-3.57,3.39-5.44,5-2.82,2.42-5.7,4.76-8.55,7.12-.07.06-.19.06-.4.12.05-.46.1-.86.15-1.26a1.87,1.87,0,0,1,.2-.48q5.26-6.24,10.55-12.48a18.38,18.38,0,0,1,1.43-1.36c.08,1.92.39,2.15,2.3,1.78A1.71,1.71,0,0,1,246.5,201.56Z"/><path class="cls-10" d="M236.24,139.55c-.88-2.7-1.7-5.43-2.64-8.1s-2-5.17-3-7.76c.1-.34.35-.71.28-1-.83-3.46-1.7-6.9-2.56-10.34a.44.44,0,0,1,.12-.47c.5,1.12,1,2.24,1.49,3.38,1.63,3.77,3.25,7.56,4.89,11.33a2.46,2.46,0,0,0,.47.56l.63,4.25c.34,2.33.69,4.67,1,7,.14,1,.19,2,.31,3.37C236.84,140.83,236.54,140.19,236.24,139.55Z"/><path class="cls-6" d="M244.52,162c-.75-1.15-1.52-2.29-2.24-3.46-2-3.22-3.88-6.46-5.85-9.67q-5-8.13-10-16.23c-1-1.68-2.07-3.38-3.1-5.07l.25-.26c1.71,2.36,3.53,4.64,5.1,7.08,3.56,5.53,7,11.14,10.48,16.71q1.41,2.73,2.83,5.46c.74,1.41,1.51,2.8,2.22,4.22A5.47,5.47,0,0,1,244.52,162Z"/><path class="cls-6" d="M237.88,249.46a13.69,13.69,0,0,1-4.88,1.38c-3.77,0-6.89-1.53-9.78-3.71-4-3-7-6.88-9.66-11-1.13-1.72-2.13-3.53-3.17-5.3a7.8,7.8,0,0,1-.38-1l.51,0c2.71,3.73,5.27,7.59,8.19,11.15s6.34,6.75,10.89,8.34a10.43,10.43,0,0,0,8.91-1c.22-.12.44-.22.66-.33Z"/><path class="cls-6" d="M243.64,199.66a18.38,18.38,0,0,0-1.43,1.36q-5.29,6.22-10.55,12.48a1.87,1.87,0,0,0-.2.48l-1.07,1.51h0l-1.5,1.77-.84,1a51.59,51.59,0,0,1,2.8-5.05c2-2.81,4.06-5.54,6.22-8.21,2-2.43,4.05-4.74,6.11-7.08a4,4,0,0,1,.85-.58c-.22,1,.5.22.74.37l-.25,1.08Z"/><path class="cls-14" d="M243.64,199.66l.88-.85a1.53,1.53,0,0,0,.52,0c.41-.12.79-.3,1.19-.46l-1.26-.64c-.05,0-.13,0-.2,0-.24-.15-1,.67-.74-.37h0l1.57-.25c1,0,1.29.44,1.29,1.36s.15,1.81.23,2.71l-.62.39a1.71,1.71,0,0,0-.56-.12C244,201.81,243.72,201.58,243.64,199.66Zm2.09-.62a9.83,9.83,0,0,0-1.19,1.23c0,.08.43.68.49.65a4.31,4.31,0,0,0,1.18-.8C246.28,200.06,246,199.63,245.73,199Z"/><path class="cls-6" d="M227.14,219.79l.91-1.51Z"/><path class="cls-14" d="M230.39,215.49l.34.27-.07.07-.27-.34Z"/><path class="cls-6" d="M239.17,248l.65-.22Z"/><path class="cls-6" d="M244.74,162.51l-.22-.5Z"/><path class="cls-6" d="M239.81,247.81l.22-.22Z"/><path class="cls-6" d="M240,247.6l.23-.28Z"/><path class="cls-7" d="M232.54,252.73c.56-.39.64,0,.69.42l-.46,0Z"/><path class="cls-10" d="M215.46,99.48c-1.84-1.36-3.63-2.81-5.55-4a15,15,0,0,0-6.07-2.1c-.35,0-.69-.16-1-.24l2.43-1.62a4.38,4.38,0,0,0-.92-.45,30.45,30.45,0,0,0-9.94-.53A56.87,56.87,0,0,0,182.76,93a3.52,3.52,0,0,1-.8,0,3.64,3.64,0,0,1,0-.81c.58-2.71,2.13-5,3.49-7.31.17-.3.28-.64.43-1a25.75,25.75,0,0,1,10.27-3.7c-2.78-.69-5.35.09-7.9.94,0-.11-.09-.26-.05-.33.6-.8,1.22-1.59,1.83-2.39l-.18-.21-9.28,2c.06-.78.1-1.32.15-1.87A42.14,42.14,0,0,1,185,77.1a25.57,25.57,0,0,1,11.08.21c2,.52,3.95,1.34,5.93,2,.4.14.81.22,1.22.32h0l.22.27c2.26,1.4,4.56,2.73,6.76,4.21,2.49,1.68,4.92,3.46,7.34,5.25,1.2.9,2.29,1.93,3.44,2.9l.22.22h0c.33.58.66,1.16,1,1.74.67,1.36,1.36,2.72,2,4.09.23.47.42,1,.63,1.45l-3.27-2.09-.8-.51-.22.17,2.16,9.31-.26.14L215,96.18l-.13.1C215.07,97.35,215.27,98.42,215.46,99.48Z"/><path class="cls-15" d="M232.54,113c-1.32-2.94-2.62-5.9-4-8.82-.52-1.13-1.17-2.2-1.73-3.31a5.9,5.9,0,0,1-.36-1.1c.31-.86.61-1.73.92-2.6,2.15,3.58,3.25,7.56,4.28,11.56C232,110.15,232.26,111.59,232.54,113Z"/><path class="cls-10" d="M227.4,97.19c-.31.87-.61,1.74-.92,2.6l-2.17-3-1.81-2.58c-.16-.44-.32-.88-.47-1.31Z"/><path class="cls-8" d="M222,92.87c.15.43.31.87.47,1.31l-.31,0c-.34-.58-.67-1.16-1-1.74h.43l.26.23Z"/><path class="cls-10" d="M221.88,92.7l-.26-.23Z"/><path class="cls-10" d="M221.63,92.48h0Z"/><path class="cls-8" d="M221.2,92.48l-.22-.22Z"/><path class="cls-6" d="M203.44,79.9l-.22-.27Z"/><path class="cls-7" d="M187.16,75.73l.66-.17Z"/><path class="cls-7" d="M191.25,75.37h0Z"/><path class="cls-12" d="M121.49,311.15A70.14,70.14,0,0,0,127.24,326c.28.56.48,1.17.71,1.76l-1.75.12h-1.93l-7.5-.1a55.51,55.51,0,0,1-2-12.16,72.5,72.5,0,0,1,.91-15.92c.4-2.37.94-4.73,1.54-7.06.15-.59.76-1.07,1.15-1.6a8.15,8.15,0,0,1,.7,1.91c.15,1.66.12,3.34.25,5,.18,2.26.44,4.52.67,6.78l.18.64,0,.38a1.49,1.49,0,0,0-1,1.61l1-1.07.43,1.44,0,.42a1.19,1.19,0,0,0,.4,1.76l.22.39Z"/><path class="cls-6" d="M115.93,327.87h.43l-.21.31Z"/><path class="cls-11" d="M120.2,305.37l-.18-.64,2.18-.34c-.22-.41-.38-.77-.59-1.09s-.61-.58-.68-.92a1.34,1.34,0,0,1,.24-1.13,1.18,1.18,0,0,1,1.12.15,21.3,21.3,0,0,1,1.64,1.8,9.44,9.44,0,0,1,1.46-2.28,8.94,8.94,0,0,1,2.58-1.11,4.79,4.79,0,0,1,2.52-2.79c.2-.06.56-.12.57-.22.26-1.7,2.26-1.49,3-2.7.15-.25.9-.17,1.38-.16a7,7,0,0,1,1.19.19c0-.36.06-.71.07-1.07a2.28,2.28,0,0,1,0-.74c.13-.3.35-.71.6-.76a1,1,0,0,1,.8.49,39.3,39.3,0,0,1,1.33,3.92,13.15,13.15,0,0,1,.42,2.8,1.43,1.43,0,0,1-.48,1.1,1.22,1.22,0,0,1-1.09,0c-.18-.09-.25-.61-.2-.91a2.1,2.1,0,0,0-1.6-2.53,3.45,3.45,0,0,0-1,.24c.47.61.84,1.1,1.22,1.57a.81.81,0,0,1-.16,1.35c-.59.42-1,.14-1.34-.35a17.06,17.06,0,0,0-1.48-1.8c-.21-.22-.64-.21-1-.31l-.15.31c.56.85,1.08,1.74,1.72,2.53a1,1,0,0,1-.18,1.54c-.51.43-.78,0-1.19-.39-.78-.69-.94-2.11-2.4-2.07-.29,1.22.79,1.78,1.24,2.64.21.39.56,1,.42,1.24s-.82.41-1.37.64c-.08,1.28-1.38,2.08-2.43,2.38a3.34,3.34,0,0,0-2.35,2.34c-.6-.38-.82-.37-1.26.39a9.39,9.39,0,0,1-2.64,2.19,2.55,2.55,0,0,1-.7.27c-.07-.29-.15-.57-.23-.85,1.76.49,2-1.51,3.22-2a12.24,12.24,0,0,1-1.38-1.74A2.11,2.11,0,0,0,120.2,305.37Zm11.24-2.51.34-.28c-.63-.87-1.26-1.75-1.9-2.62a1.08,1.08,0,0,1,.31-1.58.86.86,0,0,1,1.43.22c.61.88,1.38,1.66,2.07,2.49L134,301c0-.21,0-.48-.13-.64a25.12,25.12,0,0,0-1.56-2c-.58-.67-.27-1.22.22-1.67s1.1-.32,1.54.27.9,1.19,1.4,1.74a5.56,5.56,0,0,0,1,.64c-.06-.43,0-.6-.11-.69-.7-.88-1.39-1.79-2.17-2.61-.24-.25-.89-.46-1.11-.32-1.22.76-2.15,1.9-3.43,2.61-.38.22-.61.7-1,1.22Zm-6.87-.43.4.38a10.63,10.63,0,0,1,1-1c.47-.39,1.08-.84,1.58-.22s-.08,1-.6,1.31l-.09.06a1.74,1.74,0,0,0-.31,2.44c.62.68,1.35.6,2.17-.25.45-.47.92-.92,1.43-1.43-.46-.6-1-1.31-1.56-2.06s-1.23-1.29-2-.9A9.67,9.67,0,0,0,124.57,302.43Zm14.17-2.71c1.1-1.27-.08-6.53-1.7-7.66l1.1,3.64c-1.39,0-2.18-1.52-3.57-1.18A6.35,6.35,0,0,0,136,295.6C137.51,296.48,139.42,297.09,138.74,299.72Zm-16.87,2-.42.26c.35.51.68,1,1,1.53.89,1.19,1.77,2.38,2.7,3.54.16.2.51.25.77.36a2.13,2.13,0,0,0-.17-.78c-.57-.77-1.19-1.49-1.79-2.24Z"/><path class="cls-11" d="M242,301.1c0-.81,0-1.63,0-2.45s.34-1,1-1c1.48,0,3,0,4.43,0,.88,0,1.31.26,1.27,1.23-.07,1.49-.05,3,0,4.48,0,.77-.26,1.13-1,1.13-1.6,0-3.2,0-4.8,0-.29,0-.74-.5-.79-.81A19.84,19.84,0,0,1,242,301.1Zm4.49,1.95a23.06,23.06,0,0,0,0-2.89,1.44,1.44,0,0,0-.88-1c-.87-.25-1.28,0-1.58.71a4.9,4.9,0,0,1,1.05-.1,2.57,2.57,0,0,1,.78.35,6.21,6.21,0,0,1-.63.52,2.08,2.08,0,0,1-.61.2c-.85.21-1,.83-.86,1.57s.79.82,1.43.76C245.58,303.18,246.06,303.1,246.45,303.05Z"/><path class="cls-8" d="M112.3,289.24a20.94,20.94,0,0,1-.85-9.72Z"/><path class="cls-6" d="M119.37,138.06l-.33,0,2.23-6.79c.07-.23.13-.47.19-.7,1.31-3.57,2.68-7.11,3.9-10.71.61-1.81.87-3.73,1.4-5.57a49.31,49.31,0,0,1,8.89-16.76l2.09-2.7c1.1-1.19,2.18-2.41,3.32-3.56a101.91,101.91,0,0,1,18.85-15,.43.43,0,0,1,.49,0c-.6.47-1.19,1-1.82,1.41A99.8,99.8,0,0,0,142,92c-2.67,2.88-5,6.08-7.48,9.13-.11.14-.24.27-.34.41-4.35,6.61-7.48,13.65-7.73,21.71-.64,8.29-2,16.47-3.44,24.64l-.24,1.37-.9-1.14q.78-5.31,1.55-10.63c.23-1.58.48-3.15.72-4.73,0-.31,0-.63.06-.95l0-.4.15-.46,1.46-8.67a18.78,18.78,0,0,0-1.63,3.5c-1.13,3-2.23,6.05-3.34,9.07Z"/><path class="cls-15" d="M126.47,123.25c.25-8.06,3.38-15.1,7.73-21.71.1-.14.23-.27.34-.41a23.79,23.79,0,0,1-.83,2.51c-1.46,3.31-3,6.6-4.44,9.91a3.48,3.48,0,0,0-.06.63l4-6c-2,7.77-4.41,15.43-4.49,23.55l-.36.05a39,39,0,0,1-1-4.5,44.88,44.88,0,0,1,0-4.94Zm1-1.74h-.09v.34h.09Z"/><path class="cls-14" d="M127.28,147.37c1.67.62,2.05,2.38,3.19,3.27-.57.55-1,.92-1.4,1.36a1.72,1.72,0,0,1-2,.77c-.46-.18-.74-.81-1.11-1.23.38-.69.77-1.38,1.13-2.08a6.82,6.82,0,0,0,.31-.9c-.35,0-.76-.11-1,.05s-.55.63-.87.9a2,2,0,0,1-.72.22c0-.25-.15-.56-.05-.73A2.9,2.9,0,0,1,127.28,147.37Zm1.27,2.25-.52-.13a19.18,19.18,0,0,0-1.08,1.78c0,.09.55.67.66.62a2.1,2.1,0,0,0,1-.88A3.53,3.53,0,0,0,128.55,149.62Z"/><path class="cls-10" d="M125.29,152.46a6.6,6.6,0,0,1,.54.87,7.24,7.24,0,0,1,.28,1l-1-.49-2.45-2.79-.28-.85.61-.44Z"/><path class="cls-10" d="M123,149.8l-.61.44-.68-.42c-.22-.6-1.32-1.29.18-1.7l.9,1.14Z"/><path class="cls-18" d="M225.48,172.93a19.36,19.36,0,0,0,.7,2,31.23,31.23,0,0,1,2.7,15.57c-.13-.28-.38-.56-.39-.85-.05-1.79,0-3.58-.09-5.36a2.85,2.85,0,0,0-.34-.87l-.24-.43c-.62-2.3-1.23-4.6-1.85-6.91l-.52-.38c.22-1.68-1.16-2.3-2.12-3.2.13-.48.71-1.09-.34-1.26a3.42,3.42,0,0,0-.29-.87A88.52,88.52,0,0,1,215.37,157a8.22,8.22,0,0,0-.59-1l-.63-1.47-2.94-7.12-.5-1.4c-.28-.63-.55-1.27-.83-1.9a7,7,0,0,0-.2-.91c-2-5.62-4-11.25-5.93-16.88-.83-2.37-1.6-4.77-2.4-7.15-.36-1.3-.76-2.59-1.08-3.91a1.49,1.49,0,0,0-1.27-1.2c-5.24-1.34-10.57-1.39-15.92-1.18-2.67.11-5.34.29-8,.27-3.71,0-7.41-.4-11.1-.27a70.36,70.36,0,0,0-8.77,1.13,1.8,1.8,0,0,0-1.11,1q-4.68,13.74-9.27,27.52c-.2.6-.34,1.23-.51,1.84-.61.39-.77.83-.14,1.35-.3.32-.71.58-.87.95-1.11,2.54-2.14,5.1-3.23,7.64-1,2.21-2,4.4-2.94,6.6a3,3,0,0,0-.32.4l-4.58,8-1,1.84-.74-.21c.56-.89,1.13-1.76,1.67-2.66,1.18-1.95,2.4-3.89,3.48-5.9.62-1.13,1-2.4,1.52-3.57.75-1.64,1.6-3.22,2.33-4.86s1.41-3.39,2.12-5.08c.59-1.4,1.22-2.79,1.79-4.2s1.09-2.88,1.62-4.32,1-2.83,1.54-4.25c.21-.57.37-1.14.57-1.71,1.1-3.21,2.26-6.4,3.3-9.62s2-6.43,2.95-9.63c.16-.54.42-1,.63-1.56.75-.11,1.5-.2,2.24-.36a24.54,24.54,0,0,1,2.85-.68c1.82-.16,3.66-.24,5.48-.23,3.44,0,6.88.14,10.31.2.44,0,1,.14.94-.63l2.14.42a2.87,2.87,0,0,0,.79.2c1.92,0,3.85-.2,5.78-.19,3.66,0,7.32.13,11,.21a1.48,1.48,0,0,1,.71.11,6.28,6.28,0,0,0,4,.74,18.41,18.41,0,0,1,.85,1.94c.39,1.28.67,2.6,1.07,3.89q1.13,3.63,2.34,7.23c.65,1.93,1.37,3.84,2,5.78s1.19,3.89,1.88,5.81c.56,1.58,1.27,3.11,1.89,4.67s1.1,3,1.67,4.41c.66,1.7,1.31,3.41,2.05,5.08q2.16,4.88,4.44,9.68c.67,1.4,1.46,2.73,2.23,4.07.08.15.35.2.53.29l.49.21c.65,1.27,1.26,2.57,2,3.8C224.19,171.22,224.87,172.05,225.48,172.93Z"/><path class="cls-8" d="M175.83,112c.06.77-.5.64-.94.63-3.43-.06-6.87-.17-10.31-.2-1.82,0-3.66.07-5.48.23a24.54,24.54,0,0,0-2.85.68c-.74.16-1.49.25-2.24.36.5-1.86,1-3.73,1.53-5.58.07-.21.63-.41.94-.38,2.92.26,5.86.41,8.74.94a36.32,36.32,0,0,1,9.79,3.18A2.76,2.76,0,0,0,175.83,112Z"/><path class="cls-8" d="M200.23,113.44a6.28,6.28,0,0,1-4-.74,1.48,1.48,0,0,0-.71-.11c-3.66-.08-7.32-.18-11-.21-1.93,0-3.86.14-5.78.19a2.87,2.87,0,0,1-.79-.2c2.11-.79,4.25-1.52,6.32-2.39,3.28-1.37,6.78-1.65,10.21-2.25a18.32,18.32,0,0,1,3.63,0,.82.82,0,0,1,.61.42c.45,1.41.85,2.84,1.27,4.26.07.29.15.57.22.86Z"/><path class="cls-6" d="M143.12,236.68a15.1,15.1,0,0,0-1.94-6.57c-2-3.61-4.15-7.16-6.28-10.71a32.1,32.1,0,0,0-2-2.66c-1-1.52-1.86-3.08-2.9-4.55-2-2.83-4.07-5.61-6.11-8.42-.58-.8-1.16-1.59-1.73-2.39-.89-1.48-1.77-3-2.68-4.45A19.44,19.44,0,0,1,117,189.5a27.15,27.15,0,0,1,.66-9.5c0-.11.14-.21.33-.47-.14,1.69-.29,3.19-.36,4.69a21.82,21.82,0,0,0,1.13,8.71,30.68,30.68,0,0,0,4.66,8c1.5,2,2.92,4,4.33,6,3,4.29,6,8.54,8.85,12.9a50,50,0,0,1,6.07,12,34.38,34.38,0,0,1,.84,4.8Z"/><path class="cls-6" d="M221.69,166.5l-.49-.21c-1-2.36-2-4.69-2.89-7.1-1.53-4.36-3-8.73-4.34-13.16s-2.52-8.95-3.58-13.47-1.95-9.29-2.88-13.94c-.49-2.43-.93-4.88-1.38-7.31a1.79,1.79,0,0,1,.06-1.09c.44,1.64.9,3.28,1.3,4.92.66,2.73,1.27,5.46,1.92,8.18.8,3.31,1.58,6.63,2.41,9.93.74,2.92,1.51,5.84,2.32,8.74,1.33,4.72,2.64,9.44,4.07,14.12.89,2.92,2,5.77,3,8.66C221.38,165.34,221.52,165.93,221.69,166.5Z"/><path class="cls-6" d="M141.37,129.26c.64-3.08,1.16-6.2,2-9.24a59.87,59.87,0,0,1,2.84-8.48c2.55-5.85,5.64-11.38,10.43-15.79,3.68-3.39,7.73-3.44,12.07-1.61.68.28,1.35.6,2,.9l0,.28c-.89-.22-1.77-.49-2.67-.64a29.72,29.72,0,0,0-5.42-.76c-2,0-3.62,1.33-5.07,2.65-4,3.63-6.65,8.16-9,13a95.47,95.47,0,0,0-5.43,14.31c-.55,1.86-1,3.75-1.5,5.63Z"/><path class="cls-17" d="M130.49,171l.74.21a85.59,85.59,0,0,0,14.41,29.93,79,79,0,0,0,17.47,17l.75.82v.84h-.64l-.17-.21c-.16-.34-.23-.84-.5-1a46.94,46.94,0,0,1-8-6.63c-2.15-2.07-4.27-4.19-6.3-6.38-1-1.13-1.86-2.48-2.83-3.7s-1.94-2.18-2.81-3.35a26.66,26.66,0,0,1-1.62-2.79c-1.27-2.2-2.58-4.38-3.8-6.6-.54-1-.91-2-1.37-3.11-.61.39-1.09.74-1.61,1a5.07,5.07,0,0,1-5.66-.71,18.81,18.81,0,0,1-2-1.92,3.66,3.66,0,0,1-.4-1.26l.8.65a30.94,30.94,0,0,0,3.79,2.84,3.32,3.32,0,0,0,4.26-1.17,1,1,0,0,0,.17-.83c-.36-1-.8-1.88-1.16-2.71l-1,1.3c.6-2-.16-3.78-.88-5.57,0-.21,0-.43,0-.65-.42-1.39-.83-2.78-1.27-4.16-.05-.15-.29-.25-.45-.37l-.22-.18v-.21l.21-.87C130.48,171.15,130.49,171.08,130.49,171Z"/><path class="cls-19" d="M133.06,183.22l1-1.3c.36.83.8,1.75,1.16,2.71a1,1,0,0,1-.17.83,3.32,3.32,0,0,1-4.26,1.17,30.94,30.94,0,0,1-3.79-2.84l-.8-.65.18-1.65.22-.65a.66.66,0,0,0,0-.2.23.23,0,0,0,0-.18c.15-.44.26-.9.44-1.33.4-.94.84-1.86,1.26-2.79,1,1.49,1.91,3.12,3.64,4a3.93,3.93,0,0,1-.39,1c-.87,1.09-2.05,1-3.25.8l-.08,0,.09,0a5,5,0,0,0,4.48,1.4l.24-.32Z"/><path class="cls-6" d="M176.68,108.71a12.31,12.31,0,0,1-.18-1.34c-.08-5.06-.16-10.11-.21-15.17a1.66,1.66,0,0,0-1-1.65,67.29,67.29,0,0,0-13.61-6,2.42,2.42,0,0,1-.4-.19c1.43-.47,3.49,0,8,1.73a20.21,20.21,0,0,1,7,4.82c.23-3.55.44-6.76.64-10l.34,0A169.75,169.75,0,0,1,176.68,108.71Z"/><path class="cls-6" d="M128.55,174c.09-1,.12-2.05.29-3.06.74-4.54,1.55-9.06,2.27-13.6.41-2.51.7-5,1-7.56l0-.18.45-2.48,1,1c-.22,1.79-.37,3.59-.69,5.37q-1.3,7.15-2.73,14.28c-.34,1.73-.87,3.43-1.31,5.14Z"/><path class="cls-6" d="M192.31,99.75a20,20,0,0,1,10.88.67c-.21.1-.43.3-.61.27-6.24-1.07-12.06.29-17.6,3.14-1.79.93-3.56,1.9-5.5,2.74.33-.33.64-.7,1-1A29.42,29.42,0,0,1,192.31,99.75Z"/><path class="cls-14" d="M133.67,148.15l-1-1c-.32-.46-.65-.92-1-1.39s-.88-.76-1.41-.24a1,1,0,0,0,0,1.6c.7.8,1.31,1.67,2,2.51l0,.18c-.6.33-1,.21-1.4-.39-.64-.93-1.41-1.76-2.13-2.64-.33-.41-.54-.77.2-1,.26-.09.44-.41.66-.61s.57-.68.94-.81a2.25,2.25,0,0,0,1.53-1.25c.17-.4,1-.51,1.52-.74l1.07.33c.62.9,1.26,1.78,1.83,2.7.14.23.06.6.08.9a2.41,2.41,0,0,1-.88-.3,16.49,16.49,0,0,1-1.2-1.3c-.24-.62-.53-1.19-1.35-1.07-1,.45-1.09.75-.38,1.53l1.25,1.75C134.14,147.34,134.94,147.92,133.67,148.15Z"/><path class="cls-6" d="M188.27,81.15c2.55-.85,5.12-1.63,7.9-.94a25.75,25.75,0,0,0-10.27,3.7L180,87.41A20.57,20.57,0,0,1,188.27,81.15Z"/><path class="cls-6" d="M133.61,148.43c-.36-.11-.83-.2-1.18-.31.28-2.38,1.58-10.58,1.92-13,.47-3.17,1-6.33,1.71-9.48-.09,1.67-.13,3.34-.28,5-.23,2.68-.54,5.35-.81,8l-.21,2.11c-.53.36-.46.78-.13,1.23C134.6,142.25,133.64,148.23,133.61,148.43Z"/><path class="cls-14" d="M134.63,142.05c-.33-.45-.4-.87.13-1.23l3.05,1.69c.22-1.31-1.34-2.42-.5-3.71l.42-.08c.44,1.36,1,2.71,1.29,4.09a13.25,13.25,0,0,1,.42,3.13c0,.72-.46,1.11-1.19.5.67-1.9.66-2-1.09-3.06C136.35,142.88,135.48,142.49,134.63,142.05Z"/><path class="cls-10" d="M123.2,156.87c-.55.19-1.13.59-1.65.52a1.54,1.54,0,0,1-1.07-2.35c.18-.34.45-.62.66-.95s.41-.64.71-1.12l-1-.18c0-.24,0-.49,0-.73l.66-.12,2.25,2,.68.61c.19.56.58,1.12-.46,1.33C123.67,155.93,123.46,156.52,123.2,156.87Zm-.65-2.73c-.71.32-1.39.71-1.4,1.63,0,.21.45.63.6.59a2,2,0,0,0,1.11-.64A1,1,0,0,0,122.55,154.14Z"/><path class="cls-8" d="M128.13,199.25l2.15-1.17c-.1-1.23-1.22,0-1.73-.54.26-.91,1-.62,1.62-.63a.88.88,0,0,1,1,1c0,1,.09,1.94.14,2.89l-2.33.27C128.66,200.47,128.39,199.86,128.13,199.25Zm2.71.29c-.5-.27-.77-.52-.89-.46a5.17,5.17,0,0,0-.95.68c.2.19.46.57.61.53A5.88,5.88,0,0,0,130.84,199.54Z"/><path class="cls-16" d="M187.09,97.38c-1.67,1.17-3.35,2.33-5,3.52-.61.44-1.16.95-1.74,1.43l-.26-.29a24,24,0,0,1,2-1.94c1.55-1.24,3.16-2.38,4.73-3.59a3.76,3.76,0,0,0,.61-.8,5,5,0,0,1,1.14-.19,2.15,2.15,0,0,1,.75.36,6,6,0,0,1-.57.46C188.18,96.7,187.63,97,187.09,97.38Z"/><path class="cls-14" d="M187.09,97.38c.54-.35,1.09-.68,1.62-1a6,6,0,0,0,.57-.46,2.15,2.15,0,0,0-.75-.36,5,5,0,0,0-1.14.19c0-1,.75-.88,1.36-.88a5.61,5.61,0,0,1,1.11.27c0,.19.09.38.14.57v3C187.32,99.05,187.29,99,187.09,97.38Zm2.15-.39c-.66,0-1.22.07-1.31.8,0,.12.45.44.68.43C189.39,98.19,189.33,97.64,189.24,97Z"/><path class="cls-10" d="M124.44,154.54l-.68-.61-2.25-2,.07-.07c.85.42.63-.65,1.09-.78l2.45,2.79Z"/><path class="cls-6" d="M133,143.58c.82-.12,1.11.45,1.35,1.07l-.48,2.21-1.25-1.75C132.77,144.6,132.89,144.09,133,143.58Z"/><path class="cls-8" d="M128.34,176.34c-.42.93-.86,1.85-1.26,2.79-.18.43-.29.89-.44,1.33a6.83,6.83,0,0,1,.77-3.76,6.7,6.7,0,0,0,.31-1.21h.63Z"/><path class="cls-16" d="M128.35,175.48h-.63l.39-.65c.08-.21.16-.42.23-.64l.21-.2.39-1.06,1.32-.45,0,0Z"/><path class="cls-16" d="M170.68,95.32l0-.28,3.82,1.81-.24.47Z"/><path class="cls-8" d="M141.37,129.26l.23.22-.87,4.31-.4-.09Z"/><path class="cls-18" d="M130.48,171.21l-.21.87C130.16,171.74,129.77,171.35,130.48,171.21Z"/><path class="cls-18" d="M200.23,113.23c-.07-.29-.15-.57-.22-.86C200.08,112.66,200.16,112.94,200.23,113.23Z"/><path class="cls-8" d="M128.34,174.2c-.07.22-.15.43-.23.64C128.19,174.63,128.27,174.42,128.34,174.2Z"/><path class="cls-16" d="M130.26,172.29l.22.18-.19.05,0,0A.67.67,0,0,1,130.26,172.29Z"/><path class="cls-8" d="M126.61,180.64a.66.66,0,0,1,0,.2,1.19,1.19,0,0,1-.09-.15Z"/><path class="cls-15" d="M124.25,131.41l0,.4a13.2,13.2,0,0,0-1,2.13c-.72,2.6-1.35,5.21-2,7.82a1.23,1.23,0,0,1-.14.36c0-1.93,0-4,0-6.15a8.43,8.43,0,0,0-.18-1.12c1.11-3,2.21-6,3.34-9.07a18.78,18.78,0,0,1,1.63-3.5q-.72,4.34-1.46,8.67Z"/><path class="cls-10" d="M120.85,152.06c0,.24,0,.49,0,.73-.35.39-.68.81-1.06,1.17a1.86,1.86,0,0,1-.6.29c0-.25-.19-.62-.08-.72C119.64,153,120.25,152.54,120.85,152.06Z"/><path class="cls-6" d="M122.67,151.09c-.46.13-.24,1.2-1.09.78,0-.68.08-1.37.13-2.05l.68.42C122.48,150.53,122.57,150.81,122.67,151.09Z"/><path class="cls-18" d="M115.53,160.31l-.24-.22,1.5-2.78h0Z"/><path class="cls-7" d="M114,245.9l-1.33-1.23C113.76,244.38,113.7,245.33,114,245.9Z"/><path class="cls-18" d="M116.79,157.31l0-.09,0,.08Z"/><path class="cls-10" d="M125.43,108.5a24,24,0,0,1,3-9.58h2.73A31.13,31.13,0,0,0,125.43,108.5Z"/><path class="cls-10" d="M129.8,96.9c.47.13,1.36-.14,1.06.81s-1.11.76-1.85.52C129.27,97.79,129.53,97.34,129.8,96.9Z"/><path class="cls-15" d="M129.8,96.9c-.27.44-.53.89-.79,1.33-.2,0-.53.1-.59,0-.39-.59.34-1.87,1.06-1.85C129.59,96.39,129.69,96.72,129.8,96.9Z"/><path class="cls-6" d="M228.72,158.35a88.78,88.78,0,0,1,7.34,20.52A41.9,41.9,0,0,1,237,191a16.68,16.68,0,0,1-4.75,10.69,68.33,68.33,0,0,1-6.16,5.88,65.13,65.13,0,0,1-6.64,4.25,25.43,25.43,0,0,1-2.28,1.13l-.27-.28c1.07-.7,2.1-1.44,3.2-2.09a43.56,43.56,0,0,0,12.51-11.26,16.3,16.3,0,0,0,3.17-9.1c.44-6.57-1-12.85-2.89-19-1.22-4-2.84-7.95-4.27-11.92a7.36,7.36,0,0,1-.21-.93Z"/><path class="cls-18" d="M228.66,192.17c-.35,1.5-.69,3-1.09,4.49-.06.26-.37.45-.57.67.17-1,.32-2,.5-3a5.51,5.51,0,0,1,.36-1.41C228,192.65,228.39,192.43,228.66,192.17Z"/><path class="cls-18" d="M227,197.33a5.65,5.65,0,0,1-1.51,3.62,4.59,4.59,0,0,1,.08-1.12,13.06,13.06,0,0,1,.8-1.89C226.48,197.69,226.78,197.53,227,197.33Z"/><path class="cls-10" d="M214.79,213.8l-.44.63h0l.42-.65Z"/><path class="cls-10" d="M214.35,214.43l0,.08h-.06l.1-.08Z"/><path class="cls-8" d="M163.06,219.57l.17.21.45.66.23.41-.24,1.08-.29-.22-.38-.42-.21-.22c-.17-.72-.6-1.12-1.29-.67s-.89.92-.3,1.59l1.72,2c0,.38-.1.76-.14,1.14l-1.85-1.82c-.52-.52-.84-1.72-1.86-.92s-.27,1.43.3,2.08a17.55,17.55,0,0,1,1.23,1.61c.1.15,0,.42,0,.64-.25,0-.62.09-.74,0-.93-1.07-1.83-2.17-2.7-3.29a.72.72,0,0,1,.08-.61c1.15-.24,1.35-2,2.81-1.75.09,0,.26-.29.35-.47C161.06,219.23,161.69,219,163.06,219.57Z"/><path class="cls-8" d="M152.84,232.55a14.6,14.6,0,0,1-1.49,1.48,1.37,1.37,0,0,1-1.93-.21,1.51,1.51,0,0,1-.19-2c.26-.41.68-.72,1-1.12a2.37,2.37,0,0,0,.27-.7c-.29-.07-.67-.29-.85-.18a10.94,10.94,0,0,0-1,1,3.63,3.63,0,0,1-.75.33c0-.29-.12-.63,0-.86.92-1.83,2.72-2,4-.39.41.54.86,1.05,1.26,1.59a7.37,7.37,0,0,1,.41.79Zm-1.59-1.78a11.39,11.39,0,0,0-1.21,1.71c-.07.14.36.74.6.76.81.09,1.12-.56,1.2-1.21C151.87,231.73,151.56,231.39,151.25,230.77Z"/><path class="cls-8" d="M156.37,225.73c-.62-1-1.14-.42-1.64.05-.2.19-.33.47-.54.65a1.84,1.84,0,0,1-.59.25c-.06-.22-.23-.56-.15-.64a9.2,9.2,0,0,1,2-1.68c.71-.37,1.35.13,1.82.74s1.18,1.42,1.72,2.16a.75.75,0,0,1,0,.71c-.38.42-.87.74-1.28,1.14-.83.81-1.65.94-2.36.33a1.64,1.64,0,0,1-.14-2.39A14.52,14.52,0,0,1,156.37,225.73Zm1.58,1.66a6.63,6.63,0,0,0-1.06-.72,6.74,6.74,0,0,0-1.12,1.43c0,.07.63.69.68.65A18.29,18.29,0,0,0,158,227.39Z"/><path class="cls-8" d="M150.5,225.14a5.79,5.79,0,0,1,.51.48c1.26,1.58,2.53,3.14,3.75,4.76.17.22.06.65.08,1-.28-.11-.66-.15-.83-.35-1.29-1.6-2.55-3.23-3.78-4.87-.16-.22-.06-.62-.08-.94Z"/><path class="cls-20" d="M201.35,119.17c.8,2.38,1.57,4.78,2.4,7.15,2,5.63,4,11.26,5.93,16.88a7,7,0,0,1,.2.91c-1.62-.16-3.24-.39-4.87-.47a30.25,30.25,0,0,0-11.08,1.72,3.61,3.61,0,0,0-2.86,1.29h0l-2.35.45V148l-.18.38c-.06,0-.14-.07-.17-.13-.36-.83-1-.67-1.59-.37-.27.14-.56.76-.45,1,.34.66,1,.52,1.56.26.06,0,.1-.09.15-.14l.64.19c.26.52.5,1.11,1.09.28l.28,0,0,.42c-.64.79-1.36,1.53-1.91,2.37-.79,1.22-1.46,2.52-2.19,3.79-.23.7-.45,1.41-.68,2.12a45.45,45.45,0,0,0-2.33,11.29l.3.06q1.16-5.14,2.3-10.29c1.06-1.24,2-2.55,3.18-3.7a8.6,8.6,0,0,1,3.94-2.49c-1,1.45-2.23,2.5-2.39,4.34.54-.28.9-.5,1.28-.67.7-.3,1.42-.58,2.12-.87l-2.19,2.4c-.39.53-.8,1.05-1.14,1.61-.11.18,0,.48,0,.72-.09,1.88,1,3.18,2.22,4.38.9.92,2,1.69,2.93,2.52l1,.34,0,0,2.57.88.86.16.22,0c1.34.06,2.7.2,4,.16a9.43,9.43,0,0,0,8.8-6.9l1.92-6.11a8.22,8.22,0,0,1,.59,1,88.52,88.52,0,0,0,7.33,13.37,3.42,3.42,0,0,1,.29.87,83.94,83.94,0,0,1-10.88,24.94,80.4,80.4,0,0,1-22.26,22.9,2.92,2.92,0,0,0-.32.28l-.28.19a.16.16,0,0,0-.14.08l-.59.23a14.76,14.76,0,0,0-1.49,0c-2.73.12-5.46.39-8.18.36a16.77,16.77,0,0,1-7-1.63c-2.93-1.35-5.23-3.54-7.51-5.72a54.55,54.55,0,0,1-5.22-5.63c-2.83-3.58-5.5-7.3-8.22-11-.83-1.13-1.61-2.3-2.42-3.45l-.23-.59-.86-1.8c-.51-1-1-2.07-1.52-3.1a9.09,9.09,0,0,1,1.17,0,54.5,54.5,0,0,0,6.17,1,20.73,20.73,0,0,0,9.52-1.72c2.7-1.25,5.38-2.7,5.92-6.11a5.43,5.43,0,0,0-.94-4.35c-1.68-2.1-4.07-3.23-6.48-4.28-.78-.34-1-.12-1,.69s0,1.76,0,2.59a5.49,5.49,0,0,1-1.66.35c-.52-.06-1.27-.3-1.47-.69-.38-.76.24-1.34.87-1.72.24-.15.64,0,.93-.14a2.74,2.74,0,0,0,.68-.56c-.21-.23-.4-.62-.65-.66a6.55,6.55,0,0,0-1.5.11l.15-.82a19,19,0,0,0-2.41-.17,41.7,41.7,0,0,0-6.34.49,14.05,14.05,0,0,0-5.69,2.14,21.32,21.32,0,0,1-2.57,1.42c-.37-1.26-.8-2.5-1.1-3.77-.66-2.73-1.25-5.49-1.88-8.23v-.34l4.27-6h.8c.59,1.87,1.14,3.75,1.77,5.6,1.14,3.39,3.28,5.85,6.86,6.69a15.29,15.29,0,0,0,7-.08,4,4,0,0,0,.89-.43,25.69,25.69,0,0,0,4.19-1.91,13.51,13.51,0,0,0,2.42-2.81l.25-.43.59-.87,0,0,.63-1.62c0-.2.06-.45,0-.58-.67-.85-1.38-1.67-2.07-2.5l-.9-1-.6-1.31-1.52-1.93.43-.23.83.24,1.31.87c.76.72,1.57,1.42,2.29,2.19s1.31,1.52,2,2.29l1.21,2.92.29-.1-.82-2.83a17.36,17.36,0,0,1-.62-1.65,12.8,12.8,0,0,0-5-7.31l3.72-.69a22.12,22.12,0,0,0-10.11-4.61c-3-.48-6-.48-9-.7a7,7,0,0,0,.55-.9c2-4.53,4-9.08,6.12-13.59.72-1.57,1-3.48,2.78-4.36.66.06.63-.4.62-.83l.85-.44h.63c1.29-.49,2.55-1.07,3.86-1.47a80.86,80.86,0,0,1,20.33-3c3.95-.17,7.9,0,11.85,0C198,119,199.65,119.12,201.35,119.17ZM186.91,204.8l.05,0,.8-.61.5-.44,1.09-1h0l.43-.43h0l1.06-1.08.21-.17,1.28-1.64a10.36,10.36,0,0,1-6,1,1.67,1.67,0,0,0-.42.09l-.3-.13-.37-.36a25.12,25.12,0,0,0-12-.79L166,200.35l-2.14-.66-.24.31,1.29,1.05a9,9,0,0,0,.81,1.11c1.39,1.41,2.54,3.13,4.5,3.84a21,21,0,0,0,9.75,1.32,14.32,14.32,0,0,0,6.41-2.14Zm-3.54-19.88.06,5.33a4.81,4.81,0,0,1-.85.36,30.51,30.51,0,0,1-3.89.7c-.62.05-1.26-.45-1.92-.53a11.44,11.44,0,0,0-5,.37,8.55,8.55,0,0,0,1,.87c3.91,2.33,8,2,12,.41,1.76-.73,2.36-1.15,1.79-3.5-.3-1.21-.54-2.43-.88-3.62-.83-3-1.7-6-2.56-9a53.59,53.59,0,0,0,.09,6.47c0,.06.08.12.12.17Zm17.85,3.64c2.36-.34,4.29-.45,6.13-.92a14.76,14.76,0,0,0,7.35-3.83c2.34-2.44,2.47-5,1-7.41a10.91,10.91,0,0,0-5.77-4.26,24.35,24.35,0,0,0-12.78-.93c-3.23.59-6.25,1.67-8.57,4.13-2.09,2.22-2.45,4.94-.83,7.36a11,11,0,0,0,5.84,4.22A63.65,63.65,0,0,0,201.22,188.56Zm-22.11-2.7.17,0c0,.57,0,1.14,0,1.71,0,.79.23,1.49,1.22,1.57s1.27-.7,1.27-1.38c0-1.7-.1-3.4-.25-5.1,0-.28-.53-.75-.77-.73a1.33,1.33,0,0,0-1,.7A31.63,31.63,0,0,0,179.11,185.86Zm-19.43-12.32-.35-.32a13.05,13.05,0,0,0-1.62.84c-.09.07.06.79.18.81a1.75,1.75,0,0,0,1.25-.08C159.45,174.54,159.51,174,159.68,173.54Z"/><path class="cls-19" d="M226,176.06c.62,2.31,1.23,4.61,1.85,6.91a38.4,38.4,0,0,1-3.71,3.3,3.47,3.47,0,0,1-4.81-.53,1.42,1.42,0,0,1-.21-1.17,18.58,18.58,0,0,1,1-2.24l1.41,1.23c1.61.29,2.88-.43,4.37-1.38-2.61.12-3.47-.34-3.77-1.86l.65-.54h0l.23-.22h0l.44-.43h0l.22-.22h0a2.68,2.68,0,0,0,.58-.39C224.77,177.72,225.37,176.89,226,176.06Z"/><path class="cls-16" d="M189.17,220.25a99,99,0,0,1-9.25,5.18,7.74,7.74,0,0,1-6-.14c-1.43-.61-2.77-1.42-4.16-2.12a11.21,11.21,0,0,0-1.26-.47c.05-.36-1-.59-.14-1,1.54.82,3.12,1.57,4.61,2.46a7.46,7.46,0,0,0,6.66.66c3.12-1.26,6-3.25,8.91-4.93l.59-.23Z"/><path class="cls-21" d="M222.06,180.32c.3,1.52,1.16,2,3.77,1.86-1.49.95-2.76,1.67-4.37,1.38-1-1.55-.59-4.71.82-6.15l2.35-.67-1.06,2.19h0l-.22.22h0l-.44.43h0l-.23.22h0Z"/><path class="cls-21" d="M223.33,172.48c1,.9,2.34,1.52,2.12,3.2-.9,1.09-2.19,1-3.39,1.09Z"/><path class="cls-8" d="M162.92,224l-1.72-2c-.59-.67-.25-1.23.3-1.59s1.12-.05,1.29.67C162.83,222,162.87,223,162.92,224Z"/><path class="cls-16" d="M222.06,176.77c1.2-.13,2.49,0,3.39-1.09l.52.38c-.6.83-1.2,1.66-1.82,2.48a2.68,2.68,0,0,1-.58.39l1.06-2.19-2.35.67C222.2,177.2,222.13,177,222.06,176.77Z"/><path class="cls-22" d="M163.91,220.85a16.39,16.39,0,0,1,1.09,1.28,2.62,2.62,0,0,1,.25.82,7.85,7.85,0,0,1-.84,0c-.24,0-.47-.11-.71-.16l0-.85Z"/><path class="cls-8" d="M163,221.29l.38.42Z"/><path class="cls-16" d="M189.25,219.53l.28-.19Z"/><path class="cls-15" d="M216.71,102.94a48.24,48.24,0,0,1,7,9.86c1.16,2,2.19,4,3.28,6a2.42,2.42,0,0,1-.57-.4c-1.3-1.55-2.59-3.11-3.85-4.69a4.43,4.43,0,0,1-.47-1l-.56.42,5.82,16.16-.3.17-9-12.69c.1,1.33.18,2.43.26,3.52l-1.84-.25-5.72-17.43,7,4.94C217.39,105.87,217.05,104.4,216.71,102.94Z"/><path class="cls-6" d="M238.08,175.51c-1.77-5.24-3.41-10.52-5.35-15.7-2.3-6.14-4.86-12.19-7.32-18.28-.61-1.51-1.27-3-1.9-4.51l.27-.27c1.9,3.77,4,7.44,5.66,11.32,2.19,5.19,4.13,10.5,5.92,15.84,1.27,3.79,2.12,7.72,3.16,11.58Z"/><path class="cls-6" d="M244.32,199c-.52.08-.62-1-1.15-1a29.91,29.91,0,0,1,2.1-2.39,3.38,3.38,0,0,0,1.3-2.46c0-2.05-.07-4.1-.11-6.14-.79-4.18-1.56-8.36-2.37-12.53-.23-1.18-.59-2.34-.88-3.51l.24-.22q1.59,5.25,3.19,10.49a40.34,40.34,0,0,1,1.29,10.6,6.57,6.57,0,0,1-.29,2.61A41.68,41.68,0,0,1,244.32,199Z"/><path class="cls-10" d="M217.75,223.69c-.25-1.57-1.52-.51-2.39-.81a1.87,1.87,0,0,1,2.28-.61,2,2,0,0,1,.75,1.43,21.21,21.21,0,0,1,0,2.77c-.54.05-1.22.13-1.9.17s-1.17-.07-1.31-.8a1.37,1.37,0,0,1,.76-1.69A12.7,12.7,0,0,1,217.75,223.69Zm-1,2.7a10.59,10.59,0,0,0,1-1.35c0-.07-.45-.54-.53-.5a11,11,0,0,0-1.31.87Z"/><path class="cls-15" d="M218.6,122.44c.28,1.43.59,2.87.85,4.31s.45,2.8.66,4.2a.61.61,0,0,1-.16.48c-.51-1.79-1-3.57-1.53-5.37-.16-.57-.26-1.15-.39-1.73.59.07.61-.24.55-.71A6.65,6.65,0,0,1,218.6,122.44Z"/><path class="cls-15" d="M218.6,122.44a6.65,6.65,0,0,0,0,1.18c.06.47,0,.78-.55.71h0l-.47-.62-.38-1.34a2.07,2.07,0,0,1,.12-.49,7.64,7.64,0,0,1,.47-.69l-.83-.47-.38-.08c0-.18,0-.36-.05-.54h0l1.84.25C218.43,121,218.51,121.73,218.6,122.44Z"/><path class="cls-10" d="M217.55,123.7l.47.62a5.87,5.87,0,0,0-.84.13,1.4,1.4,0,0,1-1.93-.79c-.36-.9.09-1.53,1.19-1.87l.43-.12c0-.34,0-.65.06-1l.83.47a7.64,7.64,0,0,0-.47.69,2.07,2.07,0,0,0-.12.49c-.56.11-1.35.08-1.23.91s.84.59,1.41.45A1.23,1.23,0,0,1,217.55,123.7Z"/><path class="cls-16" d="M228.72,158.35l-.3,0c-.65-1.34-1.29-2.69-1.94-4l.38-.18Z"/><path class="cls-8" d="M223.78,136.75l-.27.27c-.57-1-1.15-2-1.72-3l.36-.2Z"/><path class="cls-16" d="M210.52,229.83l-.51,0c-.46-.8-.93-1.6-1.4-2.4l.33-.2Z"/><path class="cls-8" d="M238.08,175.51l.44,0c.24,1,.48,2,.73,3l-.3.07Z"/><path class="cls-18" d="M243.45,170.79l-.24.22-1.11-3,.35-.12C242.79,168.86,243.12,169.82,243.45,170.79Z"/><path class="cls-8" d="M223.57,127.33l-.25.26-1.08-1.5.34-.26Z"/><path class="cls-10" d="M216.5,120.09c0,.18,0,.36.05.54l-1,.18-.11-.38Z"/><path class="cls-8" d="M221.85,125.2l.33.28-.07.07-.27-.34Z"/><path class="cls-8" d="M239.33,179.14l-.06.06a.19.19,0,0,1,0-.08s0,0,0-.06Z"/><path class="cls-8" d="M221.84,125.21l-.09-.1.1.09Z"/><path class="cls-15" d="M216.67,102.77a1.05,1.05,0,0,1,.05.19l-.11-.12Z"/><path class="cls-14" d="M244.77,197.73c.07,0,.15,0,.2,0l1.26.64c-.4.16-.78.34-1.19.46a1.53,1.53,0,0,1-.52,0Z"/><path class="cls-14" d="M245.73,199c.27.59.55,1,.48,1.08a4.31,4.31,0,0,1-1.18.8c-.06,0-.54-.57-.49-.65A9.83,9.83,0,0,1,245.73,199Z"/><path class="cls-11" d="M120.2,305.37a2.11,2.11,0,0,1,2.9,1.21,12.24,12.24,0,0,0,1.38,1.74c-1.26.47-1.46,2.47-3.22,2-.07-.13-.14-.26-.22-.39.13-.13.31-.39.38-.37a1.16,1.16,0,0,0,1.62-.77,5,5,0,0,0-.22-1.88l-.45-.05-1.44,1.92-.29-.61c0-.14,0-.28,0-.42a7.82,7.82,0,0,0,1-.72c.18-.19.4-.64.33-.74a1.74,1.74,0,0,0-.86-.45,4.21,4.21,0,0,0-.94-.07Z"/><path class="cls-11" d="M120.64,308.15l.29.61,1.44-1.92.45.05a5,5,0,0,1,.22,1.88,1.16,1.16,0,0,1-1.62.77c-.07,0-.25.24-.38.37A1.19,1.19,0,0,1,120.64,308.15Z"/><path class="cls-11" d="M120.18,305.75a4.21,4.21,0,0,1,.94.07,1.74,1.74,0,0,1,.86.45c.07.1-.15.55-.33.74a7.82,7.82,0,0,1-1,.72c-.13-.43-.26-.85-.43-1.44l-1,1.07A1.49,1.49,0,0,1,120.18,305.75Z"/><path class="cls-11" d="M131.44,302.86l-2.83-3.36c.44-.52.67-1,1-1.22,1.28-.71,2.21-1.85,3.43-2.61.22-.14.87.07,1.11.32.78.82,1.47,1.73,2.17,2.61.07.09,0,.26.11.69a5.56,5.56,0,0,1-1-.64c-.5-.55-.95-1.15-1.4-1.74s-1-.78-1.54-.27-.8,1-.22,1.67a25.12,25.12,0,0,1,1.56,2c.12.16.09.43.13.64l-.29.13c-.69-.83-1.46-1.61-2.07-2.49a.86.86,0,0,0-1.43-.22,1.08,1.08,0,0,0-.31,1.58c.64.87,1.27,1.75,1.9,2.62Z"/><path class="cls-11" d="M124.57,302.43a9.67,9.67,0,0,1,2-1.7c.82-.39,1.53.16,2,.9s1.1,1.46,1.56,2.06c-.51.51-1,1-1.43,1.43-.82.85-1.55.93-2.17.25a1.74,1.74,0,0,1,.31-2.44l.09-.06c.52-.3,1.1-.7.6-1.31s-1.11-.17-1.58.22a10.63,10.63,0,0,0-1,1Zm4.76,1.32-1-1.13a10.58,10.58,0,0,0-1.4,1.53c-.08.12.5.65.78,1Z"/><path class="cls-11" d="M138.74,299.72c.68-2.63-1.23-3.24-2.75-4.12a6.35,6.35,0,0,1-1.42-1.08c1.39-.34,2.18,1.2,3.57,1.18l-1.1-3.64C138.66,293.19,139.84,298.45,138.74,299.72Z"/><path class="cls-11" d="M121.87,301.68l2.14,2.67c.6.75,1.22,1.47,1.79,2.24a2.13,2.13,0,0,1,.17.78c-.26-.11-.61-.16-.77-.36-.93-1.16-1.81-2.35-2.7-3.54-.37-.5-.7-1-1-1.53Z"/><path class="cls-11" d="M246.45,303.05c-.39.05-.87.13-1.34.17-.64.06-1.27,0-1.43-.76s0-1.36.86-1.57a2.08,2.08,0,0,0,.61-.2,6.21,6.21,0,0,0,.63-.52,2.57,2.57,0,0,0-.78-.35,4.9,4.9,0,0,0-1.05.1c.3-.71.71-1,1.58-.71a1.44,1.44,0,0,1,.88,1A23.06,23.06,0,0,1,246.45,303.05ZM246.2,302c-.51-.38-.81-.7-.91-.65a5.79,5.79,0,0,0-1,.76c.21.16.44.48.63.46A5.46,5.46,0,0,0,246.2,302Z"/><path class="cls-10" d="M124.25,131.41l.15-.46Z"/><ellipse class="cls-10" cx="127.38" cy="121.68" rx="0.06" ry="0.24"/><path class="cls-14" d="M128.55,149.62a3.53,3.53,0,0,1,.09,1.39,2.1,2.1,0,0,1-1,.88c-.11.05-.71-.53-.66-.62a19.18,19.18,0,0,1,1.08-1.78Z"/><path class="cls-9" d="M191.44,158.23l2.19-2.4h0l.21-.05c.66-.41,1.31-.83,2-1.21A17.54,17.54,0,0,1,207,152.72c1.68.21,3.34.63,5,1l2.17.85.63,1.47-1.92,6.11a9.43,9.43,0,0,1-8.8,6.9c-1.34,0-2.7-.1-4-.16l-.22,0-.86-.16,0-.4,3.84.15a29,29,0,0,0,3-.25c3.94-.73,8-5.8,6.69-10.37-.08-.29-.23-.69-.45-.78-1.83-.77-3.69-1.48-5.55-2.22l1.8,4,0,.74a6.57,6.57,0,0,1-7.54,6.85c-3-.41-4.89-2.36-5.68-5.84a8.16,8.16,0,0,1,1.36-4.89l.12-.17-.2.09-3.72,2.09C192.24,157.86,191.83,158,191.44,158.23Zm8.41,4.8a1.19,1.19,0,0,0-1.3-1.31,4.25,4.25,0,0,1,.06-3.7c.08-.14.15-.44.09-.48a6.1,6.1,0,0,0-1.61-1c-.18-.06-.69.5-.86.86a6,6,0,1,0,11.05,4.49c.5-1.48.78-3-.3-4.4a1.63,1.63,0,0,0-1.74-1.4,2.18,2.18,0,0,0-1.56,1,2.48,2.48,0,0,0,.24,1.84c.17.35.82.46,1.25.68-.08,2.58-2,4.16-4.39,3.62Z"/><path class="cls-23" d="M212,153.68c-1.67-.33-3.33-.75-5-1a17.54,17.54,0,0,0-11.17,1.86c-.67.38-1.32.8-2,1.21l-.21.05h0c-.7.29-1.42.57-2.12.87-.38.17-.74.39-1.28.67.16-1.84,1.44-2.89,2.39-4.34a8.6,8.6,0,0,0-3.94,2.49c-1.15,1.15-2.12,2.46-3.18,3.7l.14-1,.27-2.14c.73-1.27,1.4-2.57,2.19-3.79.55-.84,1.27-1.58,1.91-2.37l1.43-.25a55.92,55.92,0,0,0,18.64-3.44l.3-.11.33-.07.5,1.4-5.35,1.91.09.34a10.6,10.6,0,0,1,1.56.63c.88.52,1.71,1.11,2.57,1.68a21.66,21.66,0,0,0-12.92-.5.87.87,0,0,0,.54.1c4.05-.32,8.09-.47,12.05.76.21.07.49-.11.74-.17C211.16,152.51,212,152.69,212,153.68Z"/><path class="cls-9" d="M164.07,149.63A55.93,55.93,0,0,1,144.81,146l-.3-.11-.33-.09c-.63-.52-.47-1,.14-1.35l4.34-.79c3,.22,6.05.22,9,.7a22.12,22.12,0,0,1,10.11,4.61Z"/><path class="cls-9" d="M210.71,146l-.33.07-.3.11a55.92,55.92,0,0,1-18.64,3.44l-1.39-.17-.28,0-1.09-.28L188,149l.5-.59.18-.38,2.35-1.33h0l2.86-1.29A30.25,30.25,0,0,1,205,143.64c1.63.08,3.25.31,4.87.47C210.16,144.74,210.43,145.38,210.71,146Z"/><path class="cls-23" d="M212,153.68c0-1-.82-1.17-1.49-1.52l-.41-.19c-.86-.57-1.69-1.16-2.57-1.68a10.6,10.6,0,0,0-1.56-.63l-.09-.34,5.35-1.91,2.94,7.12Z"/><path class="cls-21" d="M132.83,183.52a5,5,0,0,1-4.48-1.4h0c1.2.22,2.38.29,3.25-.8a3.58,3.58,0,0,0,.38-1L129.41,177l.21-.23,2.56.92c.72,1.79,1.48,3.57.88,5.57v0Z"/><path class="cls-21" d="M130.29,172.52l.19-.05c.16.12.4.22.45.37.44,1.38.85,2.77,1.27,4.16-1.31-.45-2.85-.3-3.85-1.52h0C129,174.5,129.65,173.51,130.29,172.52Z"/><path class="cls-16" d="M128.35,175.48c1,1.22,2.54,1.07,3.85,1.52,0,.22,0,.44,0,.65l-2.56-.92-.21.23,2.56,3.36c-1.72-.86-2.6-2.49-3.63-4Z"/><path class="cls-16" d="M163.86,218.94c1.14.68,2.28,1.33,3.39,2.05.22.14,2.41,1.19,1.31,1.73-1.14-.66-3.55-2.28-4.69-2.94C163.87,219.5,163.87,219.22,163.86,218.94Z"/><path class="cls-17" d="M163.85,219.79c-.06.21-.11.43-.17.65l-.45-.66Z"/><path class="cls-21" d="M128.35,182.12l-.09,0,.08,0Z"/><path class="cls-17" d="M132.83,183.52l.24-.32Z"/><path class="cls-14" d="M132.18,149.6c-.65-.84-1.26-1.71-2-2.51a1,1,0,0,1,0-1.6c.53-.52,1-.35,1.41.24s.64.93,1,1.39Z"/><path class="cls-14" d="M133,143.58c-.13.51-.25,1-.38,1.53C131.93,144.33,132,144,133,143.58Z"/><path class="cls-10" d="M122.55,154.14a1,1,0,0,1,.31,1.58,2,2,0,0,1-1.11.64c-.15,0-.6-.38-.6-.59C121.16,154.85,121.84,154.46,122.55,154.14Z"/><path class="cls-8" d="M130.84,199.54a5.88,5.88,0,0,1-1.23.75c-.15,0-.41-.34-.61-.53a5.17,5.17,0,0,1,.95-.68C130.07,199,130.34,199.27,130.84,199.54Z"/><path class="cls-14" d="M189.24,97c.09.65.15,1.2-.63,1.23-.23,0-.69-.31-.68-.43C188,97.06,188.58,97,189.24,97Z"/><path class="cls-8" d="M151.25,230.77c.31.62.62,1,.59,1.26-.08.65-.39,1.3-1.2,1.21-.24,0-.67-.62-.6-.76A11.39,11.39,0,0,1,151.25,230.77Z"/><path class="cls-8" d="M158,227.39a18.29,18.29,0,0,1-1.5,1.36s-.72-.58-.68-.65a6.74,6.74,0,0,1,1.12-1.43A6.63,6.63,0,0,1,158,227.39Z"/><path class="cls-20" d="M201.22,188.56a63.65,63.65,0,0,1-7.68-1.64,11,11,0,0,1-5.84-4.22c-1.62-2.42-1.26-5.14.83-7.36,2.32-2.46,5.34-3.54,8.57-4.13a24.35,24.35,0,0,1,12.78.93,10.91,10.91,0,0,1,5.77,4.26c1.52,2.37,1.39,5-1,7.41a14.76,14.76,0,0,1-7.35,3.83C205.51,188.11,203.58,188.22,201.22,188.56Z"/><path class="cls-20" d="M140.56,174.85a21.32,21.32,0,0,0,2.57-1.42,14.05,14.05,0,0,1,5.69-2.14,41.7,41.7,0,0,1,6.34-.49,19,19,0,0,1,2.41.17l-.15.82a6.55,6.55,0,0,1,1.5-.11c.25,0,.44.43.65.66a2.74,2.74,0,0,1-.68.56c-.29.12-.69,0-.93.14-.63.38-1.25,1-.87,1.72.2.39.95.63,1.47.69a5.49,5.49,0,0,0,1.66-.35c0-.83,0-1.71,0-2.59s.24-1,1-.69c2.41,1.05,4.8,2.18,6.48,4.28a5.43,5.43,0,0,1,.94,4.35c-.54,3.41-3.22,4.86-5.92,6.11a20.73,20.73,0,0,1-9.52,1.72,54.5,54.5,0,0,1-6.17-1,9.09,9.09,0,0,0-1.17,0c-.63-1.22-1.33-2.42-1.88-3.68-1.06-2.47-2-5-3.05-7.47Z"/><path class="cls-9" d="M159.16,168.24a4,4,0,0,1-.89.43,15.29,15.29,0,0,1-7,.08c-3.58-.84-5.72-3.3-6.86-6.69-.63-1.85-1.18-3.73-1.77-5.6-.11-.67-.52-1.5.4-1.86a26.25,26.25,0,0,1,12.64-1.9,16.78,16.78,0,0,1,8.57,3.78l.9,1-.28.28L161,155.5l-.23-.05.11.18a7.92,7.92,0,0,1,1.41,4.69c-.07.35-.12.7-.21,1a6.51,6.51,0,0,1-5.79,5,6.27,6.27,0,0,1-6.51-3.68,16.77,16.77,0,0,1-.71-3.92l1.77-4c-1.79.7-3.58,1.38-5.34,2.11a1,1,0,0,0-.55.7,12.69,12.69,0,0,0,0,3.89,9.22,9.22,0,0,0,10,6.9Zm-7-8.69a1.68,1.68,0,0,0,1.71-1.57,1.71,1.71,0,0,0-1.47-1.91,1.93,1.93,0,0,0-2.09,1.65,10.63,10.63,0,0,0-.56,2.22,5.91,5.91,0,0,0,3.93,5.56,6.13,6.13,0,0,0,6.72-2,5.88,5.88,0,0,0,.08-7.09,9.44,9.44,0,0,0-1.52.86.88.88,0,0,0-.19.85,4.06,4.06,0,0,1,0,3.61c-.87,0-1.18.57-1.26,1.34a3.29,3.29,0,0,0-.63.08A3.5,3.5,0,0,1,152.11,159.55Z"/><path class="cls-24" d="M188.26,203.72l-.5.44-.8.61-.05,0-.57.38a14.32,14.32,0,0,1-6.41,2.14,21,21,0,0,1-9.75-1.32c-2-.71-3.11-2.43-4.5-3.84a8,8,0,0,1-.8-1.11c.83-.41,1.38.15,2,.57,0,.17,0,.43.13.48.6.31,1.23.55,1.84.83a21.61,21.61,0,0,0,9,2.07,18.75,18.75,0,0,0,2.66-.39A20,20,0,0,0,184,204c1.95-.68,3.82-1.59,5.73-2.41l0,0v.65h0l-.43.43h0Z"/><path class="cls-25" d="M195.06,160.52c.79,3.48,2.69,5.43,5.68,5.84a6.57,6.57,0,0,0,7.54-6.85l0-.74c1.72.6,1.83.91,1.39,2.41a10.21,10.21,0,0,1-6.07,6.47c-.31.14-.52.5-.77.76l-3.84-.15-2.59-.48,0,0-1-.34c-1-.83-2-1.6-2.93-2.52-1.19-1.2-2.31-2.5-2.22-4.38.33.66.61,1.35,1,2,.59,1,.87.92,1.63.07S194.33,161.21,195.06,160.52Z"/><path class="cls-26" d="M183.32,183s-.12-.11-.12-.17a53.59,53.59,0,0,1-.09-6.47c.86,3,1.73,6,2.56,9,.34,1.19.58,2.41.88,3.62.57,2.35,0,2.77-1.79,3.5-4,1.64-8.07,1.92-12-.41a8.55,8.55,0,0,1-1-.87,11.44,11.44,0,0,1,5-.37c.66.08,1.3.58,1.92.53a30.51,30.51,0,0,0,3.89-.7,4.81,4.81,0,0,0,.85-.36l-.83,2.27a1.66,1.66,0,0,0,1.53-2c-.07-1.87-.26-3.74-.39-5.62Zm-10,8.73,4.62,1.44.09-.3A6.8,6.8,0,0,0,173.33,191.71Z"/><path class="cls-27" d="M185.64,200.31l.3.13,1.24,1.15c-2,.14-4.05.39-6.08.39-4.15,0-8.31.3-12.43-.52l-1.62-.5-1.09-.61,7.32-1.19a25.12,25.12,0,0,1,12,.79Z"/><path class="cls-25" d="M149,158.81a16.77,16.77,0,0,0,.71,3.92,6.27,6.27,0,0,0,6.51,3.68,6.51,6.51,0,0,0,5.79-5c.09-.34.14-.69.21-1,.87.92,1.73,1.87,2.64,2.76a3.08,3.08,0,0,0,.89.44,13.51,13.51,0,0,1-2.42,2.81,25.69,25.69,0,0,1-4.19,1.91l-4.29.17c-.25-.25-.47-.67-.77-.74a8.72,8.72,0,0,1-5.94-5.36,8.46,8.46,0,0,1-.56-1.79C147.38,159.41,147.94,158.88,149,158.81Z"/><path class="cls-28" d="M195.06,160.52c-.73.69-1.52,1.34-2.18,2.09s-1,.9-1.63-.07c-.38-.63-.66-1.32-1-2,0-.24-.07-.54,0-.72.34-.56.75-1.08,1.14-1.61.39-.19.8-.37,1.18-.59l3.72-2.09.08.08A8.16,8.16,0,0,0,195.06,160.52Z"/><path class="cls-28" d="M165.77,163.52a3.08,3.08,0,0,1-.89-.44c-.91-.89-1.77-1.84-2.64-2.76a7.92,7.92,0,0,0-1.41-4.69l.12-.13,3.93,2.28,1.77,2.18,0,2.24,0,0-.59.87Z"/><path class="cls-13" d="M179.11,185.86a31.63,31.63,0,0,1,.65-3.19,1.33,1.33,0,0,1,1-.7c.24,0,.74.45.77.73.15,1.7.26,3.4.25,5.1,0,.68-.27,1.45-1.27,1.38s-1.18-.78-1.22-1.57c0-.57,0-1.14,0-1.71Z"/><path class="cls-16" d="M185.64,158.18l-.14,1q-1.14,5.15-2.3,10.29l-.3-.06a45.45,45.45,0,0,1,2.33-11.29Z"/><path class="cls-21" d="M187.18,201.59l-1.24-1.15a1.67,1.67,0,0,1,.42-.09,10.36,10.36,0,0,0,6-1L191,201c-.13-.13-.32-.4-.4-.37a9.33,9.33,0,0,0-1.11.52l-2.18.43A.25.25,0,0,1,187.18,201.59Z"/><path class="cls-17" d="M183.74,184.92c.13,1.88.32,3.75.39,5.62a1.66,1.66,0,0,1-1.53,2l.83-2.27-.06-5.33Z"/><path class="cls-20" d="M188.54,148.36l-.5.59c0,.05-.09.12-.15.14-.58.26-1.22.4-1.56-.26-.11-.21.18-.83.45-1,.55-.3,1.23-.46,1.59.37C188.4,148.29,188.48,148.32,188.54,148.36Z"/><path class="cls-29" d="M159.68,173.54c-.17.43-.23,1-.54,1.25a1.75,1.75,0,0,1-1.25.08c-.12,0-.27-.74-.18-.81a13.05,13.05,0,0,1,1.62-.84Z"/><path class="cls-23" d="M200.27,115.26a1.49,1.49,0,0,0-1.27-1.2c-5.24-1.34-10.57-1.39-15.92-1.18-2.67.11-5.34.29-8,.27-3.71,0-7.41-.4-11.1-.27a70.36,70.36,0,0,0-8.77,1.13,1.8,1.8,0,0,0-1.11,1q-4.68,13.74-9.27,27.52c-.2.6-.34,1.23-.51,1.84l4.34-.79a7,7,0,0,0,.55-.9c2-4.53,4-9.08,6.12-13.59.72-1.57,1-3.48,2.78-4.36.66.06.63-.4.62-.83l.85-.44h.63c1.29-.49,2.55-1.07,3.86-1.47a81.32,81.32,0,0,1,20.33-3c3.95-.17,7.9,0,11.85,0,1.7,0,3.4.1,5.1.15C201,117.87,200.59,116.58,200.27,115.26Z"/><path class="cls-21" d="M166,200.35l1.09.61c0,.15,0,.3,0,.44l-.24.22c-.59-.42-1.14-1-2-.57l-1.3-1.05.24-.31Z"/><path class="cls-7" d="M166.65,160l-1.77-2.18.28-.28c.69.83,1.4,1.65,2.07,2.5.09.13,0,.38,0,.58Z"/><path class="cls-20" d="M191.07,146.65,188.72,148v-.88Z"/><path class="cls-10" d="M196.37,167.78l2.59.48,0,.4Z"/><path class="cls-18" d="M185.64,158.18l-.41,0c.23-.71.45-1.42.68-2.12Z"/><path class="cls-20" d="M193.93,145.36l-2.86,1.29A3.61,3.61,0,0,1,193.93,145.36Z"/><path class="cls-25" d="M166.65,160l.61.62-.63,1.62C166.64,161.45,166.64,160.71,166.65,160Z"/><path class="cls-24" d="M189.53,201.17a9.33,9.33,0,0,1,1.11-.52c.08,0,.27.24.4.37l-.2.17-1.07.43,0,0Z"/><path class="cls-10" d="M183.74,184.92h-.37c0-.64,0-1.29-.05-1.94Z"/><path class="cls-21" d="M189.77,201.62l1.07-.43-1.06,1.08C189.78,202.05,189.77,201.84,189.77,201.62Z"/><path class="cls-21" d="M188.26,203.72l1.09-1Z"/><path class="cls-20" d="M188.68,149.14l1.09.28C189.18,150.25,188.94,149.66,188.68,149.14Z"/><path class="cls-30" d="M162.14,153.24l-.26-.56.69.33Z"/><path class="cls-25" d="M166,163.09l.59-.87Z"/><path class="cls-21" d="M187,204.77l.8-.61Z"/><path class="cls-20" d="M190.05,149.46l1.39.17-1.43.25C190,149.74,190,149.6,190.05,149.46Z"/><path class="cls-10" d="M195.41,167.46l1,.34Z"/><path class="cls-21" d="M186.34,205.18l.57-.38Z"/><path class="cls-21" d="M189.35,202.7l.43-.43Z"/><path class="cls-21" d="M185.64,200.31l-.37-.36Z"/><path class="cls-10" d="M199.8,168.82l.22,0Z"/><path class="cls-16" d="M167.28,234.75a1.46,1.46,0,0,0,.07-.19h.38l0,.65c.32,2.17.57,4.35,1,6.51.49,2.58,1.12,5.14,1.69,7.71l-.3.25a38.86,38.86,0,0,1-2.44-10.78C167.54,237.51,167.42,236.13,167.28,234.75Z"/><path class="cls-10" d="M172,253.17a7.72,7.72,0,0,1-1.73-3.09l.4-.2,1.35,3.26Z"/><path class="cls-10" d="M172,253.14l.19.27-.14.07-.07-.31Z"/><path class="cls-16" d="M170.44,249.42v.6l-.3-.35Z"/><path class="cls-18" d="M167.73,234.55h-.38v-5.47h.1C167.54,230.91,167.64,232.73,167.73,234.55Z"/><path class="cls-16" d="M222.06,180.32l.65-.54Z"/><path class="cls-16" d="M222.92,179.57l.44-.43Z"/><path class="cls-16" d="M222.7,179.78l.23-.22Z"/><path class="cls-16" d="M223.35,179.14l.22-.22Z"/><path class="cls-10" d="M216.79,226.39l-.89-1a11,11,0,0,1,1.31-.87c.08,0,.57.43.53.5A10.59,10.59,0,0,1,216.79,226.39Z"/><path class="cls-10" d="M217.55,123.7a1.23,1.23,0,0,0-.2,0c-.57.14-1.29.42-1.41-.45s.67-.8,1.23-.91C217.3,122.81,217.43,123.26,217.55,123.7Z"/><path class="cls-11" d="M129.33,303.75l-1.65,1.39c-.28-.34-.86-.87-.78-1a10.58,10.58,0,0,1,1.4-1.53Z"/><path class="cls-11" d="M246.2,302a5.46,5.46,0,0,1-1.25.57c-.19,0-.42-.3-.63-.46a5.79,5.79,0,0,1,1-.76C245.39,301.29,245.69,301.61,246.2,302Z"/><path class="cls-31" d="M207,157.51c1.08,1.39.8,2.92.3,4.4a6,6,0,1,1-11.05-4.49c.17-.36.68-.92.86-.86a6.1,6.1,0,0,1,1.61,1c.06,0,0,.34-.09.48a4.25,4.25,0,0,0-.06,3.7c-.65.43-.94,1-.36,1.65s1.19.19,1.66-.34l.93.2c2.4.54,4.31-1,4.39-3.62C206.31,159.37,206.68,158.47,207,157.51Z"/><path class="cls-28" d="M202.8,168.41c.25-.26.46-.62.77-.76a10.21,10.21,0,0,0,6.07-6.47c.44-1.5.33-1.81-1.39-2.41l-1.8-4c1.86.74,3.72,1.45,5.55,2.22.22.09.37.49.45.78,1.3,4.57-2.75,9.64-6.69,10.37A29,29,0,0,1,202.8,168.41Z"/><path class="cls-32" d="M207,157.51c-.3,1-.67,1.86-1.81,2.1-.43-.22-1.08-.33-1.25-.68a2.48,2.48,0,0,1-.24-1.84,2.18,2.18,0,0,1,1.56-1A1.63,1.63,0,0,1,207,157.51Z"/><path class="cls-33" d="M199.85,163c-.47.53-1,1-1.66.34s-.29-1.22.36-1.65A1.19,1.19,0,0,1,199.85,163Z"/><path class="cls-19" d="M193.61,155.84l.21-.05Z"/><path class="cls-28" d="M196.34,155.55l.2-.09-.12.17Z"/><path class="cls-16" d="M151.66,151.56l-4.35.61a20.27,20.27,0,0,1,12.07-.95l.22.07a.35.35,0,0,1,.2,0v.23c-.46,0-.92-.06-1.38-.06l-6.11,0Z"/><path class="cls-23" d="M169.64,158.59a17.36,17.36,0,0,1-.62-1.65,12.8,12.8,0,0,0-5-7.31A55.93,55.93,0,0,1,144.81,146l-.3-.11-.33-.09c-.3.32-.71.58-.87.95-1.11,2.54-2.14,5.1-3.23,7.64-1,2.21-2,4.4-2.94,6.6.14.52.29,1,.44,1.55l4.27-6h.8c-.11-.67-.52-1.5.4-1.86a26.25,26.25,0,0,1,12.64-1.9,16.78,16.78,0,0,1,8.57,3.78l-.6-1.31h0l-1.52-1.93-.26-.56.69.33.83.24,1.31.87c.76.72,1.57,1.42,2.29,2.19s1.31,1.52,2,2.29c.41,1,.81,1.94,1.21,2.92l.29-.1Zm-12.24-8.08a6.82,6.82,0,0,1,1.9.45,6.82,6.82,0,0,0-1.9-.45c-.74,0-1.49-.07-2.23-.08C155.91,150.44,156.66,150.47,157.4,150.51Zm-13.18,3.12a3.1,3.1,0,0,0-1.89.86,3.1,3.1,0,0,1,1.89-.86,2.66,2.66,0,0,0,.82-.28A2.66,2.66,0,0,1,144.22,153.63Zm3.47-2.28a6.8,6.8,0,0,0-.8.26A6.8,6.8,0,0,1,147.69,151.35Zm11.69-.13.22.07a.35.35,0,0,1,.2,0l.78.06h0l.6.26-.35.14c-.82.05-1.65.16-2.48.15-1.72,0-3.45-.12-5.18-.2a6,6,0,0,1-.88-.22l-.64.05-.83.52.83-.52-4.35.62A20.19,20.19,0,0,1,159.38,151.22Zm3.12,3.53a2.26,2.26,0,0,0,.71.29,2.26,2.26,0,0,1-.71-.29,14.07,14.07,0,0,0-7.77-2.55A14.07,14.07,0,0,1,162.5,154.75Z"/><path class="cls-26" d="M152.3,151.51l6.11,0c.46,0,.92,0,1.38.06l1.05.23c-.82.05-1.65.16-2.48.15-1.72,0-3.45-.12-5.18-.2A6,6,0,0,1,152.3,151.51Z"/><path class="cls-14" d="M160.84,151.78l-1.05-.23v-.23l.79.06.6.26Z"/><path class="cls-18" d="M144.51,145.86l.3.11Z"/><path class="cls-16" d="M210.08,152l.41.19c-.25.06-.53.24-.74.17-4-1.23-8-1.08-12.05-.76a.87.87,0,0,1-.54-.1A21.66,21.66,0,0,1,210.08,152Z"/><path class="cls-18" d="M210.08,146.19l.3-.11Z"/><path class="cls-30" d="M141.14,188.1l-.62.79c-.13-.25-.39-.5-.38-.73a2.43,2.43,0,0,1,.41-.82Z"/><path class="cls-23" d="M191.47,236.58c-.61-5.07-1.17-10.15-1.77-15.22,0-.39.31-1.06-.53-1.11a99,99,0,0,1-9.25,5.18,7.74,7.74,0,0,1-6-.14c-1.43-.61-2.77-1.42-4.16-2.12a11.21,11.21,0,0,0-1.26-.47,4.63,4.63,0,0,1-.31.46,4.63,4.63,0,0,0,.31-.46c.05-.36-1-.59-.14-1,1.54.82,3.12,1.57,4.61,2.46a7.46,7.46,0,0,0,6.66.66c3.12-1.26,6-3.25,8.91-4.93a14.76,14.76,0,0,0-1.49,0c-2.73.12-5.46.39-8.18.36a16.77,16.77,0,0,1-7-1.63c-2.93-1.35-5.23-3.54-7.51-5.72a54.55,54.55,0,0,1-5.22-5.63c-2.83-3.58-5.5-7.3-8.22-11-.83-1.13-1.61-2.3-2.42-3.45a4.11,4.11,0,0,0,1.09,2.92,4.09,4.09,0,0,1-1.09-2.92l-.23-.59h0l-.86-1.8c-.51-1-1-2.07-1.52-3.1-.63-1.22-1.33-2.42-1.88-3.68-1.06-2.47-2-5-3.05-7.47a1.73,1.73,0,0,0-1,.22,1.73,1.73,0,0,1,1-.22c-.12-.43-.25-.86-.38-1.28-.37-1.26-.8-2.5-1.1-3.77-.66-2.73-1.25-5.49-1.88-8.23v-.34l-.44-1.55a3,3,0,0,0-.32.4l-4.58,8-1,1.84a85.59,85.59,0,0,0,14.41,29.93,79,79,0,0,0,17.47,17l.75.82c1.14.68,2.28,1.33,3.39,2.05.22.14,1,.5,0,.78,0,.19,0,.38-.05.57,0-.19,0-.38.05-.57l-3.41-2h0c-.06.21-.11.43-.17.65s.15.28.23.41a16.39,16.39,0,0,1,1.09,1.28,2.62,2.62,0,0,1,.25.82,7.85,7.85,0,0,1-.84,0c-.24,0-.47-.11-.71-.16-.33,3.39-.67,6.77-1,10.16l1.56.62,3,1.19a1.46,1.46,0,0,0,.07-.19v-5.47h.1c.09,1.82.19,3.64.28,5.46l0,.65a7.07,7.07,0,0,1,1.22.33,75.7,75.7,0,0,0,13.55,4.38,29.37,29.37,0,0,0,8.15.6,5,5,0,0,0,1.44-.5C191.91,238.87,191.61,237.73,191.47,236.58Zm-55.85-53.87c.51,1.14,1.08,2.25,1.66,3.37C136.7,185,136.13,183.85,135.62,182.71ZM148,192a4.15,4.15,0,0,1-.58-.38A4.15,4.15,0,0,0,148,192Zm-6.62-7.71c.28.22.57.42.87.63-.3-.21-.59-.41-.87-.63a3.31,3.31,0,0,0-.5-.24A3.31,3.31,0,0,1,141.34,184.28Zm-1.64-7.75a1.76,1.76,0,0,0-.37.48A1.76,1.76,0,0,1,139.7,176.53Z"/><path class="cls-30" d="M154,206.74c-.33.21-.52.42-.62.38a2.45,2.45,0,0,1-.59-.44c.13-.12.28-.35.39-.34A3.92,3.92,0,0,1,154,206.74Z"/><path class="cls-30" d="M137,181.52c-.16.15-.26.3-.33.29a.42.42,0,0,1-.28-.24s.12-.24.2-.25S136.78,181.42,137,181.52Z"/><path class="cls-28" d="M149,158.81c-1.08.07-1.64.6-1.42,1.71a8.46,8.46,0,0,0,.56,1.79,8.72,8.72,0,0,0,5.94,5.36c.3.07.52.49.77.74a9.22,9.22,0,0,1-10-6.9,12.69,12.69,0,0,1,0-3.89,1,1,0,0,1,.55-.7c1.76-.73,3.55-1.41,5.34-2.11Z"/><path class="cls-31" d="M158.68,161.72a4.06,4.06,0,0,0,0-3.61.88.88,0,0,1,.19-.85,9.44,9.44,0,0,1,1.52-.86,5.88,5.88,0,0,1-.08,7.09,6.13,6.13,0,0,1-6.72,2,5.91,5.91,0,0,1-3.93-5.56,10.63,10.63,0,0,1,.56-2.22c.26,1,.69,1.77,1.85,1.83a3.5,3.5,0,0,0,4.68,3.59,3.29,3.29,0,0,1,.63-.08c.5.45,1.06,1,1.68.29S159.36,162.13,158.68,161.72Z"/><path class="cls-32" d="M152.11,159.55c-1.16-.06-1.59-.86-1.85-1.83a1.93,1.93,0,0,1,2.09-1.65,1.71,1.71,0,0,1,1.47,1.91A1.68,1.68,0,0,1,152.11,159.55Z"/><path class="cls-33" d="M158.68,161.72c.68.41,1,1,.42,1.63s-1.18.16-1.68-.29C157.5,162.29,157.81,161.74,158.68,161.72Z"/><path class="cls-28" d="M160.83,155.63l-.11-.18.23.05Z"/><path class="cls-27" d="M189.53,201.17l.22.42c-1.91.82-3.78,1.73-5.73,2.41a20,20,0,0,1-3.57.61,18.75,18.75,0,0,1-2.66.39,21.61,21.61,0,0,1-9-2.07c-.61-.28-1.24-.52-1.84-.83-.1,0-.09-.31-.13-.48l.24-.22,1.45.47c.79.13,1.58.32,2.37.37,2.86.18,5.73.32,8.59.47l-1.38,1.06a7,7,0,0,0,4.3.16l.27-.23c1.16.1.63-.65.59-1.16a4.49,4.49,0,0,0,.83-.09c1.09-.27,2.16-.56,3.24-.85Z"/><path class="cls-17" d="M173.33,191.71a6.8,6.8,0,0,1,4.71,1.14l-.09.3Z"/><path class="cls-17" d="M187.35,201.6c-1.08.29-2.15.58-3.24.85a4.49,4.49,0,0,1-.83.09l-.87.19-1,0-1.93-.06c-2.86-.15-5.73-.29-8.59-.47-.79-.05-1.58-.24-2.37-.37.05-.14.09-.27.13-.41,4.12.82,8.28.52,12.43.52,2,0,4.05-.25,6.08-.39A.25.25,0,0,0,187.35,201.6Z"/><path class="cls-24" d="M168.67,201.46c0,.14-.08.27-.13.41l-1.45-.47c0-.14,0-.29,0-.44Z"/><path class="cls-14" d="M159.6,151.29l-.22-.07Z"/><path class="cls-30" d="M179.5,202.71l1.93.06-.86,1,1.85.13a7,7,0,0,1-4.3-.16Z"/><path class="cls-13" d="M182.42,203.93l-1.85-.13.86-1,1,0c.1.33.19.65.28,1Z"/><path class="cls-30" d="M182.69,203.7c-.09-.32-.18-.64-.28-1l.87-.19C183.32,203.05,183.85,203.8,182.69,203.7Z"/><path class="cls-20" d="M170.44,250h0l0,0Z"/><path class="cls-20" d="M193,242.64c-.28-.88-.57-1.75-.86-2.63a5,5,0,0,1-1.44.5,29.37,29.37,0,0,1-8.15-.6A75.7,75.7,0,0,1,169,235.53a7.07,7.07,0,0,0-1.22-.33c.32,2.17.57,4.35,1,6.51.49,2.58,1.12,5.14,1.69,7.71V250l.22-.11,1.35,3.26.19.27-.14.07-.07-.31a7.72,7.72,0,0,1-1.73-3.09l.16-.08-.28-.33a38.86,38.86,0,0,1-2.44-10.78c-.16-1.38-.28-2.76-.42-4.14l-3-1.19-1.56-.62c-.67,3.1-1.29,6.21-2,9.29a9.41,9.41,0,0,1-6.36,7.05c-.93.33-1.84.69-2.81,1.05a4.35,4.35,0,0,0,.27.43c4.25,4.6,9,8.55,14.83,11,7,2.94,13.83,2.55,20.27-1.73a34.87,34.87,0,0,0,8.27-8c.85-1.12,1.64-2.28,2.53-3.51C195,247.3,193.76,245.14,193,242.64Z"/><path class="cls-10" d="M127.28,147.37a2.9,2.9,0,0,0-2.57,1.63c-.1.17,0,.48.05.73a2,2,0,0,0,.72-.22c.32-.27.52-.71.87-.9a1.74,1.74,0,0,1,.86-.06,8.81,8.81,0,0,0,.23-1.11Z"/><path class="cls-17" d="M163.21,219.6a3.12,3.12,0,0,0-.35,1.7,1.58,1.58,0,0,0,.48,1l.33-.34a9.93,9.93,0,0,1,0-1.62Z"/><path class="cls-6" d="M122,147.75a23.33,23.33,0,0,0-.24,2.36c0,.39.75.72.75.72s.38-1.82.38-2.17S122,147.75,122,147.75Z"/><path class="cls-14" d="M126.15,151.28s-2.94,5-3.12,6.67,2.06,2,2.06,2l2.7-6.28Z"/><path class="cls-6" d="M134.83,140.12s-.19,1.87-.26,2.18-.75.08-.75.08S134.12,140.57,134.83,140.12Z"/><path class="cls-10" d="M131.46,94.2s-2.87,4.06-3.05,5,2.41.15,2.41.15a25.66,25.66,0,0,1,1.75-1.94C133,97,131.46,94.2,131.46,94.2Z"/><path class="cls-20" d="M156.69,170.89a16.94,16.94,0,0,1,4.72,1c1.44.7-.74,4.26-.74,4.26l-4.24-.39Z"/><path class="cls-6" d="M236,256.36a23.94,23.94,0,0,1,5.22,2.69c1.54,1.08-.45.46-.45.46a54.84,54.84,0,0,0-4.88-2.65C234.67,256.42,236,256.36,236,256.36Z"/><path class="cls-7" d="M128,251.63a27.74,27.74,0,0,1,2.65-1.36c.56-.17,2.39-.63,2.39-.63a27.45,27.45,0,0,1-4.74,2.64C127,252.85,128,251.63,128,251.63Z"/><path class="cls-12" d="M120.2,305.37l1.14,5.42s-3.36-1.13-3.33-1.16.52-3.53.52-3.53Z"/></g></g></g></svg>