<svg xmlns="http://www.w3.org/2000/svg" viewBox="0 0 360 360"><defs><style>.cls-1,.cls-4{fill:none;}.cls-1{stroke:#fff;stroke-width:4px;}.cls-1,.cls-3,.cls-4{stroke-miterlimit:10;}.cls-2,.cls-3{fill:#fff;}.cls-3,.cls-4{stroke:#17479b;stroke-width:3px;}.cls-5{fill:#17479b;}</style></defs><title>icon-web</title><g id="icon"><circle class="cls-1" cx="180" cy="180" r="174.5"/><circle class="cls-2" cx="180" cy="180" r="157.48"/><path class="cls-3" d="M94.61,245.45s15.13-19.68,42.25-19,47.52,15.6,66.48,15.12,43.69-2.16,42.49,8.88-17.28,10.56-21.36,10.56H181s48,.69,53.11-.64c4.59-1.21,10.85-2.74,11.69-10,.69-6-6.73-7.56-6.73-7.56s17.76-17.18,21.31-19.27,10.75-6.44,15.54-2.88-11.32,19.82-11.32,19.82-21.2,24.8-45,39.66-21.93,13.6-32.45,11.06-40.4-13.76-50.67-12.36c-9.66,1.32-14.37.57-23.19,13.83a2,2,0,0,1-3.38-.06L83.83,249.8a1.46,1.46,0,0,1,.37-1.94A12.69,12.69,0,0,1,94.61,245.45Z"/><line class="cls-3" x1="94.61" y1="245.45" x2="119.46" y2="285.07"/><rect class="cls-4" x="125.65" y="138.85" width="108.7" height="81.75" rx="7.1"/><path class="cls-4" d="M217.35,111.67v-8.23A37.35,37.35,0,0,0,180,66.09h0a37.35,37.35,0,0,0-37.35,37.35v35.41"/><circle class="cls-5" cx="179.96" cy="179.24" r="10.74"/></g></svg>