<svg id="Layer_1" data-name="Layer 1" xmlns="http://www.w3.org/2000/svg" viewBox="0 0 260 260"><defs><style>.cls-1,.cls-10,.cls-2,.cls-3,.cls-7,.cls-9{fill:#fff;}.cls-1,.cls-10,.cls-11,.cls-2,.cls-3,.cls-8,.cls-9{stroke:#17479b;}.cls-1,.cls-10,.cls-11,.cls-2,.cls-3,.cls-4,.cls-8,.cls-9{stroke-miterlimit:10;}.cls-1{stroke-width:4px;}.cls-3,.cls-4,.cls-8,.cls-9{stroke-width:3px;}.cls-4{fill:#e4e4e4;stroke:#cacaca;}.cls-5{fill:#00b888;}.cls-6{fill:#ff5a65;}.cls-8{fill:#3fa7f3;}.cls-10,.cls-9{stroke-linecap:round;}.cls-10{stroke-width:1.5px;}.cls-11{fill:none;}</style></defs><title>icon-web-33</title><circle class="cls-1" cx="130" cy="130" r="120.95"/><circle class="cls-2" cx="130" cy="130" r="109.15"/><rect class="cls-3" x="109.6" y="85.92" width="102.75" height="52.32" transform="translate(30.98 258.96) rotate(-83.34)"/><rect class="cls-3" x="107.78" y="82.79" width="102.75" height="52.32" transform="translate(50.2 268.1) rotate(-90)"/><path class="cls-4" d="M171.48,153.5H146.82a7,7,0,0,0-7-7V71.4a7,7,0,0,0,7-7h24.66a7,7,0,0,0,7,7v75.1A7,7,0,0,0,171.48,153.5Z"/><circle class="cls-5" cx="159.15" cy="143.12" r="5.48" transform="translate(-50.44 99.7) rotate(-30.26)"/><circle class="cls-5" cx="159.15" cy="74.77" r="5.48" transform="translate(-16 90.39) rotate(-30.26)"/><ellipse class="cls-6" cx="159.15" cy="108.95" rx="19.33" ry="14.17"/><path class="cls-7" d="M159.41,116.28h-1.9v-14.7h1.9Zm9.63-2.51H148.46v-2.62h9v-.89l-9-7.07v-3l9.59,7.78,11-8.1V103l-9.63,6.88v1.3H169Z"/><rect class="cls-8" x="56.69" y="129.21" width="20.92" height="62.63"/><path class="cls-9" d="M77.59,187.5s19.38-1,23.37,1.11A103.32,103.32,0,0,0,144,199c22.34.48,34.14.16,36.21,0s10.13-1.27,10.69-8.77c.64-8.59-7.34-10.21-9.09-10.21,0,0,14.84,2.71,15-8.77.13-9.92-13.56-9.57-13.56-9.57s15,1.24,14.52-9.09c-.57-11.34-13.4-9.73-13.4-9.73s11.57-.54,11.32-9.25c-.29-10.69-12.44-9.89-18.34-9.73s-49.54,0-49.54,0l4.77-.06L132.42,106a19.74,19.74,0,0,0-8.16,3.26c-3.51,2.63-29.26,24-32,24.42s-14.68.29-14.68.29Z"/><path class="cls-10" d="M77.59,182S97,181,101,183.11A103.49,103.49,0,0,0,144,193.48"/><polyline class="cls-11" points="73.2 177.33 73.2 187.32 64.12 187.32"/></svg>