<svg id="Layer_1" data-name="Layer 1" xmlns="http://www.w3.org/2000/svg" viewBox="0 0 260 260"><defs><style>.cls-1,.cls-2,.cls-5,.cls-7,.cls-9{fill:#fff;}.cls-1,.cls-2,.cls-3,.cls-5,.cls-9{stroke:#17479b;stroke-miterlimit:10;}.cls-1{stroke-width:4px;}.cls-3{fill:none;}.cls-3,.cls-9{stroke-linecap:round;}.cls-3,.cls-5,.cls-9{stroke-width:3px;}.cls-4{fill:#17479b;}.cls-6{fill:#ff5a65;}.cls-8{fill:#00b888;}</style></defs><title>icon-online-exchange</title><circle class="cls-1" cx="130" cy="130" r="120.95"/><circle class="cls-2" cx="130" cy="130" r="109.15"/><rect class="cls-3" x="90.6" y="74.32" width="79.47" height="110.17"/><rect class="cls-3" x="82.83" y="55.4" width="95.02" height="148.64" rx="9.81"/><circle class="cls-4" cx="129.68" cy="194.22" r="2.97"/><circle class="cls-5" cx="85.82" cy="132.27" r="33.39" transform="translate(-68.4 99.42) rotate(-45)"/><circle class="cls-6" cx="85.82" cy="132.27" r="28.58" transform="translate(-68.4 99.42) rotate(-45)"/><path class="cls-7" d="M74.32,133.2v-2.66H94.93v2.66Zm3.51,13.51V117.84h3.68v12.7h1.25l9.91-12.7h4.2L86,131.3l11.36,15.41H93L83.33,133.2H81.51v13.51Z"/><circle class="cls-5" cx="174.64" cy="132.27" r="33.39" transform="translate(-42.38 162.23) rotate(-45)"/><circle class="cls-8" cx="174.64" cy="132.27" r="28.58" transform="translate(-42.38 162.23) rotate(-45)"/><path class="cls-7" d="M176.49,151.53h-2.08v-4.2a12.68,12.68,0,0,1-7-1.72v-3.5a9.45,9.45,0,0,0,3.19,1.71,11.42,11.42,0,0,0,3.77.7V134.23q-4.41-2.13-5.72-3.93a7.42,7.42,0,0,1,.68-9.27,8.21,8.21,0,0,1,5-2.54v-3.61h2.08v3.53q3.94.12,5.45,1.12v3.41a9.17,9.17,0,0,0-5.45-1.72v10.6a17.06,17.06,0,0,1,5.72,3.84,6.44,6.44,0,0,1,1.54,4.24,6.55,6.55,0,0,1-1.92,4.79,9.33,9.33,0,0,1-5.34,2.47Zm-2.08-30.19a4.52,4.52,0,0,0-2.67,1.49,4.16,4.16,0,0,0-1,2.81,4.74,4.74,0,0,0,.8,2.83,8.65,8.65,0,0,0,2.86,2.22Zm2.08,23q3.88-.84,3.88-4.17,0-2.77-3.88-4.9Z"/><polyline class="cls-9" points="104.25 141.32 133.32 141.32 133.32 147.64 154.01 132.28 133.32 116.91 133.32 123.23 104.25 123.23"/></svg>