<svg xmlns="http://www.w3.org/2000/svg" xmlns:xlink="http://www.w3.org/1999/xlink" viewBox="0 0 16 16"><defs><style>.cls-1{fill:none;}.cls-2{clip-path:url(#clip-path);}.cls-3{fill:#fff;}</style><clipPath id="clip-path"><rect class="cls-1" x="-1146.29" y="-1359.53" width="1920" height="1292.29"/></clipPath></defs><title>icon-facebook</title><g id="icon"><g class="cls-2"><image width="2044" height="2060" transform="translate(-1146.29 -1531.75) scale(0.94 0.9)" xlink:href="../../../Downloads/LVB%20tower%202019.JPG"/></g><path class="cls-3" d="M14.54,8A6.54,6.54,0,1,0,7,14.5V9.93H5.32V8H7V6.6A2.31,2.31,0,0,1,9.45,4.05a9.72,9.72,0,0,1,1.46.13V5.79h-.82A1,1,0,0,0,9,6.81V8h1.82l-.29,1.89H9V14.5A6.53,6.53,0,0,0,14.54,8Z"/></g></svg>