<svg xmlns="http://www.w3.org/2000/svg" xmlns:xlink="http://www.w3.org/1999/xlink" viewBox="0 0 355 355"><defs><style>.cls-1,.cls-10{fill:none;}.cls-2{isolation:isolate;}.cls-3{clip-path:url(#clip-path);}.cls-4{clip-path:url(#clip-path-2);}.cls-5{clip-path:url(#clip-path-3);}.cls-12,.cls-6{mix-blend-mode:color-dodge;}.cls-6{fill:url(#radial-gradient);}.cls-14,.cls-15,.cls-16,.cls-17,.cls-18,.cls-19,.cls-7,.cls-8{mix-blend-mode:screen;}.cls-7{fill:url(#radial-gradient-2);}.cls-8{fill:url(#radial-gradient-3);}.cls-9{fill:#fff;stroke-width:3px;}.cls-10,.cls-9{stroke:#17479b;stroke-miterlimit:10;}.cls-10{stroke-width:2px;}.cls-11{clip-path:url(#clip-path-4);}.cls-12{opacity:0.13;}.cls-13{clip-path:url(#clip-path-5);}.cls-14,.cls-16,.cls-18{opacity:0.6;}.cls-14{fill:url(#Degradado_sin_nombre_4);}.cls-15,.cls-17,.cls-19{opacity:0.8;}.cls-15{fill:url(#Degradado_sin_nombre_3);}.cls-16{fill:url(#Degradado_sin_nombre_4-2);}.cls-17{fill:url(#Degradado_sin_nombre_3-2);}.cls-18{fill:url(#Degradado_sin_nombre_4-3);}.cls-19{fill:url(#Degradado_sin_nombre_3-3);}.cls-20{clip-path:url(#clip-path-6);}.cls-21{fill:#00a8e2;}.cls-22{fill:#414042;}.cls-23{fill:#f6d297;}.cls-24{fill:#ffdb9c;}.cls-25{fill:#00a99d;}.cls-26{fill:#ffddac;}.cls-27{fill:#3b3a3c;}.cls-28{fill:#673705;}.cls-29{fill:#412312;}.cls-30{fill:#7d4a21;}.cls-31{fill:#b17a48;}.cls-32{fill:#fc2829;}.cls-33{fill:#babdbf;}.cls-34{fill:#241f20;}.cls-35{fill:#95989b;}.cls-36{fill:#a5a8ab;}.cls-37{fill:#a8abad;}</style><clipPath id="clip-path"><rect class="cls-1" x="1747.78" y="-1383.49" width="1920" height="1361.63"/></clipPath><clipPath id="clip-path-2"><polygon class="cls-1" points="1686.56 -371.64 1686.56 181.25 3024.4 -455.12 2888.01 -463.96 2799.04 -461.13 1686.56 -371.64"/></clipPath><clipPath id="clip-path-3"><polygon class="cls-1" points="4602.61 -610.43 -898.57 1051.5 -1024.77 138.68 4476.41 -1523.25 4602.61 -610.43"/></clipPath><radialGradient id="radial-gradient" cx="153.49" cy="105022.63" r="955.48" gradientTransform="matrix(2.45, 0, -0.01, 0.03, 2093.2, -3259.77)" gradientUnits="userSpaceOnUse"><stop offset="0" stop-color="#39c7ff"/><stop offset="0.02" stop-color="#35b8ec"/><stop offset="0.09" stop-color="#2a92bb"/><stop offset="0.17" stop-color="#206f8e"/><stop offset="0.25" stop-color="#175168"/><stop offset="0.33" stop-color="#103848"/><stop offset="0.42" stop-color="#0a232d"/><stop offset="0.52" stop-color="#061419"/><stop offset="0.64" stop-color="#02080b"/><stop offset="0.77" stop-color="#010203"/><stop offset="1"/></radialGradient><radialGradient id="radial-gradient-2" cx="190.39" cy="93067.27" r="954.54" gradientTransform="matrix(2.45, 0, -0.01, 0.03, 2102.93, -3329.08)" gradientUnits="userSpaceOnUse"><stop offset="0" stop-color="#f26522"/><stop offset="0.01" stop-color="#ec6221"/><stop offset="0.08" stop-color="#bb4e1a"/><stop offset="0.16" stop-color="#8e3b14"/><stop offset="0.24" stop-color="#682b0f"/><stop offset="0.32" stop-color="#481e0a"/><stop offset="0.41" stop-color="#2d1306"/><stop offset="0.52" stop-color="#190a04"/><stop offset="0.63" stop-color="#0b0502"/><stop offset="0.77" stop-color="#030100"/><stop offset="1"/></radialGradient><radialGradient id="radial-gradient-3" cx="159.29" cy="33754.44" r="955.08" gradientTransform="matrix(2.45, 0, -0.02, 0.09, 2052.34, -3073.43)" gradientUnits="userSpaceOnUse"><stop offset="0" stop-color="aqua"/><stop offset="0.02" stop-color="#00ecec"/><stop offset="0.09" stop-color="#0bb"/><stop offset="0.17" stop-color="#008e8e"/><stop offset="0.25" stop-color="#006868"/><stop offset="0.33" stop-color="#004848"/><stop offset="0.42" stop-color="#002d2d"/><stop offset="0.52" stop-color="#001919"/><stop offset="0.64" stop-color="#000b0b"/><stop offset="0.77" stop-color="#000303"/><stop offset="1"/></radialGradient><clipPath id="clip-path-4"><rect class="cls-1" x="-2257.86" y="-375.91" width="1920" height="917.5"/></clipPath><clipPath id="clip-path-5"><rect class="cls-1" x="-2275.79" y="465.01" width="1952.64" height="364.71"/></clipPath><radialGradient id="Degradado_sin_nombre_4" cx="18190.58" cy="-3184.3" r="133.83" gradientTransform="matrix(-0.23, 0.16, -8, -3.55, -21877.48, -13503.53)" gradientUnits="userSpaceOnUse"><stop offset="0" stop-color="#fff"/><stop offset="0.27" stop-color="blue"/><stop offset="0.34" stop-color="#0000f3" stop-opacity="0.95"/><stop offset="0.45" stop-color="#0000d4" stop-opacity="0.83"/><stop offset="0.6" stop-color="#0000a2" stop-opacity="0.63"/><stop offset="0.78" stop-color="#00005c" stop-opacity="0.36"/><stop offset="0.99" stop-color="#000004" stop-opacity="0.02"/><stop offset="1" stop-opacity="0"/></radialGradient><radialGradient id="Degradado_sin_nombre_3" cx="71727.35" cy="-3117.6" r="133.7" gradientTransform="matrix(-0.05, 0.04, -8.04, -3.52, -22128.56, -13320.53)" gradientUnits="userSpaceOnUse"><stop offset="0" stop-color="#fff"/><stop offset="0.43" stop-color="#a8ffff"/><stop offset="1" stop-opacity="0"/></radialGradient><radialGradient id="Degradado_sin_nombre_4-2" cx="18612.95" cy="-3026.22" r="133.83" gradientTransform="matrix(-0.17, 0.18, -9.17, -2.51, -25194.6, -10406.85)" xlink:href="#Degradado_sin_nombre_4"/><radialGradient id="Degradado_sin_nombre_3-2" cx="73432.49" cy="-2959.18" r="133.78" gradientTransform="matrix(-0.04, 0.05, -9.2, -2.48, -25369.89, -10197.61)" xlink:href="#Degradado_sin_nombre_3"/><radialGradient id="Degradado_sin_nombre_4-3" cx="18505.41" cy="-2966.2" r="133.85" gradientTransform="matrix(-0.14, 0.19, -9.52, -2.06, -26158.8, -9087.03)" xlink:href="#Degradado_sin_nombre_4"/><radialGradient id="Degradado_sin_nombre_3-3" cx="72790.92" cy="-2899.35" r="133.67" gradientTransform="matrix(-0.03, 0.05, -9.54, -2.03, -26302.54, -8869.51)" xlink:href="#Degradado_sin_nombre_3"/><clipPath id="clip-path-6"><circle class="cls-1" cx="177.5" cy="177.5" r="150"/></clipPath></defs><title>icon-</title><g class="cls-2"><g id="layout"><g class="cls-3"><g class="cls-4"><g class="cls-5"><ellipse class="cls-6" cx="1821.09" cy="-144.8" rx="2336.56" ry="28.36" transform="translate(120.5 522.54) rotate(-16.88)"/><ellipse class="cls-7" cx="1821.3" cy="-143.26" rx="2336.43" ry="32.67" transform="translate(118.55 518.78) rotate(-16.75)"/><ellipse class="cls-8" cx="1821.09" cy="-144.8" rx="2336.54" ry="82.89" transform="translate(120.54 522.63) rotate(-16.88)"/></g></g></g></g><g id="icon"><circle class="cls-9" cx="177.5" cy="177.5" r="174.89"/><circle class="cls-10" cx="177.5" cy="177.5" r="150"/><g class="cls-11"><g class="cls-12"><g class="cls-13"><path class="cls-14" d="M-669.64,653.55c-591.28-262.21-1056.67-484.13-1039.48-495.67s510.46,191.65,1101.73,453.85S449.28,1095.86,432.09,1107.4-78.37,915.75-669.64,653.55Z"/><path class="cls-15" d="M-801.06,571.28C-1395.15,311.11-1873.65,97.78-1869.82,94.79s488.54,205.48,1082.63,465.65,1072.59,473.5,1068.76,476.5S-207,831.45-801.06,571.28Z"/><path class="cls-16" d="M-593.74,560.31c-677.7-185.25-1217-346.24-1204.66-359.58s571.81,126,1249.5,311.27S668.15,858.24,655.76,871.59,84,745.56-593.74,560.31Z"/><path class="cls-17" d="M-753.53,495.71c-679.67-182.93-1228.54-334-1225.94-337.35s555.69,142.16,1235.35,325.09,1228.54,334,1225.94,337.34S-73.86,678.63-753.53,495.71Z"/><path class="cls-18" d="M-538.86,524.91C-1242.19,372.59-1804,237.85-1793.67,224s588.84,98.35,1292.17,250.67,1265.13,287.07,1254.82,301S164.47,677.24-538.86,524.91Z"/><path class="cls-19" d="M-707.86,468.15C-1412.8,318.23-1982.59,193.87-1980.51,190.37s575.23,115.2,1280.17,265.12S574.39,729.76,572.31,733.26-2.92,618.06-707.86,468.15Z"/></g></g></g><g class="cls-20"><circle class="cls-21" cx="177.5" cy="177.5" r="150"/><path class="cls-22" d="M134.14,262l-30.79-14.25L128.85,197l3.22,60.43,11,17H233l-6.89-99s-7.59-13.33-39.53-12.18c-29.63,1.06-41.83-.7-60.9,4.42a12.4,12.4,0,0,0-7.51,5.7c-9.5,16.33-38.1,72.81-40.28,77-2.53,4.83-7.58,16.32,11.72,21.6s41.59,2.53,41.59,2.53Z"/><rect class="cls-23" x="114.84" y="256.46" width="30.89" height="25.69" rx="7.04"/><polygon class="cls-24" points="161.68 153.87 162 167.16 162 182.84 185.63 182.84 186.34 154.03 161.68 153.87"/><path class="cls-25" d="M158.93,169.78s-5.75,17.37,1.17,48.2,15,50.81,15,50.81,2.35.26,3-3.14,7.44-93.26,7.44-93.26-7.17,6.8-12.35,6.41S158.93,169.78,158.93,169.78Z"/><path class="cls-26" d="M206.84,114.44s2.86-4.39,5.2-2.85,1.11,8.43-4.31,13.36c0,0-4.57,16-11,22.88S183,160.08,174.16,159.92s-18.81-6-23.71-13-9.24-18.17-9.48-20.62c0,0-7.9-7.9-6.32-13.12s6.64,1,6.64,1,4.18-10.59,3.63-18.26,1.34-12.56,8.22-14.62S165,83,167.13,84s6.79,2.77,14.93-1,15.49-5,18.65.16a22.8,22.8,0,0,1,2.77,15.65C202.61,103,206.84,114.44,206.84,114.44Z"/><rect class="cls-27" x="3.14" y="280.32" width="328.61" height="95.63"/><rect class="cls-27" x="3.14" y="280.32" width="328.61" height="95.63"/><rect class="cls-22" x="3.14" y="280.32" width="164.31" height="95.63"/><rect class="cls-22" x="3.14" y="280.32" width="164.31" height="95.63"/><circle class="cls-28" cx="189.54" cy="116.99" r="3.37"/><circle class="cls-28" cx="157.5" cy="116.99" r="3.37"/><path class="cls-29" d="M195.74,110.87h-11.4a1,1,0,0,1,0-2h11.4a1,1,0,0,1,0,2Z"/><path class="cls-29" d="M163.34,112H152a1,1,0,0,1,0-2h11.39a1,1,0,0,1,0,2Z"/><path class="cls-30" d="M143.75,126.28s-1-14.93,1-17.8c0,0,2.54-5.61,2.2-11S147,84,155.26,82.78s6.92,6.44,18.42,6,12.06-6.37,20-5.82,8.11,10.12,6.38,17.67,7.27,10.32,3.25,25.7c0,0,8.47-16.58,8.18-30.34-.33-15.37-8-22.44-2.91-24,0,0-10.88-6.45-18.29-8.6a7,7,0,0,1,3.74-1.18s-8.37-5.83-15.66-5.54c-14.42.57-27.19,10.6-35,7.25,0,0-4.78,7.71-6.43,11.39C135.52,78.46,131.43,99.77,143.75,126.28Z"/><path class="cls-31" d="M162.69,142.63s6.37,4.61,13.91,2.94,9.6-5.19,9.6-5.19S173.86,145.57,162.69,142.63Z"/><polygon class="cls-32" points="170.66 184.51 169.41 243.52 173.53 248.03 178.91 243.62 176.32 183.65 170.66 184.51"/><polygon class="cls-22" points="166.52 179.45 170.95 185.98 178.72 185.74 178.62 177.92 176 176.26 170.48 176.07 166.52 179.45"/><path class="cls-33" d="M161.89,162.54a14,14,0,0,0,9.24,13.55s-7.37,4.57-9.64,10.35C161.49,186.44,154.47,172.6,161.89,162.54Z"/><path class="cls-33" d="M186.14,162.09a14.7,14.7,0,0,1-9.27,14.17s7.29,4.4,9.56,10.18C186.43,186.44,193.56,172.15,186.14,162.09Z"/><rect class="cls-34" x="-33.69" y="270.06" width="402.28" height="12.83" rx="6.41"/><rect class="cls-35" x="176.32" y="262.34" width="153.53" height="7.3" rx="3.65"/><path class="cls-36" d="M180,262.34h73.12a0,0,0,0,1,0,0v7.3a0,0,0,0,1,0,0H180a3.65,3.65,0,0,1-3.65-3.65v0A3.65,3.65,0,0,1,180,262.34Z"/><rect class="cls-37" x="176.32" y="168.94" width="153.53" height="93.4" rx="3.65"/><path class="cls-33" d="M179.94,168.94h73.15a0,0,0,0,1,0,0v93.4a0,0,0,0,1,0,0H179.94a3.62,3.62,0,0,1-3.62-3.62V172.56A3.62,3.62,0,0,1,179.94,168.94Z"/></g></g></g></svg>