<svg xmlns="http://www.w3.org/2000/svg" xmlns:xlink="http://www.w3.org/1999/xlink" viewBox="0 0 360 360"><defs><style>.cls-1,.cls-3,.cls-5,.cls-6,.cls-7{fill:none;}.cls-2{clip-path:url(#clip-path);}.cls-3{stroke:#fff;stroke-width:4px;}.cls-3,.cls-5,.cls-6,.cls-7{stroke-miterlimit:10;}.cls-4{fill:#fff;}.cls-5,.cls-6,.cls-7{stroke:#17479b;}.cls-5,.cls-6{stroke-width:3px;}.cls-6,.cls-7{stroke-linecap:round;}.cls-7{stroke-width:2.9px;}.cls-8{fill:#17479b;}.cls-9{fill:#eb1c24;}.cls-10{fill:#ea1c24;}</style><clipPath id="clip-path"><rect class="cls-1" x="-2193.38" y="617.31" width="1920" height="917.5"/></clipPath></defs><title>icon-web</title><g id="icon"><circle class="cls-3" cx="180" cy="180" r="174.5"/><circle class="cls-4" cx="180" cy="180" r="157.48"/><path class="cls-5" d="M179.49,53,78.26,125.92a.87.87,0,0,0,.51,1.58H281.23a.87.87,0,0,0,.51-1.58L180.51,53A.9.9,0,0,0,179.49,53Z"/><line class="cls-6" x1="102.9" y1="143.57" x2="102.9" y2="243.47"/><line class="cls-6" x1="122.1" y1="143.57" x2="122.1" y2="243.47"/><line class="cls-6" x1="237.49" y1="143.57" x2="237.49" y2="243.47"/><line class="cls-6" x1="256.68" y1="143.57" x2="256.68" y2="243.47"/><rect class="cls-7" x="81.11" y="257.37" width="198.4" height="15.9" rx="2.85"/><path class="cls-8" d="M151.16,194.53v-6h51.33v6Zm8.75,30.41v-65h9.16v28.6h3.12l24.66-28.6h10.47l-27.17,30.33,28.28,34.69H197.66L173.6,194.53h-4.53v30.41Z"/><path class="cls-8" d="M154.31,115.42v.35h50.62v6.09a.22.22,0,0,0,.22.22h36.62a.22.22,0,0,0,.22-.22v-6.44Z"/><path class="cls-4" d="M209.45,118.74v1.11h-.72v1h-1.08v-2.69a1.66,1.66,0,0,1,.42-1.21,1.63,1.63,0,0,1,1.2-.43,1.39,1.39,0,0,1,1.09.39,1.75,1.75,0,0,1,.36,1.21v2.73h-1.08v-2.65c0-.25-.09-.61-.44-.61s-.47.24-.47.61v.53Z"/><path class="cls-4" d="M215.34,116.64v4.22h-1.11v-4.22Z"/><path class="cls-4" d="M219.89,116.64v4.22h-1.22v-4.22Z"/><path class="cls-4" d="M229.17,116.53a2.1,2.1,0,0,1,1.54.65,2.23,2.23,0,0,1,0,3.14,2.22,2.22,0,1,1-3.13-3.15A2.22,2.22,0,0,1,229.17,116.53Zm0,1.08a1,1,0,0,0-.77.34,1.1,1.1,0,0,0-.31.8,1.09,1.09,0,0,0,.32.8,1.05,1.05,0,0,0,1.53,0,1.17,1.17,0,0,0,0-1.61A1,1,0,0,0,229.13,117.61Z"/><path class="cls-4" d="M235.08,120.86h-1v-1.8a.4.4,0,0,0-.4-.38.41.41,0,0,0-.39.38v1.8h-1v-1.72a1.41,1.41,0,0,1,.4-1,1.39,1.39,0,0,1,2,.07,1.57,1.57,0,0,1,.31,1Z"/><path class="cls-4" d="M239.26,119.5h-1.75a.71.71,0,0,1,0-.24.79.79,0,0,1,.05-.3h.77a.58.58,0,0,0-.57-.52c-.18,0-.71.08-.71.82s.51.85.66.85a.72.72,0,0,0,.47-.22l.56.67a1.61,1.61,0,0,1-1,.36,1.55,1.55,0,0,1-1.15-.46,1.52,1.52,0,0,1-.47-1.14,1.59,1.59,0,0,1,.47-1.15,1.58,1.58,0,0,1,1.16-.46,1.54,1.54,0,0,1,1.58,1.58A1.87,1.87,0,0,1,239.26,119.5Z"/><path class="cls-4" d="M223.87,120.86h-1v-1.8a.4.4,0,0,0-.39-.38.41.41,0,0,0-.4.38v1.8h-1v-1.72a1.45,1.45,0,0,1,.4-1,1.39,1.39,0,0,1,2,.07,1.57,1.57,0,0,1,.31,1Z"/><path class="cls-4" d="M213,116.64v4.22h-1.11v-4.22Z"/><path class="cls-9" d="M184.36,105.53v8.28h-3V102.44h4.41a7.11,7.11,0,0,1,4.54,1.31,5.21,5.21,0,0,1,1.95,4.28,5.66,5.66,0,0,1-1.66,4.22,5.88,5.88,0,0,1-4.3,1.63l-1.36,0v-3h.9c2,0,3.31-1.18,3.31-2.83s-1.32-2.5-3.26-2.5Z"/><path class="cls-9" d="M195.32,105.5v8.31h-2.77V105.5Zm-1.38-3.18a1.38,1.38,0,0,1,1,.39,1.29,1.29,0,0,1,.41.94,1.24,1.24,0,0,1-.39.94,1.37,1.37,0,0,1-1,.37,1.34,1.34,0,0,1-1-.37,1.24,1.24,0,0,1-.39-.94,1.29,1.29,0,0,1,.41-.94A1.34,1.34,0,0,1,193.94,102.32Z"/><path class="cls-9" d="M200.89,110.74v2.51a6.05,6.05,0,0,1-1.64.25,3.29,3.29,0,0,1-2.55-1.15,4,4,0,0,1-1-2.79,4,4,0,0,1,1.26-3,4.29,4.29,0,0,1,3.09-1.22,4.64,4.64,0,0,1,1.87.39,3.52,3.52,0,0,1,1.4,1,5.12,5.12,0,0,1,.85,3.17v2.73a5.16,5.16,0,0,1-1.26,3.61,4.24,4.24,0,0,1-3.29,1.39,5.13,5.13,0,0,1-1.56-.31v-2.83a2.55,2.55,0,0,0,1.23.33,2.12,2.12,0,0,0,1.65-.55,2.15,2.15,0,0,0,.46-1.59V109.6c0-.88-.45-1.66-1.41-1.66a1.49,1.49,0,0,0-1.64,1.49C198.39,111.5,200.7,110.84,200.89,110.74Z"/><path class="cls-9" d="M207.84,102.44H212q3.68,0,3.67,2.89a2.87,2.87,0,0,1-1.26,2.38,2.84,2.84,0,0,1,1.83,2.83,3.1,3.1,0,0,1-1.08,2.48,3,3,0,0,1-1.12.62,6.31,6.31,0,0,1-1.62.17h-1v-2.57h.92c.45,0,1.38,0,1.28-.94-.06-.52-.5-.72-1.2-.72h-1V106.9c.92,0,1.57-.19,1.64-.82s-.23-1-1.2-1h-1v8.68h-3Z"/><path class="cls-9" d="M221.83,111.05v2.81a4.62,4.62,0,0,1-.7.06,4.71,4.71,0,0,1-3.48-1.17,4.39,4.39,0,0,1,0-6.15,4.19,4.19,0,0,1,3.07-1.26,4.23,4.23,0,0,1,3.18,1.18,4.36,4.36,0,0,1,1.17,3.22v4.07h-2.77V110a2.25,2.25,0,0,0-.32-1.4,1.7,1.7,0,0,0-1.31-.41,1.53,1.53,0,0,0-1.47,1.58,1.38,1.38,0,0,0,1.51,1.53A3,3,0,0,0,221.83,111.05Z"/><path class="cls-9" d="M232.92,113.81h-2.77v-4.87a1,1,0,0,0-.94-.89.94.94,0,0,0-.94.89v4.87h-2.76v-4.63a3.82,3.82,0,0,1,1.07-2.74,3.76,3.76,0,0,1,5.5.18,4.26,4.26,0,0,1,.84,2.81Z"/><rect class="cls-9" x="233.35" y="102.44" width="2.77" height="11.38"/><polygon class="cls-9" points="241.25 105.5 239.02 108.53 241.99 113.81 238.89 113.81 236.24 108.39 238.36 105.5 241.25 105.5"/><polygon class="cls-8" points="168.69 102.1 165.75 109.06 162.94 102.1 159.57 102.1 164.18 113.81 167.25 113.81 171.89 102.1 168.69 102.1"/><path class="cls-8" d="M178.94,107.5a3,3,0,0,0,1.29-2.44q0-3-3.77-3h-4.23v11.65h4.67a6.08,6.08,0,0,0,1.65-.18,3.1,3.1,0,0,0,1.15-.63,3.17,3.17,0,0,0,1.11-2.54A2.92,2.92,0,0,0,178.94,107.5Zm-3.95-3h.87a2.83,2.83,0,0,1,.5,0,1.54,1.54,0,0,1,.44.16.92.92,0,0,1,.31.31.9.9,0,0,1,.12.48.84.84,0,0,1-.12.45,1,1,0,0,1-.3.32,1.57,1.57,0,0,1-.44.18,2.63,2.63,0,0,1-.49.05H175Zm2.86,6.23a.92.92,0,0,1-.29.3,1.68,1.68,0,0,1-.41.17,2.5,2.5,0,0,1-.47.05H175v-1.91h1.66a2.44,2.44,0,0,1,.48.05,1.3,1.3,0,0,1,.42.15.82.82,0,0,1,.41.75A.8.8,0,0,1,177.85,110.77Z"/><polygon class="cls-8" points="157.43 110.82 157.43 102.1 154.31 102.1 154.31 110.47 154.31 113.73 154.31 113.81 162.46 113.81 162.46 110.82 157.43 110.82"/><path class="cls-9" d="M207.33,105.5v8.31h-2.76V105.5ZM206,102.32a1.34,1.34,0,0,1,1,.39,1.25,1.25,0,0,1,.41.94,1.27,1.27,0,0,1-.38.94,1.52,1.52,0,0,1-2,0,1.27,1.27,0,0,1-.38-.94,1.25,1.25,0,0,1,.41-.94A1.34,1.34,0,0,1,206,102.32Z"/><circle class="cls-4" cx="139.33" cy="110.42" r="13.23"/><path class="cls-8" d="M126,99v22.77a1.93,1.93,0,0,0,1.94,1.93h22.76a1.93,1.93,0,0,0,1.94-1.93V99a1.93,1.93,0,0,0-1.94-1.93H128A1.93,1.93,0,0,0,126,99Zm13.31,23a11.68,11.68,0,0,1-10.11-17.46c.29,1,.62,2,1,3.17,1.41,4.57,4.49,11.58,4.49,11.58s4.22-2.16,6.41-3,6.55-2.12,6.55-2.12l-5-11.33-10.2,4.33,3.83,8.93,7.61-4s-2.16.76-3.72,1.23a19.23,19.23,0,0,0-3.28,1.43L134.31,108l7.62-3.1,3.9,8.71s-.75.19-2.87.79-7.1,2.65-7.1,2.65a45.4,45.4,0,0,1-3.1-5.88c-.85-1.9-2-5-2.87-7.62a11.65,11.65,0,1,1,9.43,18.5Z"/><path class="cls-4" d="M133.79,110.38a3.54,3.54,0,0,0-.26.85,3.82,3.82,0,0,0,.94.76Z"/><path class="cls-4" d="M138.85,114.88a4.15,4.15,0,0,0,1.29,1.11,3.59,3.59,0,0,0,2.11-2.88Z"/><path class="cls-4" d="M144.14,108.11a2.88,2.88,0,0,0-.77-.12,5.46,5.46,0,0,0,1-1.9,4,4,0,0,0-.26-2.65,3.56,3.56,0,0,0-3.71,1.49,3,3,0,0,0-.35.69,5.46,5.46,0,0,0-1.48-1.58,3.94,3.94,0,0,0-2.6-.56,3.54,3.54,0,0,0,.27,4,3.18,3.18,0,0,0,.55.55,5.35,5.35,0,0,0-2,.93l-.18.14,1.27,3.35a3.49,3.49,0,0,0,1.44-.22,2.83,2.83,0,0,0,.69-.36,5.37,5.37,0,0,0,.28,2.15l.06.16a14.61,14.61,0,0,1,1.72-.66c.65-.19,1.43-.45,2.12-.69a1.34,1.34,0,0,0,0-.2,2.82,2.82,0,0,0-.13-.77,5.56,5.56,0,0,0,1.76.4h0a2.16,2.16,0,0,0,.36,0,3.91,3.91,0,0,0,2.43-1.07,3.54,3.54,0,0,0-2.56-3.06"/><path class="cls-10" d="M142.1,112.87v-.09c0-1.64-1.69-3-1.95-3.23a6.31,6.31,0,0,1-2,2.26,5.41,5.41,0,0,0,.31,2.27l0,0a13.59,13.59,0,0,1,1.66-.63c.6-.18,1.31-.41,1.95-.63"/><path class="cls-10" d="M139.78,108.7a6.28,6.28,0,0,1,.28-3,5.44,5.44,0,0,0-1.58-1.66,3.38,3.38,0,0,0-2.4-.46,3.36,3.36,0,0,0,.22,3.65,5.13,5.13,0,0,0,3.48,1.47"/><path class="cls-10" d="M143.29,108a5.53,5.53,0,0,0,1.08-2,3.38,3.38,0,0,0-.3-2.42,3.37,3.37,0,0,0-3.4,1.34c-.92,1.36-.41,3.44-.32,3.76a6.29,6.29,0,0,1,2.94-.66"/><path class="cls-10" d="M138.9,114.86a3.48,3.48,0,0,0,1.24,1,3.41,3.41,0,0,0,2-2.67Z"/><path class="cls-10" d="M135.91,112.3a3,3,0,0,0,1.27-.19c1.55-.56,2.36-2.54,2.48-2.85a6.21,6.21,0,0,1-2.77-1.19,5.36,5.36,0,0,0-2.06,1l-.11.09Z"/><path class="cls-10" d="M144.26,108.31a5.11,5.11,0,0,0-3.68.86,6.25,6.25,0,0,1,1.54,2.59,5.42,5.42,0,0,0,2.25.41,3.46,3.46,0,0,0,2.22-1,3.38,3.38,0,0,0-2.33-2.82"/><path class="cls-10" d="M133.83,110.48a2.88,2.88,0,0,0-.18.72,3.62,3.62,0,0,0,.75.61Z"/></g></svg>