<svg xmlns="http://www.w3.org/2000/svg" viewBox="0 0 254.74 58.51"><defs><style>.cls-1{fill:#17479b;}.cls-2{fill:#fff;}.cls-3{fill:#eb1c24;}.cls-4{fill:#ea1c24;}</style></defs><title>logo-LVBDigiBank</title><g id="Layer_2" data-name="Layer 2"><g id="icon"><path class="cls-1" d="M62.17,40.22V41H173.35V54.38a.47.47,0,0,0,.47.47h80.45a.47.47,0,0,0,.47-.47V40.22Z"/><path class="cls-2" d="M183.28,47.52V50h-1.6v2.21h-2.37v-5.9a3.64,3.64,0,0,1,.93-2.66,3.55,3.55,0,0,1,2.63-.95,3.1,3.1,0,0,1,2.41.86,3.85,3.85,0,0,1,.78,2.65v6h-2.37V46.37c0-.55-.2-1.36-1-1.36s-1,.54-1,1.36v1.15Z"/><path class="cls-2" d="M196.2,42.9v9.28h-2.43V42.9Z"/><path class="cls-2" d="M206.2,42.9v9.28h-2.67V42.9Z"/><path class="cls-2" d="M226.59,42.67A4.6,4.6,0,0,1,230,44.1a4.88,4.88,0,1,1-8.34,3.43,4.67,4.67,0,0,1,1.44-3.45A4.84,4.84,0,0,1,226.59,42.67Zm-.09,2.38a2.21,2.21,0,0,0-1.68.73,2.55,2.55,0,0,0,0,3.51,2.24,2.24,0,0,0,1.68.73,2.28,2.28,0,0,0,1.7-.72,2.6,2.6,0,0,0,0-3.53A2.28,2.28,0,0,0,226.5,45.05Z"/><path class="cls-2" d="M239.57,52.18h-2.16v-4a.88.88,0,0,0-.87-.84.91.91,0,0,0-.86.84v4h-2.15V48.4a3.08,3.08,0,0,1,.87-2.23,3.05,3.05,0,0,1,4.48.14,3.46,3.46,0,0,1,.69,2.29Z"/><path class="cls-2" d="M248.75,49.2H244.9a1.85,1.85,0,0,1-.09-.54,1.88,1.88,0,0,1,.12-.66h1.68a1.26,1.26,0,0,0-1.24-1.14c-.39,0-1.56.18-1.57,1.8s1.14,1.88,1.45,1.88a1.61,1.61,0,0,0,1.05-.5l1.23,1.48a3.57,3.57,0,0,1-2.25.79,3.5,3.5,0,0,1-2.54-1,3.59,3.59,0,0,1,0-5,3.48,3.48,0,0,1,2.55-1,3.42,3.42,0,0,1,3.48,3.47Q248.78,48.87,248.75,49.2Z"/><path class="cls-2" d="M215,52.18H212.8v-4a.88.88,0,0,0-.87-.84.91.91,0,0,0-.86.84v4h-2.16V48.4a3,3,0,0,1,.88-2.23,2.85,2.85,0,0,1,2.15-.91,2.89,2.89,0,0,1,2.33,1.05A3.51,3.51,0,0,1,215,48.6Z"/><path class="cls-2" d="M191.13,42.9v9.28H188.7V42.9Z"/><path class="cls-3" d="M128.17,18.5V36.7h-6.66v-25h9.68q6.38,0,10,2.89A11.43,11.43,0,0,1,145.46,24a12.41,12.41,0,0,1-3.67,9.27,12.9,12.9,0,0,1-9.42,3.59c-.46,0-2,0-3-.08V30.2h2c4.33,0,7.27-2.58,7.27-6.21,0-3.4-2.9-5.49-7.16-5.49Z"/><path class="cls-3" d="M152.23,18.45V36.7h-6.08V18.45Zm-3-7a3,3,0,0,1,2.13.87,2.86,2.86,0,0,1,0,4.12,3.34,3.34,0,0,1-4.36,0,2.72,2.72,0,0,1-.85-2.07,2.75,2.75,0,0,1,.9-2A3,3,0,0,1,149.2,11.45Z"/><path class="cls-3" d="M164.48,30v5.5a12.67,12.67,0,0,1-3.61.55,7.31,7.31,0,0,1-5.61-2.5,8.78,8.78,0,0,1-2.3-6.14,8.89,8.89,0,0,1,2.76-6.61,9.4,9.4,0,0,1,6.8-2.69,10.19,10.19,0,0,1,4.1.86,7.79,7.79,0,0,1,3.07,2.31q1.88,2.4,1.87,7v6a11.33,11.33,0,0,1-2.77,7.94,9.33,9.33,0,0,1-7.23,3,11.55,11.55,0,0,1-3.42-.68V38.27a5.79,5.79,0,0,0,2.71.74,4.78,4.78,0,0,0,3.63-1.22,4.75,4.75,0,0,0,1-3.49V27.44c0-1.92-1-3.65-3.1-3.65-1.21,0-3.72.62-3.6,3.28C159,31.62,164.05,30.17,164.48,30Z"/><path class="cls-3" d="M179.74,11.71h9.08q8.07,0,8.07,6.35a6.33,6.33,0,0,1-2.76,5.24,6.24,6.24,0,0,1,4,6.2A6.84,6.84,0,0,1,195.78,35a6.61,6.61,0,0,1-2.47,1.35,13,13,0,0,1-3.55.39h-2.19V31.05h2c1,0,3-.08,2.8-2.06-.13-1.15-1.1-1.59-2.64-1.59h-2.2V21.51c2,0,3.47-.42,3.6-1.8.1-1.08-.5-2.07-2.62-2.07H186.4V36.7h-6.66Z"/><path class="cls-3" d="M210.46,30.63V36.8a9.88,9.88,0,0,1-1.54.14c-2.75,0-5.52-.5-7.64-2.57a9.08,9.08,0,0,1-2.74-6.79,9.46,9.46,0,0,1,9.52-9.5,9.34,9.34,0,0,1,7,2.59,9.66,9.66,0,0,1,2.55,7.08v9h-6.07V28.24c0-1-.06-2.42-.71-3.08a3.69,3.69,0,0,0-2.87-.9,3.36,3.36,0,0,0-3.22,3.47A3,3,0,0,0,208,31.1,6.43,6.43,0,0,0,210.46,30.63Z"/><path class="cls-3" d="M234.82,36.7h-6.07V26a2.15,2.15,0,0,0-2.07-2,2.07,2.07,0,0,0-2.06,2V36.7h-6.07V26.52a8.29,8.29,0,0,1,2.36-6A8.21,8.21,0,0,1,233,20.9a9.31,9.31,0,0,1,1.85,6.17Z"/><rect class="cls-3" x="235.78" y="11.71" width="6.07" height="24.99"/><polygon class="cls-3" points="253.11 18.45 248.22 25.09 254.74 36.7 247.94 36.7 242.11 24.78 246.76 18.45 253.11 18.45"/><polygon class="cls-1" points="93.75 10.97 87.28 26.25 81.12 10.97 73.71 10.97 83.84 36.7 90.57 36.7 100.77 10.97 93.75 10.97"/><path class="cls-1" d="M116.25,22.84a6.47,6.47,0,0,0,2.83-5.36q0-6.51-8.27-6.51h-9.3V36.56h10.26a13.63,13.63,0,0,0,3.64-.39,6.81,6.81,0,0,0,2.53-1.39,7,7,0,0,0,2.42-5.58A6.39,6.39,0,0,0,116.25,22.84Zm-8.67-6.51h1.91a5.78,5.78,0,0,1,1.1.11,3,3,0,0,1,1,.36,1.93,1.93,0,0,1,.68.68,2,2,0,0,1,.26,1,1.8,1.8,0,0,1-.26,1,2.1,2.1,0,0,1-.67.69,3.24,3.24,0,0,1-.95.4,4.81,4.81,0,0,1-1.07.12h-2ZM113.87,30a2,2,0,0,1-.65.66,2.78,2.78,0,0,1-.9.38,4.46,4.46,0,0,1-1,.12h-3.71V27h3.65a5.37,5.37,0,0,1,1.06.11,3,3,0,0,1,.92.34,2,2,0,0,1,.66.64,2,2,0,0,1,.24,1A1.79,1.79,0,0,1,113.87,30Z"/><polygon class="cls-1" points="69.01 30.13 69.01 10.97 62.16 10.97 62.16 29.35 62.16 36.51 62.16 36.7 80.06 36.7 80.06 30.13 69.01 30.13"/><path class="cls-3" d="M178.62,18.45V36.7h-6.07V18.45Zm-3-7a3,3,0,0,1,2.13.87,2.78,2.78,0,0,1,.89,2,2.72,2.72,0,0,1-.85,2.07,3.33,3.33,0,0,1-4.35,0,2.72,2.72,0,0,1-.85-2.07,2.75,2.75,0,0,1,.9-2A3,3,0,0,1,175.6,11.45Z"/><circle class="cls-2" cx="29.25" cy="29.25" r="29.07"/><path class="cls-1" d="M0,4.25v50a4.25,4.25,0,0,0,4.25,4.25h50a4.25,4.25,0,0,0,4.25-4.25v-50A4.25,4.25,0,0,0,54.26,0h-50A4.25,4.25,0,0,0,0,4.25ZM29.23,54.88A25.63,25.63,0,0,1,7,16.54c.63,2.08,1.35,4.42,2.14,7,3.1,10,9.88,25.42,9.88,25.42s9.26-4.74,14.06-6.52S47.5,37.74,47.5,37.74L36.57,12.85l-22.4,9.52L22.57,42l16.72-8.72S34.56,34.94,31.11,36a42,42,0,0,0-7.19,3.14L18.22,24,35,17.22l8.57,19.13s-1.64.41-6.3,1.72S21.64,43.9,21.64,43.9A99.61,99.61,0,0,1,14.83,31C13,26.8,10.47,19.88,8.52,14.23A25.59,25.59,0,1,1,29.23,54.88Z"/><path class="cls-2" d="M17.08,29.16A8.5,8.5,0,0,0,16.51,31a8,8,0,0,0,2.08,1.66Z"/><path class="cls-2" d="M28.2,39.05A9.2,9.2,0,0,0,31,41.48a7.89,7.89,0,0,0,4.65-6.33Z"/><path class="cls-2" d="M39.83,24.16a7.21,7.21,0,0,0-1.71-.25,11.88,11.88,0,0,0,2.29-4.18,8.72,8.72,0,0,0-.58-5.82,7.83,7.83,0,0,0-8.15,3.27,6.93,6.93,0,0,0-.75,1.52,12,12,0,0,0-3.26-3.46A8.67,8.67,0,0,0,22,14a7.8,7.8,0,0,0,.58,8.75A6.64,6.64,0,0,0,23.77,24a11.85,11.85,0,0,0-4.31,2l-.39.33,2.77,7.36A7.76,7.76,0,0,0,25,33.18a6.85,6.85,0,0,0,1.52-.79,11.91,11.91,0,0,0,.6,4.72c.05.12.09.24.14.35A32.56,32.56,0,0,1,31.05,36c1.44-.43,3.15-1,4.65-1.51,0-.15,0-.3,0-.45a6.87,6.87,0,0,0-.28-1.69,12.16,12.16,0,0,0,3.87.88h.81a8.69,8.69,0,0,0,5.36-2.35,7.82,7.82,0,0,0-5.62-6.74"/><path class="cls-4" d="M35.34,34.62v-.18c-.12-3.61-3.71-6.66-4.28-7.11a13.81,13.81,0,0,1-4.37,5,12,12,0,0,0,.67,5l.05.11A32.69,32.69,0,0,1,31.05,36c1.32-.39,2.88-.91,4.29-1.39"/><path class="cls-4" d="M30.24,25.46a13.85,13.85,0,0,1,.61-6.59,11.73,11.73,0,0,0-3.47-3.63,7.48,7.48,0,0,0-5.27-1s-2.49,4.17.49,8c2.22,2.85,6.92,3.21,7.64,3.23"/><path class="cls-4" d="M37.94,23.88a11.8,11.8,0,0,0,2.39-4.43,7.47,7.47,0,0,0-.67-5.32s-4.73-1.08-7.46,2.94c-2,3-.91,7.57-.72,8.27a13.8,13.8,0,0,1,6.46-1.46"/><path class="cls-4" d="M28.31,39A7.77,7.77,0,0,0,31,41.2a7.49,7.49,0,0,0,4.28-5.86Z"/><path class="cls-4" d="M21.74,33.38a6.85,6.85,0,0,0,2.8-.41c3.39-1.23,5.18-5.59,5.43-6.27a13.79,13.79,0,0,1-6.08-2.62,11.89,11.89,0,0,0-4.53,2.18l-.23.2Z"/><path class="cls-4" d="M40.09,24.62c-3.48-1-7.48,1.47-8.08,1.87a13.86,13.86,0,0,1,3.37,5.7,12.19,12.19,0,0,0,4.95.9,7.51,7.51,0,0,0,4.86-2.28s-.43-4.84-5.1-6.19"/><path class="cls-4" d="M17.17,29.37a7.08,7.08,0,0,0-.4,1.59,7.63,7.63,0,0,0,1.65,1.33Z"/></g></g></svg>